<?xml version="1.0" encoding="UTF-8"?>
<svg id="_레이어_2" data-name="레이어 2" xmlns="http://www.w3.org/2000/svg" xmlns:xlink="http://www.w3.org/1999/xlink" viewBox="0 0 1492.27 567.73">
  <defs>
    <style>
      .cls-1 {
        opacity: .81;
      }

      .cls-2 {
        fill: url(#linear-gradient-2);
      }

      .cls-3, .cls-4, .cls-5, .cls-6, .cls-7, .cls-8 {
        fill: #fff;
      }

      .cls-4 {
        opacity: .12;
      }

      .cls-9 {
        fill: #1c1e21;
        opacity: .27;
      }

      .cls-5 {
        opacity: .18;
      }

      .cls-10 {
        fill: url(#linear-gradient-6);
      }

      .cls-11 {
        opacity: .28;
      }

      .cls-11, .cls-12, .cls-13 {
        fill: #513116;
      }

      .cls-14 {
        fill: url(#linear-gradient-10);
      }

      .cls-15 {
        fill: url(#radial-gradient);
      }

      .cls-6 {
        opacity: .43;
      }

      .cls-16 {
        fill: url(#linear-gradient-5);
      }

      .cls-7 {
        opacity: .35;
      }

      .cls-8 {
        opacity: .22;
      }

      .cls-17 {
        fill: url(#linear-gradient-7);
      }

      .cls-18 {
        fill: url(#linear-gradient-9);
      }

      .cls-19 {
        fill: url(#linear-gradient-3);
      }

      .cls-20 {
        fill: url(#linear-gradient);
      }

      .cls-21 {
        fill: url(#linear-gradient-4);
      }

      .cls-13 {
        opacity: .36;
      }

      .cls-22 {
        fill: url(#linear-gradient-8);
      }
    </style>
    <linearGradient id="linear-gradient" x1="749.38" y1="122.3" x2="749.38" y2="441.74" gradientUnits="userSpaceOnUse">
      <stop offset="0" stop-color="#ae936b"/>
      <stop offset="1" stop-color="#f2f0e5"/>
    </linearGradient>
    <linearGradient id="linear-gradient-2" x1="638.43" y1="150.63" x2="638.43" y2="322.65" gradientUnits="userSpaceOnUse">
      <stop offset="0" stop-color="#7c6144"/>
      <stop offset=".17" stop-color="#806549"/>
      <stop offset=".38" stop-color="#8e7059"/>
      <stop offset=".61" stop-color="#a58373"/>
      <stop offset=".85" stop-color="#c59e97"/>
      <stop offset="1" stop-color="#dcb1b1"/>
    </linearGradient>
    <linearGradient id="linear-gradient-3" x1="694.6" y1="-18.05" x2="624.73" y2="169.86" gradientUnits="userSpaceOnUse">
      <stop offset=".53" stop-color="#cf887a"/>
      <stop offset=".62" stop-color="#c48171"/>
      <stop offset=".78" stop-color="#a96e5a"/>
      <stop offset=".98" stop-color="#7c5135"/>
      <stop offset="1" stop-color="#774e31"/>
    </linearGradient>
    <linearGradient id="linear-gradient-4" x1="1487.99" y1="231.21" x2="1171.43" y2="280.78" xlink:href="#linear-gradient-3"/>
    <linearGradient id="linear-gradient-5" x1="1127.21" y1="504.28" x2="1086.85" y2="380.35" xlink:href="#linear-gradient-3"/>
    <linearGradient id="linear-gradient-6" x1="310.99" y1="544.07" x2="321.85" y2="435.01" xlink:href="#linear-gradient-3"/>
    <linearGradient id="linear-gradient-7" x1="723.63" y1="567.73" x2="717.25" y2="444.5" xlink:href="#linear-gradient-3"/>
    <linearGradient id="linear-gradient-8" x1="834.29" y1="522.38" x2="775.75" y2="491.7" xlink:href="#linear-gradient-3"/>
    <linearGradient id="linear-gradient-9" x1="845.49" y1="501.04" x2="786.94" y2="470.35" xlink:href="#linear-gradient-3"/>
    <linearGradient id="linear-gradient-10" x1="855.02" y1="482.84" x2="796.48" y2="452.15" xlink:href="#linear-gradient-3"/>
    <radialGradient id="radial-gradient" cx="162.5" cy="298.04" fx="162.5" fy="298.04" r="25.18" gradientUnits="userSpaceOnUse">
      <stop offset="0" stop-color="#fbae17"/>
      <stop offset=".35" stop-color="#f8ac17"/>
      <stop offset=".52" stop-color="#f1a71a"/>
      <stop offset=".66" stop-color="#e49e1e"/>
      <stop offset=".77" stop-color="#d19123"/>
      <stop offset=".87" stop-color="#b9812b"/>
      <stop offset=".96" stop-color="#9c6d34"/>
      <stop offset="1" stop-color="#8c6239"/>
    </radialGradient>
  </defs>
  <g id="Layer_1" data-name="Layer 1">
    <g>
      <path class="cls-20" d="M1474.27,382.88c-37.89-5.3-74.85-15.61-112.49-22.11-10.94-1.9-21.94-3.46-33.04-4.49-48.73-4.53-98.71-3.38-147.54,1.2-3.29,.31-6.57,.63-9.84,.97-.49,.05-.98,.1-1.47,.15-50.58,5.3-99.48,20.51-146.21,40.14-12.87,5.41-25.85,10.37-38.97,14.87-4.66,1.6-9.34,3.14-14.04,4.61-31.4,9.93-63.55,17.15-96.54,21.29-15.41,1.94-30.87,3.54-46.34,4.79-3.9,.32-7.78,.61-11.68,.87-11.22,.8-22.45,1.38-33.69,1.78-.92,.04-1.82,.07-2.73,.09-23.05,.77-46.12,.71-69.17-.2-23.47-.92-46.93-1.02-70.38-.81l-2.66,.03c-30.69,.3-61.39,1.08-92.1,1.11-55.31,.06-111.02-2.9-166.19-6.71-3.24-.23-6.5-.46-9.74-.7-1.41-.11-2.82-.21-4.22-.32-23.33-1.79-46.62-3.99-69.91-6.19-9.28-.88-18.59-1.62-27.89-2.44-2.7-.24-5.41-.49-8.11-.74-15.35-1.49-30.63-3.4-45.69-6.78-24.34-5.46-48.49-11.91-72.75-17.74-21.79-5.23-46.71-11.62-62.16-29.03-.04-.04-.08-.07-.11-.12,4.49-1.27,8.84-3.14,12.95-5.64,8.64-5.27,15.79-12.31,23.02-19.27,1.83-1.76,3.67-3.52,5.54-5.24,1.2-1.1-.42-2.76-1.68-1.82-2.02,1.5-4.01,3.06-5.99,4.65-8.04,6.45-15.96,13.32-25.06,18.02-4.03,2.08-8.26,3.54-12.57,4.39-3.01,.6-6.07,.91-9.13,.92-5.53,.03-11.09-.87-16.47-2.64-9.99-3.29-23.61-10.74-31.55-20.19-1.52-1.81-2.84-3.69-3.88-5.64-3.91-7.29-3.96-15.4,3.28-23.53,.38-.43,.78-.86,1.21-1.29,8.13-8.23,18.94-13.45,29.28-18.32,14.25-6.71,28.69-12.99,42.75-20.08,28.3-14.26,54.56-32.5,82-48.31,26.9-15.49,54.53-29.85,83.48-41.12,1.9-.74,3.8-1.47,5.7-2.2,1.25-.47,2.51-.93,3.77-1.39,28.53-10.55,57.92-18.9,87.48-25.88,53.58-12.65,107.48-20.16,162.19-20.38,7.8-.03,15.63,.08,23.47,.36,3.07,.1,6.15,.23,9.22,.39,.98,.05,1.96,.1,2.94,.15,33.87,1.86,67.71,5.68,100.86,12.91,16.43,3.57,32.7,7.83,48.89,12.37,2.53,.71,5.06,1.42,7.59,2.15,13.27,3.8,26.49,7.76,39.72,11.69,32.23,9.56,64.73,18.18,96.98,27.65,32.1,9.44,64.08,19.32,96.2,28.65,31.89,9.26,63.76,18.19,96.78,22.34,32.63,4.1,65.67,4.23,98.36,.72,31.14-3.34,61.4-10.37,90.49-22.03,9.87-3.96,19.43-8.4,28.75-13.25,17.89-9.3,34.89-20.1,51.55-31.81,24.09-16.93,49.13-32.64,72.72-50.24,24.14-18.01,47.45-37.39,74.05-51.76,6.64-3.58,13.55-7.14,20.88-9.05,2.56-.66,7.21-2.07,9.55-.17,3.53,2.89,.43,10.6-1.08,13.68-1.62,3.3-3.68,6.41-6.01,9.37-.82,1.05-1.67,2.08-2.55,3.09-4.67,5.39-10.05,10.34-14.87,15.14-8.34,8.28-16.63,16.51-25.93,23.76-10.84,8.45-23.03,16.25-36.73,18.77-2.51,.46-1.61,4.33,.9,3.87,25.34-4.61,45.81-24.76,63.38-42.19,5.43-5.38,10.91-10.77,15.92-16.55,2.58,3.72,2.76,8.46,1.02,13.16-2.46,6.62-7.39,12.15-12.32,17.2-.73,.75-1.48,1.49-2.21,2.23-.02,.02-.05,.05-.07,.06-5.15,5.18-10.48,10.17-16.16,14.79-24.92,20.22-54.38,32.8-84.3,43.55-2.04,.73-1.44,3.94,.79,3.38,28.41-7.11,56.06-19.26,79.45-36.97,8.25-6.24,16.17-13.2,23.32-20.79,.06,.19,.13,.41,.2,.62,1.75,6.14-1.33,12.98-4.58,18.04-3.37,5.26-7.73,10.06-12.56,14.41-.58,.52-1.17,1.04-1.77,1.55-5.06,4.35-10.57,8.23-15.94,11.61-11.12,7.02-23.25,12.25-35.73,16.34-6.21,2.03-12.37,4.22-18.59,6.23-6.26,2.01-12.98,3.38-18.79,6.49-1.56,.83-1.09,3.55,.8,3.5,6.08-.16,12.05-2,17.95-3.42,6.33-1.52,12.73-3.01,18.88-5.2,11.51-4.11,22.75-8.98,33.19-15.37,6.03-3.68,11.85-7.83,17.28-12.43-2.56,6.28-7.04,11.99-11.24,17.19-11.49,14.21-25.05,25.87-40.68,35.43-3.01,1.85-6.09,3.62-9.2,5.32-.52-.12-1.04-.23-1.54-.33-9.52-1.98-20.88-2.53-30.04,1.32-1.41,.6-.53,3,.95,2.54,7.38-2.32,16-1.56,23.92,.04,2.44,.49,4.81,1.06,7.06,1.65,.68,.18,1.44,.38,2.24,.61,7.18,2.06,18.39,6.35,18,14.65-.36,7.26-11.04,11.46-16.85,13.67-21.53-3.19-43.54-4.29-64.03,3.28-1.02,.37-.73,1.96,.39,1.69,17.27-4.12,35.52-3.72,53.33-1.49,3.8,.47,7.58,1.03,11.33,1.65,3.44,.56,6.87,1.17,10.24,1.81,12.14,2.3,24.11,4.41,35.77,8.61,3.44,1.23,13.37,5.29,9.88,10.69-1.49,2.29-5.52,2.59-8.6,3.49-3.33-.72-6.63-1.33-9.84-1.92-13.12-2.44-26.17-5.38-39.41-7.19-15.18-2.07-30.77-2.85-45.11,3.43-1.02,.45-.38,2.16,.69,1.84,11.09-3.39,23.38-2.83,34.82-1.71,12.54,1.23,24.87,3.88,37.18,6.48,10.76,2.27,21.78,3.92,32.14,7.76,4.32,1.61,23.19,10.23,15.36,16.8-.73,.61-1.52,1.16-2.36,1.65-1.6-.47-3.2-.92-4.8-1.36-7.32-2.03-14.55-4.38-21.94-6.24-20.59-5.18-41.4-7.85-62.63-7.91-2.4,0-2.54,3.52-.15,3.72,16.48,1.35,33.09,3.45,49.26,6.92,10.54,2.25,20.86,5.3,31.18,8.41,2.3,.69,4.59,1.38,6.88,2.08,.47,.14,.94,.28,1.41,.43,4.63,1.41,9.32,2.94,13.59,5.23,2.3,1.24,7.32,3.9,6.67,7.25-.31,1.58-1.68,2.74-3.57,3.58-5.73-2.86-11.98-4.87-17.86-7.17-4.72-1.86-9.44-3.72-14.22-5.47-1.68-.61-3.37-1.21-5.05-1.8-3.28-1.12-6.59-2.18-9.92-3.13-8.08-2.3-16.38-3.77-24.76-2.28-.81,.14-.71,1.5,.14,1.47,18.45-.62,38.08,9.55,54.75,16.42,3.06,1.26,6.43,2.45,9.75,3.82,2.95,1.21,5.87,2.57,8.49,4.24,2.51,1.59,4.74,3.47,6.48,5.78,7.67,10.13-3.59,10.5-10.74,9.5Z"/>
      <path class="cls-2" d="M1258.37,303.64s-.01,0-.02,0c-4.03,.73-8.45,1.16-12.79,1.4-7.8,.44-15.36,.29-20.02,.23-13.23-.15-25.38,2.28-39.16,7.08-10.73,3.74-17.2,2.43-28.28,1.58-20.74-1.59-40.79,4.62-61.77,1.72-10.44-1.44-20.86-3.86-31.5-2.5-10.71,1.37-20.13,7.56-30.77,9.2-17.22,2.65-31.99-5.46-49.66-1.3-9.27,2.18-19.04,6.16-28.73,5.05-8.29-.95-15.88-5.67-23.99-7.48-14.71-3.27-34.26-6.53-49.34-5.64-19.03,1.13-35.34,13.8-54.33,15.93-18.15,2.03-36.73-2.35-52.69-10.67-15.52-8.09-30.07-20.17-47.9-22.99-19.52-3.09-34.98,8.49-52.36,14.75-16.8,6.05-33.98,8.34-51.12,2.12-14.94-5.42-23.37-7.36-39.35-3.6-16.37,3.85-25.21,1.27-41.05-2.58-14.93-3.63-25.91,3.72-40.18,6.9-13.03,2.9-22.39-3.07-34.72-3.63-13.92-.63-28.18,7.42-41.9,9.51-14.15,2.15-29.24,.28-42.61-4.74-9.97-3.75-18.52-9.38-29.66-8.28-9.21,.9-17.09,4.7-26.67,4.51-7.35-.15-14.64-1.7-21.77-2.91-14.63-2.5-28.97-9.96-43.94-11.29-19.75-1.75-41.95,.74-61.28,3.93-18.36,3.03-32.54,14.73-50.26,19-22.16,5.34-44.05-1.28-65.94-4.75-19.25-3.05-31.1,5.8-49.08,8.31-6.54,.92-12.65-.06-18.45-2.12,.38-.43,.78-.86,1.21-1.29,8.13-8.23,18.94-13.45,29.28-18.32,14.25-6.71,28.69-12.99,42.75-20.08,28.3-14.26,54.56-32.5,82-48.31,26.9-15.49,54.53-29.85,83.48-41.12,1.9-.74,3.8-1.47,5.7-2.2,1.25-.47,2.51-.93,3.77-1.39,28.53-10.55,57.92-18.9,87.48-25.88,61.23-14.45,122.88-22.19,185.66-20.03,3.07,.1,6.15,.23,9.22,.39,.98,.05,1.96,.1,2.94,.15,33.87,1.86,67.71,5.68,100.86,12.91,16.43,3.57,32.7,7.83,48.89,12.37,2.53,.71,5.06,1.42,7.59,2.15,13.27,3.8,26.49,7.76,39.72,11.69,32.23,9.56,64.73,18.18,96.98,27.65,32.1,9.44,64.08,19.32,96.2,28.65,31.89,9.26,63.76,18.19,96.78,22.34,32.63,4.1,65.67,4.23,98.36,.72,10.95-1.17,21.78-2.81,32.49-4.93,1.53-.3,3.06-.61,4.58-.94,4.8,3.85,9.44,7.88,14.41,11.51,7.06,5.16,14.33,9.82,22.19,13.68,15.39,7.56,31.9,12.63,48.05,18.28,2.21,.78,2.98,3.98,.68,5.24Z"/>
      <path class="cls-19" d="M716.1,129.98c2.14,3.21,.9,8.11,.06,11.54-.31,1.28-.68,2.53-1.11,3.77-1,2.89-2.32,5.67-3.89,8.32-1.81,3.05-3.88,5.91-6.12,8.65-8.99-2.55-18-5.01-27.05-7.31-33.97-8.69-68.28-14.49-103.2-17.63-6.19-.56-12.39-1.04-18.6-1.45,7.17-5.61,13.99-11.65,20.98-17.5,.06-.05,.12-.1,.17-.14,2.39-2,4.76-3.99,7.13-6,15.58-13.2,30.67-26.67,44.52-41.83,15.13-16.56,27.83-35.78,45.3-50.07,4.02-3.29,8.29-6.14,12.76-8.79,3.8-2.26,8.62-5.61,13.25-5.4,10.07,.48,5.27,13.39,1.51,20.97-.88,1.78-1.7,3.27-2.26,4.23-.21,.38-.44,.76-.67,1.13-2.75,4.6-5.88,8.92-9.26,13.05-4.22,5.16-8.82,10.02-13.55,14.74-8.26,8.24-17.34,16.5-24.01,26.13-.67,.97,.66,1.93,1.5,1.26,9.47-7.54,18.72-15.9,27.37-24.37,4.36-4.27,8.64-8.69,12.61-13.35,3.43-4.03,6.64-8.24,9.48-12.71,1.13-1.78,2.32-3.69,3.47-5.69,2.54,.1,4.89,.77,6.63,2.4,5.46,5.12,.62,15.82-3.11,22.25-.66,1.14-1.29,2.15-1.82,2.97-.38,.6-.78,1.19-1.18,1.78-1.43,2.07-2.98,4.07-4.62,6-6.24,7.37-13.78,13.79-21.12,19.87-10.59,8.77-23.11,17.24-30.91,28.8-1.08,1.6,1.07,3.15,2.45,2.06,11.69-9.2,23.47-18.38,35.03-27.75,5.9-4.77,11.7-9.83,16.79-15.49,3.86-4.29,7.32-8.91,10.1-14,3.21,.22,6.19,1.2,7.92,3.64,5.04,7.13-2.24,20.04-6.05,26.01-1.43,2.24-2.99,4.39-4.66,6.44-.82,1.03-1.67,2.03-2.55,3.01-1.09,1.22-2.22,2.42-3.37,3.59-4.6,4.65-9.65,8.87-14.78,12.84-5.45,4.21-11.2,7.97-16.76,12.03-2.95,2.15-6.38,4.36-9.52,6.79-2.21,1.71-4.29,3.52-5.95,5.49-1.36,1.62,.1,3.83,2.14,3.01,4.41-1.78,8.86-4.76,13.04-7.65,1.5-1.04,2.97-2.07,4.39-3.03,5.71-3.86,11.28-8.03,16.67-12.31,3.64-2.9,7.26-5.95,10.7-9.2,2.45-2.31,4.8-4.71,7.02-7.23,2.08,4.65,.13,9.87-2.36,14.28-.41,.72-.83,1.42-1.25,2.09-.24,.37-.48,.74-.72,1.12-.92,1.41-1.9,2.78-2.95,4.12-3.74,4.8-8.15,9.14-12.98,12.98-5.06,4.04-10.57,7.52-16.17,10.4-1.27,.66-.5,2.58,.86,2.31,8.25-1.65,14.97-5.93,21.08-11.39,1.1-.98,2.19-2.01,3.25-3.07,3.09-3.04,6.29-6.52,9.02-10.3,2.33,.76,4.27,1.96,5.36,3.59Z"/>
      <path class="cls-21" d="M1474.27,382.88c-48.9-6.85-96.26-22.03-145.52-26.61-37.97-3.53-76.7-3.62-115.05-1.31,.62-2.1,1.35-4.17,2.17-6.19,3.6-8.83,9.42-16.85,15.8-23.87,7.69-8.47,16.64-15.76,26.68-21.26,0,0,.01,0,.02,0,2.3-1.25,1.53-4.46-.68-5.24-16.15-5.64-32.66-10.72-48.05-18.28-7.86-3.86-15.13-8.52-22.19-13.68-4.97-3.63-9.61-7.66-14.41-11.51,6.32-1.34,12.59-2.85,18.81-4.56,11.7-3.19,23.24-7.04,34.61-11.59,28.82-11.55,54.97-27.25,80.3-45.06,24.09-16.93,49.13-32.64,72.72-50.24,24.14-18.01,47.45-37.39,74.05-51.76,6.64-3.58,13.55-7.14,20.88-9.05,2.56-.66,7.21-2.07,9.55-.17,3.53,2.89,.43,10.6-1.08,13.68-1.62,3.3-3.68,6.41-6.01,9.37-.82,1.05-1.67,2.08-2.55,3.09-4.67,5.39-10.05,10.34-14.87,15.14-8.34,8.28-16.63,16.51-25.93,23.76-3.69,2.88-7.55,5.69-11.56,8.23-7.77,4.92-16.14,8.88-25.17,10.54-2.51,.46-1.61,4.33,.9,3.87,9.23-1.68,17.8-5.41,25.83-10.33,14.03-8.58,26.37-20.77,37.55-31.86,5.43-5.38,10.91-10.77,15.92-16.55,2.58,3.72,2.76,8.46,1.02,13.16-2.46,6.62-7.39,12.15-12.32,17.2-.73,.75-1.48,1.49-2.21,2.23-.02,.02-.05,.05-.07,.06-5.15,5.18-10.48,10.17-16.16,14.79-7.43,6.03-15.26,11.38-23.4,16.2-19.13,11.36-39.91,19.8-60.91,27.34-2.04,.73-1.44,3.94,.79,3.38,20.2-5.06,40.02-12.66,58.19-23,7.39-4.2,14.51-8.85,21.27-13.97,8.25-6.24,16.17-13.2,23.32-20.79,.06,.19,.13,.41,.2,.62,1.75,6.14-1.33,12.98-4.58,18.04-3.37,5.26-7.73,10.06-12.56,14.41-.58,.52-1.17,1.04-1.77,1.55-5.06,4.35-10.57,8.23-15.94,11.61-6.08,3.84-12.45,7.13-19.03,10-5.46,2.39-11.04,4.48-16.7,6.34-6.21,2.03-12.37,4.22-18.59,6.23-6.26,2.01-12.98,3.38-18.79,6.49-1.56,.83-1.09,3.55,.8,3.5,6.08-.16,12.05-2,17.95-3.42,6.33-1.52,12.73-3.01,18.88-5.2,4.17-1.49,8.3-3.07,12.37-4.8,7.17-3.04,14.16-6.49,20.82-10.57,6.03-3.68,11.85-7.83,17.28-12.43-2.56,6.28-7.04,11.99-11.24,17.19-9.36,11.57-20.08,21.45-32.18,29.88-2.76,1.92-5.59,3.78-8.49,5.55-3.01,1.85-6.09,3.62-9.2,5.32-.52-.12-1.04-.23-1.54-.33-9.52-1.98-20.88-2.53-30.04,1.32-1.41,.6-.53,3,.95,2.54,7.38-2.32,16-1.56,23.92,.04,2.44,.49,4.81,1.06,7.06,1.65,.68,.18,1.44,.38,2.24,.61,7.18,2.06,18.39,6.35,18,14.65-.36,7.26-11.04,11.46-16.85,13.67-21.53-3.19-43.54-4.29-64.03,3.28-1.02,.37-.73,1.96,.39,1.69,17.27-4.12,35.52-3.72,53.33-1.49,3.8,.47,7.58,1.03,11.33,1.65,3.44,.56,6.87,1.17,10.24,1.81,12.14,2.3,24.11,4.41,35.77,8.61,3.44,1.23,13.37,5.29,9.88,10.69-1.49,2.29-5.52,2.59-8.6,3.49-3.33-.72-6.63-1.33-9.84-1.92-13.12-2.44-26.17-5.38-39.41-7.19-15.18-2.07-30.77-2.85-45.11,3.43-1.02,.45-.38,2.16,.69,1.84,11.09-3.39,23.38-2.83,34.82-1.71,12.54,1.23,24.87,3.88,37.18,6.48,10.76,2.27,21.78,3.92,32.14,7.76,4.32,1.61,23.19,10.23,15.36,16.8-.73,.61-1.52,1.16-2.36,1.65-1.6-.47-3.2-.92-4.8-1.36-7.32-2.03-14.55-4.38-21.94-6.24-20.59-5.18-41.4-7.85-62.63-7.91-2.4,0-2.54,3.52-.15,3.72,16.48,1.35,33.09,3.45,49.26,6.92,10.54,2.25,20.86,5.3,31.18,8.41,2.3,.69,4.59,1.38,6.88,2.08,.47,.14,.94,.28,1.41,.43,4.63,1.41,9.32,2.94,13.59,5.23,2.3,1.24,7.32,3.9,6.67,7.25-.31,1.58-1.68,2.74-3.57,3.58-5.73-2.86-11.98-4.87-17.86-7.17-4.72-1.86-9.44-3.72-14.22-5.47-1.68-.61-3.37-1.21-5.05-1.8-3.28-1.12-6.59-2.18-9.92-3.13-8.08-2.3-16.38-3.77-24.76-2.28-.81,.14-.71,1.5,.14,1.47,18.45-.62,38.08,9.55,54.75,16.42,3.06,1.26,6.43,2.45,9.75,3.82,2.95,1.21,5.87,2.57,8.49,4.24,2.51,1.59,4.74,3.47,6.48,5.78,7.67,10.13-3.59,10.5-10.74,9.5Z"/>
      <path class="cls-16" d="M1187.63,469.46c-1.47,1.86-3.94,2.79-6.42,3.32-7.98-4.84-18.08-7.17-26.53-10.42-4.54-1.75-9.04-3.49-13.57-5.11-10.36-3.71-20.84-6.76-32.02-7.69-.34-.03-.61,.09-.83,.29-.65,.6-.65,1.94,.4,2.13,12.8,2.34,25.22,7.03,37.28,11.8,8.52,3.36,17.22,6.29,25.65,9.91h.13c.89,.37,1.77,.75,2.64,1.16,1.9,.86,4.01,1.84,5.91,3.1,1.73,1.14,3.26,2.51,4.25,4.23,1.8,3.12,2.17,6.55-1.8,7.3-6.07,1.16-13.12-1.58-18.77-3.52-48.38-16.59-92.67-42.98-140.59-60.75-9.01-3.34-18.23-6.39-27.59-8.9,3.37-1.22,6.73-2.49,10.08-3.79,25.87-10.06,51.1-21.25,77.63-29.58,26.07-8.18,52.79-14.39,79.92-17.82,5.94-.76,11.9-1.41,17.88-1.96,5.61,3.76,7.13,10.73,1.51,15.22-1.11,.89-2.33,1.64-3.61,2.27-1.06,.54-2.18,.99-3.33,1.39-.37-.16-.73-.31-1.1-.46-3.92-1.59-7.96-2.67-10.69-3.43-11.51-3.21-24.32-4.95-36.11-2.15-1.43,.34-.9,2.34,.5,2.18,10.37-1.29,21.57,1.27,31.57,3.85,1.67,.43,3.34,.89,5.01,1.41,.69,.21,1.38,.43,2.07,.66h.01c2.46,.84,4.87,1.79,7.19,2.95,.28,.14,.64,.31,1.03,.5,2.36,1.17,6.31,3.24,6.44,5.58,.18,3.06-5.41,5.3-9.76,6.63-8.28-2.72-17.27-4.19-25.51-6.13-5.86-1.39-11.81-2.7-17.78-3.51-9.04-1.23-18.15-1.29-27.1,1.3-1.07,.31-.71,1.89,.39,1.69,5.38-.96,10.94-1,16.49-.51,7.56,.65,15.14,2.29,22.29,3.93,7.56,1.74,15.2,3.48,22.72,5.5h0c2.09,.56,4.17,1.14,6.23,1.74,.63,.19,1.39,.43,2.25,.73,6.43,2.24,17.9,7.58,10.39,14.19-3.31,2.92-7.61,4.01-12.04,4.66h0c-7.3-3.18-14.92-5.71-22.54-7.63-15.28-3.85-30.38-4.9-46.05-3.17-.84,.09-.68,1.45,.14,1.47,19.25,.48,39.94,3.5,58.48,10.67,2.93,1.14,5.81,2.37,8.62,3.72h0c3.12,1.5,6.15,3.14,9.09,4.91,3.27,1.98,8.82,5.3,8.72,9.73-.08,4.06-4.38,6.33-7.71,7.45-.8,.27-1.62,.5-2.48,.72-1.74-.57-3.38-1.06-4.81-1.49-4.49-1.35-9.09-2.38-13.55-3.82-7.64-2.45-15.03-5.86-22.45-8.9-17.7-7.28-36.11-14.84-55.59-12.07-.98,.14-.8,1.69,.16,1.71,15.17,.35,30.32,5.24,44.31,10.82,11.74,4.69,23.2,10.66,35.37,14.18,.74,.21,1.48,.43,2.24,.63h0c4.88,1.35,10.05,2.62,14.84,4.56h0c.78,.31,1.54,.65,2.3,1,2.02,.94,3.94,2.03,5.72,3.33,2.79,2.03,4.98,5.07,2.43,8.29Z"/>
      <path class="cls-10" d="M370.69,458.21c-.28,.48-.6,.96-.97,1.42-2.04,2.57-4.69,4.12-7.61,5.2-2.1-3.94-5.65-7.29-9.7-9.81-4.11-2.55-8.75-4.24-12.92-4.84-.42-.06-.53,.61-.13,.72,2.41,.67,5.19,1.89,7.93,3.53,4.67,2.8,9.24,6.81,11.67,11.37,.65,1.23,1.16,2.51,1.46,3.8,.5,2.1,.48,4.28-.22,6.46-1.47,4.57-5.78,6.91-10.15,8.16-.85-6.87-4.04-13.65-8.29-18.91-3.69-4.56-8.27-7.81-13.38-10.06-3.66-1.63-7.6-2.75-11.66-3.48-.91-.16-1.39,1.11-.45,1.42,2.59,.86,5.16,1.93,7.63,3.2,11.19,5.76,20.44,15.66,21.68,28.69,.03,.21,.05,.44,.06,.66,.07,1.09,.08,2.2,0,3.32-.29,4.74-1.9,9.7-4.67,13.41-1.27,1.69-2.93,3.27-4.97,3.84-.22-.66-.44-1.3-.66-1.88-5.66-15.13-16.11-26.9-28.68-36.48-2.06-1.58-4.18-3.09-6.35-4.55-.92-.62-2.1,.73-1.27,1.51,1.95,1.83,3.93,3.65,5.91,5.5,9.22,8.6,18.31,17.59,23.58,29.16,.56,1.23,1.49,3.49,2.41,6.19,.61,1.78,1.21,3.75,1.7,5.76,1.96,7.92,2.1,16.2-6.39,14.24-3.44-.79-6.6-2.75-9.5-5.29-5.37-4.69-9.85-11.34-13.7-16.12-10.55-13.11-19.46-26.66-25.52-42.41-2.92-7.57-5.98-15.42-8.22-23.44,18.83,1.74,37.73,3.12,56.52,4.8,15.03,1.35,30.08,2.53,45.14,3.59,1.6,3.67,1.82,7.71-.3,11.31Z"/>
      <path class="cls-17" d="M791.36,468.33c.02,.63,0,1.24-.06,1.83-.32,3.18-1.81,5.66-3.97,7.52,0,0-.02,.02-.03,.03-.2-.38-.41-.77-.63-1.14-.22-.37-.44-.74-.67-1.09-1.26-1.98-2.68-3.83-4.12-5.51-1.35-1.57-2.89-3.27-4.58-4.89-3.57-3.41-7.81-6.44-12.28-7.11-1.66-.25-2.76,2.21-1.53,3.32,1.55,1.42,3.24,2.64,4.95,3.85,2.34,1.65,4.71,3.27,6.8,5.33,1.62,1.59,3.2,3.33,4.61,5.21,.74,.97,1.42,1.99,2.05,3.04,.06,.09,.11,.18,.17,.29,.26,.45,.5,.9,.74,1.37,.19,.37,.37,.75,.55,1.15,.22,.48,.41,.96,.6,1.46,.21,.58,.4,1.16,.56,1.76,1.47,5.42-.63,10.75-4.43,14.48-1.58-3.74-3.76-7.21-6.44-10.12-5.7-6.23-12.98-9.69-21.39-8.17-1.46,.26-1.49,2.45-.11,2.87,7.05,2.08,14.14,5.31,18.64,11.33,1.72,2.31,3.1,4.91,4.11,7.68,.17,.46,.33,.92,.48,1.39,.16,.52,.31,1.02,.43,1.54,.2,.71,.37,1.44,.51,2.16,.06,.27,.1,.54,.14,.81,.18,1,.31,2.01,.38,3.02,.06,.79,.1,1.57,.11,2.35,.06,5.76-1.6,12.17-6.6,15.62-2.2,1.51-4.69,2.27-7.3,2.51-.98-7.58-3.89-14.97-7.86-21.33-6.67-10.66-16.36-20.49-27.46-26.44-1.96-1.05-4.06,1.25-2.53,3.01,8.03,9.27,18.17,16.46,25.07,26.8,3.49,5.2,6.06,10.96,7.3,17.11,.05,.22,.09,.46,.13,.69,.23,1.13,.42,2.33,.58,3.57,.48,4.02,.43,8.37-1.29,11.81-2.38,4.7-7.47,5.25-12.32,4.47,.42-5.27-.79-11.01-2.95-15.67-7.5-16.22-23.97-28.23-37.54-39.16-1.64-1.33-3.31,1.19-2.2,2.64,8.67,11.48,21.35,19.4,30.1,30.95,4.35,5.75,7.86,12.62,7.61,20v.03c-.04,1.16-.18,2.25-.44,3.28-.23,.94-.55,1.82-.95,2.63-1.66,3.36-4.8,5.54-9.27,5.94-15.14,1.32-27.88-12.09-36.29-22.9-12.05-15.51-20.85-33.81-30.02-51.11-6.17-11.65-10.8-24.73-17.93-35.99,10.6-.08,21.21-.09,31.81,.03,29.09,.34,58.11,1.94,87.22,1.39,6.18-.12,12.35-.29,18.53-.53,.61,.53,1.21,1.04,1.81,1.57,1.24,1.1,2.44,2.27,3.45,3.7,.74,1.08,1.45,2.19,2.02,3.35,.52,1.04,.95,2.12,1.25,3.25,.03,.12,.06,.24,.09,.36,.19,.74,.31,1.52,.36,2.32,.02,.11,.02,.23,.03,.36Z"/>
      <path class="cls-22" d="M816.32,508.26c-.8,1.08-1.77,2.05-2.69,2.86-4.27,3.74-9.6,4.63-15.08,3.82-4.04-.61-7.94-1.78-11.83-3.06-1.3-.43-2.61-.86-3.92-1.28-.09-1.41-.28-2.81-.54-4.19-.23-1.15-.5-2.3-.84-3.42,5.06-3.37,8.76-8.71,8.82-14.71,0-.62-.02-1.24-.09-1.86,1.15,.53,2.38,1,3.61,1.44,1.88,.67,3.77,1.25,5.46,1.85,.72,.25,1.39,.51,2.01,.78,3.39,1.44,8.59,3.37,12.33,6.23,1.18,.91,2.21,1.9,3,3,.53,.75,.95,1.53,1.23,2.39,.71,2.21-.13,4.34-1.47,6.15Z"/>
      <path class="cls-18" d="M818.29,494.94c-3.05-2.85-7.16-4.96-10.42-6.54-2.51-1.21-5.08-2.31-7.66-3.37h0c-1.55-.64-3.11-1.27-4.66-1.9-.1-.04-.2-.09-.31-.13-1.15-.47-2.3-1-3.47-1.5-.44-.19-.88-.37-1.33-.56-.43-.17-.85-.33-1.28-.49,.56-.38,1.1-.81,1.62-1.27,2.15-1.91,3.75-4.41,4.53-7.52,.15,.05,.31,.09,.46,.13,1.46,.37,2.94,.66,4.46,.92,1.65,.28,3.34,.55,5.08,.87,.46,.09,.92,.18,1.39,.27,4.7,.93,9.87,2.28,13.38,5.56,.67,.63,1.29,1.33,1.83,2.1,.11,.17,.22,.35,.34,.52,3.96,6.43,1.06,10.42-3.97,12.91Z"/>
      <path class="cls-14" d="M826.06,477.41c-3.17-4.36-8.32-7.03-14.05-8.71-4.01-1.18-8.31-1.89-12.4-2.34-1.31-.15-2.59-.27-3.85-.36-.09-1.15-.31-2.31-.61-3.46-.74-2.79-2.04-5.54-3.82-7.86-.42-.55-.86-1.08-1.33-1.58,.44-.02,.89-.04,1.33-.06,10.11-.47,20.2-1.1,30.28-1.88,0,0,0,0,0,0,3.04,1.55,6.23,3.07,8.78,5.12,1.21,.96,2.27,2.04,3.1,3.29,1.14,1.69,1.85,3.7,1.95,6.17,.23,5.95-4.15,9.46-9.41,11.68Z"/>
      <g>
        <path class="cls-12" d="M1484.69,101.57c-1.56,2.29-3.23,4.49-4.96,6.63-.89,1.1-1.79,2.19-2.72,3.25-5.01,5.78-10.49,11.17-15.92,16.55-17.57,17.43-38.04,37.58-63.38,42.19-2.51,.46-3.41-3.41-.9-3.87,13.71-2.52,25.9-10.32,36.73-18.77,9.3-7.25,17.59-15.48,25.93-23.76,4.83-4.8,10.2-9.75,14.87-15.14,.88-1.02,1.73-2.04,2.55-3.09,2.33-2.96,4.39-6.07,6.01-9.37,1.51-3.09,4.61-10.79,1.08-13.68-2.33-1.9-6.99-.49-9.55,.17-7.32,1.91-14.24,5.47-20.88,9.05-26.6,14.38-49.91,33.75-74.05,51.76-23.6,17.6-48.63,33.31-72.72,50.24-25.34,17.81-51.49,33.51-80.3,45.06-17.41,6.98-35.24,12.3-53.42,16.15-1.53,.33-3.05,.64-4.58,.94-10.71,2.13-21.55,3.76-32.49,4.93-32.68,3.5-65.73,3.38-98.36-.72-33.02-4.16-64.89-13.09-96.78-22.34-32.12-9.33-64.1-19.22-96.2-28.65-32.25-9.47-64.75-18.09-96.98-27.65-13.23-3.93-26.45-7.89-39.72-11.69-2.52-.73-5.05-1.44-7.59-2.15-16.19-4.54-32.45-8.79-48.89-12.37-33.15-7.23-67-11.05-100.86-12.91-.98-.06-1.96-.1-2.94-.15-3.07-.16-6.16-.29-9.22-.39-62.77-2.17-124.43,5.58-185.66,20.03-29.57,6.98-58.96,15.33-87.48,25.88-1.26,.46-2.51,.92-3.77,1.39-1.9,.73-3.81,1.46-5.7,2.2-28.95,11.28-56.58,25.63-83.48,41.12-27.45,15.81-53.7,34.05-82,48.31-14.06,7.09-28.5,13.37-42.75,20.08-10.34,4.87-21.15,10.09-29.28,18.32-21.76,22.03,11.47,44.24,30.94,50.64,5.38,1.77,10.94,2.66,16.47,2.64,3.06-.02,6.12-.33,9.13-.92,4.31-.85,8.55-2.31,12.57-4.39,11.34-5.86,20.84-15.1,31.04-22.67,1.26-.94,2.88,.72,1.68,1.82-9.24,8.52-17.73,17.91-28.56,24.51-4.11,2.51-8.46,4.37-12.95,5.64-3.05,.89-6.18,1.49-9.34,1.84-16.4,1.86-33.72-3.03-47.52-11.98-9.64-6.25-19.02-15.8-21.29-27.47-2.04-10.46,2.57-19.75,9.78-27.05,8.11-8.22,18.84-13.78,29.21-18.56,15.4-7.1,31.11-13.48,46.37-20.86,30.51-14.75,58.74-34.05,88.28-50.61,26.75-14.99,54.24-28.53,82.94-39.31,1.05-.4,2.12-.8,3.19-1.19,1.44-.53,2.88-1.05,4.31-1.57,33.1-11.79,67.06-21.01,101.4-28.38,33.6-7.2,67.55-13,101.86-15.41,26.55-1.85,53.21-1.89,79.79-.45,2.86,.15,5.71,.32,8.57,.5,6.2,.41,12.4,.89,18.6,1.45,34.92,3.14,69.22,8.94,103.2,17.63,9.05,2.31,18.07,4.76,27.05,7.31,2.44,.69,4.88,1.38,7.31,2.09,22.77,6.56,45.43,13.56,68.22,20.05,34.88,9.92,69.77,19.68,104.51,30.14,34.75,10.46,69.46,21.47,104.69,30.27,55.63,13.91,116.47,17.16,173.57,6.09,1.28-.25,2.57-.5,3.86-.77,12.27-2.53,24.36-5.72,36.17-9.62,32.12-10.6,61.89-26.3,89.68-45.46,13.42-9.26,26.49-18.98,39.91-28.23,13.9-9.57,28.16-18.51,41.76-28.52,24.72-18.19,48.61-37.81,75.81-52.27,8.39-4.47,31.37-18.02,39.1-6.44,4.55,6.83-1.05,16.31-4.92,21.98Z"/>
        <path class="cls-12" d="M1474.24,139.27c-1.6,1.98-3.26,3.93-4.98,5.82-.9,1.01-1.81,2-2.74,2.98-7.16,7.59-15.08,14.55-23.32,20.79-23.39,17.7-51.05,29.85-79.45,36.97-2.22,.56-2.83-2.65-.79-3.38,29.92-10.74,59.39-23.33,84.3-43.55,5.68-4.62,11-9.61,16.16-14.79,.02-.02,.05-.05,.07-.06,.73-.74,1.47-1.48,2.21-2.23,4.93-5.05,9.87-10.58,12.32-17.2,1.74-4.7,1.57-9.44-1.02-13.16-.7-1.02-1.59-1.96-2.67-2.8,.88-1.02,1.73-2.04,2.55-3.09,1.03,.74,1.98,1.62,2.84,2.64,.18,.22,.35,.43,.52,.66,7.44,9.83,.61,22.23-6.01,30.41Z"/>
        <path class="cls-12" d="M1458.54,179.15c-2.4,2.68-4.95,5.26-7.61,7.71-1.33,1.23-2.67,2.43-4.05,3.59-5.43,4.6-11.25,8.75-17.28,12.43-10.43,6.39-21.68,11.26-33.19,15.37-6.15,2.19-12.55,3.68-18.88,5.2-5.89,1.42-11.87,3.26-17.95,3.42-1.9,.05-2.36-2.67-.8-3.5,5.81-3.1,12.53-4.48,18.79-6.49,6.22-2.01,12.38-4.19,18.59-6.23,12.48-4.1,24.61-9.32,35.73-16.34,5.37-3.38,10.88-7.26,15.94-11.61,.6-.51,1.18-1.03,1.77-1.55,4.83-4.35,9.18-9.14,12.56-14.41,3.25-5.06,6.32-11.9,4.58-18.04-.06-.22-.13-.43-.2-.62-.66-1.87-1.76-3.14-3.1-3.96,.02-.02,.05-.05,.07-.06,.73-.74,1.47-1.48,2.21-2.23,1.41,.76,2.63,1.85,3.56,3.28,1.01,1.53,1.68,3.46,1.92,5.81,1.05,10.65-5.89,20.72-12.64,28.25Z"/>
        <path class="cls-12" d="M1450.92,186.86c-.61,7.37-5.64,14.38-9.8,20.18-4.55,6.34-9.59,12.38-14.92,18.09-8.35,8.95-18.26,16.49-28.44,23.21-1.23,.81-2.46,1.61-3.71,2.39-1.88,1.19-3.78,2.35-5.7,3.48-.8-.22-1.56-.43-2.24-.61-2.25-.59-4.63-1.16-7.06-1.65,2.25-1.16,4.49-2.33,6.71-3.56,3.11-1.7,6.19-3.47,9.2-5.32,15.63-9.57,29.18-21.23,40.68-35.43,4.2-5.2,8.68-10.91,11.24-17.19,.17-.4,.31-.8,.47-1.22,.72-2.01,1.4-4.52,.49-6.54,.6-.51,1.18-1.03,1.77-1.55,1.02,1.39,1.54,3.26,1.34,5.72Z"/>
        <path class="cls-12" d="M1481.92,388.68c-7.48,.3-15.37-1.75-22.7-2.94-13.44-2.2-26.78-4.93-40.09-7.81-27.72-5.99-55.41-12.49-83.67-15.48-28.67-3.03-57.56-3.62-86.36-2.85-12.26,.32-24.59,.73-36.91,1.37-1.74,.09-3.48,.18-5.22,.29-6.32,.37-12.63,.8-18.92,1.33-2.25,.18-4.49,.38-6.74,.6-5.98,.55-11.94,1.2-17.88,1.96-27.13,3.43-53.84,9.64-79.92,17.82-26.53,8.33-51.76,19.52-77.63,29.58-3.35,1.3-6.71,2.57-10.08,3.79-4.21,1.54-8.45,3.02-12.68,4.43-43.69,14.67-88.59,23.33-134.67,28.01-5.03,.51-10.07,.99-15.12,1.43-.17,.01-.34,.03-.51,.05-2.28,.21-4.58,.4-6.86,.58-1.45,.12-2.89,.23-4.34,.34-10.09,.78-20.18,1.41-30.28,1.88-.44,.02-.89,.04-1.33,.06-1.95,.09-3.91,.17-5.85,.26-.6,.02-1.21,.05-1.81,.07-6.18,.24-12.35,.41-18.53,.53-29.1,.55-58.12-1.05-87.22-1.39-10.6-.12-21.21-.11-31.81-.03-1.1,0-2.19,.02-3.29,.04-46.28,.43-92.55,2.21-138.83,.75-42.7-1.35-85.42-3.24-128.06-6.18-1.22-.08-2.43-.17-3.63-.25-15.06-1.05-30.11-2.24-45.14-3.59-18.79-1.68-37.69-3.06-56.52-4.8-2.76-.25-5.51-.52-8.27-.79-7.13-.71-14.25-1.49-21.36-2.37-26.94-3.36-52.88-11.56-79.26-17.64-27.16-6.27-72.68-14.07-91.14-39.5-1.35-1.85-2.54-3.8-3.58-5.83,3.06-.02,6.12-.33,9.13-.92,1.15,1.72,2.42,3.37,3.79,4.91,.03,.05,.06,.08,.11,.12,15.45,17.41,40.37,23.8,62.16,29.03,24.26,5.83,48.42,12.28,72.75,17.74,15.06,3.38,30.34,5.29,45.69,6.78,2.7,.26,5.41,.5,8.11,.74,9.29,.82,18.61,1.56,27.89,2.44,23.29,2.21,46.59,4.4,69.91,6.19,1.4,.11,2.81,.21,4.22,.32,3.24,.24,6.5,.48,9.74,.7,55.17,3.81,110.88,6.77,166.19,6.71,30.71-.04,61.41-.81,92.1-1.11l2.66-.03c23.46-.2,46.91-.11,70.38,.81,23.05,.92,46.13,.97,69.17,.2,.91-.02,1.81-.06,2.73-.09,10.99-.38,21.97-.95,32.94-1.72,.25-.01,.49-.03,.74-.05,2.54-.17,5.09-.35,7.62-.55h0c1.35-.11,2.7-.21,4.05-.32,15.48-1.25,30.93-2.85,46.34-4.79,32.98-4.15,65.13-11.37,96.54-21.29,4.7-1.47,9.38-3.01,14.04-4.61,13.12-4.5,26.09-9.46,38.97-14.87,46.73-19.63,95.63-34.84,146.21-40.14,.49-.05,.98-.1,1.47-.15,3.27-.34,6.55-.67,9.84-.97,9.01-.85,18.06-1.57,27.13-2.17,1.79-.12,3.57-.23,5.36-.34,38.35-2.31,77.08-2.22,115.05,1.31,49.26,4.58,96.62,19.76,145.52,26.61,7.15,1,18.41,.63,10.74-9.5-1.74-2.32-3.98-4.19-6.48-5.78-2.63-1.67-5.54-3.03-8.49-4.24-3.32-1.37-6.7-2.56-9.75-3.82-16.67-6.87-36.3-17.04-54.75-16.42-.85,.03-.95-1.33-.14-1.47,8.38-1.48,16.67-.02,24.76,2.28,3.33,.94,6.64,2.01,9.92,3.13,1.69,.59,3.37,1.19,5.05,1.8,4.77,1.75,9.49,3.61,14.22,5.47,5.89,2.31,12.14,4.31,17.86,7.17,2.07,1.03,4.06,2.15,5.95,3.46,.12,.06,.22,.14,.32,.22,9.49,6.67,14.39,22.85-1.55,23.5Z"/>
        <path class="cls-12" d="M303.9,353.63c-5.94,9.94-15.76,18.32-24.56,25.69-8.6,7.21-18.63,12.98-29.51,15.93-9.2,2.48-19.11,3.24-28.61,2.83-8.84-.38-18.76-2.31-25.78-8.02-.73-.59-.04-1.78,.79-1.26,7.9,5.02,18.07,5.11,27.12,4.86,8.74-.24,17.76-1.49,26.06-4.34,10.74-3.7,19.92-10.63,28.32-18.09,7.68-6.83,14.41-15.54,23.74-20.22,1.68-.84,3.4,1.05,2.44,2.64Z"/>
        <path class="cls-12" d="M302.32,337.71c-1.61,2.78-5.18,.47-4.67-2.2,2.61-13.79,1.1-27.72,0-41.61-1.31-16.32-3.59-32.66-7.9-48.47-4.03-14.8-10.28-28.41-18.45-41.36-3.18-5.04-6.47-10.02-9.77-14.99-1.49-2.24-2.98-4.48-4.46-6.73,1.06-.4,2.12-.8,3.19-1.19,1.68,2.17,3.36,4.33,5.04,6.52,3.83,5.02,7.58,10.11,11.06,15.4,8.73,13.27,15.29,27.39,19.74,42.65,4.78,16.37,7.37,33.18,8.48,50.17,.47,7.19,1.06,14.42,1.19,21.64,.13,6.85,.07,14.11-3.44,20.16Z"/>
        <path class="cls-12" d="M708.93,26.84c-.76,1.6-1.59,3.16-2.45,4.66-1.15,2-2.34,3.91-3.47,5.69-6.13,9.64-13.96,18.1-22.09,26.06-8.65,8.47-17.9,16.84-27.37,24.37-.84,.67-2.18-.29-1.5-1.26,6.67-9.62,15.75-17.89,24.01-26.13,8.51-8.48,16.62-17.44,22.8-27.78,.23-.37,.46-.75,.67-1.13,.56-.96,1.38-2.45,2.26-4.23,3.75-7.58,8.56-20.49-1.51-20.97-4.63-.21-9.44,3.14-13.25,5.4-4.47,2.65-8.74,5.51-12.76,8.79-17.47,14.29-30.17,33.51-45.3,50.07-16,17.53-33.66,32.77-51.82,47.97-6.99,5.85-13.8,11.89-20.98,17.5-1.12,.88-2.24,1.74-3.37,2.59-1.64,1.23-3.37,2.49-5.15,3.72-3.07-.16-6.16-.29-9.22-.39,3.11-2.07,6.17-4.22,9.19-6.42,14.37-10.5,27.77-22.41,41.19-34.02,19.93-17.23,37.7-36.44,54.26-56.87,7.3-9.01,14.73-18.01,23.38-25.79,7.72-6.93,17.15-14.09,27.03-17.61,8.21-2.92,17.23,.06,18.74,9.52,.86,5.41-.8,11.02-3.29,16.24Z"/>
        <path class="cls-12" d="M716.89,56.04c-.25,.52-.48,1.03-.71,1.52-.46,.96-.94,1.91-1.46,2.84-6.44,11.81-16.51,21.1-26.89,29.49-11.57,9.37-23.35,18.55-35.03,27.75-1.38,1.09-3.53-.46-2.45-2.06,7.8-11.56,20.33-20.03,30.91-28.8,9.26-7.68,18.85-15.9,25.75-25.87,.4-.59,.8-1.18,1.18-1.78,.53-.82,1.16-1.83,1.82-2.97,3.73-6.43,8.58-17.13,3.11-22.25-1.74-1.63-4.09-2.3-6.63-2.4-2.5-.1-5.17,.33-7.62,.95,.23-.37,.46-.75,.67-1.13,.56-.96,1.38-2.45,2.26-4.23,2.36-.37,4.81-.52,7.14-.25,3.19,.36,6.18,1.5,8.46,3.87,6.38,6.62,2.88,17.81-.51,25.33Z"/>
        <path class="cls-12" d="M723.03,89.58c-2.07,3.87-4.54,7.51-7.29,10.94-.91,1.13-1.84,2.24-2.8,3.32-5.33,6.06-11.48,11.46-17.72,16.43-5.4,4.29-10.96,8.45-16.67,12.31-5.36,3.63-11.43,8.25-17.42,10.68-2.04,.82-3.5-1.39-2.14-3.01,4.02-4.77,10.43-8.61,15.47-12.28,5.56-4.06,11.31-7.83,16.76-12.03,6.43-4.97,12.73-10.33,18.16-16.43,.88-.98,1.73-1.98,2.55-3.01,1.67-2.05,3.23-4.2,4.66-6.44,3.81-5.97,11.09-18.88,6.05-26.01-1.72-2.45-4.71-3.42-7.92-3.64-2.6-.19-5.35,.11-7.72,.5,.4-.59,.8-1.18,1.18-1.78,.53-.82,1.16-1.83,1.82-2.97,2.22-.3,4.59-.39,6.88-.11,4.13,.49,7.98,2.17,10.25,5.92,4.98,8.25-.08,20.1-4.11,27.62Z"/>
        <path class="cls-12" d="M717.42,113.13c-.83,3.19-2.24,6.29-4,9.23-.82,1.38-1.72,2.73-2.68,4.04-2.74,3.78-5.93,7.25-9.02,10.3-6.98,6.89-14.6,12.51-24.34,14.45-1.36,.27-2.13-1.65-.86-2.31,10.94-5.63,21.5-13.54,29.15-23.38,1.04-1.34,2.02-2.71,2.95-4.12,.25-.37,.49-.74,.72-1.12,2.99-4.78,6.03-10.96,3.61-16.37-.3-.69-.7-1.36-1.2-2.02-.72-.95-1.51-1.72-2.37-2.32,.88-.98,1.73-1.98,2.55-3.01,1.59,1.07,2.88,2.46,3.82,4.03,2.26,3.67,2.78,8.37,1.67,12.61Z"/>
        <path class="cls-12" d="M721.35,145.29c-1.7,7.16-4.89,13.42-9.01,19.05-1.37,1.88-2.85,3.67-4.41,5.41-2.52-.73-5.05-1.44-7.59-2.15,1.62-1.73,3.2-3.5,4.69-5.34,2.24-2.74,4.31-5.6,6.12-8.65,2.25-3.77,3.96-7.82,5.01-12.09,.84-3.43,2.08-8.33-.06-11.54-1.1-1.63-3.04-2.83-5.36-3.59-1.57-.51-3.31-.83-5.07-.94,1.04-1.34,2.02-2.71,2.95-4.12,1.7,.17,3.34,.51,4.8,1.03,.53,.17,1.04,.37,1.52,.58,9.17,4.09,8.39,14.02,6.41,22.35Z"/>
        <path class="cls-12" d="M1485.68,362.16c-.68,1.07-1.54,2-2.53,2.8-1.34,1.1-2.91,1.96-4.62,2.64-2.63-1.67-5.54-3.03-8.49-4.24,2.51-.37,5.14-.92,7.17-1.86,1.89-.84,3.26-2,3.57-3.58,.65-3.36-4.37-6.01-6.67-7.25-4.27-2.29-8.96-3.82-13.59-5.23-.47-.15-.94-.29-1.41-.43-2.3-.69-4.59-1.38-6.88-2.08-10.31-3.11-20.64-6.16-31.18-8.41-16.17-3.47-32.78-5.56-49.26-6.92-2.39-.19-2.25-3.73,.15-3.72,21.22,.06,42.03,2.73,62.63,7.91,7.38,1.86,14.61,4.2,21.94,6.24,1.6,.45,3.2,.9,4.8,1.36,2.08,.61,4.17,1.24,6.22,1.95,2.11,.73,4.2,1.51,6.25,2.42,6.55,2.9,17.36,9.84,11.92,18.4Z"/>
        <path class="cls-12" d="M1467.52,341.33c-.57,.53-1.23,1.04-1.97,1.53-1.61,1.04-3.3,1.89-5.03,2.57-.47-.15-.94-.29-1.41-.43-2.3-.69-4.59-1.38-6.88-2.08,3.24-.88,6.41-1.94,9.08-3.54,.84-.49,1.63-1.04,2.36-1.65,7.84-6.57-11.03-15.19-15.36-16.8-10.36-3.84-21.38-5.49-32.14-7.76-12.31-2.6-24.64-5.25-37.18-6.48-11.43-1.12-23.72-1.68-34.82,1.71-1.08,.32-1.71-1.39-.69-1.84,14.34-6.28,29.93-5.5,45.11-3.43,13.24,1.81,26.28,4.75,39.41,7.19,3.2,.6,6.51,1.21,9.84,1.92,2.68,.59,5.36,1.24,7.99,2.02,6.9,2.04,13.46,4.95,18.77,9.67,5.74,5.11,8.56,12.18,2.93,17.4Z"/>
        <path class="cls-12" d="M1445.82,314.27c-2.94,1.45-6.54,2.25-9.64,2.54-2.07,.19-2.1-2.61-.8-3.5,.67-.46,1.51-.79,2.45-1.06,3.08-.9,7.11-1.19,8.6-3.49,3.49-5.4-6.44-9.46-9.88-10.69-11.66-4.2-23.63-6.32-35.77-8.61-3.38-.64-6.8-1.25-10.24-1.81-3.75-.62-7.53-1.18-11.33-1.65-17.81-2.22-36.06-2.63-53.33,1.49-1.12,.27-1.41-1.32-.39-1.69,20.49-7.57,42.49-6.46,64.03-3.28,3.12,.46,6.24,.97,9.33,1.49,5.68,.98,11.3,2.02,16.83,3.02,7.71,1.4,15.05,3.58,22.38,6.32,4.42,1.66,9.41,3.74,11.91,8,3.77,6.41,.7,10.53-4.14,12.91Z"/>
        <path class="cls-12" d="M1407.88,277.14c-2.46,2.86-5.62,5.07-9.04,6.87-2.68,1.43-5.52,2.59-8.31,3.63-3.75-.62-7.53-1.18-11.33-1.65,3.37-.99,6.68-2.09,9.89-3.31,.13-.05,.27-.11,.41-.16,5.8-2.21,16.49-6.42,16.85-13.67,.39-8.3-10.82-12.59-18-14.65-.8-.22-1.56-.43-2.24-.61-2.25-.59-4.63-1.16-7.06-1.65-7.92-1.59-16.55-2.35-23.92-.04-1.48,.46-2.36-1.94-.95-2.54,9.16-3.85,20.52-3.3,30.04-1.32,.5,.1,1.02,.21,1.54,.33,2.69,.6,5.53,1.35,8.29,2.33,5.3,1.87,10.35,4.6,13.75,8.8,4.45,5.48,4.76,12.21,.08,17.63Z"/>
        <path class="cls-12" d="M1188.97,491.99c-4.22,4.53-12.55,2.84-17.82,1.69-10.87-2.37-21.48-6.84-31.8-10.94-12.99-5.17-25.75-10.89-38.45-16.72-25.76-11.82-51.42-23.91-78.08-33.63-13.11-4.78-26.31-8.63-39.71-11.64-4.12-.92-8.26-1.77-12.43-2.53,4.7-1.47,9.38-3.01,14.04-4.61,3.71,.81,7.4,1.72,11.06,2.72,9.35,2.51,18.57,5.56,27.59,8.9,47.93,17.77,92.21,44.16,140.59,60.75,5.64,1.94,12.7,4.68,18.77,3.52,3.97-.76,3.61-4.18,1.8-7.3-.99-1.72-2.52-3.09-4.25-4.23-1.9-1.26-4.02-2.24-5.91-3.1-.88-.4-1.76-.78-2.64-1.16h-.13c-8.43-3.62-17.13-6.55-25.65-9.91-12.06-4.78-24.48-9.46-37.28-11.8-1.39-.25-.93-2.53,.43-2.42,16.06,1.33,30.67,7.05,45.59,12.8,8.45,3.24,18.55,5.58,26.53,10.42,1.28,.77,2.5,1.61,3.66,2.53,.42,.34,.84,.71,1.25,1.12,3.91,3.91,7.09,10.99,2.84,15.55Z"/>
        <path class="cls-12" d="M1186.13,476.43c-1.89,.73-3.91,1.22-5.84,1.52-1.9-1.26-4.02-2.24-5.91-3.1-.88-.4-1.76-.78-2.64-1.16,1.9,0,3.8-.11,5.7-.33,1.16-.14,2.48-.3,3.79-.59,2.47-.53,4.95-1.46,6.42-3.32,2.55-3.22,.37-6.26-2.43-8.29-2.44-1.78-5.17-3.18-8.02-4.33t0,0c-4.79-1.94-9.97-3.21-14.84-4.56h0c-.76-.2-1.51-.42-2.24-.63-12.17-3.52-23.63-9.49-35.37-14.18-13.98-5.58-29.13-10.47-44.31-10.82-.96-.02-1.14-1.57-.16-1.71,19.48-2.77,37.89,4.79,55.59,12.07,7.42,3.05,14.81,6.45,22.45,8.9,4.47,1.44,9.06,2.46,13.55,3.82,1.43,.43,3.07,.92,4.81,1.49,2.56,.83,5.31,1.84,7.86,3.12,4.78,2.39,8.88,5.73,9.63,10.65,.94,6.06-3.08,9.56-8.02,11.45Z"/>
        <path class="cls-12" d="M1192.11,445.24c-1.01,4.15-3.84,7.12-7.59,9.1-2.2,1.16-4.7,1.98-7.33,2.5h0c-4.79-1.94-9.97-3.21-14.84-4.56,4.79,.38,9.92,.03,14.32-1.06,.86-.22,1.69-.45,2.48-.72,3.33-1.12,7.62-3.39,7.71-7.45,.09-4.43-5.46-7.75-8.72-9.73-2.94-1.78-5.97-3.41-9.09-4.91h0c-2.82-1.35-5.69-2.58-8.62-3.72-18.54-7.17-39.23-10.19-58.48-10.67-.82-.02-.98-1.37-.14-1.47,15.67-1.74,30.77-.68,46.05,3.17,7.62,1.92,15.24,4.46,22.54,7.63h0c2.37,1.03,4.7,2.12,6.99,3.28,.59,.3,1.18,.61,1.76,.92,6.41,3.4,15.05,9.22,12.99,17.7Z"/>
        <path class="cls-12" d="M1186.17,421.49c-2.11,2.14-5.27,3.91-8.8,5.15-2.66,.92-5.53,1.55-8.33,1.78h0c-2.82-1.35-5.69-2.58-8.62-3.72,3.14-.62,6.58-.85,9.97-1.34h0c4.43-.65,8.72-1.74,12.04-4.66,7.51-6.62-3.96-11.95-10.39-14.19-.86-.3-1.62-.54-2.25-.73-2.06-.61-4.14-1.18-6.23-1.74h0c-7.52-2.02-15.16-3.76-22.72-5.5-12.41-2.85-26.07-5.68-38.79-3.42-1.1,.19-1.47-1.38-.39-1.69,14.88-4.31,30.17-1.27,44.89,2.21,8.24,1.94,17.23,3.41,25.51,6.13,2.18,.71,4.31,1.51,6.37,2.44,.4,.17,.78,.35,1.17,.53,7.26,3.47,13.72,11.52,6.59,18.75Z"/>
        <path class="cls-12" d="M1178.41,402.2c-1.66,.72-3.31,1.28-4.66,1.73-.56,.18-1.14,.38-1.72,.57-.86-.3-1.62-.54-2.25-.73-2.06-.61-4.14-1.18-6.23-1.74,1.39-.31,2.78-.64,4.15-1.03,.86-.24,2.48-.65,4.34-1.23,4.35-1.34,9.95-3.57,9.76-6.63-.14-2.34-4.08-4.41-6.44-5.58-.39-.19-.75-.36-1.03-.5-2.32-1.16-4.72-2.11-7.19-2.95h-.01c-2.33-.79-4.72-1.46-7.08-2.07-9.99-2.58-21.2-5.14-31.57-3.85-1.4,.17-1.94-1.84-.5-2.18,11.79-2.8,24.59-1.06,36.11,2.15,2.99,.83,7.55,2.04,11.79,3.89,2.05,.9,4.04,1.93,5.73,3.16,2.62,1.88,4.58,4.17,5.06,7,.85,4.99-3.78,8.05-8.26,9.99Z"/>
        <path class="cls-12" d="M1189.24,378.91c-1.88,2.76-4.59,4.78-7.64,6.3-1.98,.98-4.11,1.74-6.24,2.34-.39-.19-.75-.36-1.03-.5-2.32-1.16-4.72-2.11-7.19-2.95,2.89-.45,5.9-1.06,8.73-2.05,2.53-.87,4.91-2.03,6.94-3.66,5.62-4.49,4.1-11.46-1.51-15.22-.02-.02-.05-.03-.06-.05-3.02-2-6.37-3.57-9.87-4.69,3.27-.34,6.55-.67,9.84-.97,1.41,.65,2.74,1.44,3.96,2.35,1.08,.81,2.04,1.74,2.88,2.76,3.78,4.6,4.81,11.01,1.2,16.34Z"/>
        <path class="cls-12" d="M327.95,531.07c-12.09-.09-21.76-14.06-28.68-22.33-11.95-14.33-21.7-29.08-28.86-46.37-3.16-7.63-6.95-16.06-9.36-24.64-.7-2.55-1.29-5.12-1.71-7.68,2.7,.26,5.41,.5,8.11,.74,.51,2.59,1.15,5.17,1.87,7.72,2.24,8.02,5.3,15.87,8.22,23.44,6.06,15.75,14.97,29.3,25.52,42.41,5.92,7.36,13.36,19.16,23.19,21.41,8.49,1.96,8.34-6.32,6.39-14.24-.49-2-1.09-3.97-1.7-5.76-.92-2.7-1.85-4.96-2.41-6.19-6.4-14.06-18.43-24.3-29.49-34.66-.83-.79,.35-2.13,1.27-1.51,15.36,10.36,28.44,23.43,35.03,41.04,.22,.58,.44,1.22,.66,1.88,.49,1.45,.94,3.07,1.34,4.78,2.02,8.9,1.97,20.05-9.39,19.97Z"/>
        <path class="cls-12" d="M350.28,487.91c0,.45,0,.91-.04,1.35-.37,7.06-2.99,15.34-8.78,19.82-1.19,.92-2.61,1.6-4.12,2.01-1.53,.41-3.13,.56-4.69,.42-.49-2-1.09-3.97-1.7-5.76,1.17,.49,2.39,.85,3.74,.78,.46-.03,.9-.11,1.32-.23,2.04-.57,3.7-2.15,4.97-3.84,2.76-3.7,4.38-8.66,4.67-13.41,.07-1.12,.06-2.23,0-3.32-.02-.22-.04-.45-.06-.66-1.51-15.91-14.96-27.15-29.31-31.89-.94-.31-.46-1.58,.45-1.42,9.75,1.77,18.71,5.71,25.05,13.55,4.26,5.26,7.44,12.03,8.29,18.91,.16,1.23,.24,2.46,.24,3.68Z"/>
        <path class="cls-12" d="M363.81,475.63c-1.13,5.8-5.76,9.51-11.07,11.46-.76,.27-1.58,.55-2.46,.82-1.43,.43-3.01,.84-4.64,1.16,.07-1.12,.06-2.23,0-3.32-.02-.22-.04-.45-.06-.66,.99-.08,1.97-.23,2.93-.45,.51-.12,1.04-.25,1.55-.41,4.36-1.25,8.68-3.6,10.15-8.16,.7-2.19,.73-4.36,.22-6.46-.3-1.3-.8-2.57-1.46-3.8-3.86-7.23-13.08-13.1-19.6-14.9-.39-.11-.29-.79,.13-.72,8.27,1.17,18.38,6.69,22.62,14.64,.62,1.17,1.12,2.39,1.46,3.66,.61,2.25,.74,4.64,.25,7.15Z"/>
        <path class="cls-12" d="M374.71,458.53c-2.05,4.79-6.27,7.94-11.15,9.95-1.02,.42-2.08,.8-3.15,1.12-.3-1.3-.8-2.57-1.46-3.8,1.07-.28,2.13-.6,3.15-.98,2.92-1.07,5.58-2.63,7.61-5.2,3.12-3.93,3.08-8.58,1.27-12.73-1.23-2.84-3.29-5.46-5.74-7.47,1.4,.11,2.81,.21,4.22,.32,2.23,2.1,4.05,4.65,5.15,7.4,1.47,3.61,1.71,7.58,.08,11.39Z"/>
        <path class="cls-12" d="M744.67,551.9c-.1,1.25-.29,2.48-.58,3.65-1.38,5.62-5.04,10.21-11.96,11.65-14.68,3.06-28.47-7.8-37.6-17.95-14.29-15.88-23.73-35.98-33.6-54.74-4.71-8.94-9.14-17.97-12.86-27.38-1.96-4.94-4.03-9.89-6.56-14.56-1.2-2.25-2.53-4.44-4.01-6.53l2.66-.03c1.66,2.08,3.19,4.27,4.64,6.52,7.13,11.27,11.76,24.34,17.93,35.99,9.17,17.3,17.96,35.6,30.02,51.11,8.41,10.81,21.15,24.22,36.29,22.9,5.55-.49,9.04-3.74,10.22-8.57,.25-1.03,.4-2.12,.44-3.28v-.03c.25-7.38-3.26-14.26-7.61-20-8.74-11.55-21.43-19.47-30.1-30.95-1.1-1.45,.56-3.97,2.2-2.64,13.57,10.93,30.04,22.94,37.54,39.16,2.16,4.66,3.37,10.4,2.95,15.67Z"/>
        <path class="cls-12" d="M763.11,542.49c-.79,6.18-3.95,11.96-10.43,13.38-2.81,.61-5.73,.39-8.58-.31-1.65-.39-3.27-.95-4.84-1.59,.25-1.03,.4-2.12,.44-3.28,1.54,.49,3.24,.93,4.98,1.21,4.86,.78,9.95,.23,12.32-4.47,1.72-3.43,1.77-7.79,1.29-11.81-.16-1.23-.36-2.44-.58-3.57-.04-.23-.08-.47-.13-.69-1.24-6.16-3.82-11.91-7.3-17.11-6.9-10.34-17.03-17.53-25.07-26.8-1.53-1.77,.58-4.06,2.53-3.01,11.09,5.95,20.78,15.79,27.46,26.44,3.97,6.36,6.88,13.75,7.86,21.33,.18,1.35,.29,2.7,.33,4.05,.07,2.08,0,4.17-.27,6.23Z"/>
        <path class="cls-12" d="M782.86,514.27c-.16,3.74-.99,7.44-2.59,10.87-2.43,5.21-6.79,9.24-12.45,10.6-1.49,.36-2.97,.52-4.45,.52-1.72,0-3.42-.24-5.1-.64-.16-1.23-.36-2.44-.58-3.57,1.8,.25,3.61,.31,5.35,.15,2.61-.24,5.1-1,7.3-2.51,5-3.45,6.65-9.86,6.6-15.62,0-.78-.05-1.57-.11-2.35-.07-1.01-.21-2.02-.38-3.02-.04-.27-.08-.54-.14-.81-.14-.72-.31-1.45-.51-2.16-.13-.52-.28-1.03-.43-1.54-.15-.47-.31-.93-.48-1.39-1.01-2.76-2.39-5.37-4.11-7.68-4.49-6.02-11.59-9.26-18.64-11.33-1.38-.41-1.35-2.61,.11-2.87,8.42-1.52,15.69,1.94,21.39,8.17,2.67,2.91,4.85,6.38,6.44,10.12,.51,1.23,.96,2.5,1.35,3.79,.34,1.12,.61,2.27,.84,3.42,.26,1.38,.45,2.78,.54,4.19,0,.03,0,.06,0,.09,.08,1.18,.09,2.38,.05,3.57Z"/>
        <path class="cls-12" d="M790.25,488.29c-.06,6.01-3.76,11.35-8.82,14.71-1.14,.76-2.35,1.42-3.61,1.96-.67,.29-1.34,.55-2.02,.77-.13-.52-.28-1.03-.43-1.54-.15-.47-.31-.93-.48-1.39,1.93-.87,3.69-2.09,5.2-3.58,3.8-3.73,5.9-9.06,4.43-14.48-.16-.6-.35-1.17-.56-1.76-.19-.49-.38-.98-.6-1.46-.18-.39-.36-.78-.55-1.15-.24-.47-.48-.92-.74-1.37-.06-.1-.11-.19-.17-.29-.62-1.04-1.31-2.07-2.05-3.04-1.41-1.88-3-3.62-4.61-5.21-3.61-3.57-8.06-5.81-11.74-9.19-1.23-1.11-.13-3.58,1.53-3.32,6.59,.99,12.68,7.12,16.86,12,1.44,1.67,2.86,3.52,4.12,5.51,.23,.35,.45,.72,.67,1.09,.22,.37,.43,.76,.63,1.14,.31,.57,.6,1.16,.87,1.75,.12,.25,.23,.51,.34,.77,.08,.18,.15,.35,.22,.53,.22,.55,.41,1.1,.58,1.65,.42,1.31,.72,2.66,.85,4.03,.07,.62,.1,1.24,.09,1.86Z"/>
        <path class="cls-12" d="M795.79,468.88c0,.15-.02,.29-.04,.44-.08,.81-.23,1.6-.42,2.33-.78,3.11-2.38,5.61-4.53,7.52-.51,.46-1.06,.89-1.62,1.27-.15,.11-.3,.21-.45,.31-.18,.12-.37,.24-.56,.35-.88,.52-1.81,.98-2.78,1.36-.19,.08-.38,.16-.58,.23h0c-.28,.1-.57,.2-.86,.29-.19-.49-.38-.98-.6-1.46-.18-.39-.36-.78-.55-1.15,1.4-.57,2.71-1.29,3.87-2.17,.22-.16,.43-.34,.63-.5,0,0,.02-.02,.03-.03,2.16-1.86,3.65-4.35,3.97-7.52,.06-.59,.07-1.2,.06-1.83,0-.12,0-.24-.03-.36-.05-.8-.17-1.57-.36-2.32-.3-1.26-.77-2.46-1.35-3.61-.58-1.16-1.28-2.27-2.02-3.35-1.01-1.43-2.21-2.59-3.45-3.7-.6-.53-1.2-1.04-1.81-1.57h0c-.94-.82-1.88-1.66-2.75-2.61-.57-.63-.44-1.62,.12-2.14,.26-.25,.62-.4,1.04-.37,.57,.05,1.14,.14,1.69,.27,2.91,.64,5.46,2.3,7.56,4.51h0c.47,.51,.91,1.04,1.33,1.59,1.78,2.32,3.08,5.07,3.82,7.86,.3,1.15,.52,2.31,.61,3.46,.08,.98,.09,1.94,.02,2.88Z"/>
        <path class="cls-12" d="M822.65,503.48c.24,9.57-11.22,16.07-19.58,16.26-5.62,.13-10.75-1.51-15.79-3.58-1.47-.61-2.94-1.25-4.41-1.9-.7-.3-1.4-.61-2.1-.92-1.13-.49-2.26-.97-3.4-1.43-.18-.08-.36-.14-.53-.21-.07-1.01-.21-2.02-.38-3.02,.36,.1,.71,.19,1.05,.28,.78,.22,1.54,.44,2.32,.68,.82,.25,1.65,.51,2.46,.77,.18,.06,.36,.12,.53,.18,1.31,.42,2.62,.85,3.92,1.28,3.88,1.27,7.79,2.45,11.83,3.06,5.48,.81,10.82-.08,15.08-3.82,2.47-2.16,5.29-5.49,4.15-9.01-.27-.85-.69-1.64-1.23-2.39-.79-1.1-1.82-2.09-3-3-3.74-2.86-8.94-4.79-12.33-6.23-2.08-.89-4.78-1.67-7.47-2.63-1.23-.43-2.46-.91-3.61-1.44-.1-.04-.21-.09-.31-.14-1.16-.55-2.24-1.16-3.19-1.86-.11-.09-.21-.16-.31-.24-.57-.46-1.1-.95-1.54-1.49-.05-.06-.09-.12-.13-.17-.29-.37-.41-.88-.37-1.37,.08-.89,.67-1.72,1.72-1.54,.84,.14,1.66,.35,2.49,.61,.22,.07,.45,.15,.67,.23,.43,.15,.86,.31,1.28,.49,.45,.19,.89,.37,1.33,.56,1.17,.5,2.32,1.04,3.47,1.5,.1,.05,.2,.1,.31,.13,4.14,1.68,8.29,3.32,12.32,5.27,3.26,1.58,7.37,3.69,10.42,6.54,1.06,.99,2.01,2.08,2.74,3.27,.96,1.57,1.57,3.32,1.62,5.27Z"/>
        <path class="cls-12" d="M821.03,498.21c-1.39,.61-2.91,1.11-4.47,1.51-.79-1.1-1.82-2.09-3-3,1.67-.49,3.29-1.08,4.73-1.78,5.03-2.49,7.93-6.49,3.97-12.91-.12-.18-.23-.36-.34-.52-.54-.78-1.16-1.47-1.83-2.1-3.87-3.61-9.73-4.87-14.77-5.83-1.74-.32-3.43-.59-5.08-.87-1.52-.26-3-.54-4.46-.92-.15-.04-.31-.08-.46-.13-1.36-.38-2.71-.86-4.03-1.5,.06-.59,.07-1.2,.06-1.83,0-.12,0-.24-.03-.36-.05-.8-.17-1.57-.36-2.32,.99,.06,2.04,.13,3.11,.21,.55,.04,1.11,.08,1.68,.13,1.25,.09,2.54,.21,3.85,.36,9.94,1.11,21.07,3.64,26.45,11.05,.61,.84,1.14,1.74,1.59,2.71,.56,1.19,.99,2.48,1.27,3.9,1.49,7.42-2.32,11.72-7.89,14.19Z"/>
        <path class="cls-12" d="M841.06,465.57c-.32,8.2-6.38,12.37-13.41,14.55-1.87,.59-3.81,1.04-5.73,1.38-.54-.78-1.16-1.47-1.83-2.1,1.98-.52,4.04-1.16,5.97-1.99,5.26-2.21,9.64-5.73,9.41-11.68-.17-4.29-2.21-7.19-5.05-9.45-2.55-2.05-5.75-3.57-8.78-5.12,0,0,0,0,0,0-.35-.18-.69-.35-1.04-.53-1.67-.86-3.26-1.74-4.64-2.76-.8-.58-1.11-1.85-.56-2.66,0,0,0,0,0,0l8.35-.6s0,0,0,0h0c3.13,1.03,6.06,3.11,8.51,5.15,.12,.1,.23,.19,.36,.3,.06,.06,.13,.11,.2,.18h0c1.79,1.54,3.54,3.37,4.96,5.42,2.06,2.94,3.43,6.32,3.28,9.91Z"/>
        <path class="cls-12" d="M1258.37,303.64s-.01,0-.02,0c-10.05,5.5-19,12.79-26.68,21.26-6.38,7.02-12.2,15.04-15.8,23.87-.83,2.02-1.55,4.09-2.17,6.19-.59,1.98-1.09,3.98-1.51,6-1.74,.09-3.48,.18-5.22,.29,.38-2,.84-3.99,1.37-5.95,1.07-3.99,2.46-7.89,4.21-11.64,7.09-15.21,19.16-28.67,33.01-38.61,1.5-1.09,3.03-2.13,4.57-3.12-7.84-2.6-15.66-5.25-23.35-8.29-17.15-6.79-33.23-15.23-47.07-27.57-3.76-3.35-7.55-6.74-11.25-10.19-1.1-1.03-2.19-2.06-3.26-3.09-.59-.57-1.23-1.2-1.89-1.9,1.28-.25,2.57-.5,3.86-.77,1.44,1.25,2.91,2.47,4.41,3.65,.49,.38,.98,.77,1.46,1.16,4.8,3.85,9.44,7.88,14.41,11.51,7.06,5.16,14.33,9.82,22.19,13.68,15.39,7.56,31.9,12.63,48.05,18.28,2.21,.78,2.98,3.98,.68,5.24Z"/>
      </g>
      <g class="cls-1">
        <path class="cls-13" d="M433.15,258.55l-.67,1.09c-1.53,3.32,1.36,7.76,5.01,7.71,3.65-.05,6.42-4.57,4.81-7.84-1.62-3.28-6.88-3.83-9.15-.96Z"/>
        <path class="cls-13" d="M427.8,335.5l-.67,1.09c-1.53,3.32,1.36,7.76,5.01,7.71,3.65-.05,6.42-4.57,4.8-7.84-1.62-3.28-6.88-3.83-9.15-.96Z"/>
        <path class="cls-13" d="M399.03,353.65l-.67,1.09c-1.53,3.32,1.36,7.76,5.01,7.71,3.65-.05,6.42-4.57,4.8-7.84-1.62-3.28-6.88-3.83-9.15-.96Z"/>
        <path class="cls-13" d="M265.06,328.44l-.67,1.09c-1.53,3.32,1.36,7.76,5.01,7.71,3.65-.05,6.42-4.57,4.81-7.84-1.62-3.28-6.88-3.83-9.15-.96Z"/>
        <path class="cls-13" d="M237.12,345.39l-.67,1.09c-1.53,3.32,1.36,7.76,5.01,7.71,3.65-.05,6.42-4.57,4.8-7.84-1.62-3.28-6.88-3.83-9.15-.96Z"/>
        <path class="cls-13" d="M48.03,333.77l-.67,1.09c-1.53,3.32,1.36,7.76,5.01,7.71s6.42-4.57,4.8-7.84c-1.62-3.28-6.88-3.83-9.15-.96Z"/>
        <path class="cls-13" d="M594.93,337.57l-.67,1.09c-1.53,3.32,1.36,7.76,5.01,7.71,3.65-.05,6.42-4.57,4.81-7.84-1.62-3.28-6.88-3.83-9.15-.96Z"/>
        <path class="cls-13" d="M753.44,325.95l-.67,1.09c-1.53,3.32,1.36,7.76,5.01,7.71,3.65-.05,6.42-4.57,4.81-7.84-1.62-3.28-6.88-3.83-9.15-.96Z"/>
        <path class="cls-13" d="M862.5,330.16l-.67,1.09c-1.53,3.32,1.36,7.76,5.01,7.71,3.65-.05,6.42-4.57,4.8-7.84-1.62-3.28-6.88-3.83-9.15-.96Z"/>
        <path class="cls-13" d="M919.07,337.57l-.67,1.09c-1.53,3.32,1.36,7.76,5.01,7.71,3.65-.05,6.42-4.57,4.81-7.84-1.62-3.28-6.88-3.83-9.15-.96Z"/>
        <path class="cls-13" d="M774.96,349.79l-.67,1.09c-1.53,3.32,1.36,7.76,5.01,7.71,3.65-.05,6.42-4.57,4.81-7.84-1.62-3.28-6.88-3.83-9.15-.96Z"/>
        <path class="cls-13" d="M996.5,340.06l-.67,1.09c-1.53,3.32,1.36,7.76,5.01,7.71,3.65-.05,6.42-4.57,4.8-7.84-1.62-3.28-6.88-3.83-9.15-.96Z"/>
        <path class="cls-13" d="M1168.78,326.05l-.67,1.09c-1.53,3.32,1.36,7.76,5.01,7.71,3.65-.05,6.42-4.57,4.81-7.84-1.62-3.28-6.88-3.83-9.15-.96Z"/>
        <path class="cls-13" d="M1037.54,351.15l-.67,1.09c-1.53,3.32,1.36,7.76,5.01,7.71,3.65-.05,6.42-4.57,4.81-7.84-1.62-3.28-6.88-3.83-9.15-.96Z"/>
        <path class="cls-13" d="M681.24,323.56l-.67,1.09c-1.53,3.32,1.36,7.76,5.01,7.71,3.65-.05,6.42-4.57,4.8-7.84-1.62-3.28-6.88-3.83-9.15-.96Z"/>
        <path class="cls-13" d="M401.52,220.78l-.67,1.09c-1.53,3.32,1.36,7.76,5.01,7.71,3.65-.05,6.42-4.57,4.8-7.84-1.62-3.28-6.88-3.83-9.15-.96Z"/>
        <path class="cls-13" d="M371.56,254.65l-.67,1.09c-1.53,3.32,1.36,7.76,5.01,7.71s6.42-4.57,4.81-7.84c-1.62-3.28-6.88-3.83-9.15-.96Z"/>
        <path class="cls-13" d="M256.97,207.8c-1.62-3.28-6.88-3.83-9.15-.96l-.67,1.09c-1.53,3.32,1.36,7.76,5.01,7.71,3.65-.05,6.42-4.57,4.81-7.84Z"/>
        <path class="cls-13" d="M456.76,287.82l-.67,1.09c-1.53,3.32,1.36,7.76,5.01,7.71,3.65-.05,6.42-4.57,4.81-7.84-1.62-3.28-6.88-3.83-9.15-.96Z"/>
        <path class="cls-13" d="M489.51,256.06c-1.34-.98-3.58-.18-3.98,1.43l-.04,1.04c.27,1.64,2.43,2.63,3.85,1.75s1.51-3.24,.17-4.23Z"/>
        <path class="cls-13" d="M545.11,252.29c1.42-.87,1.51-3.24,.17-4.23-1.34-.98-3.58-.18-3.98,1.43l-.04,1.04c.27,1.64,2.43,2.63,3.85,1.75Z"/>
        <path class="cls-13" d="M592.89,278.03c-1.34-.98-3.58-.18-3.98,1.43l-.04,1.04c.27,1.64,2.43,2.63,3.85,1.75,1.42-.87,1.51-3.24,.17-4.23Z"/>
        <path class="cls-13" d="M670.51,280.52c-1.34-.98-3.58-.18-3.98,1.43l-.04,1.04c.27,1.64,2.43,2.63,3.85,1.75,1.42-.87,1.51-3.24,.17-4.23Z"/>
        <path class="cls-13" d="M733.23,272.52c-1.34-.98-3.58-.18-3.98,1.43l-.04,1.04c.27,1.64,2.43,2.63,3.85,1.75,1.42-.87,1.51-3.24,.17-4.23Z"/>
        <path class="cls-13" d="M960.17,270.03c-1.34-.98-3.58-.18-3.98,1.43l-.04,1.04c.27,1.64,2.43,2.63,3.85,1.75,1.42-.87,1.51-3.24,.17-4.23Z"/>
        <path class="cls-13" d="M1068.62,303.62c-1.34-.98-3.58-.18-3.98,1.43l-.04,1.04c.27,1.64,2.43,2.63,3.85,1.75s1.51-3.24,.17-4.23Z"/>
        <path class="cls-13" d="M960.17,299.58c-1.34-.98-3.58-.18-3.98,1.43l-.04,1.04c.27,1.64,2.43,2.63,3.85,1.75,1.42-.87,1.51-3.24,.17-4.23Z"/>
        <path class="cls-13" d="M999.64,268.74c1.42-.87,1.51-3.24,.17-4.23-1.34-.98-3.58-.18-3.98,1.43l-.04,1.04c.27,1.64,2.43,2.63,3.85,1.75Z"/>
        <path class="cls-13" d="M1146.67,279.08c-1.34-.98-3.58-.18-3.98,1.43l-.04,1.04c.27,1.64,2.43,2.63,3.85,1.75,1.42-.87,1.51-3.24,.17-4.23Z"/>
        <path class="cls-13" d="M337.73,236.02c-1.34-.98-3.58-.18-3.98,1.43l-.04,1.04c.27,1.64,2.43,2.63,3.85,1.75s1.51-3.24,.17-4.23Z"/>
        <path class="cls-13" d="M255.94,237.59c1.42-.87,1.51-3.24,.17-4.23-1.34-.98-3.58-.18-3.98,1.43l-.04,1.04c.27,1.64,2.43,2.63,3.85,1.75Z"/>
        <path class="cls-13" d="M514.04,281.57c-1.34-.98-3.58-.18-3.98,1.43l-.04,1.04c.27,1.64,2.43,2.63,3.85,1.75,1.42-.87,1.51-3.24,.17-4.23Z"/>
        <path class="cls-13" d="M217.64,260.29c1.42-.87,1.51-3.24,.17-4.23-1.34-.98-3.58-.18-3.98,1.43l-.04,1.04c.27,1.64,2.43,2.63,3.85,1.75Z"/>
        <path class="cls-13" d="M486.85,166.41c1.42-.87,1.51-3.24,.17-4.23-1.34-.98-3.58-.18-3.98,1.43l-.04,1.04c.27,1.64,2.43,2.63,3.85,1.75Z"/>
        <path class="cls-13" d="M407.15,298.79c1.42-.87,1.51-3.24,.17-4.23-1.34-.98-3.58-.18-3.98,1.43l-.04,1.04c.27,1.64,2.43,2.63,3.85,1.75Z"/>
        <path class="cls-13" d="M462.56,331.58c-1.34-.98-3.58-.18-3.98,1.43l-.04,1.04c.27,1.64,2.43,2.63,3.85,1.75,1.42-.87,1.51-3.24,.17-4.23Z"/>
        <path class="cls-13" d="M524.43,352.57c-1.34-.98-3.58-.18-3.98,1.43l-.04,1.04c.27,1.64,2.43,2.63,3.85,1.75,1.42-.87,1.51-3.24,.17-4.23Z"/>
        <path class="cls-13" d="M557.72,346.22c-1.34-.98-3.58-.18-3.98,1.43l-.04,1.04c.27,1.64,2.43,2.63,3.85,1.75s1.51-3.24,.17-4.23Z"/>
        <path class="cls-13" d="M391.09,327.36c-1.34-.98-3.58-.18-3.98,1.43l-.04,1.04c.27,1.64,2.43,2.63,3.85,1.75s1.51-3.24,.17-4.23Z"/>
        <path class="cls-13" d="M324.8,355.06c-1.34-.98-3.58-.18-3.98,1.43l-.04,1.04c.27,1.64,2.43,2.63,3.85,1.75,1.42-.87,1.51-3.24,.17-4.23Z"/>
        <path class="cls-13" d="M648.82,344.31c-1.34-.98-3.58-.18-3.98,1.43l-.04,1.04c.27,1.64,2.43,2.63,3.85,1.75,1.42-.87,1.51-3.24,.17-4.23Z"/>
        <path class="cls-13" d="M603.59,359.19c-1.34-.98-3.58-.18-3.98,1.43l-.04,1.04c.27,1.64,2.43,2.63,3.85,1.75,1.42-.87,1.51-3.24,.17-4.23Z"/>
        <path class="cls-13" d="M722.49,338.98c-1.34-.98-3.58-.18-3.98,1.43l-.04,1.04c.27,1.64,2.43,2.63,3.85,1.75,1.42-.87,1.51-3.24,.17-4.23Z"/>
        <path class="cls-13" d="M606.08,322.48c-1.34-.98-3.58-.18-3.98,1.43l-.04,1.04c.27,1.64,2.43,2.63,3.85,1.75s1.51-3.24,.17-4.23Z"/>
        <path class="cls-13" d="M654.08,324.97c-1.34-.98-3.58-.18-3.98,1.43l-.04,1.04c.27,1.64,2.43,2.63,3.85,1.75,1.42-.87,1.51-3.24,.17-4.23Z"/>
        <path class="cls-13" d="M726.21,312.68c-1.34-.98-3.58-.18-3.98,1.43l-.04,1.04c.27,1.64,2.43,2.63,3.85,1.75,1.42-.87,1.51-3.24,.17-4.23Z"/>
        <path class="cls-13" d="M817.1,344.31c-1.34-.98-3.58-.18-3.98,1.43l-.04,1.04c.27,1.64,2.43,2.63,3.85,1.75,1.42-.87,1.51-3.24,.17-4.23Z"/>
        <path class="cls-13" d="M945.12,359.19c-1.34-.98-3.58-.18-3.98,1.43l-.04,1.04c.27,1.64,2.43,2.63,3.85,1.75,1.42-.87,1.51-3.24,.17-4.23Z"/>
        <path class="cls-13" d="M902.81,319.99c-1.34-.98-3.58-.18-3.98,1.43l-.04,1.04c.27,1.64,2.43,2.63,3.85,1.75,1.42-.87,1.51-3.24,.17-4.23Z"/>
        <path class="cls-13" d="M1043.17,341.14c1.42-.87,1.51-3.24,.17-4.23-1.34-.98-3.58-.18-3.98,1.43l-.04,1.04c.27,1.64,2.43,2.63,3.85,1.75Z"/>
        <path class="cls-13" d="M1096.3,343.37c-1.34-.98-3.58-.18-3.98,1.43l-.04,1.04c.27,1.64,2.43,2.63,3.85,1.75,1.42-.87,1.51-3.24,.17-4.23Z"/>
        <path class="cls-13" d="M1207.6,319.64c-1.34-.98-3.58-.18-3.98,1.43l-.04,1.04c.27,1.64,2.43,2.63,3.85,1.75s1.51-3.24,.17-4.23Z"/>
        <path class="cls-13" d="M1083.62,327.46c-1.34-.98-3.58-.18-3.98,1.43l-.04,1.04c.27,1.64,2.43,2.63,3.85,1.75,1.42-.87,1.51-3.24,.17-4.23Z"/>
        <path class="cls-13" d="M1128.67,327.36c-1.34-.98-3.58-.18-3.98,1.43l-.04,1.04c.27,1.64,2.43,2.63,3.85,1.75s1.51-3.24,.17-4.23Z"/>
        <path class="cls-13" d="M850.52,359.19c-1.34-.98-3.58-.18-3.98,1.43l-.04,1.04c.27,1.64,2.43,2.63,3.85,1.75s1.51-3.24,.17-4.23Z"/>
        <path class="cls-13" d="M883,352.57c-1.34-.98-3.58-.18-3.98,1.43l-.04,1.04c.27,1.64,2.43,2.63,3.85,1.75,1.42-.87,1.51-3.24,.17-4.23Z"/>
        <path class="cls-13" d="M969.74,336.14c-1.34-.98-3.58-.18-3.98,1.43l-.04,1.04c.27,1.64,2.43,2.63,3.85,1.75,1.42-.87,1.51-3.24,.17-4.23Z"/>
        <path class="cls-13" d="M377.36,350.07c-1.34-.98-3.58-.18-3.98,1.43l-.04,1.04c.27,1.64,2.43,2.63,3.85,1.75s1.51-3.24,.17-4.23Z"/>
        <path class="cls-13" d="M470.4,348.71c-1.34-.98-3.58-.18-3.98,1.43l-.04,1.04c.27,1.64,2.43,2.63,3.85,1.75,1.42-.87,1.51-3.24,.17-4.23Z"/>
        <path class="cls-13" d="M351.82,332.69c-1.34-.98-3.58-.18-3.98,1.43l-.04,1.04c.27,1.64,2.43,2.63,3.85,1.75,1.42-.87,1.51-3.24,.17-4.23Z"/>
        <path class="cls-13" d="M265.33,319.4c1.42-.87,1.51-3.24,.17-4.23-1.34-.98-3.58-.18-3.98,1.43l-.04,1.04c.27,1.64,2.43,2.63,3.85,1.75Z"/>
        <path class="cls-13" d="M91.35,331.69c1.42-.87,1.51-3.24,.17-4.23-1.34-.98-3.58-.18-3.98,1.43l-.04,1.04c.27,1.64,2.43,2.63,3.85,1.75Z"/>
        <path class="cls-13" d="M25.89,336.91c-1.34-.98-3.58-.18-3.98,1.43l-.04,1.04c.27,1.64,2.43,2.63,3.85,1.75,1.42-.87,1.51-3.24,.17-4.23Z"/>
        <path class="cls-13" d="M94.01,341.47c-1.34-.98-3.58-.18-3.98,1.43l-.04,1.04c.27,1.64,2.43,2.63,3.85,1.75,1.42-.87,1.51-3.24,.17-4.23Z"/>
        <path class="cls-13" d="M190.87,343.38c-1.34-.98-3.58-.18-3.98,1.43l-.04,1.04c.27,1.64,2.43,2.63,3.85,1.75,1.42-.87,1.51-3.24,.17-4.23Z"/>
        <path class="cls-13" d="M222.79,308.99c-1.34-.98-3.58-.18-3.98,1.43l-.04,1.04c.27,1.64,2.43,2.63,3.85,1.75,1.42-.87,1.51-3.24,.17-4.23Z"/>
        <path class="cls-13" d="M80.42,346.22c-1.34-.98-3.58-.18-3.98,1.43l-.04,1.04c.27,1.64,2.43,2.63,3.85,1.75,1.42-.87,1.51-3.24,.17-4.23Z"/>
        <path class="cls-13" d="M220.3,336.14c-1.34-.98-3.58-.18-3.98,1.43l-.04,1.04c.27,1.64,2.43,2.63,3.85,1.75,1.42-.87,1.51-3.24,.17-4.23Z"/>
        <path class="cls-13" d="M501.44,331.58c-1.34-.98-3.58-.18-3.98,1.43l-.04,1.04c.27,1.64,2.43,2.63,3.85,1.75,1.42-.87,1.51-3.24,.17-4.23Z"/>
        <path class="cls-13" d="M547.77,322.48c-1.34-.98-3.58-.18-3.98,1.43l-.04,1.04c.27,1.64,2.43,2.63,3.85,1.75,1.42-.87,1.51-3.24,.17-4.23Z"/>
        <path class="cls-13" d="M258.6,269.39c-1.34-.98-3.58-.18-3.98,1.43l-.04,1.04c.27,1.64,2.43,2.63,3.85,1.75,1.42-.87,1.51-3.24,.17-4.23Z"/>
        <path class="cls-13" d="M498.78,214.97c1.42-.87,1.51-3.24,.17-4.23-1.34-.98-3.58-.18-3.98,1.43l-.04,1.04c.27,1.64,2.43,2.63,3.85,1.75Z"/>
        <path class="cls-13" d="M646.16,194.88c1.42-.87,1.51-3.24,.17-4.23-1.34-.98-3.58-.18-3.98,1.43l-.04,1.04c.27,1.64,2.43,2.63,3.85,1.75Z"/>
        <path class="cls-13" d="M719.62,193.67c-1.34-.98-3.58-.18-3.98,1.43l-.04,1.04c.27,1.64,2.43,2.63,3.85,1.75s1.51-3.24,.17-4.23Z"/>
        <path class="cls-13" d="M720.13,246.93c.27,1.64,2.43,2.63,3.85,1.75,1.42-.87,1.51-3.24,.17-4.23-1.34-.98-3.58-.18-3.98,1.43l-.04,1.04Z"/>
        <path class="cls-13" d="M769.76,222.19c-1.34-.98-3.58-.18-3.98,1.43l-.04,1.04c.27,1.64,2.43,2.63,3.85,1.75,1.42-.87,1.51-3.24,.17-4.23Z"/>
        <path class="cls-13" d="M845.55,265.29c-1.34-.98-3.58-.18-3.98,1.43l-.04,1.04c.27,1.64,2.43,2.63,3.85,1.75,1.42-.87,1.51-3.24,.17-4.23Z"/>
        <path class="cls-13" d="M1029.18,290.88c-1.34-.98-3.58-.18-3.98,1.43l-.04,1.04c.27,1.64,2.43,2.63,3.85,1.75,1.42-.87,1.51-3.24,.17-4.23Z"/>
        <path class="cls-13" d="M1080.96,283.31c1.42-.87,1.51-3.24,.17-4.23-1.34-.98-3.58-.18-3.98,1.43l-.04,1.04c.27,1.64,2.43,2.63,3.85,1.75Z"/>
        <path class="cls-13" d="M819.58,303.62c-1.34-.98-3.58-.18-3.98,1.43l-.04,1.04c.27,1.64,2.43,2.63,3.85,1.75s1.51-3.24,.17-4.23Z"/>
        <path class="cls-13" d="M812.05,230.51c-1.34-.98-3.58-.18-3.98,1.43l-.04,1.04c.27,1.64,2.43,2.63,3.85,1.75,1.42-.87,1.51-3.24,.17-4.23Z"/>
        <path class="cls-13" d="M574.62,173.2c-1.34-.98-3.58-.18-3.98,1.43l-.04,1.04c.27,1.64,2.43,2.63,3.85,1.75,1.42-.87,1.51-3.24,.17-4.23Z"/>
        <path class="cls-13" d="M467.74,183.33c1.42-.87,1.51-3.24,.17-4.23-1.34-.98-3.58-.18-3.98,1.43l-.04,1.04c.27,1.64,2.43,2.63,3.85,1.75Z"/>
        <path class="cls-13" d="M522.22,227.36c-6.28,1.9-6.42,12.92,1.47,10.33,6.55-2.16,5.74-12.5-1.47-10.33Z"/>
        <path class="cls-13" d="M280.76,272.39c-6.28,1.9-6.42,12.92,1.47,10.33,6.55-2.16,5.74-12.5-1.47-10.33Z"/>
        <path class="cls-13" d="M407.6,185.01c-6.28,1.9-6.42,12.92,1.47,10.33,6.55-2.16,5.74-12.5-1.47-10.33Z"/>
        <path class="cls-13" d="M548.33,164.54c-6.28,1.9-6.42,12.92,1.47,10.33,6.55-2.16,5.74-12.5-1.47-10.33Z"/>
        <path class="cls-13" d="M580.17,199.59c-6.28,1.9-6.42,12.92,1.47,10.33,6.55-2.16,5.74-12.5-1.47-10.33Z"/>
        <path class="cls-13" d="M888.11,266.88c-6.28,1.9-6.42,12.92,1.47,10.33,6.55-2.16,5.74-12.5-1.47-10.33Z"/>
        <path class="cls-13" d="M927.92,293.24c-6.28,1.9-6.42,12.92,1.47,10.33,6.55-2.16,5.74-12.5-1.47-10.33Z"/>
        <path class="cls-13" d="M984.38,290.22c-6.28,1.9-6.42,12.92,1.47,10.33,6.55-2.16,5.74-12.5-1.47-10.33Z"/>
        <path class="cls-13" d="M1173.85,300.55c6.55-2.16,5.74-12.5-1.47-10.33-6.28,1.9-6.42,12.92,1.47,10.33Z"/>
        <path class="cls-13" d="M882.27,247.24c6.55-2.16,5.74-12.5-1.47-10.33-6.28,1.9-6.42,12.92,1.47,10.33Z"/>
        <path class="cls-13" d="M592.15,260.75c6.55-2.16,5.74-12.5-1.47-10.33-6.28,1.9-6.42,12.92,1.47,10.33Z"/>
        <path class="cls-13" d="M663.04,238.38c-6.28,1.9-6.42,12.92,1.47,10.33,6.55-2.16,5.74-12.5-1.47-10.33Z"/>
        <path class="cls-13" d="M762.3,242.42c-6.28,1.9-6.42,12.92,1.47,10.33,6.55-2.16,5.74-12.5-1.47-10.33Z"/>
        <path class="cls-13" d="M795.17,272.39c-6.28,1.9-6.42,12.92,1.47,10.33,6.55-2.16,5.74-12.5-1.47-10.33Z"/>
        <path class="cls-13" d="M175.8,238.38c-6.28,1.9-6.42,12.92,1.47,10.33,6.55-2.16,5.74-12.5-1.47-10.33Z"/>
      </g>
      <path class="cls-5" d="M144.72,267.51c-13.19,6.59-28.55,19.47-22.38,32.86,4.83,10.46,19.1,11.45,30.59,10.61,122.97-9.08,242.17-50.94,365.39-55.25,112.59-3.93,223.52,23.6,334.31,44.06,110.78,20.46,226.68,33.71,334.78,1.99-32.44-28.52-80.84-24.7-124.04-24.41-126.12,.86-209.8-49.28-329.19-84.64-57.89-17.14-108.75-36.98-219.1-34.76-23.47,.47-48.15,6.93-71.14,10.95-31.57,5.52-62.9,12.45-93.85,20.74-70.84,18.96-139.77,45.06-205.37,77.86Z"/>
      <path class="cls-11" d="M87.42,367.06c-4.03,2.08-8.26,3.54-12.57,4.39-3.01,.6-6.07,.91-9.13,.92-5.53,.03-11.09-.87-16.47-2.64-9.99-3.29-23.61-10.74-31.55-20.19,30.86,7.87,65.04,8.4,94.78-.51-8.04,6.45-15.96,13.32-25.06,18.02Z"/>
      <path class="cls-11" d="M1211.09,337.97c-67.17,4.18-132.53,22.48-198.17,37.33-293.77,66.5-602.8,64.49-895.69-5.72-5.88-1.41-8.64-8.19-5.4-13.3,1-1.57,1.96-3.15,2.77-4.83-7.23,6.96-14.38,14-23.02,19.27-4.11,2.51-8.46,4.37-12.95,5.64h0c15.44,17.5,40.43,23.91,62.27,29.15,24.26,5.83,48.42,12.28,72.75,17.74,15.06,3.38,30.34,5.29,45.69,6.78,2.7,.26,5.41,.5,8.11,.74,9.29,.82,18.61,1.56,27.89,2.44,23.29,2.21,46.59,4.4,69.91,6.19,1.4,.11,2.81,.21,4.22,.32,3.24,.24,6.5,.48,9.74,.7,55.17,3.81,110.88,6.77,166.19,6.71,30.71-.04,61.41-.81,92.1-1.11l2.66-.03c23.46-.2,46.91-.11,70.38,.81,23.05,.92,46.13,.97,69.17,.2,.91-.02,1.81-.06,2.73-.09,11.24-.39,22.47-.98,33.69-1.78,3.9-.26,7.78-.55,11.68-.87,15.48-1.25,30.93-2.85,46.34-4.79,32.98-4.15,65.13-11.37,96.54-21.29,4.7-1.47,9.38-3.01,14.04-4.61,13.12-4.5,26.09-9.46,38.97-14.87,46.73-19.63,95.63-34.84,146.21-40.14,.49-.05,.98-.1,1.47-.15,3.27-.34,6.55-.67,9.84-.97,48.83-4.58,98.81-5.73,147.54-1.2,11.09,1.03,22.09,2.6,33.04,4.49-46.53-20.23-99.61-25.98-150.69-22.8Z"/>
      <path class="cls-11" d="M370.69,458.21c-6.11-.84-12.17-2.3-18.28-3.19-1.27-.18-2.53-.34-3.8-.47-.44-.04-.88-.08-1.32-.12-6.3-.53-12.76-.43-18.92,.83-1.51,.31-3.01,.68-4.48,1.14-2.54,.79-5,1.81-7.35,3.1-3.79,2.09-7.2,5.01-9.87,8.46-.61,.79-1.18,1.61-1.72,2.45-3,4.79-4.58,10.36-3.87,15.97,.76,6.08,3.99,11.54,7.29,16.71,3.29,5.17,6.78,10.4,8.18,16.36,.08,.34,.15,.68,.21,1.03-5.37-4.69-9.85-11.34-13.7-16.12-10.55-13.11-19.46-26.66-25.52-42.41-2.92-7.57-5.98-15.42-8.22-23.44,18.83,1.74,37.73,3.12,56.52,4.8,15.03,1.35,30.08,2.53,45.14,3.59,1.6,3.67,1.82,7.71-.3,11.31Z"/>
      <path class="cls-11" d="M790.88,465.29c-1.62-.04-3.28-.15-4.9-.16-2.89-.03-5.78-.05-8.68-.05-2.95,0-5.91,.01-8.87,.06-3.7,.05-7.4,.15-11.1,.3-11.04,.45-22.07,1.41-32.97,3.3-9.1,1.57-18.55,4.02-25.25,10.38-9.75,9.25-11.09,25.06-5.79,37.4,5.3,12.34,16.04,21.59,27.64,28.37,5.92,3.46,12.6,6.95,17.33,11.71-1.66,3.36-4.8,5.54-9.27,5.94-15.14,1.32-27.88-12.09-36.29-22.9-12.05-15.51-20.85-33.81-30.02-51.11-6.17-11.65-10.8-24.73-17.93-35.99,10.6-.08,21.21-.09,31.81,.03,29.09,.34,58.11,1.94,87.22,1.39,6.18-.12,12.35-.29,18.53-.53,.61,.53,1.21,1.04,1.81,1.57,1.24,1.1,2.44,2.27,3.45,3.7,.74,1.08,1.45,2.19,2.02,3.35,.52,1.04,.95,2.12,1.25,3.25Z"/>
      <path class="cls-11" d="M790.46,480.94c-.43-.17-.85-.33-1.28-.49,.56-.38,1.1-.81,1.62-1.27,2.15-1.91,3.75-4.41,4.53-7.52,.15,.05,.31,.09,.46,.13,1.46,.37,2.94,.66,4.46,.92,1.65,.28,3.34,.55,5.08,.87,.46,.09,.92,.18,1.39,.27-1.29,1.51-2.49,3.16-3.62,4.97-1.18,1.89-2.17,4.01-2.87,6.21-1.55-.63-3.11-1.26-4.66-1.89-.1-.04-.2-.09-.31-.13-1.15-.47-2.3-1-3.47-1.5-.44-.19-.88-.37-1.33-.56Z"/>
      <path class="cls-11" d="M815.05,507.43c.44,.25,.86,.53,1.27,.83-.8,1.08-1.77,2.05-2.69,2.86-4.27,3.74-9.6,4.63-15.08,3.82-4.04-.61-7.94-1.78-11.83-3.06-1.3-.43-2.61-.86-3.92-1.28-.09-1.41-.28-2.81-.54-4.19-.23-1.15-.5-2.3-.84-3.42,5.06-3.37,8.76-8.71,8.82-14.71,0-.62-.02-1.24-.09-1.86,1.15,.53,2.38,1,3.61,1.44,1.88,.67,3.77,1.25,5.46,1.85-.45,4.36,.5,8.6,3.69,11.55,3.34,3.1,8.21,3.86,12.14,6.16Z"/>
      <path class="cls-11" d="M791.34,454.68c-.42-.55-.86-1.08-1.33-1.58,.44-.02,.89-.04,1.33-.06,10.11-.47,20.2-1.1,30.28-1.88,0,0,0,0,0,0,3.04,1.55,6.23,3.07,8.78,5.12,1.21,.96,2.27,2.04,3.1,3.29-8.04,1.52-15.37,4.24-21.51,9.13-4.01-1.18-8.31-1.89-12.4-2.34-1.31-.15-2.59-.27-3.85-.36-.09-1.15-.31-2.31-.61-3.46-.74-2.79-2.04-5.54-3.82-7.86Z"/>
      <path class="cls-11" d="M1184.54,482.19c1.8,3.12,2.17,6.55-1.8,7.3-6.07,1.16-13.12-1.58-18.77-3.52-48.38-16.59-92.67-42.98-140.59-60.75-9.01-3.34-18.23-6.39-27.59-8.9,3.37-1.22,6.73-2.49,10.08-3.79,25.87-10.06,51.1-21.25,77.63-29.58,26.07-8.18,52.79-14.39,79.92-17.82,5.94-.76,11.9-1.41,17.88-1.96,5.61,3.76,7.13,10.73,1.51,15.22-1.11,.89-2.33,1.64-3.61,2.27-1.47,.32-2.95,.63-4.43,.92-3.23,.65-6.47,1.26-9.72,1.85-12.13,2.18-24.35,4.05-36.31,6.68-3.43,.75-6.84,1.57-10.22,2.48-8.48,2.27-16.77,5.09-24.74,8.86-9.62,4.55-19.79,12.63-18.9,23.24,.82,9.86,10.73,16.15,19.83,20.04,4.44,1.9,8.97,3.61,13.55,5.12-.65,.6-.65,1.94,.4,2.13,12.8,2.34,25.22,7.03,37.28,11.8,8.52,3.36,17.22,6.29,25.65,9.91h.13c.89,.37,1.77,.75,2.64,1.16,1.9,.86,4.01,1.84,5.91,3.1,1.73,1.14,3.26,2.51,4.25,4.23Z"/>
      <path class="cls-11" d="M1187.63,469.46c-1.47,1.86-3.94,2.79-6.42,3.32-7.98-4.84-18.08-7.17-26.53-10.42-4.54-1.75-9.04-3.49-13.57-5.11,11.67,1.47,23.49,1.78,35.23,.88,1.04-.08,2.09-.18,3.14-.29,2.02,.94,3.94,2.03,5.72,3.33,2.79,2.03,4.98,5.07,2.43,8.29Z"/>
      <path class="cls-6" d="M698.87,32.46c-2.75,4.6-5.88,8.92-9.26,13.05-3.12-2.94-6.77-5.13-10.97-5.88-6.93-1.25-14.06,1.71-19.55,6.14-5.48,4.42-9.66,10.22-14.06,15.71-7.16,8.94-15.1,17.25-23.69,24.83-11.28,9.97-23.68,18.69-36.88,25.93,15.58-13.2,30.67-26.67,44.52-41.83,15.13-16.56,27.83-35.78,45.3-50.07,4.02-3.29,8.29-6.14,12.76-8.79,3.8-2.26,8.62-5.61,13.25-5.4,10.07,.48,5.27,13.39,1.51,20.97-.88,1.78-1.7,3.27-2.26,4.23-.21,.38-.44,.76-.67,1.13Z"/>
      <path class="cls-6" d="M712.94,103.84c2.08,4.65,.13,9.87-2.36,14.28-.33-.16-.66-.35-.98-.56-2.23-1.52-3.28-3.84-3.69-6.49,2.45-2.31,4.8-4.71,7.02-7.23Z"/>
      <path class="cls-6" d="M707,60.9c-1.43,2.07-2.98,4.07-4.62,6-1.37-3.85-3.06-7.59-5.05-11.16-1.11-2-2.38-3.98-3.79-5.84,3.43-4.03,6.64-8.24,9.48-12.71,1.13-1.78,2.32-3.69,3.47-5.69,2.54,.1,4.89,.77,6.63,2.4,5.46,5.12,.62,15.82-3.11,22.25-.66,1.14-1.29,2.15-1.82,2.97-.38,.6-.78,1.19-1.18,1.78Z"/>
      <path class="cls-6" d="M716.59,90.05c-1.43,2.24-2.99,4.39-4.66,6.44-.82,1.03-1.67,2.03-2.55,3.01-1.09,1.22-2.22,2.42-3.37,3.59,.07-.72,.16-1.43,.24-2.13,1.06-8.86,.49-17.9-1.62-26.57,3.86-4.29,7.32-8.91,10.1-14,3.21,.22,6.19,1.2,7.92,3.64,5.04,7.13-2.24,20.04-6.05,26.01Z"/>
      <path class="cls-11" d="M715.04,145.29c-1,2.89-2.32,5.67-3.89,8.32-1.81,3.05-3.88,5.91-6.12,8.65-8.99-2.55-18-5.01-27.05-7.31-33.97-8.69-68.28-14.49-103.2-17.63-6.19-.56-12.39-1.04-18.6-1.45,7.17-5.61,13.99-11.65,20.98-17.5,.06-.05,.12-.1,.17-.14,16.94,9.24,37.29,12.76,56.83,14.39,10.2,.85,20.52,1.32,30.77,2.15,3.09,.24,6.17,.52,9.23,.85,6.24,.67,12.43,1.56,18.53,2.82,1.93,.4,3.86,.84,5.77,1.32,4.72,1.19,9.37,2.64,13.93,4.43,.88,.35,1.77,.72,2.65,1.1Z"/>
      <path class="cls-6" d="M1429.59,202.88c6.03-3.68,11.85-7.83,17.28-12.43-2.56,6.28-7.04,11.99-11.24,17.19-9.36,11.57-20.08,21.45-32.18,29.88-.04-5.94,1.01-12.02,2.85-17.51,.74-2.21,1.58-4.4,2.48-6.56,7.17-3.04,14.16-6.49,20.82-10.57Z"/>
      <path class="cls-6" d="M1466.72,148.7c1.75,6.14-1.33,12.98-4.58,18.04-3.37,5.26-7.73,10.06-12.56,14.41-.58,.52-1.17,1.04-1.77,1.55-5.06,4.35-10.57,8.23-15.94,11.61-6.08,3.84-12.45,7.13-19.03,10,3.32-7.09,6.76-14.11,9.08-21.47,7.39-4.2,14.51-8.85,21.27-13.97,8.25-6.24,16.17-13.2,23.32-20.79,.06,.19,.13,.41,.2,.62Z"/>
      <path class="cls-6" d="M1477.01,111.45c2.58,3.72,2.76,8.46,1.02,13.16-2.46,6.62-7.39,12.15-12.32,17.2-.73,.75-1.48,1.49-2.21,2.23-.02,.02-.05,.05-.07,.06-5.15,5.18-10.48,10.17-16.16,14.79-7.43,6.03-15.26,11.38-23.4,16.2,.04-.21,.08-.43,.12-.64,.81-4.78,.84-9.96-.44-14.6,14.03-8.58,26.37-20.77,37.55-31.86,5.43-5.38,10.91-10.77,15.92-16.55Z"/>
      <path class="cls-6" d="M1482.89,96.18c-1.62,3.3-3.68,6.41-6.01,9.37-.82,1.05-1.67,2.08-2.55,3.09-4.67,5.39-10.05,10.34-14.87,15.14-8.34,8.28-16.63,16.51-25.93,23.76-3.69,2.88-7.55,5.69-11.56,8.23-.94-1.87-2.18-3.57-3.75-5.03-6.08-5.66-15.66-6.05-23.46-3.17-7.79,2.88-14.23,8.46-20.54,13.88-31.19,26.77-64.06,52.32-101.5,69.28-24.88,11.28-53.08,19.31-80.87,19.63,11.7-3.19,23.24-7.04,34.61-11.59,28.82-11.55,54.97-27.25,80.3-45.06,24.09-16.93,49.13-32.64,72.72-50.24,24.14-18.01,47.45-37.39,74.05-51.76,6.64-3.58,13.55-7.14,20.88-9.05,2.56-.66,7.21-2.07,9.55-.17,3.53,2.89,.43,10.6-1.08,13.68Z"/>
      <path class="cls-6" d="M514.96,141.43c-1.28,.32-2.54,.6-3.77,.82-105.5,19.64-215.63,31.28-308.96,84.24-43.47,24.67-82.27,57.84-128.45,76.97-16.41,6.8-34.6,11.9-48.05,24.09-5.35,4.85-9.06,10.37-11.91,16.36-3.91-7.29-3.96-15.4,3.28-23.53,.38-.43,.78-.86,1.21-1.29,8.13-8.23,18.94-13.45,29.28-18.32,14.25-6.71,28.69-12.99,42.75-20.08,28.3-14.26,54.56-32.5,82-48.31,26.9-15.49,54.53-29.85,83.48-41.12,1.9-.74,3.8-1.47,5.7-2.2,1.25-.47,2.51-.93,3.77-1.39,28.53-10.55,57.92-18.9,87.48-25.88,53.58-12.65,107.48-20.16,162.19-20.38Z"/>
      <path class="cls-4" d="M138.74,276.6c-13.89,5.36-29.05,12.5-34.23,26.45-5.86,15.77,4.52,33.91,19.13,42.25,14.61,8.34,32.2,9.18,49.03,9.23,115.07,.34,228.98-26.54,344.05-25.61,113.25,.92,225.28,28.78,338.51,26.11,85.08-2.01,168.71-21.2,253.2-31.37,84.49-10.17,173.04-10.75,251.32,22.62,8.74,3.72,20.19,7.36,26.6,.34,5.52-6.05,2.91-15.61-.02-23.26-12.11-31.71-28.33-67.37-60.96-76.74-21.99-6.31-45.22,1.48-67.11,8.14-124.32,37.81-259.29,39.88-384.72,5.9-90.54-24.53-176.7-67.46-269.95-77.64-124.43-13.59-247.81,32.22-366.6,62.3-33.34,8.44-66.17,18.89-98.25,31.29Z"/>
      <g>
        <path class="cls-11" d="M187.84,295.38c-1.5-7.28-4.5-15.84-10.82-20.37-8.04-5.77-21.35-3.77-29.25,.67-1.19,.67-2.77,1.32-3.87,2.2,.05-.13,.11-.31,.27-.57-1.87,.94-3.35,3.87-4.58,5.5-1.4,1.86-2.75,3.77-4.01,5.73-2.63,4.11-3.58,8.77-4.52,13.41-2.47,12.16-1.47,27.06,8.2,36.12,10.4,9.75,29.39,10.7,40.11,.68,11.13-10.4,11.31-29.55,8.46-43.36Z"/>
        <g>
          <path class="cls-12" d="M169.67,269.06c-7.29-2.05-15.04-.69-21.81,3.83-6.67,4.44-11.61,11.41-13.91,19.64-4.81,17.13,3.39,34.47,18.28,38.65,2.21,.62,4.44,.92,6.66,.92,6.37,0,12.62-2.45,17.78-6.73,5.17-4.27,9.25-10.37,11.3-17.67,4.81-17.13-3.39-34.47-18.28-38.65Zm13.4,37.27c-4.06,14.44-17.28,23.39-29.48,19.97-12.2-3.43-18.82-17.97-14.77-32.4,1.98-7.06,6.19-13.03,11.84-16.79,3.88-2.58,8.11-3.91,12.3-3.91,1.8,0,3.58,.24,5.33,.73,12.2,3.43,18.82,17.96,14.78,32.39Z"/>
          <path class="cls-15" d="M184.06,301.22c-.18,1.69-.51,3.4-.99,5.11-4.05,14.44-17.28,23.39-29.48,19.97-12.2-3.43-18.82-17.97-14.77-32.4,.25-.9,.54-1.77,.86-2.62,.44-1.2,.96-2.36,1.54-3.47,2.26-4.39,5.5-8.08,9.43-10.71,3.88-2.58,8.11-3.9,12.31-3.9,1.8,0,3.58,.24,5.33,.73,8.67,2.44,14.52,10.49,15.72,20.12,.29,2.31,.31,4.72,.04,7.16Z"/>
          <path d="M164.64,287.37c-3.19-.9-6.58-.3-9.54,1.67-2.89,1.92-5.03,4.95-6.03,8.51-2.09,7.44,1.5,14.97,7.99,16.8,.97,.27,1.94,.4,2.92,.4,5.55,0,10.88-4.25,12.65-10.58,2.09-7.44-1.5-14.97-7.99-16.8Z"/>
          <ellipse class="cls-3" cx="171.21" cy="296.99" rx="6.29" ry="5.4" transform="translate(-161.02 381.52) rotate(-74.31)"/>
        </g>
        <path class="cls-9" d="M184.06,301.22c-.18,1.69-.51,3.4-.99,5.11-4.05,14.44-17.28,23.39-29.48,19.97-12.2-3.43-18.82-17.97-14.77-32.4,.25-.9,.54-1.77,.86-2.62-.59,3.39-.92,6.76-.58,10.26,.58,5.84,2.87,11.59,6.94,15.82,4.06,4.23,9.98,6.79,15.82,6.26,6.72-.62,12.59-5.15,16.43-10.7,2.49-3.6,4.26-7.6,5.76-11.71Z"/>
        <path class="cls-7" d="M184.02,294.06c-1.39-3.28-2.97-6.46-5.04-9.35-3.12-4.35-7.54-7.99-12.77-9.08-4.98-1.03-10.24,.35-14.62,2.95-3.05,1.81-5.73,4.17-8.16,6.73-.61,.64-1.35,1.77-2.2,2.51,2.26-4.39,5.5-8.08,9.43-10.71,3.88-2.58,8.11-3.9,12.31-3.9,1.8,0,3.58,.24,5.33,.73,8.67,2.44,14.52,10.49,15.72,20.12Z"/>
      </g>
      <path class="cls-4" d="M1452.59,340.58c5.65,6.45,10.56,16.17,5.47,23.08-4.46,6.06-13.52,5.6-20.93,4.27-31.85-5.72-62.67-16.01-93.36-26.27-17.47-5.84-34.94-11.68-52.41-17.52-4.56-1.52-9.49-3.34-11.97-7.46-2.64-4.4-1.67-10.13-3.75-14.82-3.7-8.33-16.26-12.16-15.91-21.26,.18-4.76,4.36-8.62,8.93-9.96,4.57-1.34,9.47-.7,14.17,.04,32.64,5.12,64.6,14.51,94.84,27.81,26.8,11.79,54.84,19.18,74.9,42.09Z"/>
      <path class="cls-4" d="M1368.66,182.78c2.91-2.69,5.89-5.5,9.6-6.9,3.71-1.4,8.41-1.01,10.98,2.01,2.4,2.82,2.31,6.92,2.08,10.62-.94,15.52-2.45,32.43-13.14,43.73-8.2,8.67-20.26,12.3-31.74,15.58-21.54,6.16-43.09,12.32-64.92,17.36-8.69,2.01-28.18-1.86-17.36-13.58,3.61-3.91,12.37-6.03,17.08-8.39,6.22-3.11,12.35-6.39,18.39-9.84,24.82-14.18,48.04-31.18,69.02-50.59Z"/>
      <path class="cls-8" d="M229.69,225.63c-6.18,4.08-12.93,10.1-11.63,17.39,.86,4.84,5.31,8.44,10.07,9.67,4.76,1.23,9.8,.53,14.62-.42,26.41-5.21,50.75-17.62,75.98-27,56.66-21.05,117.9-26.8,178.34-27.1,6.66-.03,13.55-.05,19.64-2.75,6.09-2.7,11.19-8.88,10.39-15.49-1.22-10.1-13.71-13.91-23.82-15.03-40.72-4.52-82.06-2.8-122.38,4.34-32.16,5.69-61.67,17.18-92.41,27.62-20.72,7.04-40.54,16.72-58.81,28.76Z"/>
      <path class="cls-8" d="M957.87,259.35c1.46,.45,3.06,1,3.81,2.33,1.95,3.46-3.45,6.33-7.42,6.53-26,1.32-51.44-6.75-76.37-14.27-47.02-14.18-94.55-26.7-142.45-37.55-48.51-10.99-98.23-16.77-146.6-27.77-18.12-4.12-17.95-14.46-.74-19.78,19.39-5.99,40.42,2.46,59.3,6.88,49.18,11.51,98.19,23.79,146.99,36.83,54.76,14.64,109.26,30.24,163.47,46.79Z"/>
      <path class="cls-8" d="M1123.3,271.69c5.45,.14,12.33,1.35,13.62,6.65,1.42,5.82-5.36,10.09-11.09,11.83-29.35,8.91-60.85,5.3-91.3,1.62-7.39-.9-21.56-5.92-15.8-15.94,3.84-6.66,17.51-6.07,23.84-6.16,26.84-.4,53.89,1.33,80.72,2Z"/>
    </g>
  </g>
</svg>