<?xml version="1.0" encoding="UTF-8"?>
<svg id="_레이어_2" data-name="레이어 2" xmlns="http://www.w3.org/2000/svg" xmlns:xlink="http://www.w3.org/1999/xlink" viewBox="0 0 1517.92 775.78">
  <defs>
    <style>
      .cls-1 {
        fill: url(#linear-gradient-2);
      }

      .cls-2, .cls-3, .cls-4, .cls-5, .cls-6 {
        fill: #fff;
      }

      .cls-7 {
        opacity: .3;
      }

      .cls-7, .cls-8 {
        fill: #001049;
      }

      .cls-9 {
        opacity: .42;
      }

      .cls-9, .cls-10, .cls-11 {
        fill: #590c04;
      }

      .cls-12 {
        fill: #1c1e21;
        opacity: .27;
      }

      .cls-3 {
        opacity: .54;
      }

      .cls-13 {
        fill: url(#linear-gradient-6);
      }

      .cls-4 {
        opacity: .21;
      }

      .cls-14 {
        opacity: .29;
      }

      .cls-15 {
        fill: url(#radial-gradient);
      }

      .cls-16 {
        fill: url(#linear-gradient-5);
      }

      .cls-5 {
        opacity: .35;
      }

      .cls-17 {
        fill: url(#linear-gradient-7);
      }

      .cls-18 {
        fill: url(#linear-gradient-3);
      }

      .cls-19 {
        fill: url(#linear-gradient);
      }

      .cls-6 {
        opacity: .31;
      }

      .cls-20 {
        fill: url(#linear-gradient-4);
      }

      .cls-21 {
        fill: #8ff4ff;
        opacity: .91;
      }

      .cls-11 {
        opacity: .24;
      }
    </style>
    <linearGradient id="linear-gradient" x1="554.26" y1="104.39" x2="554.26" y2="598.17" gradientUnits="userSpaceOnUse">
      <stop offset="0" stop-color="#fff73c"/>
      <stop offset=".17" stop-color="#fef33a"/>
      <stop offset=".32" stop-color="#fee837"/>
      <stop offset=".47" stop-color="#fed531"/>
      <stop offset=".61" stop-color="#fdbb29"/>
      <stop offset=".75" stop-color="#fc9a1f"/>
      <stop offset=".89" stop-color="#fb7112"/>
      <stop offset="1" stop-color="#fa4b07"/>
    </linearGradient>
    <linearGradient id="linear-gradient-2" x1="843.77" y1="676.88" x2="809.58" y2="567.63" gradientUnits="userSpaceOnUse">
      <stop offset="0" stop-color="#8ebcff"/>
      <stop offset="1" stop-color="#3d7aff"/>
    </linearGradient>
    <linearGradient id="linear-gradient-3" x1="298.43" y1="99.28" x2="870.05" y2="99.28" xlink:href="#linear-gradient-2"/>
    <linearGradient id="linear-gradient-4" x1="256.49" y1="368.37" x2="497.4" y2="368.37" xlink:href="#linear-gradient-2"/>
    <linearGradient id="linear-gradient-5" x1="335.25" y1="739.5" x2="356.1" y2="593.56" xlink:href="#linear-gradient-2"/>
    <linearGradient id="linear-gradient-6" x1="408.38" y1="778.8" x2="420.89" y2="588.65" xlink:href="#linear-gradient-2"/>
    <linearGradient id="linear-gradient-7" x1="1093.05" y1="416.21" x2="1510.14" y2="416.21" xlink:href="#linear-gradient-2"/>
    <radialGradient id="radial-gradient" cx="141.6" cy="288.01" fx="141.6" fy="288.01" r="32.48" gradientUnits="userSpaceOnUse">
      <stop offset="0" stop-color="#ebc009"/>
      <stop offset="1" stop-color="#fbae17"/>
    </radialGradient>
  </defs>
  <g id="Layer_1" data-name="Layer 1">
    <g>
      <g>
        <path class="cls-19" d="M1100.5,391.85c-.28,7.29-1.66,14.49-3.63,21.53-1,3.6-2.16,7.15-3.41,10.65-1.85,5.19-3.91,10.33-6.41,15.24-1.14,2.25-2.29,4.53-3.53,6.73-.14,.25-.28,.49-.42,.73-21.19-.57-41.19,7.21-59.62,18.93-21.97,13.98-42.51,29.71-64.86,43.05-2.7,1.62-5.42,3.19-8.19,4.73-2.14,1.19-4.29,2.37-6.45,3.53-15.4,8.29-31.21,15.83-47.32,22.64-5.86,2.49-11.77,4.88-17.7,7.17-3.47,1.34-6.96,2.65-10.46,3.93-3.57,1.31-7.15,2.58-10.75,3.83-5.45,1.89-10.92,3.71-16.42,5.45-15.45,4.92-31.07,9.29-46.82,13.18-6.33,1.56-12.69,3.04-19.06,4.44-9.22,2.05-18.47,3.92-27.76,5.65-8.72,1.63-17.46,3.12-26.22,4.5-8.66,1.36-17.34,2.59-26.03,3.72-11.74,1.52-23.52,2.88-35.33,4.06-8.13,.82-16.27,1.56-24.43,2.21-47.32,3.78-95.05,4.7-142.5,2.09-4.13-.22-8.25-.48-12.37-.76-41.72-2.84-83.18-8.46-123.93-17.33-.92-.2-1.83-.4-2.74-.6-.6-.13-1.2-.27-1.81-.4-9.46-2.11-18.88-4.41-28.25-6.9-1.66-.44-3.32-.89-4.98-1.34-41.63-11.38-82.23-26.57-120.63-46.31-.34-.17-.69-.35-1.03-.53-4.2-2.17-8.37-4.39-12.52-6.67-20.39-11.19-40.08-23.68-58.84-37.44-22.66-16.62-44.66-35.16-61.82-57.57-7.68-10.02-14.36-20.92-19.49-32.47,7.72,2.27,15.93,2.81,24.14,1.11,11.65-2.41,22.71-8.28,31.32-16.52,.97-.93,1.91-1.88,2.82-2.87,2.25-2.45-1.16-5.83-3.65-3.64-.36,.32-.72,.63-1.09,.93-.61,.51-1.24,1.01-1.88,1.49-19.52,14.76-49.29,15.23-68.69,.44-.19-.15-.39-.3-.58-.45-.19-.15-.38-.31-.58-.46-.51-.42-1.02-.85-1.52-1.29-.17-.16-.35-.31-.52-.47-.2-.19-.41-.38-.61-.57-.19-.17-.37-.35-.56-.53-.04-.04-.07-.07-.11-.1-.29-.29-.58-.58-.86-.87-.39-.4-.78-.82-1.16-1.25-.17-.19-.34-.38-.51-.58-.12-.14-.25-.28-.36-.42-.22-.25-.42-.5-.63-.76-8.67-10.65-12.2-22.63-11.73-34.51,.64-16.47,8.98-32.73,21.97-44.95,11.38-10.7,24.59-19.13,37.56-27.73,14.18-9.41,28.63-18.45,43.28-27.12,28.57-16.92,58.11-32.21,88.46-45.71,14.38-6.4,28.96-12.38,43.7-17.92,3.53-1.33,7.08-2.64,10.62-3.91,7.6-2.74,15.24-5.35,22.91-7.86,3.15-1.04,6.32-2.04,9.5-3.03,97.97-30.57,201.81-41.88,303.95-28.78,64.47,8.27,128.16,26.04,187.29,53.08,13.82,6.32,27.4,13.15,40.71,20.49,2.27,1.25,4.54,2.52,6.79,3.8,12.89,7.32,25.51,15.13,37.82,23.41,26.04,17.52,49.85,37.78,74.18,57.53,23.26,18.87,47.14,37.7,74.58,50.18,23.34,10.61,48.01,15.6,73.21,13.95,4.35,5.8,8.54,11.78,11.31,18.51,3.59,8.7,4.99,18.32,4.63,27.68Z"/>
        <path class="cls-11" d="M308.28,471.77c10.97,4.36,22.39,7.98,34.17,8.7s24.04-1.68,33.7-8.48c16.63-11.7,22.27-33.21,30.41-51.84,13.12-29.99,35.55-55.82,63.41-73.01,10.25-6.33,21.43-11.68,29.52-20.6,3.17-3.5,5.87-7.68,6.46-12.36,.58-4.69-1.4-9.91-5.6-12.07-2.69-1.38-5.87-1.37-8.89-1.24-26.12,1.12-51.59,8.44-76.21,17.26-35.81,12.83-70.45,28.92-103.35,48.01-18.7,10.85-37.22,23.12-51.48,39.59-4.55,5.26-17.35,19.15-16.38,26.73,.97,7.57,20.33,16.75,26.5,20.5,12.03,7.3,24.67,13.61,37.74,18.81Z"/>
        <path class="cls-1" d="M983.48,597.74c-9.57-7.71-23.78-7.76-34.86-2.45-9.71,4.64-18.27,11.98-22.21,21.99-4.01-1.58-6.39-5.8-10.2-7.81-3.13-1.66-6.85-1.62-10.39-1.54-4.32,.11-8.95,.35-12.38,2.97-1.95,1.49-3.31,3.61-4.56,5.72-2.05,3.47-3.09,6.71-4.79,10.36-9.93-6.28-22.19-8.93-33.75-6.82-11.56,2.12-22.9,8.38-29.05,18.39-17.84-5.05-38.51,2.58-48.81,17.99-2.47-2.81-6.78-2.88-10.49-2.4-21.85,2.82-41.63,18.2-49.75,38.69-2.65-11.61-10.14-21.42-17.2-31.01-.16-.22-.31-.43-.47-.65-13.62-18.52-26.36-37.69-38.16-57.42,9.83-1.16,23.31-5.54,33.12-6.87,90.19-12.15,178.18-36.92,260.3-76.09,1.07-.51,2.15-1.02,3.23-1.54,1.16,2.32,2.28,4.66,3.37,7.01,0,0,.01,.01,.01,.02,.65,1.39,1.29,2.78,1.91,4.18,5.4,12,10.06,24.32,13.96,36.88,3.25,10.47,5.36,21.12,11.18,30.41Z"/>
        <path class="cls-18" d="M870.05,136.72c-4.89,5.29-9.76,10.6-14.6,15.93-7.61,8.38-15.16,16.82-22.64,25.31-2.16,2.44-4.31,4.89-6.45,7.34-.34,.39-.69,.78-1.03,1.18-5.93-3.31-11.93-6.52-17.97-9.62-25.98-13.35-52.87-24.85-80.41-34.48-37.05-12.96-75.29-22.53-114.08-28.69-105.4-16.71-212.64-7.65-314.44,21.9,.09-.13,.19-.24,.28-.37,11.27-14.82,23.42-29,36.24-42.5,8.5-8.94,17.32-17.58,26.43-25.88,4.79-4.37,9.66-8.65,14.6-12.83,10.54-8.91,21.73-17.12,33.01-25.13,3.79-2.69,7.6-5.36,11.4-8.03,4.06-2.85,8.28-6.17,13.09-7.64,5.52-1.67,11.63-1.03,17.32-.91,8.8,.19,17.6,.34,26.39,.54-2.69,3.12-5.35,6.28-7.97,9.45-1.91,2.31-3.81,4.63-5.67,6.97-1.68,2.09-3.35,4.19-5,6.3-1.87,2.39-3.72,4.79-5.54,7.21-4.96,6.54-9.82,13.17-14.54,19.89-2.38,3.39-5.1,6.79-6.94,10.52-1.76,3.56-3.03,7.46-4.54,11.13-.69,1.66,1.78,2.87,2.91,1.69,2.84-2.94,6.09-5.64,8.73-8.77,2.44-2.89,4.5-6.15,6.71-9.22,4.81-6.67,9.74-13.24,14.88-19.67,.3-.37,.6-.74,.89-1.11,4.89-6.09,9.91-12.08,15.04-17.96,6.98-.31,13.96-1.06,20.8-1.69,14.09-1.31,28.37-3.04,42.51-1.83-.62,.79-1.24,1.58-1.85,2.37-1.68,2.14-3.36,4.28-5.03,6.42-3.19,4.07-6.38,8.13-9.57,12.2-.81,1.04-1.62,2.08-2.44,3.12-3.92,5.01-7.9,9.96-11.77,15.01-1.93,2.53-3.88,5.16-5.57,7.86-1.41,2.26-3.25,4.94-2.89,7.7,.1,.78,.64,1.68,1.58,1.58,5.27-.58,9.73-7.35,12.89-11.15,4.04-4.89,7.87-9.98,11.81-14.96l.67-.85,16.73-21.19c.11,0,.23-.02,.34-.02,7.96-.6,15.92-1.16,23.88-1.65,12.5-.78,25.01-1.33,37.51-1.95-1.09,1.21-2.18,2.43-3.27,3.65-2.06,2.29-4.11,4.58-6.17,6.87-2.96,3.29-5.92,6.59-8.88,9.88-.93,1.03-1.85,2.07-2.78,3.09-3.33,3.71-6.67,7.42-10,11.13-2.19,2.44-4.43,4.81-6.29,7.51-1.8,2.6-2.81,5.21-3.9,8.15-.68,1.84,1.57,3.08,3.05,2.34,2.92-1.46,5.42-2.9,7.89-5.05,2.47-2.17,4.56-4.74,6.75-7.19,3.87-4.33,7.75-8.66,11.62-13,.24-.27,.48-.53,.72-.8,4.64-5.19,9.28-10.37,13.92-15.56,6.94,.26,13.87,.7,20.8,1.11,11.77,.68,23.5,1.37,35.22,2.46-.91,1.07-1.83,2.13-2.74,3.19-1.36,1.6-2.73,3.19-4.11,4.78-2.11,2.43-4.22,4.86-6.34,7.28-1.22,1.39-2.45,2.78-3.67,4.16-7.46,8.42-15.43,16.29-22.15,25.32-.8,1.08,.75,2.5,1.81,1.82,9.52-6.12,17.5-14,25.61-21.86,.91-.89,1.83-1.78,2.73-2.67,3.87-3.84,7.65-7.75,11.33-11.75,6.4,1.44,12.87,2.65,19.26,3.9,6.44,1.27,12.89,2.54,19.33,3.81,4.09,.8,8.27,1.47,12.29,2.62-1.41,1.36-2.83,2.71-4.24,4.05-1.63,1.55-3.27,3.08-4.92,4.61-2.08,1.94-4.17,3.86-6.27,5.77-2.54,2.33-5.09,4.64-7.64,6.96-4.63,4.2-9.32,8.33-14.07,12.38-4.74,4.04-9.83,8.57-13.86,13.32-.07,.09-.13,.17-.19,.26-.93,1.49,.59,3.28,2.3,2.47,.63-.3,1.27-.61,1.9-.94,4.89-2.54,9.78-5.97,14.04-9.28,5.1-3.97,10.14-8.02,15.11-12.16,2.2-1.83,4.38-3.69,6.54-5.58,3.97-3.47,7.86-7.02,11.71-10.63,4.1,1.07,8.2,2.09,12.3,3.12,9.28,2.35,18.47,5.03,27.67,7.67-1.1,1.04-2.2,2.07-3.31,3.1-1.25,1.18-2.5,2.34-3.76,3.48-1.82,1.68-3.64,3.35-5.48,5-2.2,2-4.42,3.97-6.65,5.94-8.22,7.24-15.97,15.04-23.64,22.84-1.11,1.12,.32,3.07,1.71,2.22,9.37-5.77,18.56-12.04,26.93-19.22,1.64-1.4,3.27-2.81,4.89-4.23,3.79-3.31,7.54-6.66,11.26-10.04,7.21,1.75,14.56,2.96,21.95,3.78,3.82,.42,7.65,.74,11.46,.98-.21,.26-.42,.52-.63,.78-.52,.62-1.03,1.25-1.54,1.87-.82,1-1.65,1.99-2.47,2.99-2.43,2.93-4.89,5.84-7.37,8.74-1.18,1.38-2.36,2.75-3.55,4.12-3.13,3.6-6.29,7.17-9.49,10.72-2.99,3.32-7.12,6.81-8.21,11.26-.23,.94,.64,1.96,1.63,1.63,4.2-1.36,7.17-5.37,10.06-8.57,3.33-3.69,6.63-7.41,9.89-11.16,.37-.42,.73-.85,1.1-1.27,3.97-4.6,7.9-9.25,11.76-13.94,3.72,.9,7.48,1.71,11.21,2.62,3.89,.95,7.78,1.89,11.67,2.86h0c3.13,.78,6.26,1.56,9.38,2.37-1.12,1.11-2.24,2.21-3.36,3.31-3.33,3.3-6.64,6.61-9.93,9.94-.16,.16-.31,.32-.47,.48-5.9,6.01-12.58,11.71-17.18,18.8-1.35,2.09,1.33,4.72,3.41,3.41,6.68-4.22,12.17-10.29,17.83-15.82,.39-.39,.79-.77,1.18-1.15,4.26-4.1,8.48-8.24,12.67-12.39,1.37-1.36,2.74-2.72,4.11-4.07,11.94,5.34,23.56,11.26,34.84,17.95Z"/>
        <path class="cls-20" d="M491.88,306.32c-5.93,4.94-12.09,9.63-18.28,14.23-1.34,1-2.67,1.98-4.01,2.97-2.75,2.03-5.51,4.04-8.28,6.04-4.45,3.22-8.91,6.42-13.38,9.62-6.75,4.83-13.5,9.65-20.2,14.55-1.5,1.09-3,2.18-4.5,3.29-1.94,1.44-3.88,2.88-5.81,4.34-6.9,5.21-13.68,10.57-20.27,16.14-2.43,2.05-4.82,4.13-7.19,6.24-2.59,2.31-5.14,4.65-7.66,7.05-1,.94-1.99,1.9-2.98,2.86-6.71,6.55-13.11,13.43-19.06,20.69-1.07,1.31-2.14,2.64-3.19,3.98-1.54,1.95-3.04,3.93-4.51,5.93-.41,.56-.82,1.12-1.22,1.68-2.64,3.66-5.01,7.58-8.1,10.89-6.21,6.63-14.64,7.21-23.1,5.32-9.67-2.16-18.59-6.48-27.81-9.97-11.36-4.3-23.52-7.63-35.83-9.36,.18-.5,.34-1,.51-1.51,9.04-27.43,14.82-55.8,17.83-84.5,1.24-.35,2.48-.7,3.72-1.06,4.84-1.38,9.67-2.81,14.49-4.29,11.17-3.43,22.37-6.76,33.62-9.96,10.05-2.87,20.14-5.63,30.25-8.27,21.32-5.57,42.87-10.32,64.63-13.78,10.76-1.71,21.57-3.08,32.42-4.08,10.29-.94,21.13-2.34,31.46-1.35,3.56,.34,9.06,1.29,11.5,4.26,2.14,2.6-3.27,6.59-5.03,8.05Z"/>
        <path class="cls-16" d="M375.54,696.07c-1.24,4.14-2.51,8.26-3.9,12.35-.34,1.03-.7,2.06-1.06,3.08-.57,1.6-1.16,3.21-1.77,4.8-.69,1.78-1.38,3.57-2.1,5.34-.85,2.11-1.75,4.21-2.74,6.25-1.42,2.93-3.27,6.7-6.34,8.23-6.27,3.12-11.74-9.02-13.96-12.96-8.62-15.3-14.29-32.19-17.75-49.38-2.91-14.43-3.69-28.83-3.94-43.39-.07-4.04-.1-8.09-.12-12.16-.06-10.9,.49-21.78,1.27-32.65,9.57,2.5,19.19,4.81,28.84,6.94-.06,35.62,8.39,71.19,23.55,103.54Z"/>
        <path class="cls-13" d="M480.59,610.34c-.19,9.37-.41,18.73-.63,28.1-.09,3.86-.18,7.72-.27,11.58-.12,5.42-.52,10.86-1.13,16.3-.4,3.65-.9,7.28-1.47,10.91-1.11,7.06-2.48,14.06-3.97,20.96-.81,3.75-1.69,7.48-2.64,11.2h0c-.92,3.63-1.92,7.26-2.99,10.85-2.45,8.24-5.27,16.35-8.53,24.31-.11,.26-.2,.51-.31,.77-1,2.48-2.02,5.1-3.17,7.66-.52,1.15-1.07,2.29-1.66,3.39-1.36,2.56-2.93,4.95-4.86,6.96-5.32,5.53-11.4,3.08-16.48-1.52-10.64-9.66-19.81-21.55-27.96-33.33-7.02-10.14-13.29-20.81-18.81-31.87-2.2-4.41-4.27-8.88-6.22-13.41-4.81-11.13-8.86-22.58-12.16-34.23-5.08-17.95-8.3-36.52-9.76-55.22,40.48,8.59,81.64,13.95,123.02,16.61Z"/>
        <path class="cls-17" d="M1509.6,190.15c-2.04,8.32-9.27,13.97-16.06,18.52-5.77,3.87-11.64,7.63-17.61,11.22-7.85,4.74-15.87,9.21-24.06,13.33-2.11,1.06-4.23,2.1-6.35,3.11-.94,.45-1.89,.9-2.84,1.34-17.41,8.06-35.08,15.81-52.89,22.91-10.24,4.08-20.64,8.35-30.53,13.2-4.98,2.45-10.43,3.84-15.37,6.36-4.89,2.5-10.11,4.27-15,6.75-2.5,1.27-1.4,5.66,1.47,5.41,10.5-.88,20.97-3.36,31.11-6.16,10.28-2.84,20.45-5.66,30.42-9.55,20.16-7.86,39.35-17.93,57.73-29.29,1.66-1.02,3.33-2.05,5.01-3.07,1.44,2.03,2.54,4.27,3.2,6.7,1.91,7.03-1.53,14.75-5.44,20.44-4,5.81-9.29,10.87-14.68,15.38-11.03,9.22-23.9,16.16-37.12,21.71-7.28,3.06-14.73,5.49-22.24,7.68-2.23,.65-4.46,1.28-6.7,1.9-5.46,1.51-10.95,2.96-16.43,4.5-9.21,2.58-18.32,5.42-27.5,8.08-4.77,1.38-9.62,2.49-14.38,3.87-4.71,1.36-9.73,2.36-14.25,4.25-2.98,1.25-2.65,5.44,.78,5.71,4.65,.36,9.47-.37,14.11-.78,4.78-.42,9.57-1.27,14.31-2.02,9.51-1.5,18.86-3.09,28.14-5.72,8.52-2.42,16.72-5.32,24.9-8.65,.48,.6,.95,1.22,1.4,1.86,3.19,4.45,6.26,10.08,5.41,15.75-.84,5.58-5.49,9.95-9.56,13.45-8.84,7.58-19.75,12-31.16,14.8-2.09,.52-4.21,.97-6.33,1.39-7.26,1.42-14.61,2.32-21.65,3.06-6.95,.73-13.94,1.2-20.87,2.1-3.93,.51-7.81,1.1-11.71,1.78-3.93,.67-7.96,.93-11.63,2.57-2.61,1.17-1.85,5.48,.79,6.07,3.54,.78,7.19,.32,10.79,.17,4.14-.17,8.24-.29,12.38-.63,7.08-.58,14.15-1.43,21.21-2.27,9-1.08,18.08-2.34,26.91-4.5,.76,1.16,1.51,2.32,2.23,3.5,3.23,5.24,6.19,10.64,5.81,16.99-.3,5.32-2.51,10.46-5.82,14.6-5.07,6.35-11.8,10.01-19.3,11.84-3.07,.75-6.27,1.2-9.54,1.39-13.53,.82-28.18-2.61-39.52-6.03-13.88-4.2-26.61-10.82-40.03-16.23-2.76-1.11-4.54,2.85-2.74,4.72,10.31,10.73,24.38,16.82,38.45,21.11,13.72,4.19,29.23,6.26,43.55,5.21,3.89-.29,7.79-.88,11.57-1.83,1.67,1.07,3.34,2.16,5,3.28,5.97,4.02,11.93,8.2,17.41,12.85,4.67,3.96,9.54,8.68,11.71,14.56,4.19,11.33-5.1,19.62-15.18,22.25-1.39,.36-2.79,.62-4.18,.76-1.58,.16-3.17,.23-4.77,.23-5.99,0-12-.96-17.9-1.78-7.57-1.06-15.09-2.4-22.55-4.03-8.41-1.83-16.76-4.02-24.98-6.56-8.42-2.6-16.97-4.42-25.44-6.85-2.95-.85-4.87,3.51-2.11,5.01,7.58,4.1,15.02,8.16,23.25,10.8,8.2,2.63,16.52,4.92,24.91,6.84,8.39,1.92,16.87,3.5,25.4,4.7,8.4,1.18,16.99,2.07,25.44,.89,1.74-.25,3.51-.62,5.25-1.12,.85,.6,1.69,1.22,2.53,1.83,5.29,3.87,10.55,7.77,15.73,11.78,1.33,1.02,2.65,2.06,3.97,3.1,4.39,3.47,10.04,7.99,11.44,13.71,1.57,6.37-4.82,10.8-9.78,13.24-.48,.24-.97,.46-1.46,.67-1.91,.81-3.9,1.41-5.9,1.8-4.25,.82-8.66,.72-12.95-.15-7.36-1.5-14.62-3.84-21.84-5.9-7.19-2.06-14.39-4.16-21.47-6.57-5.39-1.83-10.66-3.96-15.88-6.21-10.41-4.5-20.61-9.49-31.16-13.62-3.06-1.2-5.42,3.32-3.15,5.41,.87,.8,1.76,1.58,2.67,2.32,12.02,9.92,27.16,15.23,41.9,19.89,8.21,2.59,16.4,5.2,24.68,7.55,7.93,2.25,15.97,4.97,24.11,6.28,7.35,1.19,14.65,.52,21.52-2.14,3.56,2.88,7.15,5.74,10.73,8.61,5.11,4.1,10.48,7.97,15.25,12.46,4.21,3.95,8.51,8.97,9.29,14.92,.91,6.95-5.37,9.67-10.85,11.9-.35,.14-.7,.28-1.05,.41-3.63,1.39-7.43,2.41-11.27,3.06-1.81,.31-3.64,.54-5.46,.68-13.15,1.05-24.89-2.69-36.88-7.67-13.19-5.48-24.49-14.74-37.71-20.07-2.49-1.01-5.12,2.48-3.56,4.63,8.61,11.91,22.56,19.58,35.87,25.06,12.9,5.32,27.9,6.93,41.76,5.72,5.34-.46,10.6-1.46,15.67-3.09,5.43,2.92,10.88,5.77,16.39,8.53,13.94,6.99,28.46,13.19,41.99,20.91,10.62,6.06,22.84,14.39,27.38,26.32,4.43,11.61-1.92,22.74-12.57,27.81-24.03,11.41-54.48-1.16-75.67-13.24-26.43-15.07-49.02-35.91-71.92-55.7-51.34-44.38-102.21-89.38-154.1-133.13-20.99-17.69-44.11-35.38-71.27-42-2.23-.54-4.44-.98-6.64-1.33,.03-.06,.07-.11,.11-.16,2.62-3.89,4.59-8.3,6.48-12.57,3.15-7.1,5.94-14.33,7.89-21.82,.49-1.87,.92-3.76,1.29-5.66,3.44-17.48,2.43-35.58-6.66-51.25-2.46-4.23-5.7-8.28-9.62-11.39,2.07-.26,4.15-.56,6.23-.91,24-4.03,45.83-12.98,66.3-24.67,38.01-21.71,71.37-52.91,105.4-79.68,53.84-42.37,115.25-75.24,180.53-96.07,13.49-4.3,36.54-14.7,49.18-3.97,5.56,4.72,8.5,12.62,2.57,18.19-3.05,2.86-6.98,5.13-11.1,7.15-3.97,1.94-8.1,3.66-11.8,5.45-.55,.27-1.08,.53-1.6,.8-7.64,3.93-15.32,7.8-23.02,11.64-26.44,13.19-53.08,26.03-79.14,39.9-16.59,8.84-33.15,17.73-49.61,26.82-1.24,.69-.15,2.4,1.09,1.86,37.42-16.17,74.18-33.56,110.91-51.26,7.66-3.69,15.34-7.35,23.03-10.99,11.15-5.27,22.33-10.5,33.51-15.72,.71-.33,1.42-.67,2.14-1.01,.56,.13,1.11,.27,1.66,.42,3.9,1.08,7.63,3.05,9.47,6.82,1.58,3.23,1.64,7.08,.79,10.53Z"/>
        <g>
          <path class="cls-8" d="M1506.22,167.71c-2.67,1.73-5.61,3.25-8.54,4.66-.71,.34-1.42,.68-2.14,1.01-18.89,8.82-37.76,17.65-56.54,26.7-36.73,17.7-73.49,35.09-110.91,51.26-1.24,.54-2.33-1.17-1.09-1.86,16.46-9.08,33.01-17.98,49.61-26.82,33.65-17.91,68.26-34.09,102.16-51.54,.52-.27,1.05-.53,1.6-.8,3.7-1.8,7.84-3.51,11.8-5.45,4.12-2.01,8.04-4.28,11.1-7.15,5.94-5.57,2.99-13.46-2.57-18.19-12.64-10.73-35.7-.33-49.18,3.97-65.28,20.83-126.69,53.7-180.53,96.07-52.35,41.19-103.14,92.85-171.7,104.35-2.08,.35-4.16,.65-6.23,.91-2.84,.36-5.67,.62-8.5,.8-25.2,1.65-49.87-3.34-73.21-13.95-27.45-12.47-51.32-31.3-74.58-50.18-24.33-19.75-48.14-40.01-74.18-57.53-12.31-8.28-24.92-16.09-37.82-23.41-2.25-1.28-4.51-2.55-6.79-3.8-13.31-7.34-26.89-14.17-40.71-20.49-59.13-27.04-122.82-44.81-187.29-53.08-102.15-13.11-205.99-1.8-303.95,28.78-3.18,.99-6.35,1.99-9.5,3.03-7.68,2.5-15.31,5.12-22.91,7.86-3.55,1.27-7.09,2.58-10.62,3.91-14.74,5.54-29.32,11.53-43.7,17.92-30.35,13.5-59.89,28.79-88.46,45.71-14.64,8.67-29.09,17.71-43.28,27.12-12.97,8.6-26.18,17.03-37.56,27.73-22.37,21.02-30.93,54.04-10.24,79.45,19.02,23.36,57.53,24.42,79.65,4.88,2.48-2.19,5.9,1.19,3.65,3.64-8.94,9.74-21.17,16.7-34.13,19.39-8.21,1.71-16.41,1.16-24.14-1.11-4.35-1.27-8.55-3.1-12.51-5.37-12.49-7.16-22.66-18.8-27.89-31.97-11.38-28.7,.82-55.74,20.92-76.82,22.96-24.06,53.32-41.85,81.74-58.62,30.86-18.21,62.82-34.53,95.72-48.72,11.34-4.89,22.79-9.54,34.34-13.91,3.16-1.2,6.33-2.38,9.51-3.54,13.2-4.82,26.52-9.3,39.94-13.42,3.96-1.22,7.93-2.4,11.91-3.56,101.8-29.55,209.04-38.61,314.44-21.9,67.63,10.73,133.56,31.86,194.49,63.17,6.05,3.11,12.04,6.31,17.97,9.62,.34,.19,.69,.38,1.03,.58,2.06,1.15,4.11,2.31,6.15,3.49,.36,.2,.71,.41,1.07,.61,20.71,11.98,40.7,25.19,59.78,39.62,26.35,19.92,50.34,42.72,76.82,62.46,25.6,19.09,54,35.84,86.06,40.65,36.48,5.48,73.23-6.46,104.71-24.27,32.68-18.49,60.82-43.67,89.77-67.3,27.81-22.71,57.04-43.41,88.31-61.09,30.96-17.5,63.56-32.2,97.11-43.99,22.08-7.75,71.93-28.48,80.68,7.9,2.62,10.88-2.94,17.59-10.61,22.56Z"/>
          <path class="cls-8" d="M492.2,11.6c-2.89,3.06-5.74,6.15-8.56,9.26-2.52,2.78-5.01,5.58-7.46,8.39-5.44,6.24-10.75,12.6-15.93,19.07-5.14,6.43-10.07,13-14.88,19.67-2.21,3.07-4.27,6.33-6.71,9.22-2.64,3.13-5.89,5.83-8.73,8.77-1.13,1.18-3.6-.03-2.91-1.69,1.51-3.67,2.78-7.57,4.54-11.13,1.84-3.73,4.56-7.12,6.94-10.52,4.72-6.72,9.57-13.35,14.54-19.89,3.44-4.56,6.96-9.06,10.54-13.51,1.86-2.34,3.76-4.66,5.67-6.97,2.62-3.17,5.28-6.32,7.97-9.45-8.79-.2-17.59-.36-26.39-.54-5.69-.12-11.8-.76-17.32,.91-4.81,1.47-9.03,4.79-13.09,7.64-15.09,10.59-30.32,21.25-44.4,33.16-14.37,12.14-28.07,25.07-41.03,38.71-12.83,13.5-24.97,27.68-36.24,42.5-.09,.13-.19,.25-.28,.37-4.15,5.45-8.29,10.92-12.41,16.41-3.18,.99-6.35,1.99-9.5,3.03,.9-1.56,1.82-3.1,2.77-4.64,2.34-3.8,4.75-7.54,7.23-11.24,3.51-5.24,7.17-10.39,10.98-15.45,23-30.67,49.25-58.86,78.35-83.83,7.42-6.37,14.62-12.8,22.41-18.75,7.69-5.88,15.58-12.07,24.1-16.72,10.27-5.6,20.9-4.52,32.15-3.82,11.33,.71,22.66,1.46,33.99,2.08,4.52,.25,6.91,5.54,3.7,8.95Z"/>
          <path class="cls-8" d="M550.63,25.47l-.89,1.12-5.71,7.24-17.41,22.05c-3.94,4.98-7.77,10.07-11.81,14.96-3.15,3.8-7.61,10.58-12.89,11.15-.94,.1-1.48-.8-1.58-1.58-.36-2.76,1.48-5.44,2.89-7.7,1.69-2.7,3.64-5.33,5.57-7.86,3.86-5.05,7.85-10.01,11.77-15.01,4.01-5.1,8.01-10.21,12.01-15.32,1.67-2.14,3.35-4.27,5.03-6.42,.62-.79,1.24-1.58,1.85-2.37-14.14-1.21-28.42,.52-42.51,1.83-6.84,.64-13.82,1.38-20.8,1.69-4.21,.2-8.43,.23-12.62,0,1.86-2.34,3.76-4.66,5.67-6.97,4.81-.4,9.61-.88,14.41-1.42,5.03-.57,10.06-1.21,15.1-1.9,16.61-2.24,33.35-3.48,49.98-.74,3.58,.59,3.69,4.99,1.91,7.24Z"/>
          <path class="cls-8" d="M620.01,28.27c-1.54,1.73-3.09,3.45-4.63,5.18-2.32,2.59-4.64,5.19-6.96,7.78-4.64,5.19-9.28,10.37-13.92,15.56-4.11,4.6-8.23,9.2-12.34,13.8-2.19,2.45-4.28,5.02-6.75,7.19-2.47,2.15-4.98,3.59-7.89,5.05-1.48,.74-3.73-.51-3.05-2.34,1.09-2.93,2.1-5.55,3.9-8.15,1.86-2.7,4.1-5.07,6.29-7.51,4.26-4.74,8.53-9.48,12.79-14.23,2.96-3.3,5.92-6.59,8.88-9.88,2.06-2.29,4.11-4.58,6.17-6.87,1.09-1.21,2.18-2.43,3.27-3.65-12.51,.62-25.02,1.18-37.51,1.95-7.96,.49-15.92,1.05-23.88,1.65-.11,0-.23,.02-.34,.02-3.78,.28-7.61,.56-11.43,.69,1.67-2.14,3.35-4.27,5.03-6.42,2.05-.29,4.09-.55,6.13-.8,2-.24,3.99-.48,5.98-.71,5.96-.69,11.93-1.34,17.9-1.97,16.33-1.73,32.68-3.36,49.07-4.3,4.27-.24,5.81,5.15,3.3,7.95Z"/>
          <path class="cls-8" d="M676.35,44.4c-1.38,1.63-2.78,3.24-4.2,4.83-1.73,1.96-3.47,3.9-5.24,5.82-4.54,4.93-9.22,9.73-14.06,14.43-8.1,7.86-16.09,15.74-25.61,21.86-1.06,.69-2.62-.74-1.81-1.82,6.72-9.03,14.69-16.9,22.15-25.32,3.36-3.79,6.7-7.61,10.01-11.44,1.38-1.59,2.75-3.18,4.11-4.78,.92-1.06,1.83-2.12,2.74-3.19-11.73-1.09-23.46-1.78-35.22-2.46-6.94-.4-13.86-.85-20.8-1.11-.42-.01-.84-.03-1.26-.05-3.65-.12-7.26-.18-10.84-.47,2.06-2.29,4.11-4.58,6.17-6.87,1.76-.09,3.51-.14,5.28-.2,2.53-.08,5.07-.15,7.61-.2,4.61-.1,9.24-.15,13.84-.06,14.68,.29,29.43,1.76,44,3.46,3.86,.45,5.76,4.45,3.12,7.55Z"/>
          <path class="cls-8" d="M728.52,66.74c-1.54,1.5-3.08,2.99-4.63,4.48-1.89,1.82-3.78,3.63-5.7,5.41-5.94,5.57-12,11.02-18.25,16.21-4.97,4.13-10.01,8.19-15.11,12.16-4.81,3.74-10.42,7.63-15.94,10.22-1.81,.86-3.41-1.2-2.11-2.74,4.03-4.76,9.12-9.28,13.86-13.32,4.75-4.05,9.44-8.17,14.07-12.38,4.66-4.23,9.31-8.46,13.91-12.73,1.65-1.53,3.29-3.06,4.92-4.61,1.42-1.34,2.83-2.69,4.24-4.05-4.03-1.15-8.21-1.82-12.29-2.62-6.44-1.27-12.89-2.54-19.33-3.81-6.39-1.25-12.86-2.46-19.26-3.9-3.13-.7-6.24-1.45-9.32-2.29,1.38-1.59,2.75-3.18,4.11-4.78,3.49,.34,6.97,.77,10.45,1.25,5.57,.77,11.12,1.67,16.64,2.51,12.96,1.96,26.87,2.71,38.88,8.34,2.49,1.16,2.67,4.89,.85,6.66Z"/>
          <path class="cls-8" d="M768.98,88.34c-1.39,1.31-2.79,2.6-4.2,3.9-1.55,1.44-3.1,2.85-4.66,4.27-5.31,4.83-10.69,9.59-16.15,14.27-8.37,7.18-17.55,13.45-26.93,19.22-1.39,.86-2.81-1.09-1.71-2.22,7.67-7.8,15.42-15.6,23.64-22.84,4.08-3.6,8.12-7.24,12.12-10.94,1.26-1.14,2.51-2.31,3.76-3.48,1.11-1.02,2.21-2.06,3.31-3.1-9.2-2.64-18.39-5.32-27.67-7.67-4.1-1.04-8.21-2.05-12.3-3.12-3.2-.82-6.39-1.67-9.57-2.58,1.65-1.53,3.29-3.06,4.92-4.61,3.46,.51,6.91,1.11,10.35,1.78,2.64,.51,5.26,1.07,7.88,1.63,11.85,2.59,23.78,5.27,35.43,8.7,2.84,.84,4.07,4.64,1.78,6.78Z"/>
          <path class="cls-8" d="M801.45,99.93c-.11,.29-.27,.56-.48,.82-.58,.72-1.16,1.44-1.74,2.16-.69,.85-1.38,1.7-2.07,2.55-.81,.99-1.62,1.98-2.45,2.97-4.22,5.12-8.51,10.2-12.86,15.21-3.26,3.75-6.56,7.47-9.89,11.16-2.89,3.2-5.86,7.22-10.06,8.57-.99,.33-1.86-.69-1.63-1.63,1.09-4.44,5.22-7.94,8.21-11.26,3.2-3.55,6.36-7.12,9.49-10.72,3.69-4.25,7.33-8.54,10.92-12.86,.83-1,1.65-1.99,2.47-2.99,.51-.62,1.02-1.25,1.54-1.87,.21-.26,.42-.51,.63-.78-3.81-.24-7.64-.56-11.46-.98-7.39-.82-14.74-2.03-21.95-3.78-3.04-.73-6.05-1.57-9.02-2.51,1.26-1.14,2.51-2.31,3.76-3.48,3.31,.6,6.61,1.17,9.93,1.71,11.32,1.87,22.69,3.36,34.25,3.84,2.16,.09,3.12,2.13,2.42,3.85Z"/>
          <path class="cls-8" d="M837.02,116.98c-.07,.07-.13,.13-.2,.2-.53,.53-1.07,1.06-1.6,1.59-1.37,1.36-2.74,2.72-4.11,4.07-4.2,4.16-8.41,8.3-12.67,12.39-6.08,5.83-11.86,12.46-19.01,16.97-2.07,1.31-4.76-1.32-3.41-3.41,4.59-7.09,11.27-12.79,17.18-18.8,3.45-3.5,6.92-6.96,10.41-10.42,1.12-1.1,2.24-2.2,3.36-3.31-3.12-.8-6.25-1.59-9.38-2.37h0c-3.89-.97-7.78-1.91-11.67-2.86-3.73-.9-7.49-1.71-11.21-2.62-.14-.03-.28-.07-.42-.1-1.81-.44-3.61-.91-5.39-1.42,.83-1,1.65-1.99,2.47-2.99,.51-.62,1.02-1.25,1.54-1.87,1.89,.2,3.79,.46,5.68,.76,.22,.03,.43,.07,.65,.11,2.85,.46,5.69,.98,8.53,1.48,9.31,1.66,18.47,3.85,27.6,6.28,.82,.22,1.47,.69,1.94,1.29,1.1,1.43,1.14,3.62-.27,5.02Z"/>
          <path class="cls-8" d="M882.08,139.31c-14.5,14.53-28.81,29.25-42.92,44.16-1.87,1.97-3.72,3.96-5.58,5.94-.36,.38-.71,.76-1.07,1.14-2.59,2.76-5.16,5.53-7.76,8.28-2.25-1.28-4.51-2.55-6.79-3.8,2.43-2.87,4.89-5.71,7.36-8.55,.34-.4,.69-.79,1.03-1.18,2.14-2.45,4.3-4.9,6.45-7.34,12.24-13.9,24.66-27.64,37.24-41.24-11.27-6.7-22.9-12.61-34.84-17.95-.41-.19-.82-.37-1.24-.56-2.49-1.11-4.99-2.19-7.5-3.26-2.59-1.09-5.21-2.16-7.83-3.21-1.27-.51-1.26-2.76,.36-2.61,.49,.04,.96,.09,1.45,.14h0c5.64,.56,11.29,1.41,16.83,2.69,.8,.19,1.6,.38,2.4,.59,3.82,.97,7.58,2.16,11.24,3.6,10.34,4.08,20.72,8.81,30.08,14.83,2.85,1.83,3.57,5.83,1.07,8.32Z"/>
          <path class="cls-8" d="M1470.91,704.23c-24.72,7.74-52.37-1.98-74.25-13.56-26.49-14.01-49.22-34.13-71.83-53.53-53.72-46.1-106.94-92.85-161.21-138.29-22.5-18.83-49.05-39.21-79.54-40.97-31.78-1.83-57.52,18.71-82.09,35.95-12.93,9.06-26.19,17.47-39.77,25.25-4.67,2.68-9.37,5.29-14.12,7.82-15.14,8.1-30.63,15.47-46.41,22.19-5.85,2.49-11.74,4.89-17.68,7.19-7.19,2.8-14.44,5.48-21.74,8.03-5.19,1.8-10.4,3.55-15.63,5.24-15.42,4.97-31.03,9.42-46.79,13.37-6.38,1.61-12.79,3.14-19.22,4.59-8.96,2.03-17.96,3.9-26.99,5.64-8.55,1.64-17.13,3.17-25.72,4.57-19.92,3.26-39.92,5.9-59.91,8-3.69,.4-7.39,.76-11.07,1.12-5.16,.49-10.33,.96-15.49,1.39-49.2,4.11-98.92,5.36-148.41,2.82-4.15-.21-8.3-.45-12.45-.72-41.38-2.66-82.54-8.01-123.02-16.61-1.86-.39-3.73-.79-5.59-1.2-9.66-2.13-19.27-4.43-28.84-6.94-2.07-.54-4.14-1.09-6.21-1.66-3.06-.82-6.11-1.67-9.15-2.54-40.62-11.58-80.31-26.89-117.83-46.38-4.3-2.23-8.57-4.52-12.8-6.86-9.17-5.06-18.21-10.39-27.08-15.98-47.39-29.89-96.8-67.63-118.26-121.2-.79-1.96-.48-3.61,.44-4.82,2.38-3.14,8.88-3.3,10.93,1.68,.51,1.24,1.04,2.47,1.58,3.69,5.13,11.55,11.81,22.45,19.49,32.47,17.15,22.41,39.16,40.95,61.82,57.57,18.76,13.76,38.45,26.25,58.84,37.44,4.14,2.27,8.32,4.5,12.52,6.67,.34,.18,.69,.36,1.03,.53,38.4,19.74,79.01,34.93,120.63,46.31,1.67,.45,3.32,.9,4.98,1.34,9.37,2.49,18.79,4.79,28.25,6.9,.6,.14,1.2,.27,1.81,.4,.91,.2,1.83,.4,2.74,.6,40.75,8.87,82.22,14.49,123.93,17.33,4.12,.28,8.24,.53,12.37,.76,47.46,2.61,95.18,1.69,142.5-2.09,8.16-.66,16.3-1.39,24.43-2.21,11.81-1.18,23.59-2.54,35.33-4.06,8.68-1.12,17.36-2.36,26.03-3.72,8.76-1.38,17.5-2.87,26.22-4.5,9.29-1.73,18.54-3.61,27.76-5.65,6.37-1.4,12.72-2.89,19.06-4.44,15.75-3.89,31.37-8.26,46.82-13.18,5.5-1.74,10.97-3.56,16.42-5.45,3.6-1.24,7.18-2.52,10.75-3.83,3.5-1.28,6.98-2.58,10.46-3.93,5.94-2.29,11.84-4.68,17.7-7.17,16.11-6.81,31.92-14.35,47.32-22.64,2.16-1.16,4.3-2.34,6.45-3.53,2.76-1.54,5.49-3.11,8.19-4.73,22.35-13.34,42.89-29.07,64.86-43.05,18.43-11.72,38.42-19.5,59.62-18.93,3.45,.09,6.93,.41,10.45,.97,2.2,.35,4.42,.79,6.64,1.33,27.16,6.62,50.28,24.31,71.27,42,51.88,43.74,102.75,88.75,154.1,133.13,22.9,19.79,45.49,40.63,71.92,55.7,21.19,12.08,51.64,24.65,75.67,13.24,10.65-5.06,17-16.2,12.57-27.81-4.54-11.93-16.76-20.26-27.38-26.32-13.54-7.72-28.06-13.92-41.99-20.91-5.51-2.76-10.96-5.61-16.39-8.53-3.23-1.73-6.47-3.49-9.68-5.25,3.84-.65,7.64-1.67,11.27-3.06,3.01,1.28,6.01,2.58,9,3.9,2.68,1.19,5.35,2.39,8.01,3.62,24.5,11.31,56.55,21.69,72.19,45.43,13.38,20.29,2.23,43.16-19.81,50.07Z"/>
          <path class="cls-8" d="M717.33,702.25c.09,.89-1.14,1.27-1.7,.71-3.81-3.89-6.65-8.63-9.73-13.1-3.14-4.56-6.29-9.12-9.56-13.6-5.61-7.69-11.63-14.99-17.82-22.22-6.7-7.81-14.31-14.56-20.47-22.85-5.64-7.59-11.37-15.07-16.6-22.94-.54-.81-1.07-1.62-1.6-2.43-1.67-2.59-3.02-5.29-4.17-8.06,8.16-.66,16.3-1.39,24.44-2.21,.14,.17,.29,.35,.44,.53,2.62,3.13,5.06,6.39,7.46,9.67,1.09,1.5,2.18,3.01,3.27,4.51,3.01,4.14,6.31,8.2,9,12.56,2.64,4.28,4.5,8.77,6.79,13.2,2.27,4.39,4.85,8.64,7.16,13.02,4.64,8.76,9.24,17.57,13.47,26.53,3.92,8.32,8.63,17.44,9.62,26.68Z"/>
          <path class="cls-8" d="M783.59,675.28c.07,1.47-1.99,2.36-2.97,1.24-6.93-7.89-11.47-17.99-16.92-26.92-5.66-9.27-12.39-17.66-18.21-25.85-6.07-8.53-11.63-17.37-17.55-26.01-.04-.06-.08-.12-.12-.19-1.49-2.17-3-4.33-4.46-6.52-.71-1.05-1.31-2.15-1.86-3.27,8.76-1.37,17.5-2.87,26.22-4.5,.21,.32,.42,.66,.62,.99,1.81,2.96,3.6,5.93,5.33,8.92,3.72,6.44,7.19,13,10.13,19.89,4.41,10.34,7.67,21.1,11.47,31.67,3.49,9.73,7.87,20.13,8.34,30.55Z"/>
          <path class="cls-8" d="M828.12,660.87c-9.47-20.54-23.85-38.3-36.71-56.75-3.69-5.3-7.44-10.85-10.77-16.59-1.89-3.24-3.64-6.56-5.18-9.91,6.37-1.4,12.72-2.89,19.05-4.44,1.81,3.24,3.56,6.51,5.34,9.77,.03,.06,.06,.11,.09,.16,4.45,8.14,8.74,16.25,12.59,24.7,7.67,16.82,13.91,34.04,17.71,52.18,.26,1.22-1.54,2.15-2.12,.89Z"/>
          <path class="cls-8" d="M883.52,630.93c-5.57-8.77-10.54-17.89-15.97-26.75-2.72-4.44-5.39-8.88-7.97-13.4-2.59-4.53-5.61-8.77-8.29-13.24-1.58-2.64-3.13-5.29-4.65-7.97-1.81-3.17-3.57-6.36-5.31-9.57,5.5-1.74,10.97-3.56,16.42-5.45,1.56,3.24,3.08,6.49,4.52,9.78,1.71,3.86,3.32,7.76,4.78,11.73,6.54,17.81,13.53,35.68,18.59,53.99,.36,1.3-1.43,1.98-2.12,.89Z"/>
          <path class="cls-8" d="M926.04,622.33c-4.87-9.84-10.43-19.49-16.82-28.43-6.41-8.97-13.52-17.52-19.1-27.05-2.06-3.51-4.12-7.02-6.11-10.56-1.76-3.13-3.46-6.29-5.06-9.51,5.94-2.29,11.84-4.68,17.7-7.17,1.62,3.19,3.32,6.34,5.02,9.48,2.67,4.92,5.36,9.84,7.75,14.9,4.41,9.29,7.86,18.95,11.22,28.65,3.31,9.51,5.92,19.2,7.24,29.19,.13,.98-1.44,1.34-1.86,.5Z"/>
          <path class="cls-8" d="M984.42,603.72c-1.36-2.55-3.04-4.77-4.32-7.41-1.07-2.22-2.14-4.43-3.22-6.64-2.32-4.81-4.61-9.62-6.81-14.48-4.22-9.36-8.36-18.77-12.66-28.09-3.1-6.72-6.33-13.4-9.31-20.19-1.36-3.09-2.67-6.21-3.89-9.36-.07-.19-.15-.38-.22-.57,2.16-1.16,4.31-2.34,6.45-3.53,2.76-1.54,5.49-3.11,8.19-4.73,.46,1.28,.92,2.56,1.38,3.84,.78,2.16,1.52,4.34,2.22,6.53,2.47,7.64,4.55,15.42,6.77,23.12,2.92,10.12,6.05,20.19,9.07,30.28,1.49,4.95,2.86,9.92,4.21,14.9,.64,2.39,1.29,4.79,1.94,7.18,.77,2.88,.97,5.68,1.62,8.55,.19,.83-1.01,1.41-1.42,.6Z"/>
          <path class="cls-8" d="M276.64,314.08c-.23,4.24-.53,8.48-.88,12.7-.27,3.34-.59,6.68-.94,10.02-3.01,28.7-8.78,57.07-17.83,84.5-.17,.51-.33,1.01-.51,1.51-1.34,4.04-2.75,8.04-4.23,12.03-9.36,25.15-21.48,49.29-37.24,71.05-5.14,7.1-10.66,13.89-16.56,20.33-2.75,3.01-5.59,5.95-8.5,8.81-4.3-2.23-8.57-4.52-12.8-6.86,2.65-2.99,5.24-6.04,7.76-9.14,8.17-9.99,15.72-20.47,22.63-31.3,11.14-17.47,20.58-35.56,28.14-54.53,1.55-3.86,3.01-7.76,4.39-11.69,1.93-5.48,3.7-11.04,5.32-16.67,5.95-20.77,10.03-41.99,12.6-63.4,.32-2.66,.61-5.33,.88-8,1.05-10.31,1.77-20.65,2.19-31,.7-17.32,.53-34.7-.21-52.02-.59-13.74-1.73-27.32-4.23-40.68-2.49-13.31-6.19-26.83-11.84-39.18-.58-1.25-1.17-2.5-1.79-3.74-1.79-3.63-3.76-7.21-5.9-10.69,3.16-1.2,6.33-2.38,9.51-3.54,2.61,3.18,4.93,6.75,7.02,10.32,1.07,1.81,2.07,3.62,3.04,5.38,7.78,14.27,12.3,30.01,15.27,45.93,6.12,32.72,6.55,66.75,4.72,99.89Z"/>
          <path class="cls-8" d="M495.39,316.98c-1.5,1.24-3,2.47-4.52,3.69-3.54,2.87-7.12,5.7-10.72,8.49-2.74,2.13-5.5,4.25-8.26,6.35-8.28,6.3-16.67,12.47-25.01,18.68-3.26,2.43-6.52,4.86-9.76,7.31-4.37,3.29-8.7,6.61-13,9.98-5.72,4.49-11.42,9.03-17.01,13.69-2.79,2.32-5.55,4.67-8.28,7.07-6.61,5.79-13.03,11.79-19.12,18.14-3.32,3.45-6.55,6.99-9.66,10.63-1.58,1.86-3.13,3.73-4.64,5.64-1.46,1.84-2.89,3.71-4.27,5.6-6.15,8.39-11.64,17.03-21.96,20.61-9.36,3.26-19.81,1.13-28.92-1.92-10.17-3.41-19.93-7.7-30.33-10.49-9.1-2.45-18.31-4.45-27.65-5.61-1.52-.19-3.05-.36-4.58-.5-3.99-.38-8-.77-12-1.15,1.55-3.86,3.01-7.76,4.39-11.69,5.47,.09,10.96,.54,16.43,1.31,12.31,1.73,24.47,5.06,35.83,9.36,9.22,3.49,18.13,7.81,27.81,9.97,8.46,1.89,16.89,1.31,23.1-5.32,3.1-3.3,5.46-7.22,8.1-10.89,.41-.56,.81-1.12,1.22-1.68,1.47-2,2.98-3.98,4.51-5.93,1.05-1.34,2.11-2.66,3.19-3.98,5.95-7.26,12.35-14.14,19.06-20.69,.99-.96,1.98-1.92,2.98-2.86,2.52-2.4,5.07-4.74,7.66-7.05,8.82-7.86,18.03-15.25,27.47-22.38,1.93-1.46,3.87-2.91,5.81-4.34,1.5-1.11,3-2.2,4.5-3.29,11.13-8.14,22.41-16.07,33.57-24.16,2.77-2,5.53-4.01,8.28-6.04,1.34-.99,2.67-1.97,4.01-2.97,6.19-4.61,12.35-9.29,18.28-14.23,1.75-1.45,7.17-5.44,5.03-8.05-2.44-2.98-7.94-3.92-11.5-4.26-10.33-.99-21.17,.41-31.46,1.35-10.85,1-21.66,2.37-32.42,4.08-21.76,3.46-43.31,8.21-64.63,13.78-21.41,5.6-42.71,11.73-63.86,18.23-6.05,1.86-12.12,3.63-18.21,5.35-5.6,1.58-11.22,3.11-16.84,4.61,.32-2.66,.61-5.33,.88-8,5.61-2.28,11.24-4.5,16.9-6.63,32.37-12.22,65.59-22.17,99.32-29.88,22.53-5.16,45.32-9.2,68.3-11.75,11.35-1.25,22.8-2.28,34.22-2.52,9.48-.21,21.87,.85,28.15,9.03,7.83,10.19-3.07,19.28-10.36,25.32Z"/>
          <path class="cls-8" d="M490.88,320.68c-3.54,2.87-7.12,5.7-10.72,8.49-.28,0-.56,0-.84,0-6.01,.01-12.02,.15-18.01,.39-14.95,.6-29.88,1.87-44.77,3.55-20.49,2.31-40.71,6.47-61.16,9.07-1.12,.14-1.1-1.44-.24-1.79,11.13-4.51,22.7-7.81,34.45-10.26,20.53-4.27,41.25-7.17,62.16-8.59,7.27-.49,14.56-.83,21.85-1,3.11-.08,6.21-.13,9.32-.14,2.65-.01,5.31,.1,7.96,.27Z"/>
          <path class="cls-8" d="M446.88,354.2c-3.26,2.43-6.52,4.86-9.76,7.31-3.32-.09-6.64-.14-9.96-.16-3.24-.02-6.49-.01-9.74,.03-7.24,.07-14.48,.27-21.71,.61-21.34,1.02-42.3,4.51-63.53,6.47-1.56,.14-1.71-2.17-.36-2.61,20.27-6.49,42.14-8.83,63.28-10.65,10.67-.92,21.35-1.42,32.05-1.47h.57c5.06-.02,10.11,.04,15.16,.19,1.34,.04,2.66,.14,3.98,.27Z"/>
          <path class="cls-8" d="M407.1,385.17c-2.79,2.32-5.56,4.67-8.29,7.07-1.22-.13-2.43-.26-3.65-.39-4.28-.43-8.57-.79-12.87-1.06-4.99-.32-9.99-.53-14.99-.62-18.55-.36-37.05,1.14-55.52,2.56-1.52,.12-1.77-2.24-.36-2.61,18.45-4.71,37.47-6.34,56.48-6.69,7.35-.14,14.7-.03,22.04,.31,2.14,.1,4.28,.22,6.42,.36,3.57,.24,7.17,.54,10.72,1.07Z"/>
          <path class="cls-8" d="M370.03,421c-1.58,1.86-3.12,3.73-4.64,5.64-.4-.07-.8-.15-1.2-.22-3.87-.74-7.76-1.45-11.64-2.16-2.91-.53-5.81-1.06-8.72-1.6-13.67-2.54-27.44-4.79-41.18-6.96-1.42-.23-1.02-2.46,.33-2.45,14.12,.12,27.96,1.22,41.95,3.12,4.06,.55,8.1,1.21,12.12,1.95,2.96,.54,5.91,1.13,8.87,1.76,1.38,.29,2.74,.6,4.09,.92Z"/>
          <path class="cls-8" d="M493.18,599.84c-.02,3.29-.07,6.6-.11,9.91,0,.44-.01,.87-.02,1.31-.4,19.08-2.92,37.93-5.57,56.81-.24,1.73-.49,3.45-.75,5.18h0c-.54,3.66-1.11,7.31-1.72,10.95-1.78,10.57-3.91,21.08-6.7,31.46-.2,.76-.41,1.51-.62,2.27-.79,2.84-1.63,5.67-2.51,8.49-1.75,5.61-3.68,11.15-5.81,16.62-1.14,2.93-2.28,5.93-3.51,8.89-1.47,3.54-3.06,7.04-4.96,10.33-.49,.85-1,1.69-1.53,2.5-3.87,5.97-9.52,11.07-17.01,11.21-8.44,.16-15.12-6.17-20.54-11.86-10.52-11.05-20.02-23.1-28.39-35.84-4.08-6.22-7.9-12.63-11.44-19.2-2.26-4.21-4.41-8.48-6.43-12.8-15.16-32.35-23.61-67.92-23.55-103.54,0-3.93,.11-7.85,.34-11.78,.6,.14,1.2,.27,1.81,.4,.91,.2,1.83,.4,2.74,.6,.15,3.99,.38,7.99,.69,11.98,1.46,18.7,4.68,37.27,9.76,55.22,3.29,11.64,7.35,23.09,12.16,34.23,1.95,4.53,4.02,9,6.22,13.41,5.51,11.06,11.79,21.73,18.81,31.87,8.15,11.78,17.32,23.68,27.96,33.33,5.08,4.6,11.16,7.05,16.48,1.52,1.93-2.01,3.5-4.4,4.86-6.96,1.9-3.57,3.38-7.46,4.83-11.05,.11-.26,.2-.51,.31-.77,3.26-7.96,6.08-16.07,8.53-24.31,1.07-3.59,2.07-7.21,2.99-10.84h0c.96-3.72,1.83-7.46,2.64-11.2,1.49-6.9,2.86-13.91,3.97-20.96,.57-3.62,1.07-7.26,1.47-10.91,.61-5.43,1.01-10.87,1.13-16.3,.31-13.22,.63-26.45,.9-39.68,.07-3.38,.14-6.76,.2-10.13,0-.38,.01-.75,.02-1.13,4.12,.28,8.24,.53,12.37,.76Z"/>
          <path class="cls-8" d="M385.71,696.6c-.04,.15-.07,.29-.12,.45-1.11,3.98-2.31,7.92-3.61,11.84-1.46,4.41-3.05,8.79-4.74,13.11-1.09,2.79-2.23,5.56-3.41,8.31-.15,.34-.3,.69-.45,1.04-3.21,7.14-8.18,14.57-16.64,15.35-9.57,.88-15.64-7.9-20-15.07-10.17-16.72-16.83-35.41-20.53-54.59-3.86-19.95-5.38-40.98-3.52-61.23,.98-10.7,2.4-21.32,4.25-31.87,.66-3.81,1.38-7.62,2.16-11.42,1.67,.45,3.32,.9,4.98,1.34-.33,3.91-.64,7.83-.93,11.74-.79,10.87-1.33,21.75-1.27,32.65,.1,18.72,.36,37.11,4.07,55.54,3.46,17.19,9.13,34.07,17.75,49.38,2.21,3.93,7.69,16.07,13.96,12.96,3.07-1.53,4.92-5.3,6.34-8.23,.99-2.04,1.89-4.14,2.74-6.25,.72-1.78,1.41-3.56,2.1-5.34,.61-1.59,1.2-3.19,1.77-4.8,1.8-5.1,3.4-10.25,4.96-15.43,.66-2.21,1.31-4.42,1.97-6.64,.62-2.09,1.31-4.17,1.98-6.25,1.95,4.53,4.02,9,6.22,13.41Z"/>
          <path class="cls-8" d="M465.84,751.73c-1.47,3.54-3.06,7.04-4.96,10.33-2.39-1.86-4.75-3.76-7.07-5.71-10.78-9.03-20.81-19.1-28.81-30.42-12.31-17.41-23.51-35.42-31.09-55.43-.46-1.19,1.36-1.82,1.97-.83,6.16,10.01,12.7,19.8,19.7,29.25,6.24,8.42,13.22,15.91,20.44,23.47,7.11,7.44,14.12,14.8,21.56,21.92,.35,.34,.71,.67,1.06,1.01,2.35,2.21,4.76,4.34,7.2,6.42Z"/>
          <path class="cls-8" d="M478.29,715.46c-.2,.76-.41,1.51-.62,2.27-.79,2.84-1.62,5.67-2.51,8.49-2.59-1.94-5.16-3.94-7.67-5.99-25.78-21.03-47.53-47.9-62.2-77.42-.53-1.07,.89-1.86,1.58-.92,6.7,9.04,13.76,17.92,21.1,26.44,12.83,14.88,27.25,28.68,42.5,41.06h0s0,0,.01,.01c2.56,2.07,5.19,4.06,7.81,6.07Z"/>
          <path class="cls-8" d="M486.72,673.05h0c-.54,3.66-1.11,7.31-1.72,10.96-1.17-.95-2.33-1.92-3.48-2.91-1.48-1.28-2.96-2.57-4.43-3.87-7.09-6.25-14.02-12.65-20.79-19.24-8.3-8.07-16.04-16.84-23.7-25.52-6.59-7.45-13.92-15.67-15.73-25.78-.19-1.04,1.26-1.46,1.6-.44,3.36,10.27,12.96,17.47,20.47,24.72,7.96,7.68,16.32,14.88,24.54,22.26,4.96,4.45,9.98,8.82,15.08,13.09,2.7,2.27,5.42,4.52,8.16,6.73Z"/>
          <path class="cls-8" d="M377.23,721.99c-1.09,2.79-2.22,5.56-3.41,8.31-.15,.34-.3,.69-.46,1.04-2.32-3.15-4.54-6.39-6.66-9.7-2.89-4.5-5.59-9.11-8.07-13.75-10.39-19.49-18.21-39.8-22.9-61.4-.3-1.39,1.58-1.85,2.08-.57,7.81,19.84,17.07,39.46,28,57.78,1.56,2.62,3.15,5.22,4.76,7.81,2.18,3.52,4.4,7.01,6.65,10.49Z"/>
          <path class="cls-8" d="M1517.63,190.53c-1.4,9.35-7.86,16.69-15.06,22.35-13.2,10.37-27.79,19.14-42.22,27.87-1.91,1.16-3.83,2.32-5.73,3.48-1.67,1.02-3.34,2.04-5.01,3.07-18.38,11.36-37.56,21.42-57.73,29.29-9.97,3.89-20.14,6.72-30.42,9.55-10.14,2.79-20.61,5.28-31.11,6.16-2.87,.24-3.97-4.14-1.47-5.41,4.9-2.48,10.12-4.25,15-6.75,4.94-2.52,10.39-3.91,15.37-6.36,9.89-4.85,20.28-9.12,30.53-13.2,17.81-7.1,35.48-14.85,52.89-22.91,.95-.44,1.9-.88,2.84-1.34,2.12-1.01,4.24-2.05,6.35-3.11,14.4-7.24,28.29-15.57,41.67-24.55,6.79-4.55,14.02-10.2,16.06-18.52,.85-3.45,.8-7.3-.79-10.53-1.84-3.77-5.57-5.74-9.47-6.82-.55-.15-1.11-.29-1.66-.42-5.56-1.36-11.46-1.91-17.32-2.04,3.7-1.8,7.84-3.51,11.8-5.45,.4,.03,.79,.06,1.19,.1,4.38,.39,8.81,.99,12.86,2.73,.6,.25,1.2,.53,1.78,.85,8.02,4.3,10.92,13.37,9.63,21.97Z"/>
          <path class="cls-8" d="M1446.69,291.48c-11.92,11.18-26.31,19.45-41.2,26.01-5.89,2.59-11.91,4.83-17.88,7.22-1.43,.56-2.85,1.14-4.28,1.73-.68,.28-1.35,.56-2.02,.82-8.18,3.33-16.38,6.23-24.9,8.65-9.28,2.64-18.63,4.23-28.14,5.72-4.74,.75-9.53,1.6-14.31,2.02-4.64,.41-9.46,1.14-14.11,.78-3.43-.27-3.75-4.47-.78-5.71,4.52-1.89,9.54-2.89,14.25-4.25,4.77-1.37,9.62-2.49,14.38-3.87,9.17-2.66,18.29-5.5,27.5-8.08,5.48-1.54,10.98-2.99,16.43-4.5,2.24-.62,4.47-1.25,6.7-1.9,7.51-2.19,14.96-4.62,22.24-7.68,13.22-5.55,26.09-12.49,37.12-21.71,5.39-4.51,10.68-9.57,14.68-15.38,3.92-5.69,7.35-13.41,5.44-20.44-.66-2.43-1.76-4.68-3.2-6.7-2.29-3.24-5.44-5.92-8.91-7.81-.06-.03-.12-.07-.18-.09,2.12-1.01,4.24-2.05,6.35-3.11,3.25,2.03,6.14,4.57,8.48,7.53,2.12,2.71,3.76,5.76,4.76,9.1,4.9,16.29-7.23,31.16-18.42,41.64Z"/>
          <path class="cls-8" d="M1395.88,345.41c-.56,6.55-4.55,12.04-9,16.62-8.34,8.57-19.14,14.42-30.4,18.2-.88,.29-1.77,.58-2.66,.85-2.16,.67-4.34,1.26-6.54,1.8-8.84,2.16-17.91,3.42-26.91,4.5-7.06,.84-14.13,1.7-21.21,2.27-4.13,.34-8.24,.46-12.38,.63-3.59,.15-7.24,.61-10.79-.17-2.64-.6-3.41-4.9-.79-6.07,3.67-1.64,7.7-1.9,11.63-2.57,3.9-.68,7.77-1.27,11.71-1.78,6.94-.89,13.92-1.37,20.87-2.1,7.04-.74,14.39-1.65,21.65-3.06,2.13-.42,4.24-.87,6.33-1.39,11.41-2.81,22.32-7.23,31.16-14.8,4.07-3.5,8.73-7.86,9.56-13.45,.86-5.68-2.21-11.3-5.41-15.75-.45-.63-.92-1.25-1.4-1.86-2.78-3.51-6.06-6.6-9.68-9.24,2.24-.62,4.47-1.25,6.7-1.9,3.43,2.43,6.55,5.32,9.28,8.58,.71,.83,1.38,1.69,2.03,2.58,3.78,5.14,6.79,11.58,6.24,18.12Z"/>
          <path class="cls-8" d="M1363.24,405.58c-.54,6.57-3.41,12.76-7.44,17.91-4.3,5.48-9.84,9.37-16,12-2.53,1.08-5.16,1.95-7.86,2.63-3.78,.96-7.68,1.54-11.57,1.83-14.32,1.05-29.83-1.02-43.55-5.21-14.06-4.29-28.14-10.38-38.45-21.11-1.8-1.87-.02-5.83,2.74-4.72,13.41,5.4,26.15,12.02,40.03,16.23,11.33,3.42,25.99,6.86,39.52,6.03,3.27-.19,6.47-.64,9.54-1.39,7.5-1.83,14.23-5.48,19.3-11.84,3.31-4.14,5.52-9.28,5.82-14.6,.38-6.34-2.58-11.74-5.81-16.99-.73-1.18-1.47-2.34-2.23-3.5-1.92-2.91-3.97-5.72-6.22-8.35,2.13-.42,4.24-.87,6.33-1.39,2.32,2.51,4.46,5.22,6.42,7.95,1.38,1.92,2.68,3.85,3.9,5.72,3.65,5.6,6.08,12.01,5.52,18.79Z"/>
          <path class="cls-8" d="M1360.31,497.12c-2.27,1.18-4.67,2.13-7.1,2.84-1.74,.5-3.51,.87-5.25,1.12-8.45,1.18-17.04,.29-25.44-.89-8.53-1.2-17-2.78-25.4-4.7-8.39-1.92-16.71-4.21-24.91-6.84-8.23-2.64-15.67-6.7-23.25-10.8-2.76-1.49-.84-5.85,2.11-5.01,8.47,2.43,17.02,4.25,25.44,6.85,8.23,2.54,16.57,4.73,24.98,6.56,7.47,1.62,14.98,2.97,22.55,4.03,5.9,.82,11.91,1.79,17.9,1.78,1.6,0,3.18-.07,4.77-.23,1.39-.14,2.79-.4,4.18-.76,10.08-2.63,19.37-10.92,15.18-22.25-2.17-5.88-7.04-10.59-11.71-14.56-5.49-4.65-11.44-8.84-17.41-12.85-1.65-1.12-3.32-2.21-5-3.28-3.72-2.39-7.49-4.69-11.28-6.95,3.27-.19,6.47-.64,9.54-1.39,3.25,1.82,6.45,3.73,9.59,5.71,3.2,2,6.35,4.08,9.44,6.19,11.15,7.63,25.21,17.3,26.07,32.19,.61,10.6-6.22,18.66-15,23.24Z"/>
          <path class="cls-8" d="M1395.63,536.41c-1.51,6.05-6.41,10.66-11.74,13.77-1.05,.6-2.11,1.16-3.17,1.65-.85,.4-1.7,.76-2.56,1.08-6.87,2.66-14.17,3.33-21.52,2.14-8.14-1.31-16.18-4.03-24.11-6.28-8.28-2.36-16.47-4.96-24.68-7.55-15.85-5.01-32.15-10.77-44.56-22.21-2.27-2.09,.09-6.61,3.15-5.41,15.83,6.21,30.89,14.36,47.04,19.84,7.08,2.41,14.28,4.51,21.47,6.57,7.22,2.06,14.48,4.41,21.84,5.9,4.3,.87,8.7,.96,12.95,.15,2.01-.39,3.99-.98,5.9-1.8,.49-.2,.98-.43,1.46-.67,4.96-2.44,11.35-6.87,9.78-13.24-1.4-5.72-7.05-10.24-11.44-13.71-6.46-5.1-13.06-10.02-19.7-14.87-.85-.61-1.68-1.22-2.53-1.83-3.72-2.68-7.49-5.31-11.27-7.9,1.6,0,3.18-.07,4.77-.23,1.39-.14,2.79-.4,4.18-.76,3.16,2,6.3,4.01,9.42,6.05,3.05,1.99,6.09,3.98,9.13,5.97,10.9,7.16,30.2,17.22,26.2,33.32Z"/>
          <path class="cls-8" d="M1419.88,595.31c-1.41,4.63-5.18,7.6-9.35,9.8-1.84,.98-3.74,1.81-5.57,2.57-1.65,.69-3.32,1.31-5.02,1.85-5.07,1.64-10.33,2.63-15.67,3.09-13.86,1.22-28.86-.4-41.76-5.72-13.31-5.48-27.26-13.16-35.87-25.06-1.56-2.15,1.07-5.64,3.56-4.63,13.22,5.34,24.52,14.59,37.71,20.07,12,4.97,23.73,8.71,36.88,7.67,1.83-.14,3.65-.37,5.46-.68,3.84-.65,7.64-1.67,11.27-3.06,.35-.13,.7-.27,1.05-.41,5.48-2.23,11.77-4.95,10.85-11.9-.78-5.94-5.08-10.97-9.29-14.92-4.78-4.49-10.14-8.37-15.25-12.46-3.58-2.87-7.17-5.73-10.73-8.61-2.82-2.27-5.62-4.56-8.41-6.85,2.01-.39,3.99-.98,5.9-1.8,2.76,1.95,5.51,3.92,8.25,5.91,6.08,4.4,12.09,8.88,18.04,13.44,9.24,7.09,21.96,18.45,17.95,31.69Z"/>
          <path class="cls-8" d="M1109.32,407.49c-1.87,9.54-5.25,18.61-9.19,27.48-1.89,4.27-3.86,8.68-6.48,12.57-.04,.05-.07,.11-.11,.16-2.24,3.34-5.03,7.99-9.33,8.26-1.31,.09-3.02-1.09-3.2-2.43-.39-2.85,.76-4.54,2.09-6.8,.14-.24,.28-.48,.42-.73,1.25-2.2,2.39-4.47,3.53-6.73,2.49-4.92,4.56-10.05,6.41-15.24,3.68-10.34,6.62-21.17,7.04-32.18,.36-9.37-1.05-18.99-4.63-27.68-2.78-6.73-6.97-12.71-11.31-18.51-1.04-1.39-2.09-2.76-3.13-4.14-.7-.92,.46-2.07,1.4-1.83,3.78,.93,7.2,2.77,10.22,5.17,3.92,3.11,7.16,7.15,9.62,11.39,9.08,15.66,10.09,33.77,6.66,51.25Z"/>
          <g>
            <path class="cls-8" d="M993.65,400.77c-3.88-2.56-8.26-4.16-12.81-5.14,2.54-1.67,4.98-3.54,7.3-5.62,5.35-4.8,12.38-11.83,13.56-19.24,1.23-7.68-4.16-14.41-10.15-18.5-7.13-4.87-15.92-7.22-24.48-7.39-2.39-.05-2.3,3.44,0,3.65,7.18,.67,14.13,3.11,20.05,7.25,4.94,3.45,10.71,9.74,7.28,16.08-2.79,5.16-7.93,9.73-12.56,13.21-5.05,3.8-10.79,7.01-16.7,9.23-4.21,1.58-3.86,8.16,1.11,8.18,7.39,.03,15.29,.66,21.88,4.32,6.73,3.74,10.19,10.42,9.73,18.07-.22,3.74-1.43,7.22-3.37,10.4-2.17,3.55-4.91,5.31-8.39,7.41-7.15,4.3-15.4,6.16-22.99,9.53-3.04,1.35-2.2,6.49,.93,7.13,20.8,4.25,40.47-14.68,41.56-34.91,.51-9.57-3.97-18.38-11.95-23.65Z"/>
            <path class="cls-8" d="M883.3,326.75c3.76-8.3,5.14-17.91,1.66-26.56-3.18-7.91-9.6-13.75-17.33-17.17-9.08-4.01-18.28-4.5-28.06-3.68-1.63,.14-2.3,2.79-.42,3.1,7.08,1.15,14.09,3.1,20.84,5.54,6.25,2.25,12.22,6.05,15.54,11.96,8.19,14.61-3.93,30.64-16.04,38.19-8.48,5.28-17.9,8.06-27.19,11.46-4.82,1.77-4.57,9.96,1.3,9.59,8.64-.55,17.65,.88,24.89,5.9,5.93,4.12,10.42,11.57,9.62,18.97-.82,7.6-7.2,13.12-13.48,16.62-8.54,4.76-18.26,6.93-27,11.31-4.83,2.42-1.39,9.69,3.58,8.48,18.79-4.57,36.23,12.73,36.72,30.91,.57,21.02-15.23,38.03-34.39,44.25-5.85,1.9-11.85,3.61-17.93,4.57-6.13,.97-12.32,1.47-18.4,2.63-2.06,.39-1.54,3.05,0,3.68,11.42,4.65,26.72,4,38.21-.22,11.93-4.39,22.39-11.57,29.97-21.84,13.91-18.86,16.05-45.79-2.37-62.6-4.04-3.69-8.68-6.61-13.66-8.52,4.88-1.86,9.65-3.95,13.97-6.96,7.98-5.57,14.26-13.84,14.25-23.95,0-9.9-5.65-19.13-13.54-24.81-3.12-2.25-6.52-3.9-10.09-5.11,12.41-5.37,23.68-13.21,29.35-25.74Z"/>
            <path class="cls-8" d="M763.91,265.8c7.17-19.44,.17-42.67-18.67-52.42-9.61-4.98-20.57-5.91-30.66-1.76-1.64,.67-1.07,3.15,.75,2.72,15.89-3.74,34.53,4.78,40.53,20.3,6.26,16.2-.37,34.73-15.48,43.2-7.66,4.29-16.88,6.33-25.6,4.85-3.51-.6-7.11,.93-8.12,4.61-.96,3.51,1.18,7.09,4.61,8.12,4.45,1.33,9.06,2.08,13.48,3.53,4.38,1.44,8.62,3.4,12.53,5.86,6.59,4.15,12.36,10.82,13.51,18.76,2.4,16.56-18.34,24.34-30.5,29.05-10.84,4.19-21.89,6.94-33.13,9.77-6.52,1.64-5.35,12.47,1.62,11.96,10.6-.78,21.42-.84,31.42,3.38,7.94,3.35,14.87,10.42,15.96,19.28,1.25,10.08-7.04,15.16-14.9,19.25-10.53,5.48-21.51,9.24-32.89,12.52-2.59,.75-4.3,3.31-3.9,5.98,.36,2.39,2.63,5.08,5.35,4.73,10.23-1.33,21.23-.52,30.17,5.07,7.57,4.73,13.59,12.86,14.34,21.93,.82,9.9-4.12,19.32-11.32,25.84-3.82,3.46-8.24,5.68-12.77,8.04-4.6,2.4-9.11,4.55-14.06,6.14-3.13,1-2.8,6.34,.82,6.03,9.82-.84,18.92-3.02,27.06-8.81,7.81-5.56,13.87-12.91,17.25-21.92,6.85-18.26-2.01-37.45-18.54-46.78-2.75-1.55-5.63-2.8-8.6-3.8,2.61-1.17,5.19-2.4,7.73-3.67,8.41-4.22,18.03-9.13,22.05-18.19,3.47-7.83,2.17-16.55-1.59-24.03-4.13-8.22-11.33-13.91-19.74-17.32-1.32-.54-2.67-1.01-4.03-1.43,1.87-.67,3.73-1.36,5.57-2.06,9.59-3.66,18.96-7.88,26.69-14.8,7.01-6.27,12.08-15.32,11.65-24.93-.46-10.2-6.05-19.89-13.83-26.33-3.08-2.55-6.39-4.67-9.87-6.49,11.31-4.95,20.68-14.12,25.11-26.15Z"/>
            <path class="cls-8" d="M606.85,466.43c-4.04-2.9-8.65-5.15-13.5-6.7,11.41-4.12,22.31-9.1,27.2-21.32,7.23-18.07-8.47-35.64-24.16-42.22-2.03-.85-4.11-1.56-6.24-2.16,4.09-1.88,8.17-3.77,12.22-5.73,8.18-3.94,16.29-8.83,21.43-16.54,10.96-16.44,1.39-38.26-15.01-46.69-3.52-1.81-7.28-3.26-11.16-4.31,3.1-1.84,6.15-3.73,9.16-5.7,7.1-4.65,14.47-10.01,18.41-17.77,9-17.7-7.53-34.47-23.06-40.62-1.49-.59-3.03-1.1-4.59-1.53,12.29-7,22.89-16.27,27.34-30.65,3.05-9.83,1.95-20.14-3.6-28.88-5.48-8.63-14.02-15.15-23.01-19.79-11.01-5.68-23.74-8.98-36.13-8.23-1.22,.07-1.68,2.07-.31,2.28,18.54,2.82,38.46,9.59,50.74,24.63,5.74,7.03,8.48,15.84,6.22,24.77-2.23,8.8-8.57,16.37-15.88,21.53-8.98,6.34-19.27,10.34-29.49,14.18-6.28,2.36-3.92,11.83,2.81,10.2,8.46-2.05,17.03-1.77,25.1,1.79,7.45,3.29,16.22,10.1,17,18.86,.77,8.59-7.61,14.59-14.01,18.62-9.3,5.85-19.09,10.97-29.3,15.04-2.81,1.12-4.84,3.46-4.35,6.67,.42,2.78,2.91,5.51,5.97,5.27,8.22-.65,16.71-1.7,24.61,1.4,6.89,2.7,12.67,7.82,15.55,14.7,2.71,6.46,2.54,13.94-1.83,19.63-4.52,5.88-11.71,9.31-18.31,12.28-10.39,4.68-20.92,9.07-31.39,13.59-5.92,2.56-1.68,12.09,4.35,10.32,9.15-2.69,18.27-1.79,26.75,2.65,8,4.19,15.69,11.5,17.2,20.8,1.51,9.26-5.49,16.15-13.02,20.19-9.68,5.19-20.94,6.68-30.89,11.35-5.41,2.54-1.36,10.09,3.84,9.1,18.06-3.44,36.72,7.11,41.27,25.28,2.2,8.8,.88,18.1-4.41,25.55-5.12,7.21-13.46,11.99-21.69,14.79-12.5,4.25-25.77,5.02-38.77,6.39-4.05,.43-4.06,5.88,0,6.31,13.51,1.43,27.64,2.21,40.77-1.91,10.83-3.4,20.57-9.69,27.15-19.06,13.12-18.69,7.09-45.37-10.97-58.36Z"/>
            <path class="cls-8" d="M441.96,227.31c-5.64-3.98-12.22-5.77-18.99-6.56,4.08-3.3,7.83-7,11.11-11.05,5.86-7.22,10.49-16.43,6.55-25.69-3.27-7.71-11.01-12.52-18.66-15.11-10.13-3.43-21.47-3.7-31.62-.38-1.54,.51-1.36,2.99,.4,2.93,9-.28,18,.37,26.65,2.98,6.3,1.9,13.69,5.62,16.33,12.08,3.12,7.63-2.96,14.91-7.98,20.04-5.81,5.93-12.55,10.55-19.98,14.22-4.27,2.11-2.15,8.91,2.39,8.81,10.44-.22,22.47-.55,30.95,6.59,3.39,2.86,5.87,6.65,6.27,11.13,.45,5.08-1.26,10.57-3.31,15.17-3.69,8.26-9.77,15.28-17.29,20.28-3.67,2.44-7.62,4.46-11.81,5.85-4.52,1.51-9.46,1.56-13.84,3.28-3.2,1.25-3.72,5.99,0,7.04,7.85,2.23,18.04-2.21,24.88-5.95,7.61-4.16,14.05-10,19.26-16.89,5.51-7.28,9.64-16.11,10.49-25.29,.9-9.7-4.05-18.02-11.81-23.5Z"/>
            <path class="cls-8" d="M441.19,452.99c-4.98-3.68-10.65-5.49-16.56-6.31,11.05-7.37,20.69-16.71,25.05-29.6,5.72-16.93-1.61-34.68-18.38-41.33-8.06-3.2-17.46-4.14-25.68-1.16-1.63,.59-1.43,3.05,.42,3.1,8.69,.21,17.53,1.28,25.01,6.05,7.27,4.63,12.23,11.47,12.23,20.36,0,22.48-22.69,33.62-39.52,42.91-4.25,2.35-2.53,9.82,2.56,9.45,8.58-.62,18.19-1.56,26.19,2.34,7.43,3.63,11.52,10.4,9.51,18.71-3.99,16.54-21.32,25.44-36.54,29.04-5.35,1.27-10.78,1.8-16.19,2.66-5.52,.88-11.25,1.06-16.66,2.51-2.92,.78-3.25,5.67,0,6.24,11.29,1.98,23.78,.74,34.91-1.73,9.78-2.17,19.14-6.19,27.07-12.36,7.79-6.06,14.42-14.6,16.45-24.43,2.13-10.36-1.35-20.14-9.87-26.45Z"/>
          </g>
        </g>
        <path class="cls-9" d="M96.43,372.03c-19.52,14.76-49.29,15.23-68.69,.44-.19-.15-.39-.3-.58-.45-.19-.15-.38-.31-.58-.46-.51-.42-1.02-.85-1.52-1.29-.17-.16-.35-.31-.52-.47-.2-.19-.41-.38-.61-.57-.19-.17-.37-.35-.56-.53-.04-.04-.07-.07-.11-.1-.29-.29-.58-.58-.86-.87-.39-.4-.78-.82-1.16-1.25-.17-.19-.34-.38-.51-.58-.12-.14-.25-.28-.36-.42-.22-.25-.42-.5-.63-.76-8.67-10.65-12.2-22.63-11.73-34.51,4.92,3.74,9.76,8.28,14.73,12.86,19.32,17.82,47.12,31.34,73.69,28.95Z"/>
        <path class="cls-9" d="M99.57,371.68h0c-.02-.06-.03-.11-.04-.14,0,.03,.02,.07,.04,.13,.02,.07,.03,.11,.04,.13-.01-.03-.03-.08-.04-.13Z"/>
        <path class="cls-11" d="M1096.87,413.39c-1,3.6-2.16,7.15-3.41,10.65-1.85,5.19-3.91,10.33-6.41,15.24-1.14,2.25-2.29,4.53-3.53,6.73-.14,.25-.28,.49-.42,.73-21.19-.57-41.19,7.21-59.62,18.93-21.97,13.98-42.51,29.71-64.86,43.05-2.7,1.62-5.42,3.19-8.19,4.73-2.14,1.19-4.29,2.37-6.45,3.53-15.4,8.29-31.21,15.83-47.32,22.64-5.86,2.49-11.77,4.88-17.7,7.17-3.47,1.34-6.96,2.65-10.46,3.93-3.57,1.31-7.15,2.58-10.75,3.83-5.45,1.89-10.92,3.71-16.42,5.45-15.45,4.92-31.07,9.29-46.82,13.18-6.33,1.56-12.69,3.04-19.06,4.44-9.22,2.05-18.47,3.92-27.76,5.65-8.72,1.63-17.46,3.12-26.22,4.5-8.66,1.36-17.34,2.59-26.03,3.72-11.74,1.52-23.52,2.88-35.33,4.06-8.13,.82-16.27,1.56-24.43,2.21-47.32,3.78-95.05,4.7-142.5,2.09-4.13-.22-8.25-.48-12.37-.76-41.72-2.84-83.18-8.46-123.93-17.33-.92-.2-1.83-.4-2.74-.6-.6-.13-1.2-.27-1.81-.4-9.46-2.11-18.88-4.41-28.25-6.9-1.66-.44-3.32-.89-4.98-1.34-41.63-11.38-82.23-26.57-120.63-46.31-.34-.17-.69-.35-1.03-.53-4.2-2.17-8.37-4.39-12.52-6.67-20.39-11.19-40.08-23.68-58.84-37.44-22.66-16.62-44.66-35.16-61.82-57.57-7.68-10.02-14.36-20.92-19.49-32.47,7.72,2.27,15.93,2.81,24.14,1.11,11.65-2.41,22.71-8.28,31.32-16.52,17.2,46.65,59.13,81.71,105.37,100.78,48.65,20.05,102.08,24.79,154.62,27.67,145.93,7.99,292.54,3.34,437.66-13.9,68.24-8.11,136.86-19.18,200.52-45.06,31.86-12.95,65.25-29.82,98.47-32.22Z"/>
        <path class="cls-7" d="M1313.47,533.45c-5.39-1.83-10.66-3.96-15.88-6.21,24.25,.6,48.93-6.51,73.87-13.67,1.33,1.02,2.65,2.06,3.97,3.1,4.39,3.47,10.04,7.99,11.44,13.71,1.57,6.37-4.82,10.8-9.78,13.24-.48,.24-.97,.46-1.46,.67-1.91,.81-3.9,1.41-5.9,1.8-4.25,.82-8.66,.72-12.95-.15-7.36-1.5-14.62-3.84-21.84-5.9-7.19-2.06-14.39-4.16-21.47-6.57Z"/>
        <path class="cls-7" d="M1473.14,693.1c-24.03,11.41-54.48-1.16-75.67-13.24-26.43-15.07-49.02-35.91-71.92-55.7-51.34-44.38-102.21-89.38-154.1-133.13-20.99-17.69-44.11-35.38-71.27-42-2.23-.54-4.44-.98-6.64-1.33,.03-.06,.07-.11,.11-.16,2.62-3.89,4.59-8.3,6.48-12.57,3.15-7.1,5.94-14.33,7.89-21.82,7.97,.26,15.92,1.47,23.82,3.89,54.76,16.78,80.62,84.42,134.11,104.3,12.02,9.92,27.16,15.23,41.9,19.89,8.21,2.59,16.4,5.2,24.68,7.55,7.93,2.25,15.97,4.97,24.11,6.28,7.35,1.19,14.65,.52,21.52-2.14,3.56,2.88,7.15,5.74,10.73,8.61,5.11,4.1,10.48,7.97,15.25,12.46,4.21,3.95,8.51,8.97,9.29,14.92,.91,6.95-5.37,9.67-10.85,11.9-.35,.14-.7,.28-1.05,.41-3.63,1.39-7.43,2.41-11.27,3.06-1.81,.31-3.64,.54-5.46,.68-13.15,1.05-24.89-2.69-36.88-7.67-13.19-5.48-24.49-14.74-37.71-20.07-2.49-1.01-5.12,2.48-3.56,4.63,8.61,11.91,22.56,19.58,35.87,25.06,12.9,5.32,27.9,6.93,41.76,5.72,5.34-.46,10.6-1.46,15.67-3.09,5.43,2.92,10.88,5.77,16.39,8.53,13.94,6.99,28.46,13.19,41.99,20.91,10.62,6.06,22.84,14.39,27.38,26.32,4.43,11.61-1.92,22.74-12.57,27.81Z"/>
        <path class="cls-6" d="M164.92,223.54c-32.52,15.09-64.73,32.9-88.54,59.7-7.23,8.14-13.92,19.54-9.16,29.33,4.42,9.1,16.16,11.44,26.27,11.89,53.7,2.4,105.61-16.89,157.46-31.08,132.39-36.23,273.58-39.85,407.66-10.45,162.85,35.71,318.1,119.43,484.73,113.76,18.56-.63,37.73-2.58,53.92-11.69,7.42-4.18,14.76-12.57,11.15-20.28-3.49-7.46-13.88-7.54-22.07-6.64-64.05,7.07-129.95,4.43-191.26-15.45-73.22-23.74-136.24-70.56-201.57-111.25-71.51-44.53-142.37-69.69-225.85-79.83-84.6-10.27-174.69,.49-256.99,20.8-50.07,12.35-98.97,29.47-145.75,51.18Z"/>
        <path class="cls-4" d="M120.8,254.84c-20.49,7.94-43.43,18.71-49.34,39.87-8.42,30.19,22.96,55.56,50.57,70.39,47.68,25.63,97.1,48.43,148.9,64.13,127.95,38.8,265.17,32.91,397.7,15.3,132.53-17.61,263.85-46.58,397.4-52.95,24.58-1.17,49.83-1.48,73.05,6.65,52.43,18.36,81.5,73.89,126.76,106.11,5.99,4.27,13.59,8.27,20.38,5.43,4.11-1.72,6.88-5.6,9.07-9.49,23.37-41.44,4.08-95.97,23.39-139.46,14.05-31.65,47.45-54.71,51.18-89.14,.61-5.58,.29-11.52-2.59-16.35-8.04-13.48-28.45-9.78-42.63-3.05-39.23,18.6-73.16,46.86-111.76,66.73-63.72,32.79-139.63,41.16-208.96,23.02-109.1-28.54-191.09-113.31-294.85-153.74-49.54-19.3-104.99-24.29-157.77-26.85-69.56-3.37-139.18,5.58-206.87,21.26-76.41,17.69-150.58,43.82-223.62,72.13Z"/>
        <g>
          <path class="cls-9" d="M174.28,284.58c-1.94-9.39-5.81-20.43-13.96-26.28-10.37-7.44-27.54-4.86-37.73,.86-1.53,.86-3.57,1.7-4.99,2.83,.06-.16,.14-.4,.35-.73-2.42,1.21-4.33,5-5.9,7.09-1.8,2.39-3.55,4.86-5.17,7.39-3.39,5.3-4.62,11.31-5.83,17.3-3.18,15.69-1.9,34.9,10.58,46.6,13.41,12.57,37.92,13.8,51.74,.87,14.35-13.41,14.59-38.12,10.91-55.93Z"/>
          <g>
            <path class="cls-8" d="M150.85,250.62c-9.4-2.64-19.39-.89-28.14,4.94-8.6,5.73-14.98,14.72-17.95,25.33-6.21,22.09,4.37,44.46,23.57,49.86,2.85,.8,5.73,1.18,8.59,1.18,8.21,0,16.28-3.16,22.94-8.68,6.67-5.51,11.93-13.38,14.58-22.79,6.2-22.1-4.38-44.46-23.58-49.85Zm17.29,48.08c-5.23,18.62-22.3,30.18-38.03,25.76-15.74-4.43-24.28-23.17-19.05-41.79,2.56-9.11,7.98-16.81,15.27-21.66,5-3.33,10.46-5.04,15.87-5.04,2.32,0,4.62,.31,6.88,.95,15.74,4.42,24.28,23.17,19.06,41.78Z"/>
            <path class="cls-15" d="M169.41,292.11c-.23,2.18-.66,4.39-1.28,6.6-5.23,18.62-22.29,30.18-38.02,25.76-15.74-4.42-24.28-23.18-19.05-41.79,.33-1.16,.69-2.28,1.11-3.38,.57-1.55,1.24-3.04,1.99-4.48,2.92-5.67,7.09-10.42,12.17-13.81,5.01-3.33,10.47-5.03,15.88-5.03,2.32,0,4.62,.31,6.87,.94,11.19,3.15,18.73,13.53,20.28,25.96,.38,2.98,.4,6.08,.05,9.23Z"/>
            <path d="M144.35,274.23c-4.11-1.16-8.49-.39-12.31,2.15-3.73,2.48-6.49,6.38-7.78,10.97-2.69,9.59,1.93,19.31,10.31,21.67,1.25,.35,2.51,.52,3.76,.52,7.16,0,14.03-5.48,16.32-13.65,2.69-9.59-1.93-19.31-10.31-21.67Z"/>
            <path class="cls-2" d="M159.54,288.54c-1.21,4.31-5.2,6.97-8.9,5.93-3.7-1.04-5.72-5.38-4.51-9.69s5.2-6.97,8.9-5.93c3.7,1.04,5.72,5.38,4.51,9.69Z"/>
          </g>
          <path class="cls-12" d="M169.41,292.11c-.23,2.18-.66,4.39-1.28,6.6-5.23,18.62-22.29,30.18-38.02,25.76-15.74-4.42-24.28-23.18-19.05-41.79,.33-1.16,.69-2.28,1.11-3.38-.76,4.37-1.19,8.72-.74,13.24,.75,7.53,3.71,14.95,8.95,20.41,5.24,5.45,12.87,8.75,20.4,8.07,8.67-.8,16.23-6.65,21.2-13.8,3.21-4.64,5.49-9.8,7.43-15.11Z"/>
          <path class="cls-5" d="M169.36,282.87c-1.8-4.23-3.83-8.34-6.5-12.06-4.02-5.61-9.72-10.31-16.47-11.72-6.43-1.34-13.21,.45-18.86,3.8-3.94,2.34-7.39,5.38-10.53,8.68-.79,.82-1.74,2.28-2.83,3.24,2.92-5.67,7.09-10.42,12.17-13.81,5.01-3.33,10.47-5.03,15.88-5.03,2.32,0,4.62,.31,6.87,.94,11.19,3.15,18.73,13.53,20.28,25.96Z"/>
        </g>
        <path class="cls-3" d="M160.74,223.11c104.41-51.03,218.99-82.82,335.17-85.71,8.29-.21,18.2,.61,22.27,7.84,1.75,3.11,1.98,6.93,1.12,10.39-3.32,13.26-19.41,17.98-32.9,20.13-90.81,14.47-184.81,17.51-270.29,51.39-17.54,6.95-35.14,15.4-54.1,17.57-5.44,.62-21.8,3.27-22.59-5.25-.7-7.58,16.18-13.84,21.33-16.36Z"/>
        <path class="cls-3" d="M656.58,155.32c72.43,18.66,144.14,44.54,205.04,87.97,7.4,5.28,15.51,13.97,11.55,22.15-2.62,5.42-9.39,7.31-15.4,7.73-25.36,1.79-49.01-11.53-71.2-23.95-46.21-25.85-93.68-49.64-143.02-68.86-8.12-3.16-49.74-14.13-39.56-26.65,10.02-12.32,40.97-1.39,52.58,1.6Z"/>
        <path class="cls-3" d="M1076.26,359.85c9.63-.16,19.51-1.05,28.71,1.84,2.89,.91,5.84,2.33,7.35,4.96,2.4,4.17,0,9.8-3.97,12.52-3.97,2.72-9.01,3.25-13.81,3.55-47.17,2.97-94.47-8.14-137.99-26.58-7.07-3-14.18-6.26-19.94-11.33-8.4-7.4-16.56-25.73-2.04-31.23,13.87-5.26,27.46,9.27,37.67,15.93,30.68,20.03,67.35,30.96,104.02,30.35Z"/>
        <path class="cls-21" d="M1478.76,171.14c-7.64,3.93-15.32,7.8-23.02,11.64-7.78-5.07-18.06-4-27.18-2.01-41.05,8.97-77.45,31.91-113.18,54.03-34.44,21.33-69.13,42.25-104.05,62.78-12.07,7.09-24.26,14.18-37.43,18.92-2.61,.94-5.39,1.87-8.31,2.78,38.01-21.71,71.37-52.91,105.4-79.68,53.84-42.37,115.25-75.24,180.53-96.07,13.49-4.3,36.54-14.7,49.18-3.97,5.56,4.72,8.5,12.62,2.57,18.19-3.05,2.86-6.98,5.13-11.1,7.15-3.97,1.94-8.1,3.66-11.8,5.45-.55,.27-1.08,.53-1.6,.8Z"/>
        <path class="cls-21" d="M1509.6,190.15c-2.04,8.32-9.27,13.97-16.06,18.52-5.77,3.87-11.64,7.63-17.61,11.22-.39-.52-.77-1.06-1.13-1.62-5.76-8.85-7.12-20.75-12.78-29.16,11.15-5.27,22.33-10.5,33.51-15.72,.71-.33,1.42-.67,2.14-1.01,.56,.13,1.11,.27,1.66,.42,3.9,1.08,7.63,3.05,9.47,6.82,1.58,3.23,1.64,7.08,.79,10.53Z"/>
        <path class="cls-21" d="M463.56,29.26c-1.68,2.09-3.35,4.19-5,6.3-16.39-3.12-32.94-5.35-49.56-6.68,3.79-2.69,7.6-5.36,11.4-8.03,4.06-2.85,8.28-6.17,13.09-7.64,5.52-1.67,11.63-1.03,17.32-.91,8.8,.19,17.6,.34,26.39,.54-2.69,3.12-5.35,6.28-7.97,9.45-1.91,2.31-3.81,4.63-5.67,6.97Z"/>
        <path class="cls-21" d="M532.6,34.52c-3.19,4.07-6.38,8.13-9.57,12.2-20.63,.17-41.26,.33-61.89,.5,4.89-6.09,9.91-12.08,15.04-17.96,6.98-.31,13.96-1.06,20.8-1.69,14.09-1.31,28.37-3.04,42.51-1.83-.62,.79-1.24,1.58-1.85,2.37-1.68,2.14-3.36,4.28-5.03,6.42Z"/>
        <path class="cls-21" d="M586.68,57.58h.82c-.24,.11-.52,.13-.82,0Z"/>
        <path class="cls-21" d="M587.44,50.6c-.93,1.03-1.85,2.07-2.78,3.09-.18,0-.37,0-.55,0-18.94,.44-37.87,.88-56.81,1.32l16.73-21.19c.11,0,.23-.02,.34-.02,7.96-.6,15.92-1.16,23.88-1.65,12.5-.78,25.01-1.33,37.51-1.95-1.09,1.21-2.18,2.43-3.27,3.65-2.06,2.29-4.11,4.58-6.17,6.87-2.96,3.29-5.92,6.59-8.88,9.88Z"/>
        <path class="cls-21" d="M657.59,52.77c-2.11,2.43-4.22,4.86-6.34,7.28-19.12-1.51-38.29-2.33-57.47-2.45,.24-.27,.48-.53,.72-.8,4.64-5.19,9.28-10.37,13.92-15.56,6.94,.26,13.87,.7,20.8,1.11,11.77,.68,23.5,1.37,35.22,2.46-.91,1.07-1.83,2.13-2.74,3.19-1.36,1.6-2.73,3.19-4.11,4.78Z"/>
        <path class="cls-21" d="M708.63,74.05c-2.08,1.94-4.17,3.86-6.27,5.77-15.6-4.34-31.19-8.68-46.78-13.02,3.87-3.84,7.65-7.75,11.33-11.75,6.4,1.44,12.87,2.65,19.26,3.9,6.44,1.27,12.89,2.54,19.33,3.81,4.09,.8,8.27,1.47,12.29,2.62-1.41,1.36-2.83,2.71-4.24,4.05-1.63,1.55-3.27,3.08-4.92,4.61Z"/>
        <path class="cls-21" d="M751.1,94c-1.82,1.68-3.64,3.35-5.48,5-12.87-4.48-25.93-8.4-39.14-11.74,3.97-3.47,7.86-7.02,11.71-10.63,4.1,1.07,8.2,2.09,12.3,3.12,9.28,2.35,18.47,5.03,27.67,7.67-1.1,1.04-2.2,2.07-3.31,3.1-1.25,1.18-2.5,2.34-3.76,3.48Z"/>
        <path class="cls-21" d="M788.88,106.91c-2.43,2.93-4.89,5.84-7.37,8.74-11-2.58-21.9-5.61-32.66-9.1,3.79-3.31,7.54-6.66,11.26-10.04,7.21,1.75,14.56,2.96,21.95,3.78,3.82,.42,7.65,.74,11.46,.98-.21,.26-.42,.52-.63,.78-.52,.62-1.03,1.25-1.54,1.87-.82,1-1.65,1.99-2.47,2.99Z"/>
        <path class="cls-21" d="M813.67,129.53c-10.24-2.39-20.49-4.77-30.73-7.16,3.97-4.6,7.9-9.25,11.76-13.94,3.72,.9,7.48,1.71,11.21,2.62,3.89,.95,7.78,1.89,11.67,2.86h0c3.13,.78,6.26,1.56,9.38,2.37-1.12,1.11-2.24,2.21-3.36,3.31-3.33,3.3-6.64,6.61-9.93,9.94Z"/>
        <path class="cls-21" d="M870.05,136.72c-4.89,5.29-9.76,10.6-14.6,15.93-11.88-4.99-23.76-9.99-35.64-14.98-.87-.37-1.77-.76-2.56-1.28,.39-.39,.79-.77,1.18-1.15,4.26-4.1,8.48-8.24,12.67-12.39,1.37-1.36,2.74-2.72,4.11-4.07,11.94,5.34,23.56,11.26,34.84,17.95Z"/>
        <path class="cls-7" d="M726.95,142.38c-37.05-12.96-75.29-22.53-114.08-28.69-105.4-16.71-212.64-7.65-314.44,21.9,.09-.13,.19-.24,.28-.37,11.27-14.82,23.42-29,36.24-42.5,8.5-8.94,17.32-17.58,26.43-25.88,.11,.64,.25,1.29,.44,1.94,2.16,7.47,7.88,13.51,14.49,17.61,17.56,10.91,39.84,9.22,60.45,7.52,49.03-4.04,98.49-5.99,147.33-.09,28.03,3.39,55.93,9.46,82.5,18.94,1.4,.5,2.81,1.01,4.2,1.53,18.22,6.79,35.79,15.21,52.3,25.52,1.28,.8,2.58,1.66,3.85,2.58Z"/>
        <path class="cls-7" d="M960.09,544.26c-20.68,1.75-39.89,15.58-48.09,34.65-8.39-2.02-17.01-4.05-25.58-3.05-8.57,1-17.25,5.68-20.6,13.65-20.49-6.33-44.86,5-53.23,24.74-14.02-11.31-35.75-11.74-50.2-.99-2.03,1.51-3.95,3.22-6.28,4.21-3,1.27-6.37,1.21-9.62,1.41-21.26,1.31-38.83,15.49-48.11,34.05-1.35,2.71-2.49,5.54-3.81,8.26-13.62-18.52-26.36-37.69-38.16-57.42,9.83-1.16,23.31-5.54,33.12-6.87,90.19-12.15,178.18-36.92,260.3-76.09,.73,.27,1.43,.61,2.11,1.01,1.9,1.14,3.36,2.66,4.48,4.45,0,0,.01,.01,.01,.02,.8,1.27,1.42,2.69,1.91,4.18,1.41,4.29,1.7,9.27,1.75,13.8Z"/>
        <path class="cls-7" d="M480.59,610.34c-.19,9.37-.41,18.73-.63,28.1-7.3-1.18-14.61-2.27-21.95-3.14-15.94-1.87-32.81-2.48-47.26,4.51-4.99,2.41-9.63,5.77-12.87,10.27-4.04,5.63-5.63,12.7-5.86,19.63-.59,17.52,7.01,34.62,18.23,48.09,11.21,13.47,25.83,23.7,40.94,32.57,1.43,.84,2.88,1.68,4.28,2.59-.52,1.15-1.07,2.29-1.66,3.39-1.36,2.56-2.93,4.95-4.86,6.96-5.32,5.53-11.4,3.08-16.48-1.52-10.64-9.66-19.81-21.55-27.96-33.33-7.02-10.14-13.29-20.81-18.81-31.87-2.2-4.41-4.27-8.88-6.22-13.41-4.81-11.13-8.86-22.58-12.16-34.23-5.08-17.95-8.3-36.52-9.76-55.22,40.48,8.59,81.64,13.95,123.02,16.61Z"/>
        <path class="cls-7" d="M375.54,696.07c-1.24,4.14-2.51,8.26-3.9,12.35-4.6-11.02-8.68-22.24-11.72-33.79-2.34-8.88-4.14-18.13-9.05-25.89-7.34-11.62-17.97-15.06-28.89-18.34-.07-4.04-.1-8.09-.12-12.16-.06-10.9,.49-21.78,1.27-32.65,9.57,2.5,19.19,4.81,28.84,6.94-.06,35.62,8.39,71.19,23.55,103.54Z"/>
        <path class="cls-7" d="M397.15,377.51c-2.43,2.05-4.82,4.13-7.19,6.24-2.59,2.31-5.14,4.65-7.66,7.05-1,.94-1.99,1.9-2.98,2.86-6.71,6.55-13.11,13.43-19.06,20.69-1.07,1.31-2.14,2.64-3.19,3.98-1.54,1.95-3.04,3.93-4.51,5.93-.41,.56-.82,1.12-1.22,1.68-2.64,3.66-5.01,7.58-8.1,10.89-6.21,6.63-14.64,7.21-23.1,5.32-9.67-2.16-18.59-6.48-27.81-9.97-11.36-4.3-23.52-7.63-35.83-9.36,.18-.5,.34-1,.51-1.51,9.04-27.43,14.82-55.8,17.83-84.5,1.24-.35,2.48-.7,3.72-1.06,1.3,10.26,3.74,20.37,8.03,29.82,4.84,10.66,11.96,20.31,21.44,27.29,4.94,3.63,10.56,6.55,16.63,7.47,5.96,.9,12.03-.17,17.9-1.5,17.05-3.87,33.57-10.03,48.98-18.27,1.87-1,3.74-2.04,5.63-3.05Z"/>
        <path class="cls-21" d="M491.88,306.32c-5.93,4.94-12.09,9.63-18.28,14.23-1.34,1-2.67,1.98-4.01,2.97-2.75,2.03-5.51,4.04-8.28,6.04-4.45,3.22-8.91,6.42-13.38,9.62,.12-.46,.25-.91,.4-1.36,1.88-5.79,5.41-10.93,7.48-16.65,.46-1.27,.85-2.66,.43-3.95-.82-2.54-4.07-3.17-6.74-3.32-14.58-.82-29.19-.51-43.75,.36-26.15,1.58-52.14,5.01-78.24,7.14-.28,.02-.57,.05-.86,.08,10.05-2.87,20.14-5.63,30.25-8.27,21.32-5.57,42.87-10.32,64.63-13.78,10.76-1.71,21.57-3.08,32.42-4.08,10.29-.94,21.13-2.34,31.46-1.35,3.56,.34,9.06,1.29,11.5,4.26,2.14,2.6-3.27,6.59-5.03,8.05Z"/>
      </g>
      <g class="cls-14">
        <path class="cls-10" d="M307.65,508.52c-2.12,2.27-4.53,4.65-7.9,4.46-3.73-.21-6.52-3.37-7.04-6.91-.06-.42-.78-.33-.75,.1,.28,4.04,3.19,7.65,7.26,8.38,3.85,.69,8.72-1.35,9.39-5.47,.08-.52-.53-1.01-.95-.56Z"/>
        <path class="cls-10" d="M339.72,522.45c-3.12,3.57-9.17,4.35-12.04-.02-.4-.62-1.32-.08-.99,.58,2.72,5.45,11.74,6.36,14.97,.95,.71-1.18-1-2.58-1.95-1.5Z"/>
        <path class="cls-10" d="M364.94,534.6c-.78,.66-1.19,1.57-2.11,2.1-.87,.5-1.95,.74-2.95,.79-2.33,.12-4.5-.91-5.52-3.06-.15-.33-.68-.1-.58,.24,.83,2.72,3.34,4.29,6.1,4.53,2.49,.22,6.3-1.09,6.58-3.98,.08-.84-.99-1.08-1.52-.63Z"/>
        <path class="cls-10" d="M394.24,539.83c-3.64,1.51-6.81,2.99-10.88,2.15-4.15-.85-7.78-3.5-9.34-7.5-.14-.37-.74-.23-.61,.17,1.38,4.32,5,7.38,9.3,8.63,3.94,1.15,9.62,1.02,12.1-2.7,.23-.34-.16-.92-.57-.75Z"/>
        <path class="cls-10" d="M421.35,540.96c-1.38,1.53-2.41,3.17-4.59,3.63-3.24,.69-5.97-2.16-6.24-5.21-.02-.24-.38-.25-.38,0-.04,3.22,2.25,6.21,5.55,6.59,2.76,.32,6.5-1.53,6.53-4.65,0-.42-.57-.69-.87-.36Z"/>
        <path class="cls-10" d="M444.18,524.21c-1.53,2.2-3.22,4.03-6.17,3.69-2.75-.32-4.69-2.61-5.14-5.24-.1-.56-1.06-.43-1,.13,.38,3.21,2.64,6.02,5.94,6.58,3.11,.53,7.02-1.34,7.87-4.53,.25-.94-.99-1.38-1.51-.64Z"/>
        <path class="cls-10" d="M466.7,531.51c-1.24,1.28-2.62,2.73-4.2,3.58-1.06,.57-2.19,.79-3.32,.33-1.41-.57-2.64-2.01-1.94-3.64,.19-.44-.41-.82-.66-.38-1.29,2.33,.57,4.86,2.9,5.57,3.5,1.06,6.36-1.93,8.3-4.39,.59-.75-.38-1.8-1.08-1.08Z"/>
        <path class="cls-10" d="M462.68,557.54c-3.78,.86-8.1-1.1-8.17-5.46,0-.57-.86-.57-.89,0-.22,4.52,5.26,9.19,9.6,6.74,.71-.4,.22-1.45-.54-1.28Z"/>
        <path class="cls-10" d="M492.05,557.06c-4.62,4.35-11.98,2.57-12.92-4.07-.05-.35-.65-.27-.62,.08,.52,7.41,9.93,10.93,14.64,4.83,.5-.65-.54-1.37-1.1-.85Z"/>
        <path class="cls-10" d="M519.62,559.5c-2.25,3.69-7.42,5.17-10.86,2.18-.37-.32-.89,.19-.54,.54,3.61,3.58,10.57,2.66,12.44-2.28,.23-.62-.72-.98-1.04-.44Z"/>
        <path class="cls-10" d="M516.53,531.21c-1.18,2.31-2.5,4.14-4.89,5.29-2.63,1.27-5.42,1.57-8.04,.1-.12-.07-.27,.1-.15,.2,4.55,3.9,14.36,1.64,14.15-5.3-.02-.54-.79-.81-1.06-.29Z"/>
        <path class="cls-10" d="M525.28,506.7c-2.6,4.07-8.63,5.44-12.1,1.64-.19-.21-.58,.08-.4,.31,3.38,4.44,11.55,4.04,13.54-1.51,.23-.63-.71-.97-1.04-.44Z"/>
        <path class="cls-10" d="M548.02,509.15c-2.21,1.06-3.89,1.92-6.45,1.73-2.69-.19-5.11-1.48-6.66-3.69-.23-.33-.75-.04-.55,.32,2.5,4.63,10.7,7.61,14.66,2.93,.61-.72-.14-1.71-1-1.3Z"/>
        <path class="cls-10" d="M544.32,527.98c-2.28,1.28-5.47,.75-6.76-1.64-.36-.67-1.26-.08-.99,.58,1.39,3.29,5.85,4.55,8.51,2.06,.53-.5-.15-1.35-.77-1Z"/>
        <path class="cls-10" d="M551.6,559.36c-1.88,2.93-5.67,4.2-8.71,2.2-.69-.46-1.29,.62-.64,1.1,3.5,2.57,9.02,1.38,10.74-2.71,.35-.83-.95-1.28-1.39-.59Z"/>
        <path class="cls-10" d="M581.8,558.77c-2.53,.08-4.92,.85-7.46,.29-2.84-.63-5.45-2.77-4.99-5.97,.03-.24-.29-.34-.37-.1-.78,2.6,.5,5.13,2.67,6.64,2.81,1.96,7.25,1.68,10.35,.63,.78-.26,.7-1.53-.2-1.5Z"/>
        <path class="cls-10" d="M611.92,556.13c-1.11,1.33-2.8,2.47-4.6,2.22-2.16-.3-3.59-2.22-3.67-4.34-.02-.65-1-.66-1.02,0-.07,2.49,1.44,4.94,3.9,5.69,2.53,.77,5.35-.35,6.39-2.8,.25-.59-.49-1.38-1-.77Z"/>
        <path class="cls-10" d="M609.75,573.93c-3.18,1.92-7.64,1.43-9.93-1.62-.33-.45-1.09-.04-.77,.45,2.5,3.76,7.72,4.83,11.23,1.87,.39-.33-.11-.95-.54-.7Z"/>
        <path class="cls-10" d="M637.97,568.91c-4.37,2.36-9.95,2.01-12.93-2.36-.36-.53-1.22-.05-.88,.51,2.91,4.73,10.19,6.73,14.5,2.74,.49-.45-.13-1.2-.69-.9Z"/>
        <path class="cls-10" d="M652.7,548.76c-2.98,2.41-7.21,2.73-10.26,.28-.25-.2-.6,.12-.36,.36,3.12,3.1,8.34,3.43,11.52,.25,.59-.59-.28-1.4-.9-.9Z"/>
        <path class="cls-10" d="M648.73,530.88c-1.48,.93-2.77,1.56-4.58,1.32-1.83-.24-3.37-1.22-4.29-2.83-.24-.43-.87-.05-.66,.38,1.7,3.46,7.41,5.28,10.29,2.12,.47-.51-.13-1.4-.77-1Z"/>
        <path class="cls-10" d="M664.2,513.49c-2.77,2.51-6.43,3.87-10,2.24-.59-.27-1.1,.58-.51,.88,3.74,1.89,8.94,1.2,11.11-2.65,.22-.38-.28-.75-.6-.46Z"/>
        <path class="cls-10" d="M658.82,486.21c-3.28,1.24-6.24,2.47-9.75,2.96-.42,.06-.33,.79,.1,.75,3.39-.35,7.06-1.05,10.04-2.78,.48-.28,.16-1.14-.39-.93Z"/>
        <path class="cls-10" d="M678.81,482.8c-4.23,2.87-9.82,3.2-13.88-.16-.49-.41-1.2,.26-.72,.72,4.22,4.01,11.09,4.6,15.52,.64,.64-.57-.2-1.68-.92-1.2Z"/>
        <path class="cls-10" d="M637.57,514.66c-1.69,3.18-6.7,5.1-9,1.32-.21-.35-.73-.04-.55,.32,1.98,4.02,10.4,3.82,10.38-1.42,0-.43-.62-.62-.83-.22Z"/>
        <path class="cls-10" d="M628.41,540.38c-4.87,.7-9.58-.58-12.19-5.06-.29-.5-1.01-.06-.77,.45,2.24,4.73,8.23,8.21,13.39,6.2,1-.39,.61-1.74-.44-1.59Z"/>
        <path class="cls-10" d="M580.12,509.43c-1.36,1.42-2.95,3.3-4.89,3.87-1.92,.56-5.57-1.53-3.71-3.83,.4-.5-.26-1.21-.72-.72-1.87,2-.31,4.95,1.92,5.92,3.41,1.48,6.64-1.66,8.57-4.07,.64-.81-.41-1.95-1.17-1.17Z"/>
        <path class="cls-10" d="M577.34,526.72c-4.32,2.09-9.6,1.43-12.75-2.34-.41-.49-1.29,.17-.9,.69,3.29,4.37,9.68,6.03,14.29,2.74,.66-.47,.1-1.46-.64-1.1Z"/>
        <path class="cls-10" d="M595.23,518.16c-1.22,.39-2.1,1.07-3.47,1.07-1.45,0-2.77-.6-3.78-1.64-.46-.48-1.14,.23-.72,.72,1.87,2.19,6.65,3.5,8.68,.78,.33-.45-.22-1.09-.72-.93Z"/>
        <path class="cls-10" d="M490.55,515.48c-2.64,2.46-7.53,2.24-8.8-1.61-.18-.54-1.01-.32-.86,.24,1.18,4.23,8.04,6.17,10.56,2.07,.35-.56-.43-1.13-.9-.69Z"/>
        <path class="cls-10" d="M490.07,532.1c-2.85,.18-5.49-.76-7.58-2.71-.36-.33-.89,.2-.54,.54,2.2,2.12,5.06,3.2,8.12,3.06,.57-.03,.57-.92,0-.89Z"/>
        <path class="cls-10" d="M494.3,494.3c-1.69,4.29-6.94,6.65-10.94,3.83-.35-.25-.8,.33-.46,.6,4.07,3.24,11.63,1.42,12.51-4.13,.12-.73-.83-.99-1.1-.3Z"/>
        <path class="cls-10" d="M466.4,500.66c-2.2,1.34-3.94,3.57-6.75,3.66-2.69,.09-5.75-2.8-3.93-5.48,.28-.41-.37-.76-.66-.38-1.77,2.33-.16,5.42,2.23,6.6,3.26,1.62,7.85-.74,9.95-3.3,.47-.58-.12-1.54-.85-1.1Z"/>
        <path class="cls-10" d="M485.51,484.85c-.97,1.14-1.94,2.51-3.25,3.28-1.62,.96-4.92,.21-4.22-2.22,.18-.63-.78-.89-.98-.27-.7,2.13,1.25,4.01,3.31,4.2,2.71,.25,4.77-2.24,6.04-4.3,.33-.54-.47-1.19-.9-.69Z"/>
        <path class="cls-10" d="M526.46,482.33c-1.6,1.04-2.8,2.55-4.64,3.25-2.3,.87-5.62,.07-5.68-2.91,0-.49-.74-.49-.76,0-.09,2.34,1.82,4.03,4.05,4.38,2.83,.44,6.08-1.59,7.79-3.72,.42-.52-.11-1.42-.77-1Z"/>
        <path class="cls-10" d="M507,578.89c-1.44,1.69-4.22,2.6-6.32,1.68-2.52-1.1-3.34-4.31-2.21-6.68,.21-.44-.41-.82-.66-.38-1.52,2.67-.82,6.37,1.85,8.06,2.85,1.81,6.47,.76,8.03-2.15,.23-.42-.36-.94-.7-.54Z"/>
        <path class="cls-10" d="M535.5,578.54c-2.33,1.06-4.73,2.43-7.36,2.49-2.84,.07-5.72-1.55-6.1-4.58-.03-.24-.4-.25-.38,0,.17,2.53,1.95,4.36,4.33,5.13,3.44,1.12,7.09-.45,10.1-2.05,.66-.35,.08-1.29-.58-.99Z"/>
        <path class="cls-10" d="M557.42,577.78c-1.23,1.61-2.42,3.7-4.19,4.74-1.93,1.14-5.42,.63-5.52-2.14-.03-.73-1.14-.74-1.14,0,0,2.61,2.46,4.22,4.92,4.14,3.41-.1,5.69-3.37,6.92-6.17,.3-.68-.54-1.16-.99-.58Z"/>
        <path class="cls-10" d="M473.25,584.49c-2.11,.68-4.71,2.08-6.94,1.21-1.67-.65-3.02-3.49-1.16-4.7,.61-.4,.06-1.37-.58-.99-2.14,1.29-1.84,4.19-.32,5.88,2.46,2.75,6.82,1.36,9.49-.25,.6-.36,.21-1.39-.49-1.16Z"/>
        <path class="cls-10" d="M432.8,580.01c-2.19,3.29-7.2,2.55-7.74-1.59-.05-.39-.66-.42-.63,0,.32,4.91,6.96,6.71,9.25,2.1,.29-.59-.51-1.06-.88-.51Z"/>
        <path class="cls-10" d="M445.83,567.16c-2.97,1.57-6.07,2.12-9.3,1.02-.55-.19-.76,.65-.24,.86,3.31,1.29,7.14,1.13,10.05-1,.52-.38,.08-1.19-.51-.88Z"/>
        <path class="cls-10" d="M397.15,492.21c-3.02,1.39-6.78,.33-8.18-2.79-.09-.2-.41-.06-.35,.15,1.18,3.6,5.74,5.66,9.04,3.52,.56-.36,.08-1.15-.51-.88Z"/>
        <path class="cls-10" d="M368.53,497.95c-1.13,1.42-3.03,2.42-4.85,1.75-2.04-.75-2.74-3.22-2.01-5.11,.21-.53-.7-.92-.93-.39-.99,2.33-.22,5.24,2.1,6.47,2.3,1.22,5.44,.29,6.48-2.11,.21-.47-.41-1.11-.8-.62Z"/>
        <path class="cls-10" d="M337.46,500.14c-.87,1.13-2.49,1.81-3.82,1.07-1.29-.71-1.67-2.33-1.15-3.63,.21-.53-.64-.75-.86-.24-.74,1.78,0,3.99,1.78,4.83,1.71,.81,3.93,.08,4.71-1.65,.2-.45-.36-.77-.66-.38Z"/>
        <path class="cls-10" d="M307.28,496c-2.69,1.42-6.63-.1-6.66-3.45,0-.57-.88-.57-.89,0-.08,3.77,5.07,6.89,8.08,4.15,.38-.35-.11-.93-.54-.7Z"/>
        <path class="cls-10" d="M332.83,483.27c-1.7,.28-2.87,.81-4.6,.06-1.61-.69-2.76-2-3.12-3.71-.15-.73-1.23-.41-1.1,.3,.37,2.14,1.85,3.82,3.81,4.7,1.61,.73,4.26,1.09,5.64-.29,.48-.48-.02-1.16-.62-1.06Z"/>
        <path class="cls-10" d="M359.26,516.21c-3.24,.17-6.69-1.67-7.14-5.13-.11-.86-1.46-.91-1.4,0,.31,4.14,4.52,7.93,8.72,6.5,.71-.24,.64-1.42-.19-1.37Z"/>
        <path class="cls-10" d="M323.99,556.6c-.56,1.93-3.24,1.98-4.6,.93-2.12-1.64-1.84-5.09-1.7-7.46,.03-.42-.58-.39-.63,0-.41,3.08-.76,7.63,2.69,9.16,2.24,.99,5.34,.31,5.62-2.45,.08-.8-1.16-.92-1.37-.19Z"/>
        <path class="cls-10" d="M355.91,558.1c-2.29,1.41-5.41,3.22-8.22,2.55-2.66-.63-4.76-3.71-3.2-6.26,.3-.49-.45-.91-.77-.45-1.76,2.54-.39,5.87,2.08,7.41,3.64,2.27,7.96,.16,10.95-2.16,.63-.49-.18-1.51-.85-1.1Z"/>
        <path class="cls-10" d="M384.92,561.44c-2.01-.5-3.78,.44-5.4,1.57-1,.7-1.95,1.47-3.11,1.89-1.22,.44-2.71,.56-3.51-.66-.61-.93-.62-2.28,.57-2.83,.2-.09,.06-.42-.15-.35-2.06,.69-1.75,3.56-.2,4.7,1.16,.85,2.79,.71,4.08,.29,2.66-.86,4.66-2.75,7.52-3.12,.79-.1,1.11-1.27,.2-1.5Z"/>
        <path class="cls-10" d="M384.45,576.8c-1.66,.39-2.79,1.04-4.56,.4-1.73-.62-3.02-1.99-3.37-3.8-.11-.57-.93-.31-.86,.24,.29,2.15,1.78,3.85,3.75,4.7,1.61,.69,4.38,1.03,5.65-.48,.4-.48,.03-1.21-.62-1.06Z"/>
        <path class="cls-10" d="M407.63,564.33c-2.65,2.6-7.66,1.79-9.17-1.64-.14-.33-.69-.09-.58,.24,1.44,4.3,7.53,5.71,10.47,2.11,.41-.5-.24-1.19-.72-.72Z"/>
        <path class="cls-10" d="M405.15,582.89c-4.45-.56-8.33-2.44-10.29-6.67-.21-.45-1-.13-.81,.34,1.78,4.45,6.3,8.03,11.24,7.33,.62-.09,.38-.93-.14-1Z"/>
        <path class="cls-10" d="M324.38,536.74c-3.1,2.44-8.31,1.75-9.58-2.37-.19-.62-1.15-.36-.98,.27,1.26,4.62,8.3,6.86,11.36,2.71,.37-.5-.39-.94-.8-.62Z"/>
        <path class="cls-10" d="M293.52,546.59c-3.48,1.77-7.34-1.25-5.85-5.05,.18-.47-.6-.8-.81-.34-.94,2.02-.61,4.49,1.05,6.05,1.71,1.6,4.37,1.79,6.25,.43,.66-.47,.1-1.47-.64-1.1Z"/>
        <path class="cls-10" d="M298.75,531.12c-2.84,.16-5.47-.79-7.54-2.75-.42-.39-1.04,.23-.63,.63,2.23,2.11,5.1,3.18,8.16,3.01,.57-.03,.57-.92,0-.89Z"/>
        <path class="cls-10" d="M263.38,536.72c-2.07,.49-3.91,.16-5.47-1.36-1.49-1.45-2.19-3.51-1.39-5.5,.21-.53-.7-.92-.93-.39-1.04,2.37-.31,4.92,1.45,6.75,1.67,1.73,4.55,2.92,6.77,1.54,.55-.34,.19-1.2-.44-1.04Z"/>
        <path class="cls-10" d="M285.51,517.13c-3.41,2.54-8.34,2.59-10.73-1.43-.38-.63-1.35-.06-.99,.58,2.32,4.09,9.16,5.76,12.48,1.85,.43-.51-.15-1.46-.77-1Z"/>
        <path class="cls-10" d="M282.72,488.22c-2.39,2.76-7.15,2.5-8.95-.78-.16-.29-.57-.04-.44,.26,1.8,3.89,7.61,4.57,10.19,1.14,.34-.46-.42-1.05-.8-.62Z"/>
        <path class="cls-10" d="M259.69,487.09c-2.85,.16-5.2,0-7.63-1.69-.35-.24-.8,.33-.46,.6,2.23,1.73,5.41,2.89,8.23,2.09,.54-.15,.45-1.03-.13-1Z"/>
        <path class="cls-10" d="M251.52,502.65c-3.58,2.68-9.7,.46-9.88-4.26-.02-.41-.62-.41-.63,0-.26,5.49,7.3,9.29,11.28,5.26,.49-.49-.18-1.44-.77-1Z"/>
        <path class="cls-10" d="M242.92,520.24c-4.58,1.67-10.45-1.05-10.83-6.24-.05-.64-1.03-.66-1.02,0,.13,5.78,7.09,10.5,12.24,7.17,.46-.3,.18-1.13-.39-.93Z"/>
        <path class="cls-10" d="M226.6,530.28l-5.87-1.89c-.47-.15-.66,.58-.2,.73,1.95,.67,3.89,1.34,5.84,2.02,.54,.19,.78-.68,.24-.86Z"/>
        <path class="cls-10" d="M191.31,500.58c-1.05-.03-1.88,.41-2.98,.08-1.17-.35-2.13-1.2-2.58-2.34-.2-.52-1.03-.32-.86,.24,.45,1.43,1.46,2.53,2.83,3.13,1.12,.49,3.03,.84,3.98-.13,.35-.36,.09-.96-.4-.98Z"/>
        <path class="cls-10" d="M195.14,475.77c-2.24,2.24-6,2.01-8-.42-.47-.57-1.28,.25-.81,.81,2.4,2.85,6.93,2.99,9.53,.33,.46-.47-.25-1.18-.72-.72Z"/>
        <path class="cls-10" d="M194.16,460.74c-2.81,.61-5.59-.43-7.39-2.65-.27-.33-.86,.12-.6,.46,1.96,2.58,5.07,3.76,8.26,3.17,.64-.12,.37-1.12-.27-.98Z"/>
        <path class="cls-10" d="M162.24,478.94c-4.7,.55-9.54-3.78-8.24-8.65,.13-.48-.58-.66-.73-.2-1.76,5.26,3.56,11.66,9.09,9.72,.44-.15,.41-.93-.12-.87Z"/>
        <path class="cls-10" d="M172.89,470.74c-1.18-.1-2.15,.39-3.36-.05-1.3-.47-2.3-1.46-2.71-2.78-.19-.62-1.15-.36-.98,.27,.44,1.6,1.57,2.85,3.09,3.51,1.17,.52,3.33,.94,4.28-.19,.26-.31,.08-.72-.31-.76Z"/>
        <path class="cls-10" d="M169.93,494.41c-3.75-.1-7.07-2.28-8.14-5.97-.16-.55-1-.32-.86,.24,1.04,3.95,4.82,7.05,9,6.75,.65-.05,.66-1,0-1.02Z"/>
        <path class="cls-10" d="M123.05,466.51c-3.52-.43-6.55-2.44-8.38-5.46-.38-.63-1.37-.05-.99,.58,2.06,3.4,5.43,5.54,9.37,6.03,.73,.09,.72-1.05,0-1.14Z"/>
        <path class="cls-10" d="M137.23,456.44c-1.11,.84-2.15,1.87-3.44,2.44-1.61,.71-4.66,.16-4.14-2.26,.17-.79-1.02-1.14-1.22-.34-.52,2.07,1.03,3.9,3.03,4.36,2.56,.59,5.04-1.31,6.62-3.1,.49-.55-.18-1.6-.85-1.1Z"/>
        <path class="cls-10" d="M139.64,476.6c-3.07,.1-5.9-1.01-7.4-3.82-.19-.36-.73-.04-.55,.32,1.43,2.9,4.79,4.94,8.04,4.13,.34-.09,.28-.64-.08-.62Z"/>
        <path class="cls-10" d="M149.17,462.84c-1.38,.73-2.96,1.16-4.52,.9-.55-.09-.8,.7-.24,.86,1.92,.53,3.79,.28,5.37-.96,.47-.37-.13-1.06-.62-.8Z"/>
        <path class="cls-10" d="M131.72,440.56c-2.27,1.24-5.69,.12-5.95-2.71-.06-.65-1.08-.65-1.02,0,.31,3.32,4.76,5.76,7.43,3.31,.33-.3-.09-.8-.46-.6Z"/>
        <path class="cls-10" d="M114.31,446.62c-3.29,1.08-7.18-.56-8.05-4.05-.1-.4-.69-.23-.61,.17,.79,3.86,5.34,6.42,8.91,4.46,.31-.17,.1-.69-.24-.58Z"/>
        <path class="cls-10" d="M104.5,421.78c-.81-.03-1.53,.1-2.34-.16-.87-.28-1.61-.82-2.15-1.55-.34-.45-1.1-.02-.77,.45,1.12,1.58,3.54,2.95,5.48,2.09,.43-.19,.18-.81-.22-.83Z"/>
        <path class="cls-10" d="M92.94,437.61c-3.29-1.89-6.58-3.78-9.87-5.67-.43-.24-.81,.41-.38,.66,3.29,1.89,6.58,3.78,9.87,5.67,.43,.24,.81-.41,.38-.66Z"/>
        <path class="cls-10" d="M405.95,526.06c-1.55,.35-2.88,.96-4.53,.86-1.74-.1-3.3-.73-4.7-1.76-.46-.34-1.06,.43-.62,.8,2.59,2.11,7.38,3.5,10.34,1.26,.55-.42,.25-1.33-.49-1.16Z"/>
        <path class="cls-10" d="M443.7,551.37c-1.38,.85-2.36,1.78-4.07,1.98-1.82,.21-3.57-.33-4.93-1.55-.48-.43-1.19,.25-.72,.72,2.52,2.5,8.53,3.38,10.58-.28,.3-.54-.32-1.21-.87-.87Z"/>
        <path class="cls-10" d="M452.27,583.65c-2.73,3.04-7.83,3.35-10.61,.23-.55-.62-1.4,.27-.9,.9,3.19,3.99,9.64,3.92,12.51-.36,.4-.6-.51-1.31-1-.77Z"/>
        <path class="cls-10" d="M495.67,590.67c-3.65,2.14-7.65,2.64-11.23,.02-.6-.44-1.15,.55-.58,.99,3.54,2.72,9.11,3.08,12.42-.21,.41-.41-.11-1.09-.62-.8Z"/>
        <path class="cls-10" d="M577.11,585.54c-2.88,3.44-7.65,4.81-11.55,2.16-.35-.24-.8,.32-.46,.6,3.92,3.2,10.5,2.7,13.11-1.91,.38-.67-.57-1.47-1.1-.85Z"/>
        <path class="cls-10" d="M602.29,589.2c-3.53,.36-6.63,.25-9.33-2.39-.59-.58-1.43,.29-.9,.9,2.52,2.89,6.98,4.68,10.65,3.03,.73-.33,.38-1.62-.42-1.54Z"/>
        <path class="cls-10" d="M644.6,584.6c-3.17,2.9-8.65,2.38-10.79-1.47-.36-.65-1.29-.08-.99,.58,2.21,4.85,9.44,6.27,12.94,2.06,.67-.81-.37-1.89-1.17-1.17Z"/>
        <path class="cls-10" d="M690.72,563.01c-1.98,1.15-4.08,2.35-6.37,2.69-2.52,.37-5.36-1.05-5.36-3.88,0-.75-1.08-.72-1.14,0-.22,2.6,1.64,4.67,4.05,5.45,3.6,1.16,6.79-.93,9.59-2.94,.78-.56,.1-1.82-.77-1.32Z"/>
        <path class="cls-10" d="M739.51,558.17c-3.7,2.08-9.2,.56-9.81-4.15-.08-.63-1.06-.67-1.02,0,.37,5.23,7.55,9.17,11.75,5.35,.65-.59-.18-1.61-.92-1.2Z"/>
        <path class="cls-10" d="M716.89,541.33c-2.05,.93-3.74,1.77-6.09,1.54-2.22-.22-4.15-1.23-5.65-2.88-.56-.61-1.41,.28-.9,.9,3,3.65,9.93,5.47,13.63,1.74,.7-.7-.18-1.67-1-1.3Z"/>
        <path class="cls-10" d="M714.48,565.25c-3.7,1.28-8.13-.63-9.17-4.53-.17-.64-1.1-.36-.98,.27,.87,4.78,6.3,7.74,10.68,5.54,.7-.35,.21-1.54-.54-1.28Z"/>
        <path class="cls-10" d="M726.41,577.01c-2.28-.63-4.57-1.26-6.85-1.89-.63-.17-.9,.79-.27,.98,2.27,.67,4.55,1.34,6.82,2.01,.71,.21,1.01-.91,.3-1.1Z"/>
        <path class="cls-10" d="M684.32,528.1c-2.02-.25-4.01-.23-5.95-.97-2.09-.8-3.82-2.16-5.23-3.88-.45-.55-1.44,.2-1,.77,2.67,3.48,7.8,6.64,12.33,5.2,.65-.21,.47-1.05-.15-1.12Z"/>
        <path class="cls-10" d="M598.21,493.77c-4.77,.75-9.28,.37-13.28-2.55-.4-.3-.93,.38-.54,.7,3.86,3.14,9.33,4.78,14.08,2.84,.6-.25,.38-1.08-.27-.98Z"/>
        <path class="cls-10" d="M674.06,541.5c-3.49,1.68-7.76,1.25-9.81-2.39-.41-.72-1.45-.09-1.1,.64,2.04,4.14,8.16,6.21,11.83,2.95,.68-.61-.19-1.55-.92-1.2Z"/>
        <path class="cls-10" d="M670.51,566.13c-2.12,4.17-8.89,4.47-11.26,.39-.25-.43-.86-.05-.66,.38,2.42,5.3,10.86,5.35,13.23,0,.39-.88-.86-1.66-1.32-.77Z"/>
        <path class="cls-10" d="M674.14,583.57c-2.68,1.79-6.07,2.26-8.66,.03-.74-.63-1.79,.39-1.08,1.08,2.86,2.76,7.91,3.27,10.74,.19,.61-.66-.19-1.84-1-1.3Z"/>
        <path class="cls-10" d="M698.76,580.67c-4.2,1.46-7.91,2.25-12.32,1.04-.79-.22-1.12,.99-.34,1.22,4.22,1.26,9.29,1.27,13.14-1.1,.59-.36,.21-1.41-.49-1.16Z"/>
        <path class="cls-10" d="M697,551.48c-3.44,.08-6.37-.15-9.46-1.87-.64-.36-1.21,.62-.58,.99,2.98,1.72,6.75,2.77,10.19,2.01,.63-.14,.49-1.14-.15-1.12Z"/>
        <path class="cls-10" d="M708.9,524c-1.85,1.9-4.43,2.83-6.89,1.45-.65-.37-1.17,.57-.58,.99,2.69,1.9,6.97,1.5,8.76-1.43,.49-.8-.64-1.67-1.3-1Z"/>
        <path class="cls-10" d="M744.33,502.81c-3.26,3.17-7.51,5.08-12.06,3.88-.71-.19-1,.88-.3,1.1,4.79,1.48,10.51,.08,13.06-4.45,.25-.44-.33-.89-.7-.54Z"/>
        <path class="cls-10" d="M760.63,490.17c-1.44,2.86-4.86,4.6-7.92,3.24-.51-.23-.96,.48-.45,.77,3.5,1.97,8.34,.44,9.53-3.51,.2-.68-.83-1.14-1.16-.49Z"/>
        <path class="cls-10" d="M741.85,530.59c-1.69-.03-2.97,.32-4.53-.67-1.48-.93-2.47-2.44-2.52-4.21-.03-1.06-1.66-1.07-1.65,0,.01,2.23,1.13,4.22,2.93,5.52,1.56,1.13,4.43,2.13,6.18,.89,.65-.46,.45-1.52-.42-1.54Z"/>
        <path class="cls-10" d="M770.54,516.7c-2.81,2.07-8.06,6.99-10.9,1.97-.25-.44-.85-.05-.66,.38,2.51,5.6,9.68,2.12,12.48-1.16,.52-.61-.18-1.74-.92-1.2Z"/>
        <path class="cls-10" d="M764.58,538.46c-1.28-.23-2.55,.18-3.87-.04-1.4-.23-2.65-.82-3.79-1.64-.7-.5-1.58,.64-.92,1.2,2.02,1.71,6.23,3.72,8.8,2.1,.59-.38,.58-1.48-.21-1.62Z"/>
        <path class="cls-10" d="M761.34,555.53c-3.01,.88-6.01,.51-8.03-2.1-.44-.56-1.42,.19-1,.77,2.07,2.84,6.32,4.43,9.52,2.49,.61-.37,.22-1.36-.49-1.16Z"/>
        <path class="cls-10" d="M762.24,570.96c-3.74,.62-6.79,1.17-10.33-.73-.37-.2-.64,.31-.32,.55,3.01,2.29,7.75,3.65,11.24,1.58,.78-.47,.23-1.53-.59-1.39Z"/>
        <path class="cls-10" d="M783.33,554.46c-2.52,2.23-6.35,2.54-8.98,.31-.49-.42-1.2,.27-.72,.72,2.95,2.73,7.75,2.83,10.5-.22,.49-.55-.26-1.3-.81-.81Z"/>
        <path class="cls-10" d="M788.61,537.82c-1.06,.35-1.76,1.02-2.96,1.01-1.3,0-2.54-.59-3.32-1.64-.33-.45-1.08-.05-.77,.45,.82,1.32,2.13,2.15,3.67,2.39,1.34,.21,3.34,0,4.1-1.28,.27-.46-.18-1.11-.72-.93Z"/>
        <path class="cls-10" d="M805.06,552.12c-3.99,1.25-7.44,1.92-11.36-.21-.42-.23-.95,.37-.54,.7,3.46,2.78,8.95,3.8,12.7,.89,.67-.52-.06-1.61-.8-1.38Z"/>
        <path class="cls-10" d="M822.45,534.02c-2.63,2.16-5.56,3.4-8.85,1.69-.79-.41-1.5,.77-.7,1.21,3.3,1.82,8.54,1.45,10.65-2.05,.43-.72-.51-1.33-1.1-.85Z"/>
        <path class="cls-10" d="M803.37,524c-1.13,.04-2.16,.3-3.3,.05-1.19-.26-2.21-.85-3.06-1.71-.64-.64-1.61,.34-.99,.99,1.78,1.84,5.24,3.26,7.67,1.85,.53-.31,.32-1.2-.32-1.18Z"/>
        <path class="cls-10" d="M787.67,509.71c-3.32,.87-7.17,.78-10.45-.24-.87-.27-1.19,1.03-.37,1.35,3.85,1.5,7.37,1.33,11.07-.53,.33-.16,.1-.67-.24-.58Z"/>
        <path class="cls-10" d="M817.76,556.63c-2.48,2.24-5.96,3.06-9,1.48-.79-.41-1.48,.74-.7,1.21,3.48,2.08,8.2,1.66,10.78-1.61,.6-.76-.33-1.75-1.08-1.08Z"/>
        <path class="cls-10" d="M795.72,567.32c-2.26-.42-4.54-.7-6.82-1.02-.8-.11-1.14,1.11-.34,1.22,2.33,.33,4.66,.7,7,.92,.64,.06,.78-1,.15-1.12Z"/>
        <path class="cls-10" d="M847.1,543.58c-3.13,.95-6.73-.16-8.04-3.37-.27-.67-1.37-.39-1.1,.3,1.43,3.65,5.9,5.88,9.53,3.99,.51-.27,.16-1.1-.39-.93Z"/>
        <path class="cls-10" d="M846.87,523c-3.04,1.64-6.74,1.26-8.93-1.56-.35-.45-1.11,.14-.8,.62,2.2,3.36,7.15,4.79,10.5,2.26,.76-.58,.12-1.79-.77-1.32Z"/>
        <path class="cls-10" d="M868.3,505.39c-3.04,1.44-5.84,2.58-9.28,2.4-.75-.04-.71,1.06,0,1.14,3.51,.4,7.3-.22,9.97-2.65,.51-.46-.14-1.16-.69-.9Z"/>
        <path class="cls-10" d="M868.14,523.48c-1.32,.89-2.42,2.08-3.89,2.74-1.86,.84-4.42,.65-5.27-1.54-.23-.6-1.18-.37-.98,.27,1.65,5.37,8.49,2.66,11.06-.28,.54-.61-.16-1.71-.92-1.2Z"/>
        <path class="cls-10" d="M870.17,532.73c-1.44,1.1-2.59,2.33-4.34,2.99-1.85,.69-3.79,.78-5.7,.35-.71-.16-1.02,.91-.3,1.1,3.71,1,9.2,.14,11.31-3.49,.33-.56-.37-1.4-.96-.96Z"/>
        <path class="cls-10" d="M866.35,543.78c-2.06,2.25-5.3,3.11-8.17,2.06-.34-.12-.57,.42-.24,.58,3.2,1.57,6.9,.9,9.22-1.83,.47-.55-.31-1.36-.81-.81Z"/>
        <path class="cls-10" d="M896.96,509.62c-3.81,1.53-7.41,2.37-11.37,.78-.66-.26-1.15,.87-.49,1.16,3.97,1.76,8.97,1.89,12.29-1.2,.31-.29-.01-.91-.43-.74Z"/>
        <path class="cls-10" d="M890.79,491.11c-1.29,1.49-3.41,2.12-5.14,1.01-.36-.23-.8,.32-.46,.6,1.96,1.64,5.18,1.4,6.5-.91,.31-.55-.46-1.2-.9-.69Z"/>
        <path class="cls-10" d="M919.14,493.07c-3.08,2.55-6.16,4.11-10.25,3.11-.64-.16-.89,.79-.27,.98,3.95,1.21,9.12,.32,11.62-3.24,.49-.69-.53-1.32-1.1-.85Z"/>
        <path class="cls-10" d="M907.54,515.4c-3.7,2.04-7.01,3.49-11.2,1.76-.79-.33-1.37,1.02-.59,1.39,4.01,1.89,9.98,1.79,12.74-2.19,.42-.6-.38-1.27-.96-.96Z"/>
        <path class="cls-10" d="M892.19,529.79c-1.23,.03-2.35,.42-3.61,.25-1.44-.19-2.73-.78-3.84-1.71-.56-.46-1.35,.29-.81,.81,2,1.9,5.99,3.57,8.61,1.95,.57-.35,.36-1.32-.35-1.3Z"/>
        <path class="cls-10" d="M928.94,507.45c-2.08,.91-4.36,.57-6.17-.77-.6-.44-1.15,.55-.58,.99,2.08,1.59,4.82,1.95,7.24,.94,.84-.35,.36-1.53-.49-1.16Z"/>
        <path class="cls-10" d="M922.51,473.17c-1.29,1.07-2.14,2.03-3.87,2.43-1.7,.39-3.36,.02-4.74-1.02-.47-.35-1.02,.4-.62,.8,2.71,2.67,9.22,2.94,10.6-1.4,.27-.85-.79-1.29-1.38-.8Z"/>
        <path class="cls-10" d="M806.11,489.84c-2.95,.65-5.44,1.21-8.4,.16-.6-.22-1.03,.78-.44,1.04,2.87,1.3,6.59,1.81,9.33-.04,.59-.4,.23-1.32-.49-1.16Z"/>
        <path class="cls-10" d="M827.14,520.01c-1.72,1.26-4.9,.26-4.78-2.12,.03-.56-.91-.71-1-.13-.51,3.4,4.42,6.08,6.56,3.03,.32-.46-.32-1.12-.78-.78Z"/>
        <path class="cls-10" d="M940.35,482.1c-2.06,2.07-5.16,3.03-7.94,2.02-.68-.25-1.12,.83-.49,1.16,3.45,1.8,7.49,1.05,9.73-2.18,.54-.78-.65-1.65-1.3-1Z"/>
        <path class="cls-10" d="M891.01,481.17c-1.22,.42-2.11,1.09-3.49,1.08-1.48-.01-2.82-.63-3.82-1.71-.39-.42-.99,.2-.63,.63,1.82,2.14,6.55,3.44,8.51,.74,.26-.35-.17-.89-.57-.75Z"/>
        <path class="cls-10" d="M950.15,494.38c-.06-.54-.75-1-1.19-.49-1.11,1.27-1.69,2.62-3.32,3.42-1.76,.86-3.76,.82-5.4-.26-.53-.35-1.2,.48-.69,.9,1.81,1.47,4.16,1.85,6.38,1.16,1.91-.59,4.49-2.44,4.22-4.73Z"/>
        <path class="cls-10" d="M953.55,470.67c-2.87,1.89-6.14,2.54-9.29,.87-.43-.23-.8,.39-.38,.66,3.19,2.05,7.58,2.1,10.44-.53,.52-.48-.16-1.4-.77-1Z"/>
        <path class="cls-10" d="M971.57,482.17c-1.89,2.26-5.34,3.28-7.79,1.28-.62-.51-1.51,.33-.9,.9,2.8,2.59,7.99,2.29,9.69-1.41,.27-.6-.5-1.37-1-.77Z"/>
        <path class="cls-10" d="M966.42,495.3c-2.81,.99-6.12,.59-8.52-1.19-.23-.17-.51,.2-.31,.4,2.56,2.51,5.93,3.14,9.18,1.61,.45-.21,.13-.98-.34-.81Z"/>
        <path class="cls-10" d="M945.69,456.69c-1.32,.5-2.45,1.25-3.89,1.48-1.54,.25-3.02,.05-4.48-.47-.78-.28-1.08,.93-.34,1.22,2.77,1.09,7.13,1.2,9.32-1.17,.4-.43,.01-1.3-.62-1.06Z"/>
        <path class="cls-10" d="M979.64,466.42c-3.48,2.05-7.2,3.3-11.27,2.85-.85-.09-1.05,1.35-.2,1.5,4.5,.8,8.99,0,12.4-3.15,.64-.59-.18-1.63-.92-1.2Z"/>
        <path class="cls-10" d="M990.64,474.32c-1.35,.3-2.51,.89-3.93,.98-1.53,.09-3.01-.2-4.41-.8-.58-.25-1.11,.58-.51,.88,2.63,1.32,6.81,2.03,9.34,.1,.55-.42,.26-1.33-.49-1.16Z"/>
        <path class="cls-10" d="M1008.58,454.99c-1.68,2.57-4.93,3.78-7.83,2.71-.93-.34-1.29,1.11-.4,1.47,3.55,1.45,7.78,.02,9.44-3.47,.38-.81-.71-1.47-1.21-.7Z"/>
        <path class="cls-10" d="M1017.58,438.27c-1.76,1.97-5.07,2.19-6.92,.24-.39-.41-1.15,.14-.8,.62,2.22,2.99,6.7,3.07,8.92,.07,.51-.69-.62-1.56-1.2-.92Z"/>
        <path class="cls-10" d="M1036.47,439.02c-3.03,.45-5.94-.28-7.35-3.28-.21-.45-.99-.13-.81,.34,1.21,3.29,5.29,5.82,8.7,4.21,.78-.37,.18-1.38-.54-1.28Z"/>
        <path class="cls-10" d="M1059.91,434.19c-3.24,.67-6.52-.3-8.08-3.42-.19-.38-.86-.11-.7,.29,1.41,3.53,5.62,5.87,9.26,4.29,.69-.3,.17-1.3-.49-1.16Z"/>
        <path class="cls-10" d="M1079.62,430.3c-3.23,.31-6.06-.07-8.33-2.63-.55-.62-1.42,.28-.9,.9,2.15,2.57,6.12,4.3,9.4,2.98,.6-.24,.61-1.32-.17-1.25Z"/>
        <path class="cls-10" d="M1077.89,441.02c-1.24-.29-2.54,0-3.81-.24-1.39-.25-2.65-.8-3.84-1.56-.71-.45-1.27,.61-.64,1.1,2.09,1.6,5.87,3.34,8.47,2.1,.59-.28,.43-1.25-.18-1.39Z"/>
        <path class="cls-10" d="M1027.72,456.7c-1.91,.49-3.66,.71-5.31-.64-.5-.41-1.18,.24-.72,.72,1.61,1.65,4.52,2.56,6.57,1.2,.65-.43,.25-1.48-.54-1.28Z"/>
        <path class="cls-10" d="M909.6,462.55c-1.46,.33-2.66,.97-4.2,1.03-1.48,.05-2.89-.26-4.25-.84-.53-.22-.9,.67-.39,.93,2.63,1.34,6.83,2.08,9.38,.16,.61-.46,.28-1.46-.54-1.28Z"/>
        <path class="cls-10" d="M876.49,492.05c-1.26,.19-2.46,.69-3.73,.88-1.59,.24-3.2,.22-4.79,0-.63-.08-.93,.85-.27,.98,2.87,.56,6.65,.81,9.28-.7,.67-.38,.18-1.26-.49-1.16Z"/>
        <path class="cls-10" d="M833.12,484.89c-2.41-1.11-5.42-1.42-8-2.02-1.19-.28-1.7,1.56-.51,1.84,2.58,.6,5.45,1.67,8.09,1.72,.78,.02,1.18-1.19,.42-1.54Z"/>
        <path class="cls-10" d="M784.25,489.04c-.95,1.18-2.19,1.73-3.71,1.47-1.49-.26-2.89-1.27-3.01-2.86-.06-.8-1.3-.83-1.27,0,.16,4.36,7.42,6.44,9.16,2.07,.25-.64-.74-1.21-1.17-.68Z"/>
        <path class="cls-10" d="M813.16,475.14c-4.42-.04-8.33-.19-12.48-1.9-.79-.33-1.38,1.05-.59,1.39,4.06,1.77,8.86,2.93,13.27,2,.86-.18,.64-1.49-.2-1.5Z"/>
        <path class="cls-10" d="M840.89,471.44c-3.32,2.82-8,3.23-11.69,.88-.7-.45-1.3,.63-.64,1.1,4.13,2.92,9.78,2.64,13.5-.81,.79-.73-.37-1.84-1.17-1.17Z"/>
        <path class="cls-10" d="M667.74,501.76c-1.55,2.25-5.75,2.29-6.83-.43-.33-.82-1.65-.49-1.35,.37,1.33,3.85,7.66,4.81,9.38,.76,.35-.81-.68-1.46-1.21-.7Z"/>
        <path class="cls-10" d="M689.71,496.81c-3.28,2.42-7.32,3.38-10.92,1.03-.62-.41-1.17,.57-.58,.99,3.69,2.6,9.36,2.45,12.11-1.41,.25-.35-.25-.87-.61-.61Z"/>
        <path class="cls-10" d="M645.07,503.55c-2.64,.46-4.93,.62-7.38-.68-.51-.27-.93,.45-.45,.77,2.4,1.57,5.63,2.31,8.31,1.08,.7-.32,.17-1.27-.49-1.16Z"/>
        <path class="cls-10" d="M550.76,492.97c-2.55-.69-5.37-.72-7.99-.99-.7-.07-.88,1.13-.17,1.25,2.6,.41,5.33,1.12,7.97,1.11,.78,0,.95-1.16,.19-1.37Z"/>
        <path class="cls-10" d="M419.58,491.84c-1.8,.54-3.2,1.24-5.16,1.01-1.98-.23-3.69-1.14-5.04-2.61-.45-.49-1.13,.22-.72,.72,2.51,3,8.26,4.86,11.54,1.94,.48-.43-.03-1.24-.62-1.06Z"/>
        <path class="cls-10" d="M263.49,470.63c-.74,.57-1.22,1.27-2.11,1.66-.98,.43-2.11,.53-3.13,.16-2.4-.88-3.16-3.91-2.04-6.04,.23-.43-.41-.81-.66-.38-1.43,2.4-.77,5.77,1.7,7.24,2.13,1.26,6.34,.79,7.17-1.92,.15-.49-.48-1.06-.93-.72Z"/>
        <path class="cls-10" d="M292.2,479.85c-1.53,.74-2.48,1.53-4.32,1.11-1.67-.38-3.01-1.51-3.43-3.2-.22-.88-1.52-.5-1.35,.37,.44,2.21,2.2,3.82,4.33,4.43,1.84,.53,4.91,.36,5.89-1.58,.38-.76-.38-1.49-1.13-1.13Z"/>
        <path class="cls-10" d="M174.56,452.8c-1.32,.33-2.45,.35-3.62-.44-1.23-.82-2.02-2.2-1.8-3.7,.05-.31-.42-.46-.49-.14-.7,3.16,3.16,7.05,6.3,5.21,.5-.29,.17-1.07-.39-.93Z"/>
        <path class="cls-10" d="M147.44,439.13c-2.81,.34-5.73-.72-6.89-3.49-.37-.89-1.85-.5-1.47,.4,1.35,3.23,5.04,5.52,8.52,4.33,.63-.22,.58-1.34-.17-1.25Z"/>
        <path class="cls-10" d="M131.52,418.77c-2.72,1.46-6.68-.02-6.92-3.36-.04-.56-.89-.58-.89,0,0,4.06,5.32,7.07,8.57,4.36,.57-.48-.16-1.32-.77-1Z"/>
        <path class="cls-10" d="M86.41,399.33c-2.46,2.66-7.06,1.5-6.83-2.47,.04-.67-.94-.63-1.02,0-.63,4.96,6.2,7.79,8.65,3.09,.26-.49-.39-1.06-.8-.62Z"/>
        <path class="cls-10" d="M66.43,408.98c-2.6,.24-5.13-2.49-4.14-5.04,.23-.6-.77-1.02-1.04-.44-1.6,3.33,1.59,7.83,5.33,6.6,.58-.19,.52-1.18-.15-1.12Z"/>
        <path class="cls-10" d="M84.17,420.7c-1.75-.28-3.38-.45-4.94-1.4-1.62-.99-2.8-2.42-3.54-4.16-.22-.52-1.13-.15-.93,.39,1.35,3.64,5.3,7.07,9.4,6.39,.6-.1,.61-1.13,0-1.22Z"/>
      </g>
    </g>
  </g>
</svg>