<?xml version="1.0" encoding="UTF-8"?>
<svg id="_레이어_2" data-name="레이어 2" xmlns="http://www.w3.org/2000/svg" viewBox="0 0 343.99 416.9">
  <defs>
    <style>
      .cls-1 {
        fill: #67bdf9;
      }

      .cls-2 {
        fill: #4692ec;
      }

      .cls-3 {
        fill: #9693fa;
      }

      .cls-4 {
        fill: #67a0f4;
      }

      .cls-5 {
        fill: #5fa6f3;
      }

      .cls-6 {
        fill: #4589e8;
      }

      .cls-7 {
        fill: #437de2;
      }

      .cls-8 {
        fill: #7c85f9;
      }

      .cls-9 {
        fill: #7098f6;
      }

      .cls-10 {
        fill: #63e0e6;
      }

      .cls-11 {
        fill: #4da9ef;
      }

      .cls-12 {
        fill: #fbfdf3;
      }

      .cls-13 {
        fill: #4a5dda;
      }

      .cls-14 {
        fill: #eef9f9;
      }

      .cls-15 {
        fill: #5fcfef;
      }

      .cls-16 {
        fill: #a9d3fc;
      }

      .cls-17 {
        fill: #f8faef;
      }

      .cls-18 {
        fill: #4173de;
      }
    </style>
  </defs>
  <g id="_레이어_1-2" data-name="레이어 1">
    <path class="cls-12" d="M194.98,407.07c-.4,2.76,2.41,5.12,1.02,8.01-2.21,3.06-3.55,1.96-3.91-1.04-.32-2.62-.08-5.3-.09-7.96,1.48-1.15,2.21-.02,2.97,.99Z"/>
    <path class="cls-14" d="M218.99,410.08c-.67,.66-1.33,1.33-2,1.99-.67,.33-1.33,.66-2,1-.91-3.62,3.5-4.2,4-7.01,1.16,.73,.96,1.91,1,3.01-.11,.56-.45,.89-1.01,1.01Z"/>
    <path class="cls-17" d="M218.99,410.08c.34-.34,.67-.67,1.01-1.01,1.19,1.57,1.96,3.25,1.65,5.71-2.49-.98-2.65-2.8-2.66-4.7Z"/>
    <path class="cls-16" d="M66.35,193.38c-1.95,.5-3.87,1.14-5.94,1.08-2.43-.07-3.56-1.13-3.77-3.58-.23-2.71-.64-5.38-1.43-7.99-.38-1.23-.88-1.71-2.47-1.5-8.51,1.08-16.58-.19-23.7-5.34-5.56-4.03-9.11-9.56-11.65-15.84-2.7-6.68-3.8-13.76-5.2-20.75-1.81-9.01-4.16-17.87-6.68-26.69-2.12-7.43-4.21-14.86-5.12-22.56-1.02-8.62,.07-17.04,2.53-25.3,4.63-15.53,13.25-28.57,25.15-39.43C39.7,14.86,53.21,7.53,68.37,3.18,77.41,.58,86.62-.45,95.96,.18c8.3,.55,16.23,2.76,23.87,6.13,9.08,4,16.98,9.87,24.98,15.56,8.25,5.86,16.77,11.25,25.51,16.33,6.32,3.68,12.33,7.78,17.31,13.19,3.06,3.33,5.79,6.94,7.71,11.05,5.16,11.09,3.91,21.73-2.43,31.97-.34,.54-.71,1.06-.79,1.71-2.74,2.97-5.48,5.94-8.22,8.91-3.21,2.49-6.46,4.93-9.61,7.49-1.49,1.21-3.29,2.07-4.4,3.73-2.67,1.07-4.76,2.97-6.88,4.84-2.78,1.4-5.18,3.35-7.66,5.18-4.74,3.25-9.49,6.51-14.23,9.76-1.26,.8-2.53,1.58-3.77,2.4-4.21,2.77-8.4,5.55-12.61,8.33-3.92,2.45-7.85,4.9-11.77,7.35-2.37,1.32-4.85,2.46-6.97,4.2-4.37,2.27-8.68,4.64-12.86,7.25-1.69,.48-3.21,1.25-4.51,2.44-3,1.05-5.69,2.77-8.55,4.12-.82,.39-.56,1.03-.26,1.62,.96,1.9,1.89,3.82,3.01,5.64,1.38,2.24,2.86,4.44,3.72,6.96-1.66,1.2-3.55,1.89-5.53,2.13-2.41,.29-3.83-.98-4.22-3.49-.27-1.72-.89-3.33-1.62-4.88-.63-1.34-1.66-2.2-3.27-2.02-.09,0-.18-.02-.26-.06-.2-.77-.02-1.96-1.46-1.47-2.45,.83-4.89,1.72-7.35,2.52-1.08,.35-1.14,.96-.77,1.85,.64,1.54,1.31,3.06,1.88,4.62,.94,2.57,1.8,5.16,2.7,7.74-.09,.04-.19,.07-.28,.1ZM174.55,57.02c-.08-.43-.31-.76-.7-.97-.14-.22-.28-.45-.42-.67-2.76-3.61-6.54-6.02-10.35-8.22-5.09-2.95-10.47-5.42-15.72-8.1-3.13-1.97-6.26-3.94-9.39-5.9-1.93-1.54-3.9-3.04-5.8-4.64-4.91-4.13-9.99-8.05-15.72-10.99-12.74-6.54-26.14-7.98-40.02-4.69-11.98,2.84-22.64,8.51-32.46,15.8-7.5,5.58-14.22,11.97-19.67,19.63-4.5,6.32-7.93,13.11-9.46,20.78-1.58,7.88-1.12,15.72,.29,23.55,.97,5.44,2.02,10.87,2.95,16.31,.55,3.23,.94,6.49,1.39,9.73,.27,4.07,.83,8.12,1.38,12.16,.97,7.19,2.63,14.18,6.59,20.39,4.3,6.75,9.93,11.9,17.75,14.33,.26,.12,.52,.26,.79,.35,6.45,2.25,13.06,2.15,19.73,1.42,.34-.02,.7,0,1.03-.06,7.82-1.35,15.25-3.94,22.45-7.2,2.7-1.22,5.36-2.55,7.86-4.15,.28-.07,.59-.07,.83-.21,4.59-2.58,9.23-5.06,13.74-7.77,13.97-8.43,27.53-17.46,40.35-27.57,7.19-5.67,14.01-11.72,19.56-19.08,6.05-8.02,9.93-16.77,9.17-27.1,.23-4.57-1.04-8.8-3.13-12.78-.81-1.54-1.41-3.32-3-4.35Z"/>
    <path class="cls-15" d="M232.48,254.72c-2.39-.07-4.74-.17-6.45-2.26-.87-1.07-1.66-2.24-1.49-3.58,.32-2.49-.67-4.37-2.23-6.11,.1-.43,.34-.68,.78-.83,.4-.13,1.02-.2,.89-.84-.14-.7-.71-.82-1.35-.78-.35,.02-.69,.01-1.04,0-2.7-.1-4.63-2.2-4.78-4.91-.13-2.29,.28-4.28,1.75-6.11,1.13-1.4,.87-3.67-.29-4.76-1-.94-2.74-.78-4.25,.38-1,.76-1.94,1.54-3.31,1.68-1.11,.12-2.05,.77-2.51,1.89-3.29-.64-5.09-2.53-5.23-5.85-.05-1.3-1.13-1.81-1.52-2.79,1.22-.47,1.96-1.25,1.86-2.67-.05-.65-.29-1.12-.85-1.4-.6-.3-.97,.16-1.34,.52-.66,.65-1.36,1.27-1.96,1.97-1.11,1.29-2.58,1.02-3.86,.71-1.26-.3-1.6-1.58-1.7-2.77-.09-1.03-.03-2.08-.04-3.12,0-.64-.2-1.28-.91-1.23-1.36,.11-2.75,.33-3.29,1.92-3.41,1.34-5.99,.19-6.32-2.84-.06-.56,.08-1.14,.13-1.71,.17-1.96-.43-2.63-2.4-2.67-5.14-.12-8.67-5.47-6.75-10.26,.08-.2,.27-.36,.41-.54,.64,.12,1.39,.17,1.77-.36,.91-1.27,2.27-1.89,3.48-2.74,1-.7,1.01-1.55,.2-2.44,.22-.83,.89-1.36,1.32-2.06,.89-.16,1.35-.87,1.81-1.52,.99-1.4,.53-2.95-1.14-3.18-2.22-.31-3.84-1.42-5.28-2.97-1.07-2.61,.08-4.78,1.37-6.92,1.08,.1,1.57,1.09,2.37,1.62,1.11,.73,2.03,.51,2.45-.47,.66-1.53,2.01-1.87,3.24-2.55,1.64-.9,3.3-1.84,4.76-3.01,1.02-.82,2.02-1.25,3.28-1.21,.61,.04,1.08,.41,1.48,.8,3.28,3.15,4.93,7.02,5.02,11.55-.1,3.8-1.14,7.18-3.94,9.96-1,.99-2.31,2.01-2.05,3.78-.34,.28-.25,.67-.24,1.03-1.36,.53-1.29,1.68-.87,2.66,.38,.9,1.19,1.58,2.3,.71,1.02,.16,1.91,1.16,3.06,.47,2.32,.96,4.22-.18,6.19-1.17,3.06-1.54,5.88-.14,6.7,3.25-.12,1.48,.22,3.01-.61,4.4-.11,.19-.02,.58,.1,.81,.67,1.27,3.96,2.26,5.28,1.61,1.39-.69,2.76-1.44,4.25-1.91,3.68-1.16,7.14,1.4,7.34,5.23,.1,1.9-1.08,3.55-.71,5.44-.6,.62-1.94,1.33-.42,2.05,.87,.41,2.22,.47,3.26-.27,1.36,0,2.72,.05,4.05,.4,.94,1.6,1.87,3.2,2.81,4.79,.17,1.53-.58,2.73-1.42,3.89-1.15,.86-1.45,2.32-.61,3.31,.81,.95,1.72,1.34,2.69,.17,1.38,0,2.77-.12,4.14,0,5.61,.47,7.92,5.73,4.6,10.48-.54,.78-.86,1.45-.5,2.35-.91,.51-1.25,1.44-1.68,2.3-.43,.87-.25,1.54,.74,1.87,.14,.88-.17,1.47-1.09,1.59-.74,.1-1.48,.15-2.23,.16-.74,0-1.42,.08-1.56,.98-.28,1.79-1.31,2.09-2.83,1.45-1.82-.77-2.8,.11-3.42,1.73-.56,.15-1.14,.28-1.41,.9Z"/>
    <path class="cls-10" d="M233.89,253.82c.61-1.62,1.6-2.5,3.42-1.73,1.52,.64,2.55,.34,2.83-1.45,.14-.9,.82-.98,1.56-.98,.74,0,1.49-.06,2.23-.16,.92-.12,1.23-.71,1.09-1.59,.71-.17,1.61,.41,2.13-.53,4.34-.79,7.93,.86,9.96,4.45,2.34,4.15,1.35,8.38-1.44,11.7-.82,.97-1.77,1.82-2.93,2.41-.96,.49-1.24,1.26-.88,2.32,.54,1.63,1.5,2.98,2.63,4.24,2.45,2.72,2.6,5.78,.49,8.68-.6,.83-1.85,1.38-1.37,2.75,.64,1.8,1.83,3.1,3.69,3.59,1.29,.34,2.53,.79,3.77,1.27,4.57,1.79,6.72,8.32,3.31,12.33-.31,.37-.39,.94-.58,1.41-2.29,.04-1.53,2.05-1.98,3.21-.4,1.04,.07,2.07,1.1,2.59,1.18,.6,2.12-.03,2.96-.83,4.04-.07,6.53,2.07,6.82,6.01,.22,2.99,1.78,5.39,4.16,6.63,4.71,2.44,7.37,6.35,9.37,10.96,1.41,3.24,2.31,6.63,2.91,10.28-1.58-1.43-3.16-2.84-4.73-4.29-2.21-2.04-4.41-4.09-6.61-6.15-1.22-1.14-2.62-1.82-4.29-2.08-3.39-.53-5.97-1.99-6.71-5.74-.35-1.76-2.18-2.73-4.03-2.45-4.38,.65-8.96-2.41-9.87-6.64-.14-.67-.18-1.38-.12-2.06,.16-1.76-.48-2.78-2.22-3.25-1.65-.44-2.92-1.38-3.79-2.84-1.22-2.05-.82-3.98,.51-5.83,1.86-2.58,1.13-4.15-2.1-4.55-6.95-.87-9.99-7.5-6.17-13.44,2.11-3.29,2.04-3.24-.2-6.38-.98-1.38-2.12-2.27-3.7-2.91-5.12-2.1-7.2-8.66-3.28-12.7,1.59-.47,2.64-1.79,4.02-2.6,.92-.55,1.91-1.32,1.43-2.65-.43-1.2-1.55-.98-2.52-.99-.29,0-.58-.01-.86-.02Z"/>
    <path class="cls-15" d="M160.89,277.07c-.08,.04-.17,.06-.26,.07-3.55,.92-6.53,.11-8.93-2.78-1.2-1.44-1.37-3.22-1.91-4.89,.29-1.79,.63-3.56,1.63-5.13,.19-.3,.1-.78,.15-1.18,1.15-1.3,.86-2.94,1.01-4.46,.83-.48,.81-1.21,.48-1.94-.22-.49-.75-.52-1.21-.43-1.07,.2-.51,1.09-.67,1.68-.36-.03-.72-.07-1.08-.1-3.31-1.38-4.64-2.99-4.48-5.52,.05-.79,.25-1.57,.38-2.35,.4-.62,.8-1.24,1.19-1.86,1.27,.11,1.75-.93,1.94-1.76,.24-1.05-.88-1.26-1.65-1.57-1.31-.25-2.62-.5-3.93-.75-.8-.82-1.82-1.42-2.46-2.4-.97-2.37-1.03-4.75,.28-6.97,.75-1.27,1.86-2.32,2.8-3.47,.47-.35,.94-.7,1.4-1.05,1.04-.46,2.44-.6,1.91-2.39-.14-.47,.39-.84,.81-1,1.05-.4,2.09-1,3.29-.57,.52,.19,1.16,.29,1.41-.23,.61-1.24,1.68-.98,2.69-1.02,1.57-.06,3.34,.53,4.36-1.34,.04-.08,.33-.03,.5-.04h.01c-.59,1.11-.9,2.21,.6,2.8,1.18,.46,2.45,.84,3.23-.71,2.86,1.38,5.51,3.08,8,5.06,.06,1.55-.48,2.88-1.23,4.23-1.34,2.38-3.14,4.37-4.93,6.39-1.58-.11-2.17,1.06-2.74,2.18-.36,.71-.64,1.53,.06,2.23,.59,.6,1.3,.94,2.17,.6,.47-.18,.76-.17,1.13,.33,1.07,1.43,4.38,1.01,5.27-.61,3.42,1.22,4.41,3.14,3.93,6.23-.19,1.22-.85,2.27-1.61,3.24-1.01,1.3-.84,2.68-.36,4.09,.31,.9,1.05,1.52,1.56,2.28-.68,.79-1.65,.99-2.58,1.26-.75,.22-1.18,.74-.81,1.39,.64,1.1,.02,2.14,.09,3.2,.11,1.59-1.3,1.46-2.27,1.83-.44,.17-.69,.59-.9,1.02-.23,.47-.46,.94-1.12,.91-.76-.04-.84,.32-.64,.98,.2,.62-.28,.92-.77,1.18-.51,.27-.81,.1-1.19-.28-.9-.89-1.51-.61-1.78,.58-.21,0-.42,0-.64,.01-1.72-.63-1.77-.59-1.77,1.4l-.4,1.63Z"/>
    <path class="cls-11" d="M149.79,269.47c.53,1.67,.71,3.45,1.91,4.89,2.4,2.88,5.38,3.69,8.93,2.78-1.52,4.22-.57,7.97,1.79,11.67,4.46,7.02,8.23,14.41,11.46,22.08,1.71,4.06,3.91,7.88,6.45,11.49,4.11,5.86,9.7,9.66,16.47,11.84,2.66,.85,5.25,1.89,7.08,4.17,2.52,3.15,1.48,6.69-2.35,7.95-1.61,.53-3.28,.65-4.97,.46-4.91-.55-9.41-2.3-13.73-4.61-7.47-3.99-12.14-10.32-14.59-18.22-3.52-11.35-8.6-21.96-14.78-32.04-3.72-6.07-7.51-12.09-10.87-18.36-2.2-4.11-4.16-8.34-5.67-12.77,.59-1.59-1.03-2.8-.78-4.34,1.54-.09,2.47,.65,2.98,2.06,.4,1.1,1.25,1.91,1.97,2.82,1.6,2,3.96,3.26,5.23,5.61,.71,1.31,1.74,2.49,3.48,2.53Z"/>
    <path class="cls-13" d="M132.1,241.73c-.71,3.33-1.7,6.58-3.11,9.69-.57-.04-1.27,.14-1.61-.42-.68-1.1-1.69-1.08-2.73-.98-2.59,.24-4.59-1.2-6.57-2.45-1.03-.65-1.24-.55-1.67,.46-.4,.93-.11,2.28-1.48,2.68,.7-2.31,1.35-4.63,2.11-6.92,3.16-9.56,1.41-18.21-4.61-26.16-3.85-5.09-8.28-9.66-12.48-14.43-4.59-5.21-9.05-10.52-12.77-16.41,.71-1.16,1.73-1.65,3.11-1.81,3.99-.46,5.29-2.99,3.53-6.6-.32-.66-.84-1.27-.66-2.09,.94,.4,1.1,1.58,2.02,2,1.12,2.28,2.85,4.14,4.47,6.05,.63,.74,.91,1.94,2.14,2.09,.45,1.56,1.6,2.55,2.81,3.49,.07,.22,.08,.48,.22,.64,5,6.01,10.44,11.64,15.66,17.45,.31,.35,.66,.65,1.17,.65,.29,.5,.5,1.05,.87,1.48,2.5,2.88,4.72,5.96,6.61,9.28,.2,.35,.35,.75,.85,.76-.04,.53,.02,1.02,.25,1.51,2.26,4.79,3.19,9.83,2.87,15.12-.33,1.64-.66,3.29-.99,4.93Z"/>
    <path class="cls-18" d="M228.92,160.64c.95,1.84,2.6,3.12,3.82,4.76,5.23,7.03,8.41,14.89,10.06,23.44-.52,0-.95,.16-.89,.78,.08,.93-.47,1.29-1.13,1.87-1.34,1.2-2.85,2.08-4.34,3.03-.64,.41-1.03,.68-1.53-.09-.41-.64-.92-.16-1.39-.06-.7,.15-.44,.58-.4,1.05,.14,1.87-.96,3.22-2.73,3.48-.1-1.09-.18-2.19-.31-3.27-1.88-15.84-9.58-27.67-24.01-34.88-4.93-2.46-10.21-4-15.33-5.96,.02-.07,.03-.15,.02-.22,0-1.1,1.15-1.01,1.7-1.44,1.91-1.49,3.25-3.56,5.33-4.85,.78-.49,1.28-1.26,.91-2.21-.25-.62,.04-1.12,.09-1.67,.52-.15,1.03-.09,1.54,.05,4.94,1.4,9.94,2.64,14.45,5.24,5.32,2.87,10.18,6.34,14.13,10.97Z"/>
    <path class="cls-7" d="M230.4,198.89c1.77-.26,2.87-1.61,2.73-3.48-.04-.47-.31-.9,.4-1.05,.48-.1,.98-.58,1.39,.06,.5,.77,.89,.51,1.53,.09,1.49-.96,2.99-1.83,4.34-3.03,.65-.58,1.21-.94,1.13-1.87-.05-.62,.37-.78,.89-.78,1.16,4.44,1.05,9.06,1.86,13.56,.33,1.81,.47,3.67,1.38,5.33,1.28,6.88,7.54,12.75,14.62,13.44l.35,.35c-.23,.52-.59,1.06-.11,1.59,.32,.34,.79,.58,1.24,.27,1.98-1.36,4.21-.65,6.33-.82,.85-.07,1.63-.06,1.61,1.17-.01,.61,.46,.9,1.05,.9,1.68,0,3.36-.27,4.82-1,.84-.42,2.01-1.06,1.74-2.47,.76,.18,1.38-.34,2.09-.4,.11,.74,.24,1.47,.33,2.21,.1,.76-.11,1.66-.93,1.52-2.03-.36-2.15,1.02-2.63,2.33-.7,1.87-.9,4.01-3.22,5.01-1.06,.46-.9,1.66,.26,2.33-.88,.52-1.94,.13-2.83,.58-2.92,.09-5.82,.37-8.75,.4-2.13,.02-4.21-.6-6.33-.34-1.31-.79-2.84-.93-4.25-1.4-5.74-1.91-10.51-5.21-14.37-9.84-.94-1.6-1.87-3.2-2.81-4.79-.69-2.67-1.81-5.21-2.45-7.91-.93-3.94-.79-7.99-1.4-11.97v.02Z"/>
    <path class="cls-2" d="M300.73,167.95c2.27,3.37,3.81,7.13,5.66,10.73,3.68,7.17,9.57,10.9,17.52,11.61,3.68,.33,7.4,.64,10.85,2.13,4.4,1.9,8.13,4.53,9.12,9.66,.84,4.37-2.83,7.91-7.18,7.04-1.44-.29-2.83-.74-4.02-1.57-4.35-3.02-9.28-4.34-14.43-5.11-9.38-1.4-16.1-6.47-20.12-14.98-2.02-4.28-3.69-8.74-5.52-13.11,.17-.37-.15-1.4,.73-.87,1.37,.83,2.07-.06,2.78-.84,1.49-1.62,2.45-3.75,4.62-4.7Z"/>
    <path class="cls-18" d="M172.39,230.75c-2.48-1.98-5.14-3.68-8-5.06-1.13-.96-2.2-2.03-3.83-2.08,0,0-.01-.01-.01-.01-.09-.84-.86-1.04-1.41-1.39-6.91-4.4-13.64-9.04-19.09-15.27,.01-.82-.08-1.78,1.12-1.74,3.4,.09,5.96-2.2,8.9-3.33,1.69-.65,2.86-2.69,5.17-2.14,.03,0,.07-.08,.11-.13,1.3,1.02,2.56,2.11,3.92,3.04,2.63,1.79,4.97,4.02,7.94,5.29,3.77,2.91,8.12,4.9,12.02,7.6,3.84,2.66,7.68,5.3,10.86,8.77-.74,1.27-1.55,2.42-3.23,2.53-.52,.04-.9,.46-1.12,.98-.74,1.72-2.33,2.34-3.94,2.69-1.12,.25-1.44,.67-1.29,1.73,.21,1.53-.6,2.16-1.98,1.46-.93-.47-1.25-.22-1.44,.65-1.62-1.12-2.97-2.61-4.71-3.58Z"/>
    <path class="cls-6" d="M76.45,277.12c-.7,4.12-1.15,8.26-.57,12.43,.96,6.97,4.36,12.71,9.25,17.59,3.52,3.51,7.27,6.8,10.83,10.28,2.02,1.98,3.94,4.09,5.35,6.58-1.08-.06-1.31,1.4-2.29,1.36-2.34-.09-3.16,1.24-3.2,3.38-1.66-.93-3.28,.31-4.86-.2-.04-.01-.18,.27-.27,.41-3.6-5.36-8.58-9.36-13.34-13.59-8.44-7.49-13.71-16.77-15.62-27.91-.41-2.37-.83-4.79-.24-7.22,.68,0,1.28,.1,1.4,.93,.22,1.5,1.26,1.39,2.18,.9,2.93-1.57,5.86-3.16,8.66-4.94,1.06-.67,1.78-1.7,2.73-.02Z"/>
    <path class="cls-2" d="M90.68,328.96c.09-.14,.23-.43,.27-.41,1.58,.51,3.21-.73,4.86,.2,.04-2.14,.86-3.47,3.2-3.38,.98,.04,1.21-1.43,2.29-1.36,4.85,6.91,7.49,14.57,7.35,23.03-.06,3.75-.66,7.48-.95,11.22-.35,4.48,.52,8.74,2.48,12.79,.56,1.15,.97,2.33,1.1,3.63,.36,3.68-2.22,6-5.83,5.14-3.82-.9-6.36-3.48-8.22-6.73-2.51-4.4-3.27-9.22-2.86-14.22,.31-3.8,.91-7.58,1.08-11.38,.3-6.63-1.36-12.82-4.78-18.52Z"/>
    <path class="cls-7" d="M177.1,234.33c.18-.87,.51-1.12,1.44-.65,1.38,.71,2.2,.07,1.98-1.46-.15-1.06,.18-1.48,1.29-1.73,1.61-.35,3.2-.97,3.94-2.69,.22-.52,.6-.94,1.12-.98,1.68-.11,2.49-1.26,3.23-2.53,5.64,5.31,9.51,11.77,12.09,19.01,1,2.81,1.61,5.76,2.38,8.64,1.41,5.29,1.92,10.66,2.72,16.01,.04,.26-.09,.54-.14,.81-.66-.12-.66-2.15-1.59-.87-1.11,1.53-3.15,1.45-4.17,2.94-.24,.35-2.59,.51-3.11,.4-.17-.04-.34-.04-.52-.03-.89,.04-1.51-.35-2.01-1.08-.3-.44-.53-1.13-1.28-.95-.82,.2-.42,.94-.57,1.44-.06,.21-.21,.39-.31,.59l-.28-.67c-.14-.97-.27-1.95-.42-2.92-.79-5.23-1.74-10.41-3.62-15.4-2.62-6.96-6.69-12.9-12.18-17.89Z"/>
    <path class="cls-6" d="M136.98,304.47c5.98,5.86,11.33,12.19,13.23,20.58,2.47,10.88-.63,20.09-9.22,27.34-1.62,1.37-3.53,2.18-5.66,2.43-3.58,.42-6.04-2.35-5.19-5.86,.39-1.62,1.37-2.92,2.35-4.21,1.98-2.6,3.57-5.41,4.38-8.6,1.34-5.29,0-10.07-2.82-14.56-2.33-3.69-5.39-6.78-8.25-10.03,.61-.96,1.62-.98,2.59-1.05,.98-.07,1.96,.28,2.9,.23,2.11-.1,5.47-3.95,5.7-6.26Z"/>
    <path class="cls-10" d="M193.31,270.54c.09,.22,.19,.45,.28,.67,.03,.86,.02,1.73,.11,2.58,.51,4.72,1.05,9.44,1.58,14.17-1.31-.25-2.25,.29-2.76,1.46-.97,2.23-1.86,4.5-2.79,6.75-2.92,1.35-6.3-.14-7.38-3.67-.54-1.75-1.76-2.88-2.62-4.31-.56-.93-1.37-.67-2,.07-.86,1.03-1.83,1.91-3,2.58-1.7,.96-3.43,1.3-5.24,.28-.02-.23,.03-.5-.07-.67-2-3.2-1.8-6.64-1.28-10.18,.51-3.47-1.39-6.03-4.44-6.24,.27-1.19,.88-1.47,1.78-.58,.38,.38,.68,.55,1.19,.28,.49-.26,.96-.56,.77-1.18-.21-.66-.12-1.02,.64-.98,.66,.03,.89-.44,1.12-.91,.21-.43,.46-.85,.9-1.02,.97-.37,2.38-.24,2.27-1.83-.08-1.06,.54-2.1-.09-3.2-.37-.65,.06-1.17,.81-1.39,.93-.27,1.9-.47,2.57-1.26,2.87,.23,4.92,1.45,5.5,4.49,.04,.19,.24,.48,.38,.49,2.13,.14,3.96,1.15,5.84,2,.3,.14,.56,0,.81-.15,1.02-.63,2.11-1.02,3.26-.45,1.15,.57,1.44,1.71,1.71,2.85,.06-.22,.11-.43,.17-.65Z"/>
    <path class="cls-11" d="M255.68,234.78c2.13-.25,4.2,.36,6.33,.34,2.93-.03,5.83-.31,8.75-.4,4.99,7.32,9.06,15.08,11.26,23.71,2.31,9.1,2.18,18.21-.36,27.27-.38,1.34-.9,2.64-1.72,3.78-.98,1.38-2.26,2.42-4.08,2.13-1.82-.29-2.72-1.66-3.21-3.29-.34-1.11-.45-2.25-.33-3.43,1.28-12.28-.93-23.96-6.17-35.09-2.41-5.11-5.62-9.7-9.51-13.81-.35-.37-.65-.81-.97-1.21Z"/>
    <path class="cls-7" d="M228.92,160.64c-3.95-4.63-8.81-8.1-14.13-10.97-.52-1.66-2.19-2.48-2.93-3.98,.85-1.12,1.96-.65,2.99-.44,2.15,.43,2.91,.12,3.44-1.97,.44-1.76,1.5-3.32,1.55-5.18,.03-1.13,.61-1.46,1.65-1.08,3.52,3.86,7.31,7.38,11.77,10.17,9.29,5.81,19.33,6.92,29.9,5.02,1.25-.23,2.51-.39,3.77-.58-.51,1.29-1.79,.66-2.67,1.04-.52,.23-1.48,.41-.87,.97,.87,.81,.51,1.5,.41,2.31-.16,1.4,.41,2.7,1.17,3.71,.64,.84,1.79,1.6,2.99,.5,.35-.32,.87-.73,1.13-.13,.69,1.57,1.82,.82,2.91,.79,1.2-.03,2.6-.88,3.6,.54-5.53,.07-10.86,1.4-16.24,2.46-10.3,2.04-20.34,1.61-29.94-3.12-.15-.07-.34-.05-.51-.07Zm34.86,.55c-.02-.42-.08-.84-.64-.76-.64,.1-.74,.61-.73,1.15,0,.42,.08,.84,.64,.76,.64-.1,.73-.61,.73-1.15Z"/>
    <path class="cls-18" d="M221.48,137.02c-1.04-.38-1.62-.05-1.65,1.08-.05,1.86-1.11,3.43-1.55,5.18-.52,2.09-1.28,2.4-3.44,1.97-1.03-.21-2.14-.68-2.99,.44-3.79-4.44-6.48-9.57-9.07-14.75-4.86-9.7-10.6-18.73-18.89-25.91,2.74-2.97,5.48-5.94,8.22-8.91,8.35,6.34,14.74,14.3,19.36,23.69,2.94,5.97,5.88,11.93,10,17.21Zm-3.82,4.42c.04-.1,.13-.21,.11-.28-.03-.07-.18-.09-.27-.13-.04,.1-.14,.21-.11,.28,.03,.07,.18,.09,.27,.13Z"/>
    <path class="cls-13" d="M155.36,199.6s-.09,.13-.11,.13c-2.3-.55-3.48,1.49-5.17,2.14-2.94,1.13-5.5,3.42-8.9,3.33-1.2-.03-1.11,.93-1.12,1.74-1.17-.72-1.71-2.04-2.75-2.89-.06-.34-.22-.58-.6-.61-.17-.3-.3-.63-.5-.9-4.06-5.21-7.43-10.84-10.25-16.82-.19-.4-.53-.74-.8-1.1-.15-.49-.25-.99-.44-1.46-1.61-3.97-3.34-7.89-4.46-12.04,.1-.22,.19-.44,.29-.66,.88-.12,1.73-.49,2.36-1.03,2.25-1.92,4.87-3.1,7.59-4.11,.74-.28,1.36-.92,2.24-.8,.24,.35,.48,.71,.72,1.06,1.16,3.28,2.77,6.35,4.51,9.36,.15,.5,.21,1.04,.46,1.48,2.67,4.78,5.26,9.59,8.55,14.01,2.5,3.36,5.66,6.07,8.4,9.18Z"/>
    <path class="cls-18" d="M91.42,211.09c5.89,9.96,7.16,20.29,2.57,31.12-1.4,3.3-3.06,6.46-5,9.48-1.86,2.91-3.72,5.83-5.57,8.75-1.44-.11-3.05,.76-4.22-.85-.22-.3-.74-.16-1.16-.11-1.06,.13-2.69-1.17-2.59-2.23,.13-1.49-.4-2.69-1.14-3.88,2.65-4.04,5.56-7.92,7.49-12.41,2.72-6.32,3.5-12.74,1.51-19.4,.61-.46,.32-.64-.23-.74-.25-.75-.5-1.49-.75-2.24,.01-.37,0-.72-.44-.86-.34-.69-.68-1.38-1.02-2.07,1.82-.48,3.63-.99,5.46-1.42,.49-.11,.92-.23,1.06-.72,.58-2.1,2.38-2.13,4.03-2.43Z"/>
    <path class="cls-6" d="M273.59,234.14c-1.16-.68-1.32-1.87-.26-2.33,2.32-1,2.52-3.14,3.22-5.01,.49-1.31,.6-2.69,2.63-2.33,.82,.15,1.03-.76,.93-1.52-.1-.74-.22-1.47-.33-2.21,9.31-2.76,18.7-4.36,28.33-1.69,2.92,.81,5.73,1.84,8.08,3.82,2.11,1.78,3.59,3.93,2.71,6.81-.85,2.78-3.14,3.78-5.88,4.07-2.18,.23-4.29-.08-6.32-.76-8.17-2.72-16.35-2.64-24.61-.47-2.79,.73-5.62,1.37-8.51,1.61Z"/>
    <path class="cls-2" d="M210.02,314.62c-1.15-1.45-2.47-2.7-4.1-3.59-1.22-.67-2.04-1.65-2.65-2.87-1.55-3.08-3.08-6.17-5.27-8.87-1.38-1.7-1.14-3.82-1.3-5.82,.74,.08,.72,.63,.69,1.16-.05,.84,.34,1.56,.53,2.34,.24,.99,.67,.95,1.61,.71,2.74-.69,4.65-3.27,7.67-3.26,.23,0,.48-.3,.69-.49,.75-.69,2.81-1.32,3.75-1.15,.51,.89,1,1.79,1.52,2.68,2.51,4.28,6,7.5,10.53,9.55,1.43,.96,2.88,1.92,4.3,2.9,1.22,.84,2.11,1.97,2.83,3.24,1.96,3.44,.79,6.46-3.23,8.38-4.94,1.32-9.31-.26-13.53-2.65-1.34-.76-2.48-1.9-4.05-2.25Z"/>
    <path class="cls-7" d="M136.98,304.47c-.23,2.31-3.58,6.15-5.7,6.26-.93,.05-1.92-.3-2.9-.23-.97,.07-1.97,.1-2.59,1.05-7.35-7.12-13.29-15.06-15.07-25.48-.41-2.39-.76-4.78-.75-7.21,1.55,.06,3.17-.3,4.63,.36,2.18,.99,4.32,.06,6.44-.08,.93-.06,1.65-.2,2.37,.42,.02,.21,.04,.43,.06,.64-.63,.49-.62,.86,.2,1.09,1.63,8.51,5.92,15.54,11.95,21.62,.48,.49,.9,1.04,1.35,1.56Z"/>
    <path class="cls-13" d="M177.96,173.55c-1.29,2.14-2.44,4.31-1.37,6.92-.04,.63,.05,1.15,.48,1.72,.86,1.15,.77,2.54,.48,3.9-13.33-4.93-23.13-13.94-30.18-26.13-.72-1.25-1.46-2.5-2.19-3.74,.02-.13,.04-.26,.06-.39,.51-.37,.99-.78,1.52-1.11,.89-.55,1.34-1.82,2.67-1.65,1.45,1.61,3.33,1.9,5.91,.82,1.22-.51,2.42-1,3.78-.8,.22,.26,.43,.51,.64,.77-.4,2.99,.49,4.32,3.93,5.9,.27,.67,1.07,.74,1.45,1.28,.31,.7,.61,1.4,.92,2.11,0,.23,.01,.46,.02,.69,.11,5.52,3.02,7.97,8.41,7.1,1.54-.25,3.08,.9,3.46,2.59Z"/>
    <path class="cls-6" d="M275.61,161.37c-1-1.42-2.4-.57-3.6-.54-1.09,.03-2.22,.77-2.91-.79-.27-.6-.78-.19-1.13,.13-1.2,1.1-2.35,.34-2.99-.5-.77-1.01-1.33-2.3-1.17-3.71,.09-.81,.46-1.51-.41-2.31-.61-.56,.35-.74,.87-.97,.88-.38,2.16,.24,2.67-1.04,.33-.06,.67-.11,1-.17,.05,.09,.11,.17,.16,.26,.08-.09,.16-.19,.25-.28,6.9-1.85,13.77-2.29,20.5,.67,3.11,1.37,5.46,3.69,7.1,6.64,1.68,3.02,3.21,6.13,4.8,9.21-2.17,.95-3.13,3.08-4.62,4.7-.71,.77-1.41,1.67-2.78,.84-.88-.53-.56,.5-.73,.87-1.41-2.63-2.9-5.2-4.9-7.45-1.83-2.06-4.14-3.41-6.59-4.57-.06-.58-.58-.91-.71-1.51-.24-1.1-1.29-1.11-1.87-.61-.61,.53-1.39,.69-1.93,1.25-.33-.04-.67-.07-1-.11Z"/>
    <path class="cls-18" d="M123.43,279.56c-.72-.62-1.44-.48-2.37-.42-2.12,.14-4.26,1.07-6.44,.08-1.46-.67-3.08-.3-4.63-.36-.45-6.48,.6-12.79,2.18-19.04,.78-3.08,1.59-6.15,2.77-9.11,1.37-.4,1.08-1.75,1.48-2.68,.43-1.01,.64-1.11,1.67-.46,1.98,1.25,3.98,2.69,6.57,2.45,1.04-.1,2.05-.11,2.73,.98,.34,.55,1.05,.38,1.61,.42-1.13,3.33-2.31,6.65-3.38,10-1.13,3.53-1.89,7.15-2.25,10.84-.39,.33-.39,.67-.04,1.02,0,1.51,0,3.03,0,4.54-.37,.37-.35,.71,.06,1.03,.01,.23,.02,.47,.03,.7Z"/>
    <path class="cls-10" d="M223.7,305c-4.53-2.06-8.02-5.27-10.53-9.55-.52-.89-1.02-1.78-1.52-2.68-.14-.84-.89-1.29-1.11-2.22-1.28-5.48-2.39-11-2.89-16.6-.13-1.48-1.24-2.89-.47-4.46,.52,.1,.87-.24,1.26-.48,2.48-1.56,4.64-1.73,6.29-.49,2.27,1.71,3.03,4.24,2.16,7.12q-.69,2.29,1.7,2.26c4.46-.06,6.71,1.2,7.86,4.41,1.17,3.29-.03,6.85-3.19,9.31-.68,.53-1.48,.9-2.19,1.38-1.56,1.05-1.52,2.39,.09,3.3,3.4,1.93,4.33,5.08,2.56,8.7Z"/>
    <path class="cls-6" d="M207.18,269.49c-.78,1.56,.34,2.97,.47,4.46,.5,5.6,1.61,11.12,2.89,16.6,.22,.93,.97,1.38,1.11,2.22-.95-.18-3,.46-3.75,1.15-.21,.19-.46,.49-.69,.49-3.02-.01-4.93,2.57-7.67,3.26-.94,.24-1.36,.28-1.61-.71-.19-.78-.58-1.5-.53-2.34,.03-.52,.05-1.08-.69-1.16-.35-1.03-.69-2.06-1.04-3.1,.04-.43,.06-.85-.3-1.17-.03-.41-.05-.82-.08-1.23-.53-4.72-1.07-9.44-1.58-14.17-.09-.85-.08-1.72-.11-2.58,.11-.19,.25-.38,.31-.59,.15-.5-.24-1.24,.57-1.44,.75-.18,.98,.51,1.28,.95,.5,.74,1.12,1.12,2.01,1.08,.17,0,.35,0,.52,.03,.51,.11,2.86-.04,3.11-.4,1.02-1.49,3.06-1.41,4.17-2.94,.93-1.28,.93,.75,1.59,.87,.01,.24,.03,.47,.04,.71Z"/>
    <path class="cls-13" d="M91.42,211.09c-1.65,.29-3.45,.33-4.03,2.43-.14,.5-.56,.61-1.06,.72-1.83,.42-3.64,.94-5.46,1.42-3.65-6.51-9.09-11.8-12.59-18.41-.67-1.27-1.29-2.57-1.93-3.86,.1-.03,.19-.06,.28-.1,4.83-.76,5.8-2.34,4.3-6.92-.36-1.09-.8-2.18-.94-3.31-.36-2.73-.33-4.47,1.65-5.04,.08,.04,.17,.06,.26,.06,1.7,6.79,5.05,12.73,9.31,18.21,2.87,3.69,5.68,7.44,8.24,11.36,.72,1.11,1.32,2.29,1.98,3.44Z"/>
    <path class="cls-1" d="M149.44,153.08c-1.33-.17-1.78,1.1-2.67,1.65-.53,.33-1.02,.73-1.52,1.11-.96-.47-.94-1.54-1.38-2.31-1.05-1.86-1.63-2-3.42-.69-1.16,.85-2.28,1.79-3.86,1.63-1.16-1.03-2.16-2.17-2.96-3.54-.87-1.49-2.29-1.73-3.52-.86-1.38,.98-1.5,2.35-.48,3.84,1.33,1.94,2.59,3.93,3.85,5.92,1.04,1.63,.84,2.66-.72,3.99-1.33-2.41-2.52-4.89-3.47-7.48-1.21-3.34-2.61-6.59-4.54-9.58,4.2-2.78,8.4-5.56,12.61-8.33,1.24-.82,2.51-1.6,3.77-2.4,.04,.77,.69,.61,1.15,.77,.69,.25,1.3,.48,1.8,1.18,2.32,3.26,4.35,6.73,7.09,9.7,1.19,1.29,1.02,2.72-.2,4.02-.47,.5-1.01,.93-1.52,1.39Z"/>
    <path class="cls-7" d="M74.32,253.37c.73,1.19,1.27,2.4,1.14,3.88-.09,1.06,1.53,2.36,2.59,2.23,.41-.05,.93-.19,1.16,.11,1.17,1.61,2.78,.74,4.22,.85-2.86,5.33-5.46,10.78-6.97,16.68-.94-1.68-1.67-.65-2.73,.02-2.8,1.78-5.73,3.37-8.66,4.94-.91,.49-1.95,.6-2.18-.9-.12-.83-.72-.94-1.4-.93,0-3.11,.88-6.04,1.98-8.89,2.55-6.63,6.47-12.45,10.85-17.98Z"/>
    <path class="cls-2" d="M132.1,241.73c.33-1.64,.66-3.29,.99-4.93,1.12,.06,2.14,.51,2.38,1.61,.33,1.47,1.33,2.42,2.2,3.44,1.16,1.36,2.17,1.24,3.42-.17,.64,.99,1.65,1.59,2.46,2.41-.73,1.89,.38,4.6,2.45,5.95-.13,.78-.33,1.56-.38,2.35-.17,2.53,1.17,4.14,4.48,5.52,.21,1.83,.98,3.51,1.47,5.26-.04,.4,.05,.88-.15,1.18-1,1.57-1.34,3.34-1.63,5.13-1.74-.04-2.77-1.22-3.48-2.53-1.27-2.35-3.63-3.6-5.23-5.61-.72-.9-1.57-1.71-1.97-2.82-.51-1.41-1.44-2.15-2.98-2.06-.25,1.54,1.36,2.74,.78,4.34-2.16-5.36-3.5-10.93-4.15-16.67-.09-.82,.07-1.74-.65-2.4Z"/>
    <path class="cls-10" d="M210.02,314.62c1.57,.35,2.7,1.49,4.05,2.25,4.22,2.39,8.59,3.97,13.53,2.65,.91,3.6-.08,6.55-2.85,9.05-1.39,1.26-.29,2.78,.46,3.73,2.24,2.81,2.05,5.59,.62,8.59-1.03,2.17-1.52,4.48-1.39,6.91,.04,.78,0,1.56,0,2.61-2.92-2.94-4.42-6.12-3.58-10.02,.38-1.74-.27-2.77-1.64-3.59-.5-.3-1.01-.56-1.51-.86-2.97-1.78-3.86-5.28-2.11-8.28,1.65-2.82,1.35-3.64-1.76-4.98-3.51-1.51-5.2-4.5-4.21-7.5,.07-.21,.25-.38,.38-.56Z"/>
    <path class="cls-5" d="M124.74,146.76c1.93,3,3.33,6.25,4.54,9.58,.94,2.59,2.14,5.07,3.47,7.48,0,.23-.01,.47-.02,.7-.88-.12-1.5,.52-2.24,.8-2.72,1.01-5.34,2.19-7.59,4.11-.63,.54-1.47,.91-2.36,1.03-.51-.05-.53-.51-.73-.85-1.44-2.37-1.43-5.39-3.37-7.53-.87-2.79-2.16-5.39-3.47-7.98,3.92-2.45,7.85-4.9,11.77-7.35Z"/>
    <path class="cls-5" d="M155.36,199.6c-2.74-3.11-5.9-5.82-8.4-9.18-3.29-4.42-5.87-9.23-8.55-14.01-.25-.44-.31-.98-.46-1.48,.38,0,.76-.02,1.13-.03,5.11-1.97,9.35,.73,9.93,6.33,.05,.51-.03,1.04,.25,1.52-.8,.96-.84,2.2-1.17,3.33-.11,.37-.02,.8,.33,1.1,.69,.6,3.84,.29,4.52-.46,.33,.22,.64,.53,1,.64,4.92,1.52,6.58,4.42,5.27,9.42-.33,1.28-.55,2.42,.32,3.59,.6,.8,1.39,1.16,2.26,1.5,2.83,1.09,4.64,3.12,5.42,6.06-2.97-1.28-5.31-3.5-7.94-5.29-1.36-.93-2.62-2.02-3.92-3.04Z"/>
    <path class="cls-5" d="M93.16,176.28c-.18,.82,.34,1.43,.66,2.09,1.76,3.61,.46,6.14-3.53,6.6-1.38,.16-2.4,.65-3.11,1.81-.21-.15-.42-.29-.63-.44-.86-2.52-2.34-4.72-3.72-6.96-1.12-1.82-2.04-3.74-3.01-5.64-.3-.59-.56-1.23,.26-1.62,2.86-1.36,5.55-3.07,8.55-4.12,.72,1.89,1.28,3.87,2.97,5.21,.4,.86,.81,1.72,1.21,2.57,.03,.24,.1,.45,.36,.54v-.04Z"/>
    <path class="cls-16" d="M208.19,228.49c.47-1.12,1.41-1.77,2.51-1.89,1.37-.15,2.32-.92,3.31-1.68,1.52-1.16,3.25-1.32,4.25-.38,1.16,1.09,1.42,3.35,.29,4.76-1.47,1.83-1.88,3.83-1.75,6.11,.15,2.71,2.08,4.82,4.78,4.91,.35,.01,.7,.02,1.04,0,.63-.04,1.21,.08,1.35,.78,.13,.65-.49,.71-.89,.84-.44,.15-.68,.41-.78,.83-.42-.4-.83-.7-1.48-.78-5.58-.63-7.58-5.37-5.06-10.4,.41-.83,.74-1.69,1.15-2.51,.44-.88,.36-1.72-.35-2.38-.65-.61-1.39-.3-2.1,0-1.79,.77-3.51,1.76-5.5,2.01-.31,.04-.57,.02-.78-.23Z"/>
    <path class="cls-11" d="M260.66,221.16c-7.08-.69-13.34-6.56-14.62-13.44,5.63,3.66,10.39,8.25,14.62,13.44Z"/>
    <path class="cls-16" d="M163.7,274.03c3.05,.21,4.95,2.78,4.44,6.24-.52,3.53-.72,6.98,1.28,10.18,.11,.17,.05,.44,.07,.67-3.26-1.16-4.08-4.46-3.56-7.21,.21-1.1,.3-2.19,.18-3.27-.41-3.66-1.48-4.36-5.23-3.56,.13-.54,.27-1.09,.4-1.63,.59-.47,1.18-.93,1.77-1.4,.21,0,.42,0,.64-.01Z"/>
    <path class="cls-16" d="M189.36,213.77c.53-1.6,1.92-1.82,3.29-1.92,.7-.05,.91,.58,.91,1.23,0,1.04-.05,2.09,.04,3.12,.1,1.19,.44,2.47,1.7,2.77,1.29,.31,2.75,.58,3.86-.71,.6-.7,1.3-1.32,1.96-1.97,.37-.36,.73-.82,1.34-.52,.56,.28,.8,.76,.85,1.4,.1,1.42-.63,2.2-1.86,2.67-.79-.58-1.35-.16-1.96,.38-1.34,1.17-2.9,1.69-4.65,1.18-1.77-.52-2.68-2.12-2.68-4.53,0-2.54-.3-2.87-2.8-3.1Z"/>
    <path class="cls-16" d="M136.57,154.45c1.58,.16,2.71-.78,3.86-1.63,1.79-1.31,2.37-1.16,3.42,.69,.44,.78,.42,1.84,1.38,2.31-.02,.13-.04,.26-.06,.39-.94,.13-1.36,1-2.08,1.45-2.11,1.3-4.16,.84-5.39-1.3-.37-.64-.76-1.28-1.14-1.92Z"/>
    <path class="cls-2" d="M139.09,174.91c-.38,0-.76,.02-1.13,.03-1.74-3.01-3.34-6.08-4.51-9.36,3.46-.06,6.16,3.02,5.66,6.45-.14,.96-.37,1.92-.02,2.88Z"/>
    <path class="cls-6" d="M277.7,221.15c.27,1.41-.9,2.05-1.74,2.47-1.46,.74-3.14,1.01-4.82,1-.59,0-1.06-.29-1.05-.9,.02-1.23-.76-1.24-1.61-1.17-2.12,.17-4.35-.54-6.33,.82-.45,.31-.93,.08-1.24-.27-.49-.53-.13-1.07,.11-1.59,4.84,.78,9.7,.34,14.55,.26,.48,.61,.64,.29,.74-.25,.46-.12,.93-.25,1.39-.37Z"/>
    <path class="cls-18" d="M177.55,186.09c.29-1.36,.38-2.75-.48-3.9-.43-.58-.52-1.09-.48-1.72,1.44,1.56,3.06,2.67,5.28,2.97,1.66,.23,2.13,1.78,1.14,3.18-.45,.64-.92,1.35-1.81,1.52-.91-1.24-2.58-1.11-3.65-2.05Z"/>
    <path class="cls-16" d="M233.89,253.82c.29,0,.58,.02,.86,.02,.97,0,2.09-.21,2.52,.99,.48,1.33-.51,2.1-1.43,2.65-1.38,.82-2.42,2.13-4.02,2.6,.07-.21,.1-.46,.23-.64q1.8-2.39,.43-4.72c.26-.62,.84-.75,1.41-.9Z"/>
    <path class="cls-6" d="M152.94,186.73c-.68,.75-3.83,1.06-4.52,.46-.35-.3-.44-.72-.33-1.1,.33-1.13,.37-2.36,1.17-3.33,1.64,.94,2.7,2.41,3.68,3.96Z"/>
    <path class="cls-16" d="M265.88,307.5c-.84,.81-1.79,1.43-2.96,.83-1.03-.52-1.5-1.56-1.1-2.59,.45-1.16-.3-3.17,1.98-3.21-.88,2.31,.54,3.66,2.08,4.97Z"/>
    <path class="cls-16" d="M195.29,287.96c.03,.41,.05,.82,.08,1.23-1.47-.72-1.62,.3-1.77,1.33-.69,1.48-1.14,3.08-2.16,4.4-.44,.57-.81,1.27-1.69,1.24,.92-2.25,1.82-4.51,2.79-6.75,.51-1.17,1.45-1.71,2.76-1.46Z"/>
    <path class="cls-16" d="M179.88,190.2c.8,.89,.8,1.74-.2,2.44-1.21,.85-2.57,1.47-3.48,2.74-.38,.53-1.13,.48-1.77,.36,.98-2.67,3.28-4.04,5.46-5.54Z"/>
    <path class="cls-16" d="M247.15,247.37c-.52,.95-1.42,.36-2.13,.53-.99-.33-1.17-1-.74-1.87,.43-.86,.76-1.79,1.68-2.3,1.54,.84,1.21,2.29,1.19,3.64Z"/>
    <path class="cls-16" d="M237.72,230.91c-.97,1.17-1.88,.78-2.69-.17-.84-.99-.54-2.45,.61-3.31,.05,1.54,1.26,2.39,2.08,3.47Z"/>
    <path class="cls-7" d="M276.61,161.47c.54-.56,1.32-.72,1.93-1.25,.58-.5,1.63-.49,1.87,.61,.13,.6,.66,.93,.71,1.51-1.5-.29-3.01-.57-4.51-.86Z"/>
    <path class="cls-10" d="M193.6,290.52c.15-1.03,.31-2.05,1.77-1.33,.36,.32,.34,.75,.3,1.17-.69,.05-1.38,.11-2.07,.16Z"/>
    <path class="cls-18" d="M123.68,281.29c-.81-.23-.83-.6-.2-1.09,.07,.36,.13,.73,.2,1.09Z"/>
    <path class="cls-9" d="M123.39,278.86c-.41-.32-.43-.66-.06-1.03,.3,.33,.28,.67,.06,1.03Z"/>
    <path class="cls-9" d="M123.32,273.28c-.35-.35-.35-.7,.04-1.02,.24,.35,.27,.69-.04,1.02Z"/>
    <path class="cls-7" d="M276.3,221.52c-.09,.54-.26,.86-.74,.25,.16-.35,.41-.4,.74-.25Z"/>
    <path class="cls-13" d="M83.08,220.82c.55,.1,.84,.28,.23,.74-.31-.17-.27-.46-.23-.74Z"/>
    <path class="cls-13" d="M81.9,217.72c.44,.14,.45,.5,.44,.86-.14-.29-.29-.58-.44-.86Z"/>
    <path class="cls-7" d="M268.33,151.44c-.08,.09-.16,.19-.25,.28-.05-.09-.11-.17-.16-.26,.14-.01,.27-.02,.41-.03Z"/>
    <path class="cls-8" d="M137.97,33.15c3.13,1.97,6.26,3.94,9.39,5.9-.02,.68,.15,1.56-.81,1.66-1.69,.18-1.85,1.63-2.23,2.73-.25,.72-.55,1.31-.98,1.93-1.23,1.75-2.87,3.11-3.57,5.39-.56,1.84-2.13,3.41-3.67,4.88-1.2,1.15-2.76,2.13-3.59,3.3-1,1.42-2.06,3.26-1.94,5.5,.1,2.01-.07,4.42-1.66,5.94-1.28,1.22-1.9,2.65-2.55,4.14-.34,.77-.77,1.32-1.43,1.86-1.17,.96-2.49,1.86-2.77,3.6-.23,1.43-.53,2.93-2.53,2.93-.19,0-.47,.35-.56,.59-.6,1.53-1.79,2.34-3.27,2.84-.69,.23-1.4,.79-1.5,1.35-.28,1.58-1.56,2.21-2.55,3.09-.75,.67-1.23,1.42-1.63,2.35-.65,1.52-1.23,3.35-2.44,4.29-1.57,1.24-2.75,2.74-4.08,4.15-.63,.67-.85,1.61-1.73,2.12-1.92,1.12-3.18,2.94-4.67,4.54-1.77,1.89-2.99,4.2-4.94,5.93-1.63,1.44-2.76,3.4-4.63,4.64-.45,.3-.69,.9-1,1.39-1.51,2.36-3.05,4.61-5.19,6.58-1.88,1.73-4.04,3.01-5.93,4.69-2.17,1.94-4.74,3.43-5.74,6.4-.07,.2-.28,.36-.46,.5-2.19,1.7-3.64,4.09-5.83,5.88-2.5,2.04-4.07,5.14-6.6,7.28-.52,.44-1.23,.83-1.48,1.4-1.15,2.64-3.14,4.53-5.14,6.51-.9,.89-2.11,1.72-2.59,2.96-.3,.76-.72,1.3-1.35,1.71-.54,.36-1.08,.68-1.14,1.42-7.82-2.42-13.45-7.58-17.75-14.33-3.96-6.21-5.61-13.2-6.59-20.39-.55-4.04-1.11-8.09-1.38-12.16,.72,.06,1.36-.14,1.99-.47,4.7-2.49,6.49-6.86,7.37-11.71,1.09-6.07,3.08-11.75,7.25-16.38,5.52-6.12,12.36-10.3,20.1-13.09,5.09-1.84,10.44-2.26,15.69-3.21,5.14-.93,10.01-2.51,14.35-5.64,4.83-3.48,8.25-8.18,11.78-12.79,3.68-4.82,7.45-9.52,12.41-13.13,5.76-4.19,12.2-6.1,19.3-5.97,1.45,.03,3.16,.58,3.99-1.37,.08-.19,.56-.17,.75-.36,.98-.98,2.65-.16,3.53-1.36Z"/>
    <path class="cls-3" d="M137.97,33.15c-.88,1.21-2.55,.39-3.53,1.36-.19,.19-.67,.17-.75,.36-.83,1.95-2.54,1.4-3.99,1.37-7.1-.13-13.54,1.78-19.3,5.97-4.96,3.61-8.73,8.31-12.41,13.13-3.53,4.61-6.95,9.32-11.78,12.79-4.34,3.12-9.21,4.7-14.35,5.64-5.25,.95-10.6,1.37-15.69,3.21-7.74,2.8-14.58,6.97-20.1,13.09-4.18,4.63-6.16,10.31-7.25,16.38-.88,4.85-2.67,9.21-7.37,11.71-.63,.33-1.28,.54-1.99,.47-.46-3.25-.84-6.5-1.39-9.73-.93-5.45-1.97-10.87-2.95-16.31-1.4-7.83-1.86-15.67-.29-23.55,1.54-7.67,4.97-14.46,9.46-20.78,5.45-7.66,12.17-14.05,19.67-19.63,9.82-7.3,20.48-12.97,32.46-15.8,13.88-3.29,27.28-1.85,40.02,4.69,5.73,2.94,10.81,6.86,15.72,10.99,1.89,1.59,3.86,3.09,5.8,4.64ZM19.44,79.5c.2,1.85-.35,3.8,.42,5.62,.46,1.09,1.21,2.02,2.61,1.86,1.38-.15,1.72-1.18,1.85-2.34,.15-1.43,.2-2.87,.44-4.29,1.5-8.75,4.48-16.9,9.84-24.1,1.03-1.39,1.82-3.04,.75-4.83-1.38-2.32-4.93-2.21-6.7,.3-5.88,8.3-9.33,17.43-9.2,27.78Zm22.07-32.82c3.78,0,8.28-3.6,9.54-7.69,.99-3.2-1.25-5.95-4.33-5.88-3.76,.09-8.2,3.63-9.51,7.75-1.01,3.17,.95,5.81,4.3,5.82Z"/>
    <path class="cls-9" d="M45.18,165.52c.06-.73,.6-1.06,1.14-1.42,.63-.41,1.05-.95,1.35-1.71,.49-1.24,1.69-2.07,2.59-2.96,2-1.98,3.99-3.87,5.14-6.51,.25-.57,.96-.96,1.48-1.4,2.53-2.15,4.11-5.24,6.6-7.28,2.19-1.79,3.64-4.18,5.83-5.88,.18-.14,.4-.3,.46-.5,1-2.97,3.57-4.46,5.74-6.4,1.88-1.69,4.05-2.97,5.93-4.69,2.14-1.97,3.67-4.22,5.19-6.58,.31-.48,.56-1.09,1-1.39,1.87-1.24,2.99-3.19,4.63-4.64,1.95-1.73,3.18-4.04,4.94-5.93,1.49-1.6,2.75-3.41,4.67-4.54,.88-.51,1.1-1.45,1.73-2.12,1.33-1.41,2.5-2.91,4.08-4.15,1.2-.95,1.79-2.77,2.44-4.29,.4-.93,.88-1.68,1.63-2.35,.99-.89,2.28-1.51,2.55-3.09,.1-.56,.8-1.12,1.5-1.35,1.49-.49,2.68-1.31,3.27-2.84,.09-.24,.37-.59,.56-.59,2,0,2.31-1.5,2.53-2.93,.28-1.74,1.59-2.64,2.77-3.6,.66-.54,1.09-1.09,1.43-1.86,.65-1.49,1.27-2.92,2.55-4.14,1.6-1.52,1.77-3.92,1.66-5.94-.11-2.24,.94-4.08,1.94-5.5,.82-1.17,2.38-2.15,3.59-3.3,1.54-1.47,3.11-3.04,3.67-4.88,.69-2.28,2.34-3.64,3.57-5.39,.43-.62,.73-1.21,.98-1.93,.38-1.1,.55-2.54,2.23-2.73,.96-.1,.78-.98,.81-1.66,5.25,2.68,10.62,5.15,15.72,8.1,3.81,2.21,7.59,4.62,10.35,8.22-1.3,.51-3.71-.25-3.02,2.61,.02,.1-.35,.27-.49,.45-.36,.45-.74,.91-.45,1.56,.23,.51,.03,.91-.34,1.24-1.09,.97-1.95,2.04-2.35,3.51-.18,.66-.84,1.2-1.3,1.78-2.1,2.62-5.93,3.28-7.41,6.58-.07,.16-.38,.32-.57,.31-1.12-.07-1.35,.74-1.82,1.52-1.04,1.72-2.21,3.29-4.56,3.46-.8,.06-2.15-.17-2.42,.88-.45,1.76-1.5,2.9-2.77,4.1-1.76,1.66-3.16,3.73-4.8,5.48-1.84,1.96-3.75,4-5.87,5.64-1.29,1-2.18,2.71-4,2.97-1.86,.27-2.44,2.02-3.19,3.17-1.04,1.61-1.93,3.29-3.61,4.23-2.43,1.36-4.58,2.8-6.41,5.11-1.94,2.45-4.29,4.61-6.04,7.28-.47,.72-.26,1.78-1.19,2.22-2.66,1.28-4.67,3.28-6.82,5.28-2.72,2.52-5.59,4.95-8.5,7.29-.78,.63-1.41,1.3-1.85,2.21-1.44,3.01-4.16,5.02-6.35,7.38-1.14,1.23-2.68,2.38-3.97,3.65-2.67,2.63-5.27,5.24-7.32,8.51-2.16,3.45-5.04,6.47-8.29,9.09-1.19,.96-3.15,2.11-2.04,4.39-6.66,.73-13.28,.84-19.73-1.42-.27-.09-.52-.23-.79-.35Z"/>
    <path class="cls-4" d="M65.69,167.29c-1.11-2.27,.85-3.43,2.04-4.39,3.25-2.63,6.13-5.65,8.29-9.09,2.05-3.27,4.64-5.88,7.32-8.51,1.29-1.27,2.83-2.42,3.97-3.65,2.19-2.35,4.91-4.37,6.35-7.38,.44-.91,1.06-1.58,1.85-2.21,2.91-2.34,5.78-4.77,8.5-7.29,2.15-1.99,4.17-4,6.82-5.28,.93-.45,.71-1.5,1.19-2.22,1.75-2.67,4.1-4.83,6.04-7.28,1.83-2.31,3.98-3.75,6.41-5.11,1.68-.94,2.57-2.62,3.61-4.23,.75-1.16,1.33-2.91,3.19-3.17,1.82-.26,2.71-1.98,4-2.97,2.12-1.64,4.03-3.68,5.87-5.64,1.64-1.74,3.04-3.81,4.8-5.48,1.27-1.2,2.31-2.34,2.77-4.1,.27-1.05,1.63-.82,2.42-.88,2.35-.17,3.52-1.74,4.56-3.46,.46-.77,.7-1.59,1.82-1.52,.19,.01,.49-.15,.57-.31,1.47-3.31,5.31-3.96,7.41-6.58,.46-.58,1.12-1.12,1.3-1.78,.41-1.47,1.26-2.55,2.35-3.51,.37-.33,.57-.73,.34-1.24-.29-.65,.09-1.11,.45-1.56,.14-.18,.52-.35,.49-.45-.69-2.85,1.71-2.09,3.02-2.61,.14,.22,.28,.45,.42,.67-.53,.07-.93,.31-.62,.88,.34,.63,.84,.72,1.32,.09,1.59,1.04,2.19,2.81,3,4.35,2.09,3.97,3.36,8.21,3.13,12.78-2.03,1.29-4.19,2.53-5.74,4.32-3.14,3.65-7.13,6.42-10.22,10.1-.22,.26-.54,.42-.84,.6-3.4,2.09-5.42,5.61-8.37,8.19-.86,.75-2.05,.81-2.65,1.71-1.04,1.55-3.54,1.65-3.84,3.92-.02,.13-.36,.23-.56,.33-1.72,.78-2.94,2.15-4.11,3.54-1.66,1.99-2.67,4.45-4.62,6.28-.89,.83-2.01,1.37-2.75,2.34-2.44,3.2-6.2,4.94-8.72,8.08-1.64,2.04-3.81,3.57-5.79,5.27-1.6,1.37-3.02,2.99-4.46,4.55-1.13,1.23-2.47,2.45-4.1,3.27-1.24,.62-2.29,1.63-3.24,2.76-2.21,2.61-4.69,4.98-6.98,7.53-1.75,1.94-4.16,3.3-5.09,5.95-.23,.66-.7,1.16-1.28,1.6-.42,.31-.99,.77-.29,1.39-2.51,1.6-5.16,2.93-7.86,4.15-7.2,3.26-14.63,5.85-22.45,7.2-.34,.06-.69,.04-1.03,.06Z"/>
    <path class="cls-5" d="M97.03,155.87c-.71-.62-.13-1.08,.29-1.39,.58-.44,1.05-.93,1.28-1.6,.93-2.65,3.35-4.01,5.09-5.95,2.29-2.54,4.77-4.92,6.98-7.53,.96-1.13,2-2.13,3.24-2.76,1.63-.82,2.96-2.04,4.1-3.27,1.44-1.56,2.86-3.18,4.46-4.55,1.99-1.71,4.16-3.24,5.79-5.27,2.52-3.14,6.29-4.88,8.72-8.08,.73-.96,1.86-1.5,2.75-2.34,1.95-1.83,2.96-4.29,4.62-6.28,1.17-1.39,2.39-2.77,4.11-3.54,.2-.09,.54-.19,.56-.33,.31-2.27,2.8-2.37,3.84-3.92,.6-.9,1.79-.96,2.65-1.71,2.94-2.58,4.97-6.1,8.37-8.19,.29-.18,.62-.35,.84-.6,3.09-3.68,7.08-6.44,10.22-10.1,1.55-1.8,3.7-3.04,5.74-4.32,.76,10.32-3.12,19.08-9.17,27.1-5.55,7.35-12.37,13.41-19.56,19.08-12.82,10.11-26.38,19.14-40.35,27.57-4.5,2.72-9.15,5.2-13.74,7.77-.24,.14-.55,.14-.83,.21Z"/>
    <path class="cls-5" d="M149.44,153.08c.51-.46,1.05-.89,1.52-1.39,1.22-1.3,1.39-2.73,.2-4.02-2.74-2.97-4.77-6.44-7.09-9.7-.5-.7-1.11-.94-1.8-1.18-.45-.16-1.1,0-1.15-.77,4.74-3.25,9.49-6.51,14.23-9.76,.64,2.09,1.81,3.88,3.16,5.57,.17,.49,.73,.79,.68,1.39-1.99,1.9-4.41,3.1-6.91,4.15-1.04,.44-1.33,.94-.53,1.91,1.06,1.29,2.06,2.63,3.01,3.99,1.77,2.54,3.65,2.87,6.11,.94,1.54-1.21,3.04-2.46,4.56-3.69,.12,0,.24,0,.36,0,.2,.21,.37,.44,.59,.61,2.47,1.97,4.94,3.93,7.41,5.89,0,.88-.63,1.25-1.31,1.38-2.82,.53-5.49,1.62-8.39,1.9-1.97,.19-4.09,.47-4.96,2.79-1.36-.2-2.56,.29-3.78,.8-2.58,1.08-4.46,.79-5.91-.82Z"/>
    <path class="cls-11" d="M93.14,165.55c4.18-2.61,8.49-4.98,12.86-7.25,.02,1.77,.77,3.08,2.44,3.79-.47,.87-.36,1.73-.09,2.66,.66,2.29,1.93,4.29,2.91,6.42,1.16,2.56,.69,3.91-1.8,5.17-.86,.44-1.72,.87-2.71,1.37,.56,.42,.96,.72,1.35,1.02-.07,.89-.87,.86-1.41,.97-.83,.17-1.7,.12-2.55,.17l-.6-.74c-.07-.15-.13-.29-.2-.44-.02-.11-.04-.23-.06-.34-.32-1.75-1.91-2.8-2.46-4.4-.59-1.71-1.66-2.47-3.47-2.1-.7-.8-1.4-1.6-2.1-2.4,.12-1.74-.93-2.85-2.09-3.9Z"/>
    <path class="cls-1" d="M169.88,116.25c2.03,2.93,4.8,5.11,7.5,7.35,2.3,1.91,2.42,4.21,.27,6.32-.9,.88-1.97,1.6-2.67,2.67-3.59,1.64-3.94,1.56-6.27-1.39-.39-.49-.8-.96-1.21-1.43,1.58-.43,2.89,.62,4.46,.76-3.01-3.15-6.47-5.84-8.95-9.44,2.11-1.87,4.2-3.76,6.88-4.84Z"/>
    <path class="cls-11" d="M71.63,178.02c-1.97,.57-2.01,2.31-1.65,5.04,.15,1.12,.59,2.22,.94,3.31,1.51,4.58,.53,6.16-4.3,6.92-.9-2.58-1.76-5.17-2.7-7.74-.57-1.56-1.24-3.09-1.88-4.62-.37-.89-.32-1.5,.77-1.85,2.46-.8,4.9-1.69,7.35-2.52,1.44-.48,1.26,.7,1.46,1.47Z"/>
    <path class="cls-6" d="M163.01,121.08c2.48,3.6,5.94,6.29,8.95,9.44-1.58-.14-2.88-1.19-4.46-.76-1.09-.92-2.13-1.91-3.29-2.74-1-.72-2.2-1.15-3.35-.33-1.11,.79-.64,1.96-.46,3,.09,.5,.36,.96,.54,1.44-.78,.34-1.56,.71-2.44,.71-1.35-1.69-2.52-3.48-3.16-5.57,2.48-1.83,4.89-3.78,7.66-5.18Z"/>
    <path class="cls-1" d="M108.44,162.09c-1.67-.71-2.42-2.02-2.44-3.79,2.12-1.74,4.6-2.88,6.97-4.2,1.32,2.59,2.61,5.19,3.47,7.98-1.06,.07-2.3-.97-3.13,.52-.55-.41-.96-1.02-1.68-1.19-1.25-.61-2.25-.12-3.2,.69Z"/>
    <path class="cls-1" d="M93.14,165.55c1.16,1.05,2.21,2.16,2.09,3.9-.62-.02-1.29-.29-1.79,.33-2.36,.2-1.77,1.99-1.84,3.42-1.69-1.34-2.24-3.32-2.97-5.21,1.3-1.19,2.83-1.96,4.51-2.44Z"/>
    <path class="cls-9" d="M174.55,57.02c-.49,.63-.98,.54-1.32-.09-.31-.57,.1-.81,.62-.88,.39,.21,.62,.54,.7,.97Z"/>
    <path class="cls-1" d="M190.76,154.78c-.88,.33-.09,.61,.06,.83,1.04,1.52,1.61,3.32,.92,4.93-1.23,2.87,.58,4.67,1.78,6.75,.14,.25,.36,.45,.54,.67-1.26-.04-2.26,.38-3.28,1.21-1.45,1.17-3.11,2.1-4.76,3.01-1.23,.68-2.58,1.02-3.24,2.55-.42,.98-1.34,1.2-2.45,.47-.8-.53-1.29-1.53-2.37-1.62-.38-1.69-1.92-2.84-3.46-2.59-5.39,.87-8.3-1.58-8.41-7.1,0-.23-.01-.46-.02-.69,.69-.33,.88-.94,.69-1.59-.25-.87-1.04-.44-1.61-.52-.38-.55-1.18-.61-1.45-1.28,0-.63,.04-1.26-.02-1.89-.18-2.11-1.95-3.91-3.91-4.02-.21-.26-.43-.51-.64-.77,.87-2.32,2.99-2.6,4.96-2.79,2.89-.27,5.57-1.37,8.39-1.9,.68-.13,1.32-.5,1.31-1.38,2.08,1.13,4.16,2.25,6.24,3.38,.99,2.01,2.8,2.32,4.77,2.28,2.05,.45,3.84,1.69,5.97,1.86,0,.08,0,.15-.02,.22Z"/>
    <path class="cls-2" d="M216.64,192.96c4.51,2.16,9,4.34,13.76,5.91,.61,3.97,.46,8.02,1.4,11.97,.64,2.7,1.76,5.23,2.45,7.91-1.33-.35-2.69-.41-4.05-.4-.95-.6-1.89-1.19-2.84-1.79-.37-1.88,.81-3.54,.71-5.44-.2-3.83-3.65-6.38-7.34-5.23-1.5,.47-2.86,1.22-4.25,1.91-1.33,.66-4.62-.34-5.28-1.61-.12-.23-.21-.62-.1-.81,.84-1.39,.5-2.92,.61-4.4,1.25,.09,1.02-.84,.99-1.54-.05-1.03,.41-1.3,1.36-1.2,1.67,.19,2.93-1.45,2.16-2.89-.54-1.01-.4-1.72,.43-2.4Z"/>
    <path class="cls-7" d="M216.64,192.96c-.83,.68-.98,1.39-.43,2.4,.77,1.44-.49,3.08-2.16,2.89-.95-.11-1.41,.17-1.36,1.2,.03,.7,.26,1.62-.99,1.54-.82-3.39-3.64-4.79-6.7-3.25-1.97,.99-3.87,2.13-6.19,1.17-.76-1.44-2.85-1.55-3.31-3.33-.04-.15-.62-.17-.94-.25-.08-.09-.15-.18-.23-.27-.01-.37-.1-.75,.24-1.03,1.62,.09,3.35-.34,4.69,1.09,.37,.4,.92,.34,1.45,.07,1.17-.61,2.32-1.14,3.1-2.35,1.39-2.17,3.15-3.95,5.99-4.05,2.28,1.39,4.56,2.79,6.84,4.18Z"/>
    <path class="cls-18" d="M209.8,188.78c-2.84,.1-4.6,1.88-5.99,4.05-.78,1.21-1.93,1.75-3.1,2.35-.52,.27-1.07,.33-1.45-.07-1.34-1.43-3.07-.99-4.69-1.09-.26-1.76,1.05-2.78,2.05-3.78,2.8-2.78,3.83-6.17,3.94-9.96,2.6,2.36,4.89,5.05,7.69,7.22,.51,.4,1.24,.61,1.56,1.26Z"/>
    <path class="cls-16" d="M194.56,195.34c-.28,1.29,1.13,1.95,1.19,3.11-1.11,.86-1.91,.19-2.3-.71-.42-.98-.48-2.13,.87-2.66,.08,.09,.15,.18,.23,.26Z"/>
    <path class="cls-16" d="M227.35,216.56c.95,.6,1.89,1.19,2.84,1.79-1.03,.74-2.38,.68-3.26,.27-1.52-.72-.18-1.44,.42-2.05Z"/>
    <path class="cls-1" d="M137.31,204.05c1.03,.85,1.57,2.17,2.75,2.89,5.45,6.23,12.17,10.86,19.09,15.27,.55,.35,1.31,.55,1.41,1.39-.17,.01-.46-.04-.5,.04-1.02,1.87-2.79,1.28-4.36,1.34-1.01,.04-2.08-.22-2.69,1.02-.25,.51-.89,.41-1.41,.23-1.2-.43-2.24,.17-3.29,.57-.41,.16-.95,.53-.81,1,.53,1.79-.87,1.93-1.91,2.39,.21-.52,.4-1.05,.63-1.56,.96-2.1,.28-3.23-2-3.28-.88-.74-1.91-1.12-3.01-1.42-1.66-.46-2.35-1.77-2.55-3.36-.18-1.45,.13-2.86,.67-4.22,.57-1.43,.01-2.65-1.48-2.74-1.23-.07-2.19-.6-3.19-1.13-.35-1.62-.74-3.24-.39-4.91,.89-.43,1.24-1.27,1.54-2.11,.27-.76,.67-1.3,1.5-1.43Z"/>
    <path class="cls-6" d="M134.66,212.49c1.01,.53,1.96,1.06,3.19,1.13,1.49,.09,2.05,1.3,1.48,2.74-.54,1.36-.84,2.76-.67,4.22,.19,1.58,.88,2.89,2.55,3.36,1.1,.3,2.13,.68,3.01,1.42,.29,1.96,.24,3.93-.04,5.89-.95,1.15-2.05,2.2-2.8,3.47-1.31,2.22-1.25,4.6-.28,6.97-1.25,1.41-2.26,1.53-3.42,.17-.88-1.03-1.87-1.98-2.2-3.44-.24-1.09-1.26-1.54-2.38-1.61,.33-5.28-.61-10.33-2.87-15.12-.23-.49-.29-.99-.25-1.51,1.07-2.85,3.16-5.09,4.67-7.68Z"/>
    <path class="cls-10" d="M166.23,241.37c-.49,2.95,.42,4.06,3.38,4.13,.46,.01,.92-.04,1.33,.26,.26,.46,.69,.45,1.13,.39,0,0,.06-.03,.06-.03-.89,1.62-4.21,2.04-5.27,.61-.37-.5-.66-.51-1.13-.33-.87,.34-1.58,0-2.17-.6-.7-.7-.42-1.52-.06-2.23,.57-1.12,1.16-2.29,2.74-2.18Z"/>
    <path class="cls-6" d="M146.01,250.03c-2.06-1.35-3.18-4.06-2.45-5.95,1.31,.25,2.62,.5,3.93,.75-.23,1.1-.41,2.21-.29,3.34-.4,.62-.8,1.24-1.19,1.86Z"/>
    <path class="cls-1" d="M160.56,223.61c1.62,.05,2.7,1.12,3.83,2.08-.79,1.55-2.05,1.17-3.23,.71-1.5-.59-1.19-1.69-.6-2.79Z"/>
    <path class="cls-16" d="M152.58,258.7c-.47-.23-.93-.46-1.4-.69,.16-.59-.4-1.48,.67-1.68,.46-.09,.99-.05,1.21,.43,.33,.73,.35,1.46-.48,1.94Z"/>
    <path class="cls-10" d="M163.06,274.04c-.59,.47-1.18,.93-1.77,1.4,0-1.99,.05-2.03,1.77-1.4Z"/>
    <path class="cls-18" d="M121,201.02c.68,2.51,.12,5.12,.65,7.64-.51,0-.86-.3-1.17-.65-5.22-5.81-10.66-11.44-15.66-17.45-.14-.16-.15-.43-.22-.64,.24-.65,.74-.79,1.36-.69,1,2.55,2.46,3.44,5.04,3.06,2.29-.33,4.16,1.22,4.36,3.61,.32,3.8,1.86,5.19,5.64,5.11Z"/>
    <path class="cls-18" d="M93.44,169.78c.5-.62,1.17-.35,1.79-.33,.7,.8,1.4,1.6,2.1,2.4,.71,1.61,1.48,3.19,2.12,4.83,.53,1.36,1.36,2.21,2.88,2.22,.51,1.92-.35,3.75-.42,5.63-.04,.63-.09,1.26-.13,1.89-1.23-.15-1.51-1.35-2.14-2.09-1.62-1.91-3.34-3.77-4.47-6.05-.17-2.92-1.11-5.68-1.74-8.5Z"/>
    <path class="cls-5" d="M101.79,186.43c.04-.63,.09-1.26,.13-1.89,1.12,.84,2.24,1.67,3.36,2.51,.23,.73,.46,1.46,.68,2.19-.62-.11-1.12,.03-1.36,.69-1.22-.94-2.37-1.93-2.81-3.49Z"/>
    <path class="cls-13" d="M180.03,150.42c-2.08-1.13-4.16-2.25-6.24-3.38-2.47-1.96-4.95-3.92-7.41-5.89-.22-.18-.4-.41-.59-.61,.14-1.34,.89-2.75-.11-3.98-1.51-1.86-3.15-3.62-4.73-5.43-.19-.48-.46-.94-.55-1.44-.18-1.04-.65-2.21,.46-3,1.16-.82,2.35-.39,3.35,.33,1.16,.83,2.2,1.82,3.29,2.74,.4,.48,.82,.94,1.21,1.43,2.34,2.95,2.69,3.04,6.27,1.39,5.42,4.37,11.47,7.58,18.1,9.72,1.93,.62,3.82,1.38,5.73,2.07-.05,.55-.34,1.05-.09,1.67,.37,.95-.13,1.72-.91,2.21-2.07,1.29-3.42,3.36-5.33,4.85-.55,.43-1.7,.34-1.7,1.44-2.13-.16-3.93-1.41-5.97-1.85-1.47-1.01-3.18-1.53-4.77-2.28Z"/>
    <path class="cls-6" d="M263.78,161.19c0,.54-.09,1.05-.73,1.15-.56,.09-.63-.34-.64-.76,0-.54,.09-1.05,.73-1.15,.56-.09,.62,.34,.64,.76Z"/>
    <path class="cls-7" d="M217.65,141.45c-.1-.04-.24-.06-.27-.13-.03-.07,.07-.19,.11-.28,.1,.04,.24,.06,.27,.13,.03,.07-.07,.19-.11,.28Z"/>
    <path class="cls-1" d="M105.97,189.23c-.23-.73-.46-1.46-.68-2.19-.1-.94,0-1.91,.48-2.68,.94-1.51,1.22-2.69-.87-3.39-.44-.15-.68-.6-.78-1.08,.85-.05,1.73,0,2.55-.17,.54-.11,1.34-.09,1.41-.97,2.79,1,5.7,1.28,8.63,1.42,1.41,.07,2.68,.45,3.65,1.63,1.24,1.51,2.87,2.45,4.8,2.84,.27,.37,.61,.7,.8,1.1,2.81,5.97,6.19,11.6,10.25,16.82,.21,.27,.34,.6,.5,.9-1.01-.01-1.95,.62-3,.34-3.82-.05-5.25-1.31-5.79-5.11-.24-1.68-.56-1.79-2.02-.81-1.61,1.08-3.27,2.11-4.9,3.15-3.78,.08-5.31-1.31-5.64-5.11-.2-2.4-2.07-3.94-4.36-3.61-2.58,.37-4.05-.52-5.04-3.06Z"/>
    <path class="cls-2" d="M125.16,184.62c-1.93-.39-3.56-1.32-4.8-2.84-.97-1.18-2.24-1.56-3.65-1.63-2.94-.14-5.84-.41-8.63-1.42-.39-.3-.79-.59-1.35-1.02,1-.5,1.86-.94,2.71-1.37,2.49-1.27,2.96-2.62,1.8-5.17-.97-2.14-2.25-4.13-2.91-6.42-.27-.93-.38-1.79,.09-2.66,.94-.8,1.95-1.3,3.2-.69,.56,1.54,1.24,2.99,2.7,3.91,.56,.65,1.2,1.26,1.47,2.12,.68,2.2,2.08,3.53,4.45,3.69,1.12,4.15,2.85,8.07,4.46,12.04,.19,.47,.3,.98,.44,1.46Z"/>
    <path class="cls-16" d="M120.26,171.12c-2.37-.15-3.77-1.49-4.45-3.69-.27-.86-.9-1.46-1.47-2.12,.13-1.08-.63-1.83-1.02-2.72,.82-1.49,2.07-.44,3.13-.52,1.94,2.14,1.93,5.16,3.37,7.53,.2,.34,.22,.79,.73,.85-.1,.22-.19,.44-.29,.66Z"/>
    <path class="cls-6" d="M133.72,203.78c1.04,.28,1.98-.35,3-.34,.38,.03,.54,.27,.6,.61-.83,.13-1.23,.67-1.5,1.43-.3,.84-.66,1.68-1.54,2.11-.48-1.22-.64-2.49-.55-3.8Z"/>
    <path class="cls-13" d="M92.81,175.78c.27,.08,.39,.26,.36,.54-.26-.09-.33-.3-.36-.54Z"/>
    <path class="cls-16" d="M19.44,79.5c-.13-10.35,3.32-19.48,9.2-27.78,1.77-2.5,5.32-2.62,6.7-.3,1.07,1.8,.28,3.45-.75,4.83-5.36,7.2-8.34,15.34-9.84,24.1-.24,1.41-.29,2.86-.44,4.29-.13,1.16-.47,2.19-1.85,2.34-1.4,.16-2.14-.77-2.61-1.86-.77-1.82-.21-3.78-.42-5.62Z"/>
    <path class="cls-16" d="M41.51,46.69c-3.35,0-5.31-2.64-4.3-5.82,1.31-4.12,5.75-7.67,9.51-7.75,3.08-.07,5.32,2.67,4.33,5.88-1.26,4.09-5.76,7.69-9.54,7.69Z"/>
    <path class="cls-1" d="M165.42,140.53c-1.52,1.23-3.02,2.48-4.56,3.69-2.45,1.92-4.34,1.6-6.11-.94-.95-1.37-1.95-2.71-3.01-3.99-.81-.98-.51-1.47,.53-1.91,2.5-1.05,4.92-2.25,6.91-4.15,1.91,2.58,4.13,4.89,6.24,7.31Z"/>
    <path class="cls-2" d="M165.42,140.53c-2.1-2.42-4.33-4.73-6.24-7.31,.05-.6-.51-.9-.68-1.39,.88,0,1.65-.37,2.44-.71,1.58,1.8,3.22,3.56,4.73,5.42,1,1.23,.25,2.65,.11,3.98-.12,0-.24,0-.36,0Z"/>
    <path class="cls-16" d="M103.26,178.36c-.31,.18-.62,.36-.92,.54-1.52,0-2.35-.86-2.88-2.22-.64-1.64-1.41-3.22-2.12-4.83,1.81-.37,2.88,.39,3.47,2.1,.55,1.6,2.14,2.65,2.46,4.4Z"/>
    <path class="cls-16" d="M103.52,179.14c-.07-.15-.13-.29-.2-.44,.07,.14,.13,.29,.2,.44Z"/>
    <path class="cls-15" d="M172.07,246.14c-.44,.06-.87,.08-1.13-.39,.42,.01,.9-.16,1.13,.39Z"/>
  </g>
</svg>