<?xml version="1.0" encoding="UTF-8"?>
<svg id="_레이어_2" data-name="레이어 2" xmlns="http://www.w3.org/2000/svg" xmlns:xlink="http://www.w3.org/1999/xlink" viewBox="0 0 2716.86 1019.42">
  <defs>
    <style>
      .cls-1 {
        fill: url(#linear-gradient-2);
      }

      .cls-2, .cls-3, .cls-4, .cls-5, .cls-6, .cls-7 {
        fill: #fff;
      }

      .cls-8 {
        opacity: .31;
      }

      .cls-9 {
        fill: #1c1e21;
      }

      .cls-9, .cls-7 {
        opacity: .27;
      }

      .cls-10 {
        fill: url(#linear-gradient-6);
      }

      .cls-11 {
        opacity: .38;
      }

      .cls-11, .cls-12 {
        fill: #012963;
      }

      .cls-3 {
        opacity: .48;
      }

      .cls-4 {
        opacity: .57;
      }

      .cls-13 {
        fill: url(#radial-gradient);
      }

      .cls-14 {
        opacity: .33;
      }

      .cls-14, .cls-15 {
        fill: #012f70;
      }

      .cls-16 {
        fill: url(#linear-gradient-5);
      }

      .cls-5 {
        opacity: .35;
      }

      .cls-6 {
        opacity: .15;
      }

      .cls-17 {
        fill: url(#linear-gradient-3);
      }

      .cls-18 {
        fill: url(#linear-gradient);
      }

      .cls-19 {
        opacity: .61;
      }

      .cls-20 {
        fill: url(#linear-gradient-4);
      }
    </style>
    <linearGradient id="linear-gradient" x1="1133.78" y1="711.15" x2="1183.7" y2="384.44" gradientUnits="userSpaceOnUse">
      <stop offset="0" stop-color="#1b548e"/>
      <stop offset="1" stop-color="#7dddff"/>
    </linearGradient>
    <linearGradient id="linear-gradient-2" x1="908.34" y1="613.6" x2="866.74" y2="954.69" gradientUnits="userSpaceOnUse">
      <stop offset="0" stop-color="#1b548e"/>
      <stop offset="1" stop-color="aqua"/>
    </linearGradient>
    <linearGradient id="linear-gradient-3" x1="1116.55" y1="639" x2="1074.95" y2="980.08" xlink:href="#linear-gradient-2"/>
    <linearGradient id="linear-gradient-4" x1="1903.77" y1="698.18" x2="1919.91" y2="766.41" xlink:href="#linear-gradient-2"/>
    <linearGradient id="linear-gradient-5" x1="2216.13" y1="587.33" x2="2761.66" y2="560.1" xlink:href="#linear-gradient-2"/>
    <linearGradient id="linear-gradient-6" x1="1340.88" y1="466.38" x2="1436.17" y2="221.35" xlink:href="#linear-gradient-2"/>
    <radialGradient id="radial-gradient" cx="704.48" cy="469.2" fx="704.48" fy="469.2" r="28.64" gradientUnits="userSpaceOnUse">
      <stop offset="0" stop-color="#ebc009"/>
      <stop offset="1" stop-color="#fbae17"/>
    </radialGradient>
  </defs>
  <g id="Layer_1" data-name="Layer 1">
    <g>
      <g>
        <g>
          <path class="cls-18" d="M2270.18,555.55c-6.05,5.77-12.39,11.12-18.97,16.1-2.86,2.19-5.78,4.3-8.73,6.36-3.96,2.75-7.99,5.38-12.08,7.92-28.86,17.9-60.88,30.94-92.47,43.51-53.7,21.39-107.93,41.7-164.18,55.32-9.69,2.34-19.4,4.52-29.14,6.55-3.42,.72-6.83,1.41-10.25,2.09-22.68,4.48-45.47,8.2-68.36,11.35-2.14,.31-4.3,.59-6.45,.88-78.68,10.53-158.3,14.76-237.31,21.55-120.88,10.4-241.98,14.12-363.11,5.01-64.28-4.84-127.82-14.33-191.04-25.87-4.12-.75-8.23-1.51-12.35-2.28-21.17-3.96-42.3-8.12-63.41-12.4-2.03-.41-4.07-.82-6.1-1.24-13.03-2.65-26.07-5.34-39.1-8.06,3.98-8.86,7.77-17.86,11.79-26.74,1.78-3.96,3.61-7.91,5.53-11.8,5.74-.43,11.41-1.31,17.1-2.67,9.52-2.26,19.32-4.39,28.35-8.11,1.23-.51,1.74-2.77,0-3.04-8.53-1.3-16.63,.79-25.04,2.23-5.11,.88-10.26,1.53-15.42,1.95-4.06,.33-8.12,.5-12.19,.52h-.63c-17.08,0-33.82-3.25-50.01-8.53-4.29-1.4-8.56-2.96-12.78-4.65-2.19-.88-4.36-1.8-6.53-2.76-7.07-3.11-13.97-6.64-20.62-10.5-6.75-3.93-12.98-8.35-19.07-13.22-2.64-2.1-5.27-4.13-7.73-6.44-2.36-2.22-4.31-5.09-7.22-6.62-.79-.41-2.08,.08-1.97,1.14,.64,5.89,6.75,11.98,10.71,16.05,5.41,5.58,12.12,10.18,18.62,14.38,7.18,4.63,14.69,8.79,22.42,12.5-2.49,3.67-5.02,7.32-7.49,10.99-4.69,6.91-9.23,13.91-13.08,21.38-.79,1.54-1.56,3.09-2.3,4.66-47.96-12.15-94.79-27.42-141.73-43.83-38.58-13.48-77.02-28.09-109.1-52.33-3.76-2.83-7.43-5.81-11.01-8.95,3.58-.65,7.16-1.46,10.73-2.32,6.13-1.46,13.06-3.41,18.91-6.23,.76-.37,1.5-.75,2.22-1.15,.38-.21,.32-.86-.13-.96-1.71-.38-3.52-.35-5.37-.07-4.85,.69-10.01,2.96-14.5,3.54-7.53,.97-15.21,2.04-22.79,2.39-15.61,.72-31.44-1.27-46.48-5.47-26.16-7.31-52.53-20.67-72.27-39.85,8.17-.6,16.33-1.36,24.47-2.44,2.05-.28,4.11-.56,6.15-.87,19.29-2.84,38.49-6.77,58.04-7.07,2.74-.04,2.67-3.98,0-4.2-21.55-1.74-42.81,.7-64.19,3.23-19.9,2.35-39.93,2.74-59.92,3.79-2.58,.14-5.14,.29-7.72,.44-2.14,.14-4.28,.27-6.42,.4-7.5,.46-15,.93-22.49,1.38-36.77,2.23-73.52,4.23-110.36,5.5-46.63,1.61-93.29,2.56-139.95,2.7-31.29,.09-62.62,.69-93.92,.12,44.57-7.78,88.88-17.21,133.43-25.21,16.11-2.89,32.26-5.61,48.46-7.99,75.6-11.09,151.1-23.02,226.73-33.87,74.99-10.76,150.07-20.48,222.58-43.29,34.81-10.95,68.93-23.93,102.95-37.09,27.32-10.57,54.92-22.52,83.65-29.08,2.69-.62,5.38-1.18,8.09-1.69,5.51-1.06,11.06-1.89,16.66-2.45,38.51-3.87,78.98,6.65,116.58,14.02,36.99,7.24,73.6,15.46,110.04,25.07,36.36,9.59,72.57,19.81,109.18,28.47,37.48,8.86,75.49,14.9,113.3,22.17,148.05,28.49,294.91,65.88,445.5,78.75,20.32,1.74,40.72,2.98,61.17,3.95,3.33,.16,6.65,.31,9.98,.45,121.31,5.23,244.05,1.91,361.82,34.31,1.17,.32,2.34,.64,3.51,.97,.83,.24,1.66,.47,2.49,.71,14.63,4.27,28.7,9.63,42.28,16.48Z"/>
          <path class="cls-6" d="M508.77,463.55c17.25,15.35,39.79,23.1,61.75,30.23,522.46,169.76,1089.9,198.83,1626.97,83.34-44.81-34.33-105.24-37.63-161.61-40.44-206.27-10.3-411.93-32.69-615.6-66.96-101.88-17.14-203.02-37.74-303.82-60.31-38.78-8.68-80.75-3.82-120.68-5.49-50.2-2.11-100.5-1.68-150.66,1.25-113.84,6.65-226.95,26.2-336.36,58.38Z"/>
          <g>
            <path class="cls-15" d="M867.62,665.08c-1.71,3.51-3.29,7.07-4.7,10.69-.07,.17-.13,.34-.2,.5-2.66-.63-5.3-1.26-7.95-1.92-.79-.2-1.59-.39-2.38-.58-55.86-13.74-110.9-32.59-164.79-52.62-34.48-12.82-69.29-28.58-97.57-52.41-3.42-2.88-6.73-5.87-9.95-9-1.04-1.01-2.07-2.03-3.09-3.07,6.4,.43,12.81,.44,19.21-.06,.51,.46,1.03,.92,1.55,1.35,3.57,3.14,7.25,6.11,11.01,8.95,32.08,24.24,70.53,38.85,109.1,52.33,46.94,16.41,93.77,31.67,141.73,43.83,2.68,.68,5.35,1.35,8.03,2Z"/>
            <path class="cls-15" d="M2281.89,557.8c-10.83,11.02-22.64,20.63-35.14,29.19-4.07,2.78-8.22,5.46-12.42,8.04-31.79,19.5-67.2,33.41-101.86,47.15-61.24,24.26-123.11,45.76-187.64,59.21-2.07,.43-4.15,.86-6.23,1.27-1.28,.26-2.57,.51-3.85,.76-18.97,3.72-38.01,6.97-57.14,9.84-2.63,.4-5.25,.79-7.88,1.18-94.38,13.7-190.36,18.68-285.15,26.25-125.19,10-251.68,11-376.66-2.33-46.04-4.91-91.8-12-137.34-20.21-4.13-.73-8.25-1.48-12.38-2.25-9.26-1.7-18.51-3.46-27.75-5.23-11.44-2.21-22.92-4.39-34.39-6.6-2.45-.47-4.91-.95-7.37-1.42-15.57-2.99-31.15-6.01-46.71-9.14-3.62-.72-7.25-1.46-10.87-2.2,1.71-3.74,3.43-7.49,5.14-11.24,3.63,.77,7.28,1.52,10.91,2.28,13.03,2.72,26.07,5.41,39.1,8.06,2.03,.42,4.07,.84,6.1,1.24,21.11,4.28,42.24,8.44,63.41,12.4,4.12,.77,8.23,1.53,12.35,2.28,63.22,11.54,126.76,21.03,191.04,25.87,121.12,9.11,242.22,5.39,363.11-5.01,79.02-6.79,158.63-11.03,237.31-21.55,2.15-.29,4.3-.57,6.45-.88,22.89-3.16,45.68-6.87,68.36-11.35,3.42-.68,6.83-1.37,10.25-2.09,9.74-2.02,19.45-4.21,29.14-6.55,56.25-13.63,110.48-33.94,164.18-55.32,31.59-12.57,63.61-25.61,92.47-43.51,4.09-2.54,8.12-5.17,12.08-7.92,9.73-6.76,19.01-14.18,27.7-22.46-13.58-6.85-27.65-12.21-42.28-16.48-.83-.24-1.66-.47-2.49-.71-1.17-.33-2.34-.65-3.51-.97-117.77-32.41-240.51-29.08-361.82-34.31-3.33-.15-6.65-.3-9.98-.45-20.45-.97-40.85-2.21-61.17-3.95-150.59-12.88-297.46-50.27-445.5-78.75-37.81-7.27-75.82-13.31-113.3-22.17-36.61-8.66-72.82-18.88-109.18-28.47-36.44-9.61-73.06-17.83-110.04-25.07-37.6-7.38-78.07-17.89-116.58-14.02-5.6,.56-11.15,1.39-16.66,2.45-2.71,.5-5.4,1.07-8.09,1.69-28.73,6.56-56.33,18.51-83.65,29.08-34.02,13.15-68.14,26.14-102.95,37.09-72.51,22.81-147.59,32.52-222.58,43.29-75.63,10.85-151.13,22.78-226.73,33.87-61,8.96-121.21,22.6-181.89,33.2,31.3,.57,62.63-.03,93.92-.12,46.66-.14,93.32-1.09,139.95-2.7,44.35-1.53,88.57-4.12,132.85-6.88,2.14-.14,4.28-.27,6.42-.4,2.58-.16,5.14-.31,7.72-.44,19.99-1.05,40.03-1.44,59.92-3.79,21.38-2.53,42.63-4.97,64.19-3.23,2.67,.22,2.74,4.16,0,4.2-21.62,.33-42.81,5.1-64.19,7.94-8.14,1.08-16.3,1.84-24.47,2.44-3.99,.3-7.99,.55-11.98,.8-3.54,.22-7.09,.42-10.63,.63-5.77,.33-11.53,.67-17.3,1.09-1.09,.07-2.18,.16-3.27,.24-46.38,3.51-92.79,5.67-139.27,7.22-46.63,1.56-93.29,2.45-139.95,2.53-47,.07-94.11,1.33-141.02-2.05-4.97-.36-6.82-8.5-1.26-9.28,18.82-2.61,37.64-5.27,56.31-8.78,38.36-7.2,76.48-15.6,114.95-22.22,38.44-6.62,77.16-11.75,115.75-17.49,76.83-11.41,153.61-23.06,230.41-34.53,37.89-5.66,75.78-11.88,112.97-21.16,36.11-9,71.41-20.92,106.28-33.86,34.45-12.77,68.32-27.64,103.3-38.9,9.63-3.1,19.39-5.8,29.3-7.85,2.82-.59,5.66-1.13,8.5-1.59,5.06-.85,10.14-1.5,15.26-1.94,17.58-1.5,34.97,.73,52.38,3.18,76.23,10.76,150.69,30,224.97,49.79,74.57,19.88,150.29,32.38,225.84,47.75,148.24,30.18,295.62,63.63,447.14,71.39,2.13,.11,4.28,.22,6.41,.32,1.36,.06,2.74,.13,4.1,.19,72.69,3.24,145.54,3.38,218.07,9.65,35.66,3.08,71.25,7.63,106.34,14.79,14.85,3.03,29.68,6.36,44.22,10.54,2.14,.61,4.28,1.24,6.4,1.9,16.75,5.13,33.08,11.49,48.61,19.91,2.8,1.52,3.14,5.5,.99,7.69Z"/>
            <path class="cls-15" d="M1009.92,633.04c-9.02,3.71-18.83,5.85-28.35,8.11-5.69,1.35-11.36,2.23-17.1,2.67-3.54,.28-7.11,.38-10.72,.31-.53,0-1.08-.02-1.61-.05-17.43-.51-34.99-3.92-51.26-10.14-3.96-1.51-7.89-3.12-11.78-4.84-2.22-.98-4.43-1.99-6.63-3.04-7.73-3.71-15.24-7.87-22.42-12.5-6.5-4.2-13.21-8.8-18.62-14.38-3.96-4.08-10.07-10.16-10.71-16.05-.11-1.06,1.18-1.55,1.97-1.14,2.9,1.52,4.86,4.39,7.22,6.62,2.46,2.31,5.1,4.33,7.73,6.44,6.08,4.87,12.31,9.29,19.07,13.22,6.65,3.86,13.55,7.39,20.62,10.5,2.16,.97,4.33,1.89,6.53,2.76,4.22,1.69,8.48,3.25,12.78,4.65,16.19,5.28,32.93,8.53,50.01,8.53h.63c4.08-.02,8.14-.2,12.19-.52,5.16-.41,10.31-1.07,15.42-1.95,8.41-1.44,16.51-3.53,25.04-2.23,1.74,.27,1.23,2.53,0,3.04Z"/>
            <path class="cls-1" d="M952.14,644.07c-5.49,11.91-10.43,24.1-15.88,35.96,0,0,0,.03-.02,.04-1.72,3.74-3.44,7.49-5.14,11.24-10.06,22.1-19.65,44.31-27.31,67.42-8.83,26.61-15.26,54.01-18.2,81.92-3.16,30.13-3.58,61.17-2.36,91.42,.6,14.89,1.26,29.88,2.55,44.72,.53,6.25,1.33,12.51,2.6,18.66-31.3-39.49-47.19-90.18-50.43-140.18h0c-.06-.8-.1-1.6-.15-2.39-1.73-30.5,.61-61.15,5.26-91.3,4.39-28.51,9.23-58.27,19.66-85.3,.07-.17,.13-.34,.2-.5,1.41-3.62,2.99-7.19,4.7-10.69,5.96-12.18,13.48-23.7,20.84-35.01,.21-.33,.42-.65,.63-.98,3.89,1.72,7.82,3.33,11.78,4.84,11.78,4.5,24.23,7.53,36.82,9.04,4.81,.59,9.64,.96,14.45,1.1Z"/>
            <path class="cls-15" d="M969.45,634.17c-1.74,3.17-3.39,6.39-4.99,9.64-6.2,12.62-11.56,25.72-17.32,38.54-1.39,3.1-2.81,6.19-4.28,9.25-.31,.63-.6,1.26-.91,1.91-23.32,49.15-42.42,101.48-46.67,156.09-2.31,29.56-2.99,59.66-1.42,89.26,.65,12.36,1.07,24.77,2.07,37.12,1,12.26,2.32,24.93,7.26,36.35,1.9,4.41-3.44,9.77-7.22,5.57-22.07-24.57-38.95-53.41-50.18-84.42-21.63-59.77-19.2-124.63-8.48-186.38,4.22-24.29,8.48-49.52,17.45-72.74,1.47-3.82,3.07-7.59,4.82-11.29,.74-1.57,1.51-3.12,2.3-4.66,5.89-11.42,13.41-21.77,20.58-32.37,1.65-2.41,3.27-4.84,4.85-7.3,2.16,.97,4.33,1.89,6.53,2.76-1.53,2.55-3.12,5.07-4.75,7.57-.21,.33-.42,.65-.63,.98-7.37,11.32-14.88,22.83-20.84,35.01-1.71,3.51-3.29,7.07-4.7,10.69-.07,.17-.13,.34-.2,.5-10.43,27.02-15.26,56.79-19.66,85.3-4.65,30.15-6.99,60.8-5.26,91.3,2.88,50.77,18.77,102.45,50.57,142.57-1.26-6.15-2.06-12.41-2.6-18.66-1.28-14.84-1.95-29.83-2.55-44.72-1.22-30.25-.8-61.29,2.36-91.42,2.93-27.91,9.37-55.31,18.2-81.92,7.66-23.1,17.25-45.32,27.31-67.42,1.71-3.74,3.43-7.49,5.14-11.24,0,0,0-.03,.02-.04,5.45-11.86,10.39-24.05,15.88-35.96,1.44-3.15,2.93-6.28,4.49-9.37h.63c4.08-.02,8.14-.2,12.19-.52Z"/>
            <path class="cls-17" d="M1197.14,901.16c-14.98-5.03-29.47-11.69-43.63-18.56-.82-.4-1.65-.8-2.47-1.21-19.38-9.48-38.48-19.71-56.41-31.76-18.71-12.57-35.99-27.34-50.19-44.9-15.44-19.1-26.99-41.59-35.91-64.38-4.67-11.93-8.75-24.05-12.49-36.28,11.47,2.2,22.95,4.38,34.39,6.6,9.24,1.78,18.49,3.53,27.75,5.23,1.26,5.54,2.71,11.03,4.37,16.45,.83,2.69,1.72,5.34,2.67,7.99,6.01,16.8,14.37,32.83,23.75,47.94,21.23,34.15,46.38,66.68,78.36,91.32,9.72,7.48,19.76,14.53,29.81,21.56Z"/>
            <path class="cls-15" d="M1223.09,919.19c-28.97-4.63-56.09-17.81-82.02-30.97-41.61-21.11-82.23-46.95-109.57-85.65-20.81-29.47-35.01-64.23-42.82-99.91-.9-4.07-1.71-8.16-2.43-12.24,2.03,.42,4.07,.84,6.1,1.24,1.19,4.16,2.43,8.29,3.69,12.42,3.74,12.22,7.82,24.35,12.49,36.28,8.92,22.79,20.47,45.28,35.91,64.38,14.2,17.56,31.48,32.33,50.19,44.9,18.69,12.57,38.65,23.14,58.88,32.98,14.16,6.87,28.65,13.54,43.63,18.56-10.05-7.03-20.09-14.08-29.81-21.56-31.98-24.64-57.13-57.17-78.36-91.32-10.86-17.49-20.33-36.21-26.41-55.92-1.67-5.42-3.11-10.91-4.37-16.45-.89-3.93-1.69-7.89-2.43-11.85,4.12,.77,8.23,1.53,12.35,2.28,.76,3.95,1.55,7.9,2.46,11.82,1.39,6.12,3.03,12.18,5.13,18.16,13.17,37.31,37.23,71.33,62.35,101.56,24.66,29.67,58.89,48.25,89.37,71.03,5.21,3.9,2.07,11.32-4.33,10.29Z"/>
            <path class="cls-20" d="M1934.83,713.27c-.04,17.12-1.01,34.32-1.32,51.3-3.01-2.47-5.65-5.6-8.2-8.65-1.49-1.79-2.95-3.54-4.44-5.11-7.4-7.82-15.97-14.51-23.96-21.7-6.23-5.6-12.69-10.83-19.3-15.85,19.13-2.87,38.17-6.12,57.14-9.84,.07,3.28,.1,6.57,.09,9.85Z"/>
            <path class="cls-15" d="M1944.83,701.39c.2,23.76-1.6,47.61-2.01,71.28-.05,2.74-3.02,5.73-5.94,4.53-8.58-3.52-14.17-10.57-20.07-17.42-6.78-7.85-14.58-14.85-21.95-22.14-8.13-8.04-16.55-15.7-25.12-23.2-3.37-2.95-6.75-5.88-10.16-8.8,2.15-.29,4.3-.57,6.45-.88,3.9,2.77,7.77,5.6,11.59,8.5,6.62,5.02,13.07,10.25,19.3,15.85,8,7.19,16.57,13.88,23.96,21.7,4.02,4.25,7.86,9.84,12.64,13.76,.38-20.25,1.68-40.79,1.23-61.16-.07-3.35-.19-6.68-.38-10.01,3.42-.68,6.83-1.37,10.25-2.09,.12,3.36,.19,6.71,.21,10.07Z"/>
            <path class="cls-15" d="M2714.14,164.07c-14.95,9.56-26.72,23.23-41.1,33.62-7.69,5.55-15.65,10.71-22.92,16.82-7.48,6.28-14.42,13.26-21.38,20.1-25.01,24.58-47.76,50.96-70.3,77.78-23.38,27.8-47.02,55.4-70.55,83.08-23.52,27.66-46.93,55.39-69.89,83.51-11.17,13.68-21.94,27.61-32.27,41.92-8.76,12.15-18.6,32.4-28.23,44.69-.44,.56-.88,1.11-1.32,1.64-.94,1.12-.57-3.17-1.64-3.15-1.77,.04-2.66-1.45-5.17-1.3-.13-1.54-.24-3.08-.35-4.62,2.48-2.86,6.09-7.03,6.62-7.74,4.66-6.32,8.25-13.4,12.22-20.16,4.76-8.11,10.44-15.62,16.01-23.18,11.63-15.8,23.98-31,36.44-46.14,46.58-56.59,94.84-111.76,141.82-168,22.49-26.93,46.26-52.59,71.71-76.73,12.22-11.58,26.14-20.79,39.1-31.47,4.69-3.87,9.05-8.09,13.41-12.31-15.17,4.29-30.37,8.43-45.38,13.25-22.88,7.35-44.69,17.06-66.15,27.78-73.4,36.69-140.04,84.47-200.26,140.08-31.57,29.16-61.76,59.88-86.69,95-18.94,26.67-40.36,52.54-55.58,81.67-1.54,2.92-3,5.87-4.39,8.87-.83-.24-1.66-.47-2.49-.71-1.17-.33-2.34-.65-3.51-.97,1.25-3.07,2.59-6.09,4-9.08,6.34-13.5,14.1-26.27,22.51-38.71,13.18-19.48,26.81-38.85,40.73-57.8,25.83-35.13,56.77-66.28,88.71-95.83,30.39-28.11,62.77-54.17,96.82-77.71,34.44-23.82,70.68-44.91,108.61-62.65,19.74-9.23,39.79-17.22,60.65-23.55,21.78-6.63,43.9-12.08,65.66-18.78,6.64-2.04,10.01,7.31,4.55,10.79Z"/>
            <path class="cls-16" d="M2686.35,172.42c-4.35,4.23-8.72,8.44-13.41,12.31-12.96,10.67-26.88,19.89-39.1,31.47-1.25,1.18-2.5,2.38-3.74,3.57-2.25,2.15-4.48,4.33-6.7,6.52-21.54,21.16-41.88,43.43-61.27,66.64-2.67,3.19-5.32,6.37-8,9.55-44.44,52.94-89.87,105.08-133.82,158.45-12.46,15.14-24.81,30.34-36.44,46.14-5.57,7.56-11.25,15.08-16.01,23.18-3.97,6.76-7.56,13.84-12.22,20.16-.52,.71-4.14,4.88-6.62,7.74,.11,1.54,.22,3.08,.35,4.62,1.42,17.68,4.14,35.3,7.65,52.56,1.92,9.4,4.09,18.75,6.5,28.03,5.51,21.36,12.23,42.41,19.86,63.11,.97,2.67,1.96,5.32,2.97,7.97,24.4,64.12,58.03,125.56,100.8,179.3,19.46,24.45,41.39,46.65,63.84,68.32-51.37-29.36-96.44-69.95-135.7-113.83-.69-.76-1.36-1.52-2.04-2.28-48.78-54.92-90.16-116.22-127.76-179.18-10.37-17.37-19.87-34.73-27.69-53.41-3.66-8.78-7.14-17.68-11.06-26.37,10.72-7.35,20.93-15.45,30.46-24.58,1.58-1.51,3.14-3.04,4.68-4.61,2.15-2.19,1.82-6.17-.99-7.69-10.67-5.79-21.73-10.59-33.04-14.7-5.14-1.88-10.34-3.59-15.57-5.2,15.22-29.13,36.64-55,55.58-81.67,24.93-35.12,55.12-65.85,86.69-95,60.22-55.61,126.86-103.39,200.26-140.08,21.47-10.72,43.28-20.44,66.15-27.78,15.01-4.82,30.21-8.97,45.38-13.25Z"/>
            <path class="cls-15" d="M2576.24,985.99c-36.57-17.16-69.96-40.8-101.07-66.41-56.6-46.61-104.29-103.05-146.44-162.82-21.59-30.61-41.85-62.17-61.4-94.13-13.14-21.5-23.08-44.54-33.02-67.62-1.3-3.03-2.61-6.06-3.92-9.09,4.09-2.54,8.12-5.17,12.08-7.92,1.5,2.95,2.91,5.95,4.27,8.98,3.92,8.69,7.4,17.59,11.06,26.37,7.82,18.68,17.32,36.04,27.69,53.41,37.6,62.95,78.98,124.26,127.76,179.18,39.75,44.76,85.49,86.24,137.75,116.11-22.45-21.66-44.38-43.87-63.84-68.32-42.77-53.73-76.4-115.18-100.8-179.3-12.26-32.24-22.43-65.3-29.32-99.11-3.52-17.26-6.23-34.87-7.65-52.56-.13-1.54-.24-3.08-.35-4.62,2.48-2.86,6.09-7.03,6.62-7.74,.43,3.85,.9,7.7,1.39,11.54,.16,1.21,.32,2.43,.47,3.63,2.67,20.24,6.1,40.35,10.64,60.38,15.21,66.96,41.91,131.1,77.05,190.03,17.47,29.29,36.98,57.56,59.26,83.39,24.14,27.98,51,53.44,77.65,78.99,4.24,4.05-1.16,9.83-5.87,7.61Z"/>
            <path class="cls-10" d="M1846.75,492.83c-151.52-7.76-298.9-41.2-447.14-71.39-75.55-15.37-151.28-27.87-225.84-47.75-74.28-19.8-148.74-39.03-224.97-49.79-17.41-2.45-34.8-4.68-52.38-3.18-5.11,.43-10.2,1.09-15.26,1.94,3.9-10.69,8.21-21.24,12.38-31.68,11.08-27.75,20.2-56.26,32.68-83.43,13.07-28.47,28.34-55.87,43.98-82.99,4.78-8.29,9.9-16.29,15.26-24.11,10.71-15.68,22.31-30.69,33.7-46.05,1.47-1.98,2.94-4.04,4.44-6.13,9.29-13.01,19.21-27.38,32.85-35.29,5.96-3.45,12.79-4.06,17.6,1.63,4.78,5.64,6.23,13.68,8.7,20.45,1.96,5.39,4.21,10.84,8.06,15.05,1.16,1.28,2.49,2.44,3.99,3.46,.53,.36,1.07,.68,1.6,.98,8.94,4.98,18.5,2.12,27.98-.27,1.42-.36,2.85-.6,4.28-.73,3.14-.29,6.27-.03,9.31,.67,8.42,1.93,16.18,7.25,21.92,13.72,5.65,6.38,8.68,14.62,14.01,21.13,1.55,1.9,3.3,3.64,5.36,5.14,.04,.04,.09,.08,.14,.11,11.53,8.31,25.28,3.16,38.11,2.54,4.3-.22,8.69-.32,12.95,.3,2.27,.32,4.5,.83,6.67,1.64,.78,.29,1.54,.61,2.28,.98,4.62,2.22,8.5,5.68,12.3,9.08,7.51,6.73,14.58,8.82,24.68,7.53,5.04-.64,9.98-2.06,15.02-2.65h0c.32-.04,.61-.07,.93-.1,3.18-.3,5.85,.32,8.31,1.67,1.46,.79,2.84,1.85,4.21,3.13,5.17,4.86,8.75,10.96,12.51,16.9,3.05,4.81,6.45,9.22,10.15,13.5,.52,.61,1.06,1.21,1.59,1.82,1.04,1.17,2.1,2.33,3.19,3.5,7.55,8.09,16.22,15.76,26.94,18.77,.64,.19,1.29,.36,1.95,.5,1.95,.43,4.12,.71,6.03,1.47,.63,.24,1.23,.53,1.8,.91,2.25,1.49,4,3.88,5.94,5.73,4.21,4.03,9.14,5.82,14.99,5.91,6.13,.11,12.12-1.89,18.28-1.41,2.88,.23,5.73,.91,8.35,2.07,2.19,.96,4.24,2.24,6.01,3.84,.25,.23,.49,.45,.73,.69,7.67,7.55,11.72,18.19,18.36,26.58,.96,1.21,1.96,2.33,3.02,3.36,1.86,1.81,3.86,3.34,5.99,4.63,5.51,3.32,11.89,5.01,18.75,5.44,4.16,.27,8.78-.41,12.77,1.02,1.32,.47,2.53,1.17,3.64,2.03,1.75,1.33,3.27,3.04,4.65,4.84,1.32,1.72,2.52,3.52,3.66,5.15,5.49,7.84,10.34,16.12,15.86,23.93,1.14,1.61,2.3,3.21,3.51,4.77,.37,.47,.73,.94,1.11,1.4,5.4,6.79,11.65,12.89,18.95,17.52,1.98,1.28,4.06,2.44,6.2,3.47,.02,.02,.05,.03,.07,.04,10.62,5.11,22.04,8.27,33.59,10.58,2.69,.54,5.38,1.05,8.07,1.5h0c.72,.13,1.42,.25,2.13,.37,13.73,2.28,27.59,4,41.17,7.09,.58,.13,1.18,.27,1.76,.4,1.79,.42,3.71,.9,5.71,1.46,9.98,2.82,21.55,7.73,24.4,17.84,.25,.9,.44,1.82,.6,2.74,.43,2.54,.57,5.14,.81,7.72,.1,1.06,.22,2.11,.39,3.16,.84,5.33,2.47,10.59,5.14,15.3,1.16,2.04,2.5,3.91,4,5.62,1.62,1.87,3.43,3.55,5.38,5.08,3.61,2.81,7.72,5.06,12.05,6.82,6.76,2.77,14.44,4.4,21.9,6.41,2.16,.57,4.3,1.18,6.4,1.87,9.81,3.16,18.65,7.81,23.76,17.68,.4,.78,.79,1.57,1.17,2.36,.82,1.71,1.59,3.45,2.33,5.19,.65,1.53,1.28,3.07,1.93,4.6,2.63,6.28,5.37,12.46,9.89,17.85,.87,1.03,1.78,2,2.72,2.92,1.64,1.6,3.4,3.06,5.23,4.39,5.7,4.13,12.23,7.12,18.77,9.77,.4,.16,.8,.32,1.19,.47,1.33,.51,2.7,1,4.08,1.44,1.94,.65,3.94,1.24,5.94,1.8h0c20.16,5.59,42.58,7.83,53.67,27.91,1.02,1.83,1.9,3.71,2.68,5.65Z"/>
            <path class="cls-15" d="M1860.07,503.08c-3.33-.15-6.65-.3-9.98-.45-.97-3.31-2.02-6.61-3.34-9.79-.78-1.94-1.66-3.82-2.68-5.65-11.1-20.08-33.51-22.32-53.67-27.91h0c-2-.55-4-1.15-5.94-1.8-1.8-.58-3.55-1.21-5.27-1.92-6.54-2.66-13.07-5.65-18.77-9.77-1.84-1.33-3.59-2.79-5.23-4.39-.94-.92-1.85-1.9-2.72-2.92-5.63-6.7-8.5-14.63-11.82-22.45-.74-1.75-1.51-3.49-2.33-5.19-.38-.79-.76-1.58-1.17-2.36-5.1-9.87-13.94-14.52-23.76-17.68-2.09-.68-4.24-1.29-6.4-1.87-7.46-2-15.14-3.63-21.9-6.41-4.32-1.77-8.43-4.01-12.05-6.82-1.96-1.52-3.76-3.21-5.38-5.08-1.5-1.71-2.84-3.57-4-5.62-2.68-4.71-4.3-9.97-5.14-15.3-.17-1.05-.29-2.1-.39-3.16-.24-2.58-.38-5.18-.81-7.72-.16-.93-.36-1.85-.6-2.74-2.84-10.11-14.42-15.02-24.4-17.84-1.99-.56-3.92-1.04-5.71-1.46-.58-.14-1.18-.28-1.76-.4-13.59-3.09-27.44-4.81-41.17-7.09-.71-.12-1.41-.24-2.13-.37h0c-2.69-.45-5.38-.96-8.07-1.5-11.55-2.31-22.97-5.47-33.59-10.58-.02,0-.05-.02-.07-.04-2.14-1.03-4.22-2.18-6.2-3.47-7.3-4.63-13.55-10.72-18.95-17.52-.38-.46-.74-.93-1.11-1.4-1.2-1.56-2.37-3.16-3.51-4.77-5.52-7.81-10.37-16.09-15.86-23.93-1.15-1.64-2.34-3.44-3.66-5.15-1.38-1.8-2.9-3.51-4.65-4.84-1.12-.86-2.32-1.56-3.64-2.03-3.99-1.43-8.61-.75-12.77-1.02-6.86-.43-13.24-2.12-18.75-5.44-2.13-1.29-4.14-2.82-5.99-4.63-1.06-1.03-2.06-2.14-3.02-3.36-6.64-8.39-10.68-19.03-18.36-26.58-.24-.24-.48-.46-.73-.69-1.78-1.6-3.82-2.88-6.01-3.84-2.63-1.17-5.47-1.85-8.35-2.07-6.16-.47-12.14,1.52-18.28,1.41-5.85-.1-10.78-1.89-14.99-5.91-1.95-1.85-3.69-4.24-5.94-5.73-.56-.38-1.17-.67-1.8-.91-1.92-.76-4.08-1.04-6.03-1.47-.66-.15-1.31-.32-1.95-.5-10.71-3.01-19.38-10.68-26.94-18.77-1.09-1.17-2.15-2.33-3.19-3.5-.53-.6-1.07-1.2-1.59-1.82-3.7-4.28-7.1-8.69-10.15-13.5-3.76-5.94-7.34-12.05-12.51-16.9-1.36-1.28-2.74-2.34-4.21-3.13-2.46-1.35-5.13-1.96-8.31-1.67-.32,.03-.61,.06-.93,.1h0c-5.04,.58-9.98,2-15.02,2.65-10.1,1.28-17.17-.8-24.68-7.53-3.8-3.41-7.68-6.86-12.3-9.08-.74-.37-1.5-.69-2.28-.98-2.17-.81-4.4-1.32-6.67-1.64-4.27-.61-8.65-.51-12.95-.3-12.84,.62-26.58,5.78-38.11-2.54-.05-.03-.1-.07-.14-.11-2.06-1.5-3.81-3.25-5.36-5.14-5.33-6.51-8.36-14.75-14.01-21.13-5.74-6.48-13.5-11.8-21.92-13.72-3.04-.7-6.17-.96-9.31-.67-1.42,.13-2.85,.38-4.28,.73-9.48,2.39-19.05,5.24-27.98,.27-.53-.3-1.07-.62-1.6-.98-1.5-1.02-2.82-2.17-3.99-3.46-3.85-4.21-6.09-9.66-8.06-15.05-2.47-6.76-3.92-14.81-8.7-20.45-4.82-5.69-11.64-5.08-17.6-1.63-15.83,9.17-26.65,27.05-37.29,41.42-17.07,23.04-34.61,45.25-48.96,70.16-15.64,27.12-30.9,54.52-43.98,82.99-12.48,27.17-21.6,55.69-32.68,83.43-4.18,10.45-8.48,20.99-12.38,31.68-1.21,3.32-2.39,6.64-3.5,9.99-2.71,.5-5.4,1.07-8.09,1.69,.25-.85,.49-1.7,.75-2.55,.76-2.53,1.54-5.04,2.34-7.54,8.03-25.26,18-49.87,26.37-75.01,10.04-30.13,23.56-59,38.33-87.07,14.69-27.9,29.95-55.68,48.24-81.4,7.73-10.87,16.08-21.24,23.95-31.99,5.59-7.64,10.99-15.44,17.07-22.7,10.14-12.1,27.73-31.87,45.64-24.47,16.31,6.74,14.21,26.38,21.95,39.35,.52,.87,1.08,1.66,1.66,2.36,1.71,2.04,3.68,3.42,5.84,4.26,4.93,1.94,10.81,1.14,16.65-.6,5.96-1.79,11.56-2.88,17.67-2.13,.51,.06,1.04,.14,1.57,.23,2.35,.4,4.67,1,6.94,1.76,3.8,1.29,7.45,3.06,10.8,5.2,10.52,6.72,16.18,16.17,22.55,26.5,.72,1.17,1.49,2.3,2.31,3.37,1.53,1.99,3.27,3.75,5.3,5.09,1.8,1.18,3.83,2.04,6.16,2.44,6.71,1.15,13.75-.78,20.4-1.58,8.38-1.01,16.89-.99,24.82,1.17,2.91,.8,5.76,1.89,8.47,3.32,1.81,.95,3.56,2.04,5.25,3.32,3.79,2.84,7.05,6.35,10.84,9.15,3.41,2.51,7.14,2.79,11.28,2.52,9.13-.63,18.58-4.79,27.6-2.42,1.14,.31,2.26,.71,3.39,1.23,1.46,.69,2.83,1.49,4.13,2.4,8.99,6.25,14.28,17.14,20.27,25.95,1.95,2.85,4.14,5.6,6.46,8.23,1.56,1.79,3.19,3.52,4.85,5.22,.91,.94,1.83,1.86,2.74,2.76,5.01,4.96,10.99,10.55,17.86,12.69,2.17,.67,4.35,1.11,6.49,1.63,2.53,.61,5,1.33,7.28,2.72,.64,.38,1.26,.81,1.88,1.31,4.62,3.79,7.14,8.54,13.62,8.94,6.36,.39,12.58-1.84,18.98-1.4,5.34,.37,10.85,1.8,15.51,4.53,.43,.26,.87,.52,1.29,.81,1.55,1.03,2.98,2.18,4.31,3.44,6.38,5.96,10.66,14.2,15.24,21.48,1.93,3.06,3.92,6.17,6.43,8.79,1.09,1.14,2.27,2.18,3.58,3.08,.78,.53,1.59,1.01,2.42,1.42,4.19,2.13,8.98,2.92,13.64,3.13,4.53,.21,9.2-.14,13.61,1.15,3,.88,5.64,2.44,7.98,4.41,1.71,1.42,3.27,3.08,4.68,4.84,0,0,.02,.03,.03,.04,7.34,9.12,13.26,19.63,20.02,29.31,1.53,2.2,3.11,4.35,4.76,6.44,5.17,6.56,11.06,12.44,18.45,16.82,1,.61,2.01,1.18,3.07,1.72,1.1,.56,2.2,1.1,3.31,1.6,11.11,5.13,22.99,7.97,35.08,10.07,2.7,.46,5.39,.9,8.09,1.31,14.3,2.16,28.74,3.79,42.46,7.39,.34,.09,.68,.18,1.02,.28,2.42,.65,4.88,1.41,7.33,2.3,9.05,3.29,17.81,8.35,22.79,16.62,.9,1.49,1.59,3.05,2.11,4.66,.72,2.17,1.16,4.43,1.49,6.73h0c.83,5.84,.95,11.89,3.1,17.39,1.18,3.04,2.78,5.63,4.68,7.85,1.67,1.96,3.58,3.64,5.68,5.1,9.73,6.79,23.35,8.84,34.78,12.16,1.18,.35,2.33,.7,3.46,1.08,.96,.32,1.89,.65,2.81,1.02h0c9.39,3.54,17.46,8.84,22.73,17.82,.47,.82,.93,1.65,1.36,2.49,.88,1.7,1.67,3.46,2.43,5.22,3.39,7.97,5.96,16.37,11.66,23.06,.63,.74,1.27,1.45,1.95,2.12,1.64,1.69,3.39,3.19,5.22,4.55,7.18,5.29,15.72,8.36,24.6,10.77,2.19,.6,4.4,1.16,6.62,1.69,8.91,2.17,17.88,4.07,25.89,7.25,11.85,4.69,22.28,12.48,28.53,23.78,1.97,3.57,3.53,7.27,4.81,11.04,1.1,3.2,1.99,6.46,2.81,9.75Z"/>
            <path class="cls-15" d="M1101.72,47.58c-1.79,2.3-3.55,4.62-5.3,6.95-16.06,21.29-30.95,43.45-44.52,66.41-20.42,34.55-36.94,71.04-52.35,108.05-.56,1.35-2.71,.88-2.27-.63,6.25-21.91,14.64-42.69,24.38-63.28,17.44-36.87,38.41-72.05,62.1-105.24,2.33-3.27,4.69-6.51,7.08-9.74,1.67-2.27,3.35-4.52,5.06-6.77,1.71,2.04,3.68,3.42,5.84,4.26Z"/>
            <path class="cls-15" d="M1144.55,46.83c-2.22,2.39-4.39,4.81-6.5,7.29-.03,.03-.05,.06-.07,.09-40.94,48.31-68.95,105.57-94.8,162.9-.5,1.11-2.24,.31-1.93-.81,4.88-16.74,10.84-32.76,17.91-48.7,13.36-30.12,29.35-58.91,48.22-85.94,6.73-9.64,13.81-19.04,21.28-28.12,2.41-2.93,4.86-5.83,7.37-8.69,.51,.06,1.04,.14,1.57,.23,2.35,.4,4.67,1,6.94,1.76Z"/>
            <path class="cls-15" d="M1185.51,86.98c-2.1,2.39-4.19,4.8-6.24,7.22-34.48,40.4-64.76,84.41-82.79,134.82-.57,1.59-2.88,.97-2.54-.69,3.5-16.48,9.05-31.7,16.55-46.76,13.68-27.52,31.29-52.93,50.41-76.93,4.22-5.29,8.56-10.48,13.01-15.58,2.07-2.4,4.18-4.79,6.3-7.16,1.53,1.99,3.27,3.75,5.3,5.09Z"/>
            <path class="cls-15" d="M1245.37,92.33c-1.99,2.46-3.97,4.94-5.93,7.43-16.03,20.26-31.3,41.28-45.94,62.45-18.9,27.32-35.1,56.54-48.4,86.99-.79,1.8-3.67,.48-3.12-1.31,5.61-18.41,13.39-35.59,22.58-52.49,15.89-29.2,35.23-56.36,54.69-83.26,3.65-5.06,7.41-10.06,11.24-15,2.11-2.73,4.26-5.44,6.42-8.13,2.91,.8,5.76,1.89,8.47,3.32Z"/>
            <path class="cls-15" d="M1307.85,108.54c-2.41,2.22-4.79,4.48-7.16,6.76-20.83,20.05-40.23,41.52-60.2,62.44-21.48,22.48-44.6,45.78-58.26,74.08-.45,.93-2.06,.26-1.68-.71,6.25-15.92,15.34-30.99,26.05-44.32,10.15-12.65,21.24-24.51,32.26-36.4,11.51-12.42,22.73-25.12,34.31-37.49,5.99-6.41,12.07-12.85,18.28-19.16h0c2.92-2.98,5.88-5.92,8.89-8.83,1.14,.31,2.26,.71,3.39,1.23,1.46,.69,2.83,1.49,4.13,2.4Z"/>
            <path class="cls-15" d="M1339.43,147.94c-2.38,2.06-4.78,4.11-7.09,6.2-.24,.21-.47,.42-.71,.64-11.38,10.39-20.93,22.74-30.85,34.49-10.39,12.3-21.31,24.04-30.89,37.01-8.99,12.15-17.38,24.97-25.08,37.97-1.07,1.8-3.5,.22-2.72-1.59,12.26-28.77,31.53-52.84,51.7-76.44,10.09-11.81,19.72-24.34,31.09-34.95,.88-.82,1.78-1.64,2.68-2.44,2.3-2.07,4.66-4.09,7.02-6.11,1.56,1.79,3.19,3.52,4.85,5.22Z"/>
            <path class="cls-15" d="M1373.8,167.74c-2.2,2.37-4.37,4.75-6.54,7.15-.9,.99-1.78,1.97-2.67,2.96-10.38,11.6-20.41,23.52-29.93,35.84-9.67,12.52-19.17,25.14-27.9,38.34-8.5,12.85-16.33,26.18-24.37,39.32-.75,1.22-2.96,.4-2.4-1.01,11.37-28.83,28.99-55.86,47.98-80.26,9.83-12.64,20.18-24.85,30.9-36.73,.13-.15,.27-.29,.39-.43,2.4-2.65,4.81-5.27,7.25-7.89,2.53,.61,5,1.33,7.28,2.72Z"/>
            <path class="cls-15" d="M1429.38,185.36c-2.28,2.15-4.53,4.34-6.75,6.58-37.16,37.08-66.4,81.27-104.51,117.45-.74,.71-1.79-.36-1.12-1.11,10.82-12.12,20.85-24.94,31.01-37.62,17.98-22.42,35.12-45.54,54.15-67.11,4.68-5.29,9.48-10.46,14.45-15.45,2.34-2.37,4.73-4.69,7.16-6.98,.43,.26,.87,.52,1.29,.81,1.55,1.03,2.98,2.18,4.31,3.44Z"/>
            <path class="cls-15" d="M1457.05,220.13c-2.13,2.34-4.24,4.7-6.32,7.07-7.46,8.43-14.77,16.99-22.09,25.54-21.07,24.64-40.4,50.66-60.15,76.35-.9,1.17-2.81,.17-2.03-1.19,16.06-28.08,35.44-53.98,55.75-79.13,7.23-8.96,14.81-17.65,22.53-26.2,2.09-2.32,4.21-4.64,6.31-6.94,1.09,1.14,2.27,2.18,3.58,3.08,.78,.53,1.59,1.01,2.42,1.42Z"/>
            <path class="cls-15" d="M1496.95,233.66c-2.14,2.29-4.28,4.58-6.41,6.87-7.97,8.59-15.88,17.25-23.65,26.02-21.96,24.81-42.72,50.85-62.44,77.48-.58,.79-1.91,.08-1.35-.8,17.44-28.07,37.14-54.33,58.38-79.64,7.95-9.48,16.06-18.78,24.41-27.89,2.11-2.31,4.24-4.6,6.38-6.87,1.71,1.42,3.27,3.08,4.68,4.84Z"/>
            <path class="cls-15" d="M1521.76,269.44c-2.38,2.11-4.75,4.23-7.09,6.35-2.31,2.08-4.6,4.18-6.85,6.29-22.18,20.8-43.82,44.06-55.51,72.59-.81,1.96-3.95,1.24-3.29-.91,3.9-12.75,9.73-24.56,17.35-35.48,12.51-17.94,27.93-33.57,43.69-48.67,1.75-1.69,3.51-3.36,5.26-5.03,.56-.53,1.12-1.07,1.68-1.59,1.53,2.2,3.11,4.35,4.76,6.44Z"/>
            <path class="cls-15" d="M1546.6,289.58c-2.27,2.39-4.52,4.78-6.77,7.19-6.49,6.95-12.88,13.99-19.01,21.26-16.58,19.65-31.66,41.1-43.41,64.01-.61,1.18-2.61,.35-2.16-.91,8.82-24.56,23.86-45.99,40.05-66.24,5.88-7.37,11.97-14.6,18.34-21.58,2.15-2.38,4.35-4.73,6.6-7.04,1,.61,2.01,1.18,3.07,1.72,1.1,.56,2.2,1.1,3.31,1.6Z"/>
            <path class="cls-15" d="M1589.76,300.97c-2.74,2.63-5.48,5.27-8.21,7.93h0c-5.92,5.77-11.8,11.59-17.6,17.47-10.9,11.04-20.67,22.62-29.38,35.47-8.03,11.83-15.73,23.69-25.21,34.43-1.27,1.44-3.82-.5-2.68-2.06,8.78-12.02,16.21-24.99,24.37-37.42,8.16-12.41,17.36-23.68,27.55-34.47,4.83-5.1,9.81-10.06,14.89-14.91,2.72-2.61,5.45-5.18,8.2-7.74,2.7,.46,5.39,.9,8.09,1.31Z"/>
            <path class="cls-15" d="M1640.56,310.93c-.42,.38-.86,.75-1.28,1.13-2.32,2.04-4.64,4.1-6.95,6.16-8.62,7.68-17.16,15.46-25.48,23.47-21.41,20.59-41.84,42.87-58.69,67.38-.57,.83-1.88,.09-1.36-.79,15.14-26.09,34.07-48.83,55.34-70.11,7.43-7.43,15.04-14.66,22.73-21.81,2.78-2.59,5.57-5.16,8.37-7.72,2.42,.65,4.88,1.41,7.33,2.3Z"/>
            <path class="cls-15" d="M1666.96,338.94h0c-2.93,2.53-5.88,5.06-8.82,7.58-25.98,22.39-51.33,45.58-67.18,76.42-.79,1.52-2.93,.18-2.27-1.33,10.39-23.42,26.77-43.61,44.99-61.38,7.64-7.45,15.5-14.62,23.65-21.43,2.68-2.25,5.39-4.45,8.14-6.6,.72,2.17,1.17,4.43,1.49,6.73Z"/>
            <path class="cls-15" d="M1680.41,369.28c-2.48,2.1-4.94,4.24-7.37,6.4-18.49,16.31-35.59,33.85-47.08,56.47-.8,1.59-3.5,.45-2.87-1.21,8.52-23.09,24.47-41.34,42.13-58.05,.81-.77,1.62-1.53,2.44-2.28,2.33-2.17,4.69-4.31,7.07-6.43,1.67,1.96,3.58,3.64,5.68,5.1Z"/>
            <path class="cls-15" d="M1721.47,383.54c-2.7,2.41-5.4,4.81-8.08,7.24-3.53,3.18-7.03,6.41-10.41,9.76-14.09,13.96-24.62,30.89-38.02,45.46-1.28,1.39-3.18-.63-2.04-2.04,12.33-15.36,21.53-32.68,35.51-46.76,2.79-2.82,5.66-5.57,8.57-8.27,2.71-2.53,5.44-5.01,8.2-7.46,1.18,.35,2.33,.7,3.46,1.08,.96,.32,1.89,.65,2.81,1.02Z"/>
            <path class="cls-15" d="M1748,409.07c-2.41,2.34-4.88,4.64-7.36,6.94-2.33,2.14-4.67,4.29-6.99,6.46-11.12,10.36-21.97,21.36-30.99,33.61-.79,1.07-2.48,.16-1.82-1.06,7.24-13.11,16.94-23.9,27.52-34.43,3.3-3.28,6.62-6.54,9.95-9.78,2.41-2.33,4.83-4.66,7.26-6.97,.88,1.7,1.67,3.46,2.43,5.22Z"/>
            <path class="cls-15" d="M1766.83,438.81c-2.14,2.32-4.29,4.64-6.42,6.97-7.9,8.65-15.55,17.52-22.06,27.47-1.47,2.25-4.97,.25-3.62-2.11,5.83-10.22,12.61-20.47,20.45-29.75,2.06-2.45,4.21-4.84,6.43-7.13,1.64,1.69,3.39,3.19,5.22,4.55Z"/>
            <path class="cls-15" d="M1798.04,451.27c-2.51,2.7-5.08,5.34-7.63,8h0c-6.41,6.68-12.72,13.46-17.7,21.28-1.11,1.73-3.61,.23-2.73-1.59,3.86-7.84,8.92-14.85,14.48-21.49,2.25-2.69,4.59-5.3,6.97-7.89,2.19,.6,4.4,1.16,6.62,1.69Z"/>
            <path class="cls-15" d="M629.61,548.27c-6.25,3.46-14.2,5.73-21.13,7.38-3.57,.86-7.15,1.67-10.73,2.32-4.2,.79-8.42,1.37-12.74,1.6-1.64,.09-3.29,.15-4.94,.18-14.31,.29-28.74-1.51-42.57-5.09-29.89-7.73-60.47-22.88-81.41-46-.15-.15-.28-.3-.41-.44-3.94-4.39,2.54-10.9,6.49-6.5,1.9,2.11,3.86,4.16,5.9,6.14,19.74,19.18,46.11,32.54,72.27,39.85,15.04,4.2,30.87,6.19,46.48,5.47,7.58-.35,15.25-1.42,22.79-2.39,6.21-.81,13.68-4.84,19.88-3.48,.44,.1,.5,.75,.13,.96Z"/>
          </g>
          <path class="cls-14" d="M609.61,550.79c-7.53,.97-15.21,2.04-22.79,2.39-15.61,.72-31.44-1.27-46.48-5.47-26.16-7.31-52.53-20.67-72.27-39.85,8.17-.6,16.33-1.36,24.47-2.44,2.05-.28,4.11-.56,6.15-.87,36.54,25.18,80.56,40.54,124.83,42.31,.2,.13,.39,.26,.58,.39-4.85,.69-10.01,2.96-14.5,3.54Z"/>
          <path class="cls-14" d="M854.06,632.26c6.97,1.59,13.94,3.18,20.91,4.78-4.69,6.91-9.23,13.91-13.08,21.38-.79,1.54-1.56,3.09-2.3,4.66-47.96-12.15-94.79-27.42-141.73-43.83-38.58-13.48-77.02-28.09-109.1-52.33-3.76-2.83-7.43-5.81-11.01-8.95,3.58-.65,7.16-1.46,10.73-2.32,6.13-1.46,13.06-3.41,18.91-6.23,67.63,44.37,147.72,64.79,226.67,82.84Z"/>
          <path class="cls-14" d="M2251.21,571.65c-2.86,2.19-5.78,4.3-8.73,6.36-3.96,2.75-7.99,5.38-12.08,7.92-28.86,17.9-60.88,30.94-92.47,43.51-53.7,21.39-107.93,41.7-164.18,55.32-9.69,2.34-19.4,4.52-29.14,6.55-3.42,.72-6.83,1.41-10.25,2.09-22.68,4.48-45.47,8.2-68.36,11.35-2.14,.31-4.3,.59-6.45,.88-78.68,10.53-158.3,14.76-237.31,21.55-120.88,10.4-241.98,14.12-363.11,5.01-64.28-4.84-127.82-14.33-191.04-25.87-4.12-.75-8.23-1.51-12.35-2.28-21.17-3.96-42.3-8.12-63.41-12.4-2.03-.41-4.07-.82-6.1-1.24-13.03-2.65-26.07-5.34-39.1-8.06,3.98-8.86,7.77-17.86,11.79-26.74,287.74,59.15,586.61,67.84,877.44,27.14,141.29-19.78,283.66-54.82,414.83-111.1Z"/>
          <path class="cls-14" d="M1846.75,492.83c-151.52-7.76-298.9-41.2-447.14-71.39-75.55-15.37-151.28-27.87-225.84-47.75-74.28-19.8-148.74-39.03-224.97-49.79-17.41-2.45-34.8-4.68-52.38-3.18-5.11,.43-10.2,1.09-15.26,1.94,3.9-10.69,8.21-21.24,12.38-31.68,11.08-27.75,20.2-56.26,32.68-83.43,13.07-28.47,28.34-55.87,43.98-82.99,4.78-8.29,9.9-16.29,15.26-24.11-7.09,25.27-11.91,51.18-14.34,77.31-1.62,17.43-2.13,35.4,3.38,52.01,15.53,46.88,70.49,65.8,118.47,77.45,111.81,27.14,224.79,49.49,335.94,79.17,115.72,30.9,232.52,70.09,351.44,69.65,1.33,.51,2.7,1,4.08,1.44,1.94,.65,3.94,1.24,5.94,1.8h0c20.16,5.59,42.58,7.83,53.67,27.91,1.02,1.83,1.9,3.71,2.68,5.65Z"/>
          <path class="cls-4" d="M1742.57,420.62c-1.19-.4-2.37-.85-3.53-1.3-20.09-7.93-37.98-20.95-58.49-27.75-6.88-2.29-14.11-3.9-20.3-7.68-13.05-7.95-18.88-23.67-29.18-34.95-35.8-39.24-113.63-16.17-142.81-60.56-10.16-15.45-16.62-39.74-35.08-38.85-5.81,.28-11.37,3.45-17.14,2.7-17.28-2.27-17.07-34.04-34.36-36.17-4.86-.6-9.58,1.59-14.43,2.22-24.46,3.15-36.62-30.56-59.37-40.09-17.96-7.52-42.58,.17-55.18-14.68-5.47-6.43-6.78-15.46-11.56-22.42-12.18-17.73-38.94-14.28-59.67-8.45-20.72,5.84-46.93,10.47-60.38-6.34-6.31-7.87-8.07-19-15.54-25.76-19.36-17.53-58.85,7.15-73.37-14.55-8.78-13.1-5.55-25.16-20.75-34.36-2.38-1.44-5.04-2.48-7.8-3.35,9.29-13.01,19.21-27.38,32.85-35.29,5.96-3.45,12.79-4.06,17.6,1.63,4.78,5.64,6.23,13.68,8.7,20.45,1.96,5.39,4.21,10.84,8.06,15.05,1.16,1.28,2.49,2.44,3.99,3.46,.53,.36,1.07,.68,1.6,.98,8.94,4.98,18.5,2.12,27.98-.27,1.42-.36,2.85-.6,4.28-.73,3.14-.29,6.27-.03,9.31,.67,8.42,1.93,16.18,7.25,21.92,13.72,5.65,6.38,8.68,14.62,14.01,21.13,1.55,1.9,3.3,3.64,5.36,5.14,.04,.04,.09,.08,.14,.11,11.53,8.31,25.28,3.16,38.11,2.54,4.3-.22,8.69-.32,12.95,.3,2.27,.32,4.5,.83,6.67,1.64,.78,.29,1.54,.61,2.28,.98,4.62,2.22,8.5,5.68,12.3,9.08,7.51,6.73,14.58,8.82,24.68,7.53,5.04-.64,9.98-2.06,15.02-2.65h0c.32-.04,.61-.07,.93-.1,3.18-.3,5.85,.32,8.31,1.67,1.46,.79,2.84,1.85,4.21,3.13,5.17,4.86,8.75,10.96,12.51,16.9,3.05,4.81,6.45,9.22,10.15,13.5,.52,.61,1.06,1.21,1.59,1.82,1.04,1.17,2.1,2.33,3.19,3.5,7.55,8.09,16.22,15.76,26.94,18.77,.64,.19,1.29,.36,1.95,.5,1.95,.43,4.12,.71,6.03,1.47,.63,.24,1.23,.53,1.8,.91,2.25,1.49,4,3.88,5.94,5.73,4.21,4.03,9.14,5.82,14.99,5.91,6.13,.11,12.12-1.89,18.28-1.41,2.88,.23,5.73,.91,8.35,2.07,2.19,.96,4.24,2.24,6.01,3.84,.25,.23,.49,.45,.73,.69,7.67,7.55,11.72,18.19,18.36,26.58,.96,1.21,1.96,2.33,3.02,3.36,1.86,1.81,3.86,3.34,5.99,4.63,5.51,3.32,11.89,5.01,18.75,5.44,4.16,.27,8.78-.41,12.77,1.02,1.32,.47,2.53,1.17,3.64,2.03,1.75,1.33,3.27,3.04,4.65,4.84,1.32,1.72,2.52,3.52,3.66,5.15,5.49,7.84,10.34,16.12,15.86,23.93,1.14,1.61,2.3,3.21,3.51,4.77,.37,.47,.73,.94,1.11,1.4,5.4,6.79,11.65,12.89,18.95,17.52,1.98,1.28,4.06,2.44,6.2,3.47,.02,.02,.05,.03,.07,.04,10.62,5.11,22.04,8.27,33.59,10.58,2.69,.54,5.38,1.05,8.07,1.5h0c.72,.13,1.42,.25,2.13,.37,13.73,2.28,27.59,4,41.17,7.09,.58,.13,1.18,.27,1.76,.4,1.79,.42,3.71,.9,5.71,1.46,9.98,2.82,21.55,7.73,24.4,17.84,.25,.9,.44,1.82,.6,2.74,.43,2.54,.57,5.14,.81,7.72,.1,1.06,.22,2.11,.39,3.16,.84,5.33,2.47,10.59,5.14,15.3,1.16,2.04,2.5,3.91,4,5.62,1.62,1.87,3.43,3.55,5.38,5.08,3.61,2.81,7.72,5.06,12.05,6.82,6.76,2.77,14.44,4.4,21.9,6.41,2.16,.57,4.3,1.18,6.4,1.87,9.81,3.16,18.65,7.81,23.76,17.68,.4,.78,.79,1.57,1.17,2.36,.82,1.71,1.59,3.45,2.33,5.19,.65,1.53,1.28,3.07,1.93,4.6Z"/>
          <path class="cls-14" d="M2554.14,302.48c-44.44,52.94-89.87,105.08-133.82,158.45-12.46,15.14-24.81,30.34-36.44,46.14-5.57,7.56-11.25,15.08-16.01,23.18-3.97,6.76-7.56,13.84-12.22,20.16-.52,.71-4.14,4.88-6.62,7.74,.11,1.54,.22,3.08,.35,4.62,1.42,17.68,4.14,35.3,7.65,52.56,1.92,9.4,4.09,18.75,6.5,28.03-13.36-25.56-22.64-53.23-27.01-81.77-2.24-14.67-3.2-30.03,1.68-44.05,4.27-12.25,12.67-22.57,21.07-32.46,37.49-44.14,78.26-85.47,121.83-123.61,23.56-20.63,47.93-40.31,73.05-59Z"/>
          <path class="cls-4" d="M2686.35,172.42c-4.35,4.23-8.72,8.44-13.41,12.31-12.96,10.67-26.88,19.89-39.1,31.47-1.25,1.18-2.5,2.38-3.74,3.57-9.32,3.56-18.6,7.23-27.79,11.06-33.01,13.76-65,29.93-95.7,48.26-55.15,32.93-106.12,72.85-151.4,118.41-22.87,23.02-44.29,47.47-64.06,73.2-15.85,20.62-28.87,43.25-43.29,64.7-5.14-1.88-10.34-3.59-15.57-5.2,15.22-29.13,36.64-55,55.58-81.67,24.93-35.12,55.12-65.85,86.69-95,60.22-55.61,126.86-103.39,200.26-140.08,21.47-10.72,43.28-20.44,66.15-27.78,15.01-4.82,30.21-8.97,45.38-13.25Z"/>
          <path class="cls-14" d="M2415.29,848.23c-.69-.76-1.36-1.52-2.04-2.28-48.78-54.92-90.16-116.22-127.76-179.18-10.37-17.37-19.87-34.73-27.69-53.41-3.66-8.78-7.14-17.68-11.06-26.37,10.72-7.35,20.93-15.45,30.46-24.58,19.17,82.57,50.65,162.92,99.31,232.29,12.64,18.04,26.42,35.29,38.77,53.53Z"/>
          <path class="cls-14" d="M952.14,644.07c-5.49,11.91-10.43,24.1-15.88,35.96,0,0,0,.03-.02,.04-1.72,3.74-3.44,7.49-5.14,11.24-10.06,22.1-19.65,44.31-27.31,67.42-8.83,26.61-15.26,54.01-18.2,81.92-3.16,30.13-3.58,61.17-2.36,91.42,.6,14.89,1.26,29.88,2.55,44.72,.53,6.25,1.33,12.51,2.6,18.66-31.3-39.49-47.19-90.18-50.43-140.18,1.29,.32,2.62,.5,3.97,.52,11.26,.16,16.58-9.86,20.25-19.09,21.24-53.34,35.48-109.34,58.49-161.93,4.81-10.98,10.17-22.02,17.03-31.8,4.81,.59,9.64,.96,14.45,1.1Z"/>
          <path class="cls-14" d="M1151.04,881.38c-19.38-9.48-38.48-19.71-56.41-31.76-18.71-12.57-35.99-27.34-50.19-44.9-15.44-19.1-26.99-41.59-35.91-64.38-4.67-11.93-8.75-24.05-12.49-36.28,11.47,2.2,22.95,4.38,34.39,6.6,9.24,1.78,18.49,3.53,27.75,5.23,1.26,5.54,2.71,11.03,4.37,16.45,.83,2.69,1.72,5.34,2.67,7.99-1.85,.08-3.56,.3-5.11,.75-9.67,2.82-18.61,10.61-19.59,20.64-.8,8.19,3.66,15.88,8.28,22.67,13.87,20.46,30.63,38.94,49.63,54.75,17.22,14.34,36.59,26.83,52.61,42.24Z"/>
          <path class="cls-7" d="M843.19,814.03c.1,3.15,.64,6.94,3.53,8.22,4.67,2.08,8.28-4.44,9.35-9.44,8.4-39.38,21.71-77.71,39.53-113.81,4.94-10.01,10.33-20.23,11.01-31.37,.57-9.37-4.34-27.25-16.9-22.14-10.82,4.4-16.58,24.25-20.77,33.97-11.65,27.08-19.51,55.78-23.29,85.01-2.13,16.42-2.96,33.02-2.46,49.57Z"/>
          <path class="cls-7" d="M1080.6,816.87c12.15,12.45,26.4,22.63,40.56,32.73-13.47-21.49-26.93-42.97-40.4-64.46-4.78-7.63-22.76-27.89-23.27-6.41-.32,13.59,14.31,29.13,23.11,38.14Z"/>
          <g class="cls-8">
            <circle class="cls-12" cx="1151.04" cy="492.83" r="9.34"/>
            <circle class="cls-12" cx="1185.51" cy="494.53" r="7"/>
            <circle class="cls-12" cx="1218.46" cy="498.37" r="3.8"/>
            <circle class="cls-12" cx="1250.73" cy="504.55" r="3.39"/>
            <path class="cls-12" d="M1290.41,501.54c0,3.54-2.87,6.4-6.4,6.4s-6.4-2.87-6.4-6.4,2.87-6.4,6.4-6.4,6.4,2.87,6.4,6.4Z"/>
            <circle class="cls-12" cx="1316.79" cy="452.81" r="8.71" transform="translate(658.9 1680.06) rotate(-80.78)"/>
            <path class="cls-12" d="M1356.93,481.84c0,2.1-1.7,3.8-3.8,3.8s-3.8-1.7-3.8-3.8,1.7-3.8,3.8-3.8,3.8,1.7,3.8,3.8Z"/>
            <path class="cls-12" d="M1356.93,515.31c0,2.1-1.7,3.8-3.8,3.8s-3.8-1.7-3.8-3.8,1.7-3.8,3.8-3.8,3.8,1.7,3.8,3.8Z"/>
            <path class="cls-12" d="M1332.17,548.01c0,2.94-2.38,5.31-5.31,5.31s-5.31-2.38-5.31-5.31,2.38-5.31,5.31-5.31,5.31,2.38,5.31,5.31Z"/>
            <path class="cls-12" d="M1429.38,522.22c0,1.72-1.39,3.11-3.11,3.11s-3.11-1.39-3.11-3.11,1.39-3.11,3.11-3.11,3.11,1.39,3.11,3.11Z"/>
            <path class="cls-12" d="M1457.05,522.65c0,1.96-1.59,3.55-3.55,3.55s-3.55-1.59-3.55-3.55,1.59-3.55,3.55-3.55,3.55,1.59,3.55,3.55Z"/>
            <circle class="cls-12" cx="1477.84" cy="531.6" r="2.66"/>
            <circle class="cls-12" cx="1509.15" cy="514.27" r="2.76"/>
            <path class="cls-12" d="M1540.5,503.16c0,2.64-2.14,4.79-4.79,4.79s-4.79-2.14-4.79-4.79,2.14-4.79,4.79-4.79,4.79,2.14,4.79,4.79Z"/>
            <path class="cls-12" d="M1580.64,517.92c0,1.44-1.17,2.61-2.61,2.61s-2.61-1.17-2.61-2.61,1.17-2.61,2.61-2.61,2.61,1.17,2.61,2.61Z"/>
            <circle class="cls-12" cx="1553.39" cy="548.01" r="5.31"/>
            <circle class="cls-12" cx="1514.28" cy="576.68" r="3.4"/>
            <path class="cls-12" d="M1577.8,575.87c0,2.33-1.89,4.21-4.21,4.21s-4.21-1.89-4.21-4.21,1.89-4.21,4.21-4.21,4.21,1.89,4.21,4.21Z"/>
            <path class="cls-12" d="M1614.02,563.95c0,2.3-1.87,4.17-4.17,4.17s-4.17-1.87-4.17-4.17,1.87-4.17,4.17-4.17,4.17,1.87,4.17,4.17Z"/>
            <circle class="cls-12" cx="1642.8" cy="541.14" r="6.87"/>
            <circle class="cls-12" cx="1670.29" cy="515.21" r="5.32"/>
            <circle class="cls-12" cx="1474.72" cy="461.76" r="5.17"/>
            <path class="cls-12" d="M1440.79,479.94c0,3.15-2.55,5.7-5.7,5.7s-5.7-2.55-5.7-5.7,2.55-5.7,5.7-5.7,5.7,2.55,5.7,5.7Z"/>
            <path class="cls-12" d="M1403.06,450.68c0,1.97-1.6,3.56-3.56,3.56s-3.56-1.6-3.56-3.56,1.6-3.56,3.56-3.56,3.56,1.6,3.56,3.56Z"/>
            <path class="cls-12" d="M1386.2,469.45c0,2.64-2.14,4.78-4.78,4.78s-4.78-2.14-4.78-4.78,2.14-4.78,4.78-4.78,4.78,2.14,4.78,4.78Z"/>
            <circle class="cls-12" cx="1277.48" cy="435.93" r="3.02"/>
            <path class="cls-12" d="M1265.32,459.85c0,3.09-2.51,5.6-5.6,5.6s-5.6-2.51-5.6-5.6,2.51-5.6,5.6-5.6,5.6,2.51,5.6,5.6Z"/>
            <path class="cls-12" d="M1218.46,419.34c0,2.98-2.41,5.39-5.39,5.39s-5.39-2.41-5.39-5.39,2.41-5.39,5.39-5.39,5.39,2.41,5.39,5.39Z"/>
            <path class="cls-12" d="M1166.23,399.69c0,1.62-1.31,2.92-2.92,2.92s-2.92-1.31-2.92-2.92,1.31-2.92,2.92-2.92,2.92,1.31,2.92,2.92Z"/>
            <path class="cls-12" d="M1151.04,425.19c0,2.52-2.05,4.57-4.57,4.57s-4.57-2.05-4.57-4.57,2.05-4.57,4.57-4.57,4.57,2.05,4.57,4.57Z"/>
            <path class="cls-12" d="M1141.64,454.03c0,2.46-1.99,4.45-4.45,4.45s-4.45-1.99-4.45-4.45,1.99-4.45,4.45-4.45,4.45,1.99,4.45,4.45Z"/>
            <path class="cls-12" d="M1085,461.13c0,3.8-3.08,6.88-6.88,6.88s-6.88-3.08-6.88-6.88,3.08-6.88,6.88-6.88,6.88,3.08,6.88,6.88Z"/>
            <path class="cls-12" d="M1080.5,423.96c0,2.55-2.07,4.62-4.62,4.62s-4.62-2.07-4.62-4.62,2.07-4.62,4.62-4.62,4.62,2.07,4.62,4.62Z"/>
            <path class="cls-12" d="M1100.01,392.76c0,2.21-1.79,4-4,4s-4-1.79-4-4,1.79-4,4-4,4,1.79,4,4Z"/>
            <circle class="cls-12" cx="1112.99" cy="391.92" r="4.84"/>
            <circle class="cls-12" cx="1105.74" cy="436.93" r="4.02"/>
            <path class="cls-12" d="M1023.61,388.89c0,3.47-2.81,6.29-6.29,6.29s-6.29-2.81-6.29-6.29,2.81-6.29,6.29-6.29,6.29,2.81,6.29,6.29Z"/>
            <circle class="cls-12" cx="1040.69" cy="372.95" r="8.78" transform="translate(505.85 1340.46) rotate(-80.78)"/>
            <path class="cls-12" d="M1038.65,407.59c0,1.86-1.51,3.37-3.37,3.37s-3.37-1.51-3.37-3.37,1.51-3.37,3.37-3.37,3.37,1.51,3.37,3.37Z"/>
            <circle class="cls-12" cx="1015.39" cy="448.46" r="4.35"/>
            <path class="cls-12" d="M1031.16,476.16c0,2.08-1.69,3.77-3.77,3.77s-3.78-1.69-3.78-3.77,1.69-3.77,3.78-3.77,3.77,1.69,3.77,3.77Z"/>
            <circle class="cls-12" cx="1044.06" cy="435.16" r="5.4"/>
            <path class="cls-12" d="M996.04,424.24c0,2.7-2.19,4.9-4.9,4.9s-4.9-2.19-4.9-4.9,2.19-4.9,4.9-4.9,4.9,2.19,4.9,4.9Z"/>
            <path class="cls-12" d="M976.77,385.1c0,2.02-1.64,3.66-3.66,3.66s-3.66-1.64-3.66-3.66,1.64-3.66,3.66-3.66,3.66,1.64,3.66,3.66Z"/>
            <circle class="cls-12" cx="978.84" cy="350.09" r="5.73"/>
            <circle class="cls-12" cx="941.13" cy="350.39" r="6.02"/>
            <path class="cls-12" d="M946.08,375.43c0,1.37-1.11,2.48-2.48,2.48s-2.48-1.11-2.48-2.48,1.11-2.48,2.48-2.48,2.48,1.11,2.48,2.48Z"/>
            <circle class="cls-12" cx="938.12" cy="412.44" r="3.01"/>
            <path class="cls-12" d="M956.65,443.7c0,2.62-2.13,4.75-4.75,4.75s-4.75-2.13-4.75-4.75,2.13-4.75,4.75-4.75,4.75,2.13,4.75,4.75Z"/>
            <circle class="cls-12" cx="960.74" cy="419.53" r="4.08"/>
            <circle class="cls-12" cx="905.65" cy="413.77" r="6.26"/>
            <circle class="cls-12" cx="898.86" cy="368" r="3.82"/>
            <circle class="cls-12" cx="900.85" cy="344.28" r="5.81"/>
            <path class="cls-12" d="M860.55,354.96c0,2.52-2.05,4.57-4.57,4.57s-4.57-2.05-4.57-4.57,2.05-4.57,4.57-4.57,4.57,2.05,4.57,4.57Z"/>
            <path class="cls-12" d="M855.98,386.3c0,2.04-1.65,3.7-3.7,3.7s-3.7-1.65-3.7-3.7,1.65-3.7,3.7-3.7,3.7,1.65,3.7,3.7Z"/>
            <path class="cls-12" d="M856.19,416.23c0,2.1-1.7,3.8-3.8,3.8s-3.8-1.7-3.8-3.8,1.7-3.8,3.8-3.8,3.8,1.7,3.8,3.8Z"/>
            <path class="cls-12" d="M804.24,402.69c0,2.29-1.85,4.14-4.14,4.14s-4.14-1.85-4.14-4.14,1.85-4.14,4.14-4.14,4.14,1.85,4.14,4.14Z"/>
            <path class="cls-12" d="M807.57,375.56c0,2.06-1.67,3.74-3.74,3.74s-3.74-1.67-3.74-3.74,1.67-3.74,3.74-3.74,3.74,1.67,3.74,3.74Z"/>
            <path class="cls-12" d="M762.06,400.49c0,2.06-1.67,3.73-3.73,3.73s-3.73-1.67-3.73-3.73,1.67-3.73,3.73-3.73,3.73,1.67,3.73,3.73Z"/>
            <circle class="cls-12" cx="1184.65" cy="456.97" r="4.16"/>
            <path class="cls-12" d="M1593.62,488.17c0,1.4-1.13,2.53-2.53,2.53s-2.53-1.13-2.53-2.53,1.13-2.53,2.53-2.53,2.53,1.13,2.53,2.53Z"/>
            <circle class="cls-12" cx="1617.52" cy="491.03" r="3.5"/>
            <path class="cls-12" d="M1614.02,519.48c0,2.3-1.87,4.17-4.17,4.17s-4.17-1.87-4.17-4.17,1.87-4.17,4.17-4.17,4.17,1.87,4.17,4.17Z"/>
            <circle class="cls-12" cx="1733.86" cy="508.32" r="5.16"/>
            <path class="cls-12" d="M1724.35,531.08c0,2.7-2.19,4.88-4.88,4.88s-4.88-2.19-4.88-4.88,2.19-4.88,4.88-4.88,4.88,2.19,4.88,4.88Z"/>
            <path class="cls-12" d="M1709.78,557.87c0,2.51-2.03,4.54-4.54,4.54s-4.54-2.03-4.54-4.54,2.03-4.54,4.54-4.54,4.54,2.03,4.54,4.54Z"/>
            <path class="cls-12" d="M1755.72,546.56c0,2.13-1.73,3.86-3.86,3.86s-3.86-1.73-3.86-3.86,1.73-3.86,3.86-3.86,3.86,1.73,3.86,3.86Z"/>
            <circle class="cls-12" cx="1779.29" cy="524.73" r="4.21"/>
            <circle class="cls-12" cx="1804.41" cy="516.3" r="2.81"/>
            <path class="cls-12" d="M1837.09,510.71c0,1.53-1.24,2.77-2.77,2.77s-2.77-1.24-2.77-2.77,1.24-2.77,2.77-2.77,2.77,1.24,2.77,2.77Z"/>
            <circle class="cls-12" cx="1881.76" cy="521.18" r="4.15"/>
            <path class="cls-12" d="M1841.09,549.94c0,1.87-1.52,3.38-3.38,3.38s-3.38-1.52-3.38-3.38,1.52-3.38,3.38-3.38,3.38,1.52,3.38,3.38Z"/>
            <path class="cls-12" d="M1807.6,572.15c0,2.5-2.03,4.53-4.53,4.53s-4.53-2.03-4.53-4.53,2.03-4.53,4.53-4.53,4.53,2.03,4.53,4.53Z"/>
            <path class="cls-12" d="M1868.66,557.87c0,2.51-2.03,4.54-4.54,4.54s-4.54-2.03-4.54-4.54,2.03-4.54,4.54-4.54,4.54,2.03,4.54,4.54Z"/>
            <path class="cls-12" d="M1908.09,546.56c0,2.13-1.73,3.86-3.86,3.86s-3.86-1.73-3.86-3.86,1.73-3.86,3.86-3.86,3.86,1.73,3.86,3.86Z"/>
            <path class="cls-12" d="M1942.09,530.63c0,2-1.62,3.63-3.63,3.63s-3.63-1.62-3.63-3.63,1.62-3.63,3.63-3.63,3.63,1.62,3.63,3.63Z"/>
            <path class="cls-12" d="M1987.81,518.71c0,1.94-1.57,3.51-3.51,3.51s-3.51-1.57-3.51-3.51,1.57-3.51,3.51-3.51,3.51,1.57,3.51,3.51Z"/>
            <path class="cls-12" d="M2011.27,522.67c0,2.62-2.13,4.75-4.75,4.75s-4.75-2.13-4.75-4.75,2.13-4.75,4.75-4.75,4.75,2.13,4.75,4.75Z"/>
            <circle class="cls-12" cx="1975.36" cy="552.21" r="5.66"/>
            <path class="cls-12" d="M1953.27,575.87c0,2.33-1.89,4.21-4.21,4.21s-4.21-1.89-4.21-4.21,1.89-4.21,4.21-4.21,4.21,1.89,4.21,4.21Z"/>
            <path class="cls-12" d="M2017.15,558.64c0,2.93-2.38,5.31-5.31,5.31s-5.31-2.38-5.31-5.31,2.38-5.31,5.31-5.31,5.31,2.38,5.31,5.31Z"/>
            <circle class="cls-12" cx="2048.75" cy="542.57" r="5.44"/>
            <circle class="cls-12" cx="2098.03" cy="540.69" r="7.32"/>
            <path class="cls-12" d="M2145.5,543.81c0,2.32-1.88,4.2-4.2,4.2s-4.2-1.88-4.2-4.2,1.88-4.2,4.2-4.2,4.2,1.88,4.2,4.2Z"/>
            <path class="cls-12" d="M2136.61,528.96c0,2.93-2.38,5.31-5.31,5.31s-5.31-2.38-5.31-5.31,2.38-5.31,5.31-5.31,5.31,2.38,5.31,5.31Z"/>
            <path class="cls-12" d="M2172.77,537.48c0,1.78-1.44,3.22-3.22,3.22s-3.22-1.44-3.22-3.22,1.44-3.22,3.22-3.22,3.22,1.44,3.22,3.22Z"/>
            <path class="cls-12" d="M2198.9,547.11c0,1.83-1.48,3.3-3.3,3.3s-3.3-1.48-3.3-3.3,1.48-3.3,3.3-3.3,3.3,1.48,3.3,3.3Z"/>
            <path class="cls-12" d="M2169.56,568.06c0,3.12-2.53,5.64-5.64,5.64s-5.64-2.53-5.64-5.64,2.53-5.64,5.64-5.64,5.64,2.53,5.64,5.64Z"/>
            <path class="cls-12" d="M2122.24,563.95c0,2.3-1.87,4.17-4.17,4.17s-4.17-1.87-4.17-4.17,1.87-4.17,4.17-4.17,4.17,1.87,4.17,4.17Z"/>
            <path class="cls-12" d="M2071.19,528.51c0,2.68-2.18,4.86-4.86,4.86s-4.86-2.18-4.86-4.86,2.18-4.86,4.86-4.86,4.86,2.18,4.86,4.86Z"/>
            <path class="cls-12" d="M2070.84,562.55c0,2.59-2.1,4.69-4.69,4.69s-4.69-2.1-4.69-4.69,2.1-4.69,4.69-4.69,4.69,2.1,4.69,4.69Z"/>
            <path class="cls-12" d="M1918.68,523.21c0,2.93-2.37,5.3-5.3,5.3s-5.3-2.37-5.3-5.3,2.37-5.3,5.3-5.3,5.3,2.37,5.3,5.3Z"/>
            <circle class="cls-12" cx="1514.54" cy="476.04" r="3.65"/>
            <path class="cls-12" d="M1485.35,494.79c0,2.07-1.68,3.76-3.76,3.76s-3.76-1.68-3.76-3.76,1.68-3.76,3.76-3.76,3.76,1.68,3.76,3.76Z"/>
          </g>
          <g class="cls-19">
            <path class="cls-12" d="M1096.2,516.33c1.45,5.03,3.09,7.66,1.65,13.12-2.79,10.53-12.82,17.57-12.74,28.73,.08,12.22,2.66,23.29-7.07,32.76-2.8,2.74-6.9,6.8-10.58,8.27-3.91,1.56-3.68,1.78-4.04-1.5-.4-3.64,3.04-9.28,4.05-12.79,1.23-4.27,2.12-8.6,3.14-12.9,2.05-8.68,4.08-17.38,5.56-26.19,2.41-14.24,4.64-28.84,5.41-43.14,1.17-21.92-2.72-45.56-10.09-66.05-3.41-9.47-8.73-17.81-14.37-25.95-2.72-3.92-5.72-7.87-8.2-11.98-2-3.34-3.21-8.38-7.18-9.97,6.39,2.44,8.17,3.25,10.06,4.04,16.16,6.75,27.99,22.93,36.58,37.82,3.77,6.56,4.2,11.99,2.76,19.4-1.5,7.75-.47,10.71,3.94,16.83,7.69,10.63,6.47,25.46,2.62,37.38-1.51,4.66-2.87,7.38-1.51,12.1Z"/>
            <path class="cls-12" d="M1255.54,541.14c-.96,10.2-6.11,16.53-12.03,24.38-4.52,6.01-6.78,11.86-8.54,19.14-3.44,14.21-17.11,18.97-27.29,27.81,.69-6.63,8.03-14.71,10.55-21.06,2.78-7.02,5.13-14.37,7.18-21.64,6.55-23.26,8.46-48.08,8.43-72.1,0-13.27-.03-26.34-2.15-39.38-1.18-7.28-2.94-26.52-10.95-29.7,9.54,3.18,17.51,15.77,20.16,21.67,2.97,6.62,3.04,13.59,7.44,19.67,5.18,7.19,10.17,14.03,11.34,23.17,1.24,9.78-2.95,16.61-5.67,25.48-2.43,7.93,2.28,14.56,1.53,22.55Z"/>
            <path class="cls-12" d="M1403.22,579.03c1.17,9.51-7.14,18.49-10.44,26.78-3.17,7.96-1.67,14.63-8.49,20.23-6.61,5.4-14.08,9.48-20.28,15.17,.04-6.17,6.34-13.43,8.54-19.16,2.98-7.76,5-15.93,6.81-24.04,6.58-29.32,3.93-56.86-.45-86.35-3.04-20.45-13.29-46.06-32.63-56.84,4.95,1.79,9.01,2.51,12.49,4.65,4.88,3.01,9.63,7.28,14.03,10.98,4.98,4.18,9.84,8.53,14.34,13.23,7.86,8.21,7.41,12.17,8.03,22.81,.54,9.19,9.87,12.74,11.52,21.43,1.86,9.79-4.87,18.14-7.11,27.1-2.29,9.21,2.58,15.34,3.64,24.02Z"/>
            <path class="cls-12" d="M1548.99,579.7c-2.76,5.78-7.22,10.88-6.47,17.64,.74,6.75,2.98,10.2,.5,17.17-2.57,7.2-6.76,13.34-11.34,19.41-3.62,4.82-6.17,11.11-9.87,15.49,2.97-12.1,6.29-24.13,8.38-36.41,3.51-20.73,3.04-43.45,.13-64.21-2.31-16.49-8.95-40.2-21.7-51.63,10.87,2.06,17.19,6.06,24.31,12.21,4.86,4.19,9.53,8.38,11.98,14.45,2.93,7.23-.37,13.18,.51,20.36,.66,5.47,5.59,8.86,7.07,14.03,2.02,7.11-.46,15.12-3.51,21.49Z"/>
            <path class="cls-12" d="M1672.49,597.83c-3.69,8.05,.88,15.72-3.82,23.85-4.49,7.77-14.02,18.65-21.84,23.17,2.71-9.78,9.94-19.01,13.43-28.81,6.66-18.73,4.71-38.47,2.54-57.87-1.43-12.81-4.38-33.91-15.01-42.86,3.6,2.21,8.28,4.06,10.08,5.65,3.19,2.8,6.77,7.46,9.07,11.1,3.78,5.94,4.4,11.15,5.05,18.05,.6,6.52,2.89,7.66,7.07,12.1,10.29,10.92-1.7,25.01-6.57,35.63Z"/>
            <path class="cls-12" d="M1801.56,580.33c-.45,6.05-3.22,10.89-6.43,15.91-3.04,4.75-4.94,8.55-5.67,14.1-.67,5.03-.54,9.62-3.03,14.18-4.22,7.76-11.09,13.99-17.19,20.22,2.62-9.02,8.35-16.99,10.89-26.37,4.44-16.36,7.3-36.31,6.33-53.25-.61-10.66-3.18-29.48-10.61-37.7,4.37,.85,7.81,.89,10.61,2.38,3.35,1.79,5.74,5.31,8.03,8.2,3.5,4.41,6.18,7.04,6.02,13.18-.16,5.71-3.26,10.34-2.02,16.23,.96,4.6,3.44,7.92,3.07,12.91Z"/>
            <path class="cls-12" d="M1891.66,592.99c-3.78,7.56-.15,15.03-3.89,22.4-2.53,4.98-6.5,10.22-9.97,14.34,.17-8.42,5.7-17.92,7.41-26.37,2.04-10.06,2.06-20.31,2.06-30.57,0-8.1-.74-15.21-3.65-22.81-1.23-3.23-2.99-10.4-6.43-11.47,8.94,.83,14.23,6.19,15.89,11.36,1.1,3.38,.13,7.03,1.25,10.33,1.13,3.32,4.35,5.06,5.44,8.42,2.74,8.51-4.67,17.48-8.12,24.37Z"/>
            <path class="cls-12" d="M1999.01,585.34c-1.26,2.85-3.96,5.9-3.88,9.12,.08,3.3,2.76,5.55,2.46,9.02-.35,3.82-3.89,7.9-5.99,10.93-2.57,3.71-7.37,12.54-11.5,13.76,2.12-9.93,7.13-19.49,9.56-29.48,2.14-8.84,2.89-18.12,2.52-27.23-.34-8.2-2.18-14.79-6.97-21.39-3.05-4.2-7.2-8.51-8.69-13.6,4.03,4.82,3.69,4.22,3.58,4.92,5.05,1.85,9.72,6.77,13.03,10.84,4.62,5.66,8.06,12.24,8.59,19.74,.34,4.69-.82,9.09-2.71,13.36Z"/>
          </g>
          <path class="cls-7" d="M889.73,361.67c-67.12,16.86-133.08,42.19-200.64,54.48-23.75,4.32-82.4,8.99-96.37,33.71-26.93,47.65,101.09,43.79,120.82,42.91,132.81-5.94,265.12-11.69,398.54-2.12,81.92,5.87,160.77,30.89,241.91,41.52,94.58,12.4,191.58,18.68,287.03,29.17,106.52,11.71,213.57,2.37,320.56,7.96,67.58,3.53,140.16,8.15,207.99,2.12,9.59-.85,20.47,.41,22.73-9.74-151.65-43.11-318.83-30.25-475.74-48.3-110.28-12.68-219.36-24.81-327.21-51.36-97.92-24.11-195.15-50.96-293.89-72.5-58.32-12.73-135.78-37.38-205.71-27.84Z"/>
          <g>
            <path class="cls-11" d="M733.3,466.17c-1.71-8.28-5.12-18.01-12.31-23.17-9.14-6.56-24.28-4.28-33.27,.76-1.35,.76-3.15,1.5-4.4,2.5,.05-.14,.12-.35,.31-.65-2.13,1.06-3.81,4.41-5.21,6.25-1.59,2.11-3.13,4.29-4.56,6.52-2.99,4.67-4.07,9.98-5.14,15.25-2.81,13.83-1.67,30.78,9.33,41.09,11.83,11.09,33.44,12.17,45.63,.77,12.66-11.83,12.87-33.62,9.62-49.32Z"/>
            <g>
              <path class="cls-15" d="M712.63,436.23c-8.29-2.33-17.1-.78-24.81,4.36-7.58,5.05-13.21,12.98-15.83,22.34-5.47,19.48,3.85,39.21,20.79,43.97,2.51,.7,5.05,1.04,7.57,1.04,7.24,0,14.35-2.79,20.22-7.65,5.88-4.86,10.52-11.8,12.85-20.1,5.47-19.49-3.86-39.21-20.8-43.96Zm15.24,42.4c-4.62,16.42-19.66,26.61-33.53,22.72-13.88-3.9-21.41-20.44-16.8-36.85,2.26-8.03,7.04-14.82,13.47-19.1,4.41-2.94,9.22-4.44,13.99-4.44,2.04,0,4.08,.28,6.06,.83,13.88,3.9,21.41,20.43,16.81,36.85Z"/>
              <path class="cls-13" d="M729,472.81c-.2,1.92-.58,3.87-1.12,5.82-4.61,16.42-19.66,26.61-33.53,22.72-13.88-3.9-21.41-20.44-16.8-36.85,.29-1.02,.61-2.01,.98-2.98,.51-1.37,1.09-2.68,1.75-3.95,2.57-5,6.26-9.19,10.73-12.18,4.41-2.94,9.23-4.44,14-4.44,2.05,0,4.08,.27,6.06,.83,9.86,2.78,16.52,11.93,17.89,22.89,.33,2.63,.35,5.37,.05,8.14Z"/>
              <path d="M706.9,457.05c-3.63-1.02-7.48-.34-10.85,1.9-3.29,2.19-5.72,5.63-6.86,9.68-2.38,8.46,1.7,17.03,9.09,19.11,1.1,.31,2.21,.46,3.32,.46,6.32,0,12.37-4.83,14.4-12.03,2.38-8.46-1.7-17.03-9.09-19.11Z"/>
              <path class="cls-2" d="M720.29,469.66c-1.07,3.8-4.58,6.14-7.85,5.23-3.26-.92-5.05-4.74-3.98-8.55,1.07-3.8,4.58-6.14,7.85-5.23,3.27,.92,5.05,4.74,3.98,8.55Z"/>
            </g>
            <path class="cls-9" d="M729,472.81c-.2,1.92-.58,3.87-1.12,5.82-4.61,16.42-19.66,26.61-33.53,22.72-13.88-3.9-21.41-20.44-16.8-36.85,.29-1.02,.61-2.01,.98-2.98-.67,3.86-1.05,7.69-.66,11.67,.66,6.64,3.27,13.18,7.89,18,4.62,4.81,11.35,7.72,17.99,7.12,7.64-.7,14.32-5.86,18.69-12.17,2.83-4.09,4.84-8.64,6.55-13.32Z"/>
            <path class="cls-5" d="M728.95,464.67c-1.58-3.73-3.38-7.35-5.74-10.63-3.55-4.94-8.57-9.09-14.53-10.33-5.67-1.18-11.65,.4-16.63,3.35-3.47,2.06-6.51,4.75-9.28,7.65-.69,.72-1.53,2.02-2.5,2.86,2.57-5,6.26-9.19,10.73-12.18,4.41-2.94,9.23-4.44,14-4.44,2.05,0,4.08,.27,6.06,.83,9.86,2.78,16.52,11.93,17.89,22.89Z"/>
          </g>
          <path class="cls-3" d="M1213.86,420.14c4.65,1.92,9.68,4.28,11.71,8.87,3.15,7.11-3.26,15.49-10.8,17.42-7.54,1.93-15.41-.56-22.83-2.92-118.61-37.78-246.11-47.17-369.02-27.58-13.17,2.1-61.44,21.63-54.72-4.57,5.17-20.17,51.81-23.06,68.58-26.47,58.94-11.98,119.55-15.71,179.52-11.24,67.74,5.05,134.74,20.57,197.55,46.49Z"/>
          <path class="cls-3" d="M1658.2,506.05c5.3,1,11.37,2.58,13.59,7.49,2.33,5.15-1.25,11.42-6.26,14.04-5.01,2.61-10.95,2.52-16.59,2.32-106.65-3.78-211.97-24.19-316.26-45.56-9.5-1.95-30.75-1.96-26.6-15.12,3.03-9.61,28.88-14.36,36.82-15.86,43.27-8.19,95.05,11.22,137.59,19.23,59.23,11.15,118.47,22.31,177.7,33.46Z"/>
          <path class="cls-3" d="M1853.16,519.2c4.86,.45,10.75,1.69,12.21,6.35,1.91,6.09-5.59,10.76-11.83,12.1-13.41,2.87-27.29,1.98-40.97,1.08-12.07-.8-97.92,1.1-65.94-21.53,23.14-16.38,79.97-.44,106.54,2.01Z"/>
        </g>
        <path class="cls-14" d="M306.89,496.74c29.94,1.41,59.42,4.16,89.1,5.8-36.77,2.23-73.52,4.23-110.36,5.5-46.63,1.61-93.29,2.56-139.95,2.7-31.29,.09-62.62,.69-93.92,.12,44.57-7.78,88.88-17.21,133.43-25.21,39.12,10.15,83.13,9.28,121.69,11.1Z"/>
      </g>
      <path class="cls-14" d="M1925.31,755.92c-1.49-1.79-2.95-3.54-4.44-5.11-7.4-7.82-15.97-14.51-23.96-21.7-6.23-5.6-12.69-10.83-19.3-15.85,19.13-2.87,38.17-6.12,57.14-9.84,.07,3.28,.1,6.57,.09,9.85-3.36,.58-6.65,1.41-9.73,2.85-4.8,2.24-9.04,6.27-10.22,11.43-2.26,9.94,7.11,18.9,10.43,28.37Z"/>
    </g>
  </g>
</svg>