<?xml version="1.0" encoding="UTF-8"?>
<svg id="_레이어_2" data-name="레이어 2" xmlns="http://www.w3.org/2000/svg" xmlns:xlink="http://www.w3.org/1999/xlink" viewBox="0 0 1397.7 899.64">
  <defs>
    <style>
      .cls-1 {
        fill: url(#linear-gradient-3);
      }

      .cls-1, .cls-2, .cls-3, .cls-4, .cls-5, .cls-6 {
        opacity: .76;
      }

      .cls-7, .cls-8, .cls-9, .cls-10, .cls-11 {
        fill: #fff;
      }

      .cls-12, .cls-13, .cls-14, .cls-15 {
        fill: #040427;
      }

      .cls-16 {
        fill: #1c1e21;
        opacity: .27;
      }

      .cls-2 {
        fill: url(#linear-gradient-4);
      }

      .cls-3 {
        fill: url(#linear-gradient-5);
      }

      .cls-17 {
        fill: #ffff83;
        opacity: .71;
      }

      .cls-18 {
        fill: #fed94d;
      }

      .cls-19 {
        opacity: .58;
      }

      .cls-20 {
        fill: url(#radial-gradient);
      }

      .cls-13 {
        opacity: .36;
      }

      .cls-8 {
        opacity: .43;
      }

      .cls-9 {
        opacity: .14;
      }

      .cls-14, .cls-10 {
        opacity: .2;
      }

      .cls-15 {
        opacity: .51;
      }

      .cls-11 {
        opacity: .35;
      }

      .cls-4 {
        fill: url(#linear-gradient-6);
      }

      .cls-21 {
        fill: #600000;
        opacity: .29;
      }

      .cls-22 {
        fill: url(#linear-gradient);
      }

      .cls-5 {
        fill: url(#linear-gradient-2);
      }

      .cls-6 {
        fill: url(#linear-gradient-7);
      }
    </style>
    <linearGradient id="linear-gradient" x1="575.14" y1="143.69" x2="575.14" y2="724" gradientUnits="userSpaceOnUse">
      <stop offset="0" stop-color="#d8f3e0"/>
      <stop offset="1" stop-color="#506558"/>
    </linearGradient>
    <linearGradient id="linear-gradient-2" x1="190.06" y1="290.69" x2="190.06" y2="592.28" gradientUnits="userSpaceOnUse">
      <stop offset="0" stop-color="#42216d"/>
      <stop offset=".61" stop-color="#000125"/>
      <stop offset="1" stop-color="#52675a"/>
    </linearGradient>
    <linearGradient id="linear-gradient-3" x1="385.69" y1="135.82" x2="385.69" y2="725.32" xlink:href="#linear-gradient-2"/>
    <linearGradient id="linear-gradient-4" x1="625.61" y1="135.82" x2="625.61" y2="725.32" xlink:href="#linear-gradient-2"/>
    <linearGradient id="linear-gradient-5" x1="829.71" y1="167.69" x2="829.71" y2="655.42" gradientUnits="userSpaceOnUse">
      <stop offset="0" stop-color="#42216d"/>
      <stop offset=".61" stop-color="#000125"/>
      <stop offset="1" stop-color="#586d60"/>
    </linearGradient>
    <linearGradient id="linear-gradient-6" x1="975.99" y1="331.94" x2="975.99" y2="547.97" xlink:href="#linear-gradient-2"/>
    <linearGradient id="linear-gradient-7" x1="1091.93" y1="370.19" x2="1091.93" y2="480.71" xlink:href="#linear-gradient-2"/>
    <radialGradient id="radial-gradient" cx="164.57" cy="395.74" fx="164.57" fy="395.74" r="29.13" gradientUnits="userSpaceOnUse">
      <stop offset="0" stop-color="#fbae17"/>
      <stop offset=".35" stop-color="#f8ac17"/>
      <stop offset=".52" stop-color="#f1a71a"/>
      <stop offset=".66" stop-color="#e49e1e"/>
      <stop offset=".77" stop-color="#d19123"/>
      <stop offset=".87" stop-color="#b9812b"/>
      <stop offset=".96" stop-color="#9c6d34"/>
      <stop offset="1" stop-color="#8c6239"/>
    </radialGradient>
  </defs>
  <g id="Layer_1" data-name="Layer 1">
    <g>
      <g>
        <path class="cls-22" d="M1140.81,431.83c-.28,4.69-.76,9.39-1.45,14.02-.39,2.63-.84,5.25-1.35,7.83-.09,.49-.19,.98-.3,1.47-.29,1.38-.59,2.75-.93,4.12-.84,3.5-1.83,6.97-2.99,10.39-.21,.61-.42,1.22-.64,1.83-.24,.67-.48,1.34-.74,2-1.28,3.37-2.8,6.65-4.51,9.82-.91,1.68-2.15,3.34-2.93,5.12-1.43-.72-2.87-1.43-4.32-2.12-1.05-.5-2.11-1-3.18-1.49-7.4-3.47-15.04-6.75-23.05-8.32-6.25-1.22-12.58-1.51-18.86-.91-2.57,.25-5.13,.64-7.67,1.18-7.94,1.7-15.43,4.77-22.49,8.68-3.26,1.8-6.43,3.78-9.51,5.89-5.49,3.74-10.71,7.89-15.69,12.14-5.17,4.43-10.2,9.01-15.12,13.73-1.99,1.89-3.95,3.81-5.91,5.75-2.58,2.55-5.12,5.13-7.63,7.71-5.03,5.17-9.98,10.41-14.88,15.69-.26,.28-.52,.56-.78,.84-2.41,2.6-4.81,5.19-7.21,7.78-3.79,4.09-7.58,8.18-11.38,12.25-.34,.37-.66,.72-1.01,1.08h0c-2.39,2.57-4.79,5.13-7.19,7.69-4.17,4.42-8.38,8.81-12.64,13.15-2.92,2.99-5.87,5.97-8.86,8.9-5.69,5.61-11.48,11.11-17.42,16.46-2.52,2.27-5.08,4.52-7.67,6.73-5.42,4.64-10.97,9.15-16.69,13.49-.39,.3-.77,.59-1.17,.88-3.15,2.37-6.34,4.71-9.55,7.01-1.19,.85-2.38,1.69-3.57,2.52-4.85,3.4-9.76,6.71-14.74,9.92-4.47,2.88-8.97,5.7-13.53,8.43-7.46,4.48-15.03,8.75-22.71,12.81-3.69,1.96-7.41,3.87-11.15,5.72-8.77,4.36-17.65,8.44-26.66,12.26-.32,.14-.65,.28-.97,.41-4.44,1.87-8.91,3.68-13.4,5.43-1.57,.61-3.15,1.22-4.74,1.81-31.23,11.8-63.59,20.6-96.33,27.07-3.25,.65-6.51,1.27-9.79,1.87-25.13,4.6-50.89,7.82-76.55,8.25-4.22-6.11-9.51-11.39-15.4-15.99-7.48-5.85-15.92-10.63-24.39-14.7-19.21-9.24-39.89-15.26-58.82-25.09-6.46-3.35-12.94-7.87-19.59-12.27-5.43-3.59-10.98-7.1-16.71-9.82-4.15-1.96-8.39-3.52-12.76-4.4-4.97-1.01-10.1-1.13-15.44,.01-1.11,.24-2.19,.54-3.26,.89-2.33,.77-4.54,1.82-6.57,3.11-6.33,3.98-11.04,10.24-12.91,17.76-2.68,10.81-.96,22.67,2.33,33.15,.8,2.57,1.73,5.1,2.79,7.58-16.2-2.84-32.31-6.28-48.02-11.14-.59-.18-1.16-.37-1.74-.55-19.71-6.43-37.36-17.55-54.18-29.49-16.99-12.05-33.21-25.19-50.58-36.72-5.41-3.6-10.82-7.19-16.21-10.8-.65-.43-1.28-.85-1.93-1.29-1.75-1.17-3.51-2.35-5.27-3.52-12.56-8.44-25.05-16.97-37.42-25.7-8.07-5.7-16.08-11.61-24.12-17.5-30.36-22.26-61.22-44.33-97.91-54.27-11-2.98-22.35-5.49-32.75-10.29-7.23-3.33-16.16-8.45-19.71-15.99-7.15-15.14,20.8-21.26,30.21-25.2,1.19-.5,2.36-1.04,3.51-1.62,9.33-4.7,16.89-12.08,14.87-23.69-2.53-14.57-16.12-20.11-27.68-26.54-5.14-2.87-12.81-7.24-12.7-14.09,.09-5.93,6.86-11.03,11.16-14.18,11.84-8.67,25.82-14.78,38.8-21.56,28.15-14.69,57.2-27.39,84.56-43.18,11.9-6.86,23.5-14.31,34.55-22.77,11.36-8.7,22.23-17.95,32.84-27.5,22.99-20.7,44.75-42.78,67.63-63.61,15.15-13.8,31.09-25.77,48.1-35.87,15.1-8.96,31.05-16.43,48.05-22.39,3.44-1.22,6.93-2.36,10.47-3.44,3.03-.93,6.06-1.81,9.1-2.65,6.72-1.85,13.48-3.48,20.28-4.9,8.24-1.71,16.54-3.1,24.91-4.19,4.11-.54,8.23-.99,12.37-1.37,4.15-.38,8.31-.68,12.47-.92,13.02-.75,26.1-.88,39.15-1.05,6.09-.08,12.17-.15,18.25-.3,4.12-.1,8.24-.21,12.36-.32,8.92-.22,17.86-.43,26.79-.54,4.06-.06,8.13-.1,12.19-.1,7.9-.03,15.81,.04,23.71,.25,.65,.02,1.3,.04,1.96,.07h0c14.61,.48,29.04,1.91,43.47,3.54,8.34,.94,16.69,1.93,25.08,2.83,.99,.11,1.98,.22,2.97,.32,1.7,.18,3.39,.35,5.09,.51,12.59,1.22,25.21,2.07,37.84,2.88,9.16,.58,18.32,1.12,27.48,1.74,1.66,.11,3.32,.23,4.97,.35,8.78,.63,17.72,1.13,26.66,1.91,1.54,.14,3.08,.27,4.62,.43,6.68,.65,13.34,1.51,19.91,2.71h0c3.01,.55,6,1.19,8.96,1.91,1.84,.44,3.66,.93,5.48,1.45,1.23,.36,2.46,.73,3.68,1.12,5.54,1.78,10.58,4.12,15.26,6.86,2.81,1.63,5.49,3.42,8.09,5.33,7.13,5.2,13.62,11.3,20.2,17.64,1.91,1.84,3.83,3.71,5.78,5.58,1.66,1.6,3.31,3.2,4.96,4.79,3.1,3,6.16,6.02,9.2,9.07,4.97,4.96,9.85,9.98,14.62,15.12,1.91,2.05,3.79,4.13,5.65,6.23,3.35,3.76,6.62,7.59,9.81,11.51,2.31,2.85,4.57,5.74,6.77,8.67,2.5,3.32,4.93,6.7,7.31,10.11,7.26,10.39,14.04,21.11,20.81,31.84,2.59,4.1,5.18,8.21,7.78,12.29,2.21,3.45,4.44,6.89,6.7,10.3,6.16,9.32,12.58,18.47,19.57,27.22,.14,.18,.27,.35,.41,.52,2.02,2.52,4.12,5.03,6.33,7.54,.32,.36,.65,.73,.98,1.09,16.55,18.55,38.04,35.76,62.07,39.24,3.71,.53,7.48,.75,11.3,.58,1.16-.05,2.33-.14,3.51-.25h0c4.01-.41,8.06-1.23,12.15-2.52,9.99-3.15,19.18-8.12,27.84-13.94,5.88-3.95,11.52-8.3,16.99-12.73,3.31,5.57,5.46,12.14,7.02,17.93,.44,1.65,.87,3.32,1.26,4.98,.74,3.1,1.39,6.21,1.95,9.34,.92,5.05,1.58,10.15,1.96,15.25,.07,.89,.12,1.78,.18,2.67,.12,2.16,.19,4.33,.19,6.51,.01,.1,.01,.19,.01,.3,.03,3.52-.06,7.05-.28,10.58Z"/>
        <path class="cls-18" d="M835.69,87.39c-5.95,6.69-11.93,12.97-17.07,20.3-4.91,6.99-9,14.42-12.47,22.14-2.37,5.29-4.45,10.73-6.29,16.26-11.57-.88-23.16-1.51-34.74-2.41-14.7-1.14-29.29-3.09-43.89-5.13-29.27-4.09-58.57-6.48-88.12-7.27-29.75-.79-59.38,.29-89.11,.96-14.69,.33-29.4,.22-44.08,1.01-14.42,.77-28.74,2.86-43.1,4.35-13.21,1.37-26.46,2.72-39.62,4.47-6.25,.83-13.23,1.79-19.48,4.14,2.23-17.47,6.87-34.65,13.77-50.85,3.31-7.77,7.14-15.31,11.47-22.55,7.59,10.58,22.41,14.14,35.1,11.24,12.7-2.9,23.53-11.15,32.72-20.38,9.19-9.22,17.18-19.63,26.8-28.41,1.74,7.02,8.36,12.1,15.44,13.59,7.07,1.49,14.47-.1,21.2-2.75,17.25-6.8,30.94-20.18,44.12-33.22-3.11,14.54,11.43,28.42,26.29,29.05,14.86,.63,28.53-8.44,38.63-19.35,.96,16.58,12.7,32.03,28.42,37.39,15.72,5.37,34.45,.32,45.35-12.21,2.38,9.8,4.38,20.16,12.13,26.62,4.55,3.79,10.55,5.78,16.46,5.45,5.91-.32,11.66-2.96,15.77-7.22,2.87,9.59,10.16,17.44,19.26,21.62,3.61,1.66,7.56,2.7,11.53,2.53,4.02-.17,7.89-1.58,11.58-3.18,4.11-1.8,8.09-3.87,11.92-6.21Z"/>
        <path class="cls-5" d="M230.44,606.87c1.1,8.12,.64,16.06-.99,23.81-.65-.43-1.28-.85-1.93-1.28-1.75-1.17-3.51-2.35-5.26-3.52-12.56-8.44-25.05-16.97-37.42-25.7-8.07-5.7-16.08-11.61-24.12-17.5-.39-1.69-.86-3.38-1.38-5.03-1.15-3.64-2.58-7.27-2.72-11.08-.17-4.58,1.56-9,2.32-13.51,1.26-7.45-.13-15.07-1.5-22.49-2.86-15.37-5.71-30.76-8.56-46.13-.65-3.54-1.32-7.17-.76-10.72,.71-4.52,3.29-8.49,4.75-12.81,4.86-14.35-3.04-30.41,.62-45.12,3.26-13.09,15.36-25.9,9.44-38.02-1.85-3.77-5.31-6.79-6.12-10.91-1.54-7.87,7.37-15.33,5.08-23.03-1.3-4.35-5.76-6.93-8.21-10.76-.21-.33-.4-.66-.59-.99,11.9-6.86,23.49-14.31,34.55-22.77,11.36-8.7,22.23-17.95,32.84-27.5-.59,7.95-4.56,15.3-7.45,22.78-3.07,7.92-4.85,17.33-.4,24.57,4.12,6.7,12.54,9.77,16.77,16.4,12.2,19.12-19.51,44.57-8.69,64.51,1.51,2.76,3.76,5.13,4.84,8.08,4.62,12.61-13.98,25.94-7.96,37.93,1.9,3.8,5.89,6.14,8.25,9.68,7.33,11.05-4.19,24.71-6.33,37.8-2,12.19,4.52,24.05,6.08,36.3,1.57,12.35-1.95,24.86-.98,37.28,.78,10.08,4.5,19.73,5.85,29.75Z"/>
        <path class="cls-1" d="M432.62,633.54c-.02,7.78,.27,15.56,.61,23.33-4.97-1-10.1-1.13-15.44,.02-1.11,.24-2.19,.54-3.26,.89-2.33,.77-4.54,1.82-6.57,3.1-6.33,3.98-11.05,10.25-12.91,17.76-2.68,10.81-.96,22.67,2.33,33.15,.8,2.57,1.73,5.1,2.8,7.58-16.21-2.84-32.31-6.28-48.03-11.14-.59-.18-1.16-.37-1.74-.55,1.19-5.84,3.37-11.33,7.09-16.1,1.87-2.38,4.13-4.6,4.97-7.51,1.45-4.98-1.7-9.97-3.61-14.8-2.3-5.79-2.87-12.1-3.42-18.31-.73-8.34-1.47-16.68-2.2-25.02-.98-11.16-1.88-22.86,2.64-33.11,2.5-5.68,6.69-11.26,5.71-17.39-.61-3.79-3.14-6.96-4.73-10.46-8.17-18,9.63-39.31,3.46-58.09-3.44-10.45-13.83-18.04-15.32-28.94-2.13-15.4,14.51-29.34,10.9-44.46-1.21-5.03-4.57-9.34-5.92-14.34-3.57-13.23,7.54-28.05,1.55-40.37-2.93-6.02-9.46-9.92-11.55-16.28-3.96-12.06,10.06-25.01,5.27-36.77-1.6-3.93-5.12-6.93-6.26-11.01-1.65-5.94,2.17-11.84,3.96-17.74,4.86-16.04-5.49-33.17-2.98-49.73,.92-6.11,3.57-11.9,4.13-18.05,.65-7.15-1.56-14.2-3.39-21.15-2.2-8.39-3.86-17.07-4.53-25.76,15.1-8.96,31.05-16.43,48.05-22.39,3.44-1.22,6.93-2.36,10.47-3.44,3.03-.93,6.06-1.81,9.1-2.64,6.72-1.85,13.48-3.49,20.28-4.9-.26,1.51-.66,3.02-1.2,4.52-2.45,6.79-7.29,12.44-10.41,18.95-3.11,6.5-4.17,14.98,.6,20.41,3.64,4.15,9.8,5.48,13.17,9.86,8.16,10.57-6.68,25.47-3.62,38.46,.93,3.98,3.52,7.46,4.17,11.49,1.71,10.57-10.23,20.91-5.99,30.75,1.34,3.1,4.11,5.38,5.71,8.36,4.12,7.62-.33,16.77-3.33,24.9-7.05,19.1-5.54,41.19,4.06,59.16,2.73,5.11,6.11,10.01,7.39,15.67,3.78,16.86-12.28,32.92-10.24,50.08,.64,5.39,3.06,10.47,3.57,15.88,1.26,13.19-8.89,25.3-8.36,38.54,.44,11.04,8.21,20.65,9.18,31.65,1.47,16.67-12.86,32.64-8.46,48.77,1.45,5.34,4.84,9.91,7.19,14.91,6.12,12.94,5.16,27.94,5.12,42.26Z"/>
        <path class="cls-2" d="M686.12,473.7c4.65,15.63-6.35,31.05-11.5,46.53-8.29,24.87-1.41,53.02-10.47,77.63-2.64,7.19-6.65,14.06-7.26,21.7-.5,6.19,1.28,12.3,2.69,18.34,7.15,30.75,4.8,62.07-2.11,93.01-25.14,4.6-50.89,7.82-76.55,8.25-4.22-6.11-9.51-11.39-15.4-15.99-.54-.97-1.02-1.98-1.39-3.05-6.6-18.76,20.58-35,18.4-54.76-1.43-12.93-15.26-22.48-14.98-35.49,.25-11.83,12.01-20.3,14.91-31.77,4.57-18.16-14.26-35.76-10.76-54.17,2.3-12.18,14.16-22.4,11.9-34.59-1.86-10.08-12.75-16.22-15.9-25.98-6.14-18.98,19.41-38.94,10.72-56.9-4.58-9.47-17.34-13.69-20.05-23.86-2.94-11.02,7.48-20.52,12.68-30.67,5.46-10.68,4.98-24.17-1.22-34.43-4.95-8.2-13.32-14.63-15.43-23.95-4.38-19.25,19.91-34.72,19.51-54.45-.29-14.53-14.11-26.9-12.13-41.31,1.52-11.06,11.96-19.01,14.66-29.85,3.84-15.46-9.04-31.13-6.22-46.8,.05-.3,.11-.59,.18-.88,4.06-.06,8.13-.09,12.19-.1,7.9-.03,15.81,.04,23.71,.26,.65,.02,1.3,.03,1.96,.07h0c14.61,.48,29.04,1.91,43.48,3.54,8.34,.94,16.69,1.93,25.08,2.83,1.6,7.87,.6,16-3.89,22.75-4.07,6.13-10.91,12.06-9.2,19.22,1.42,5.94,7.98,8.78,12.5,12.89,10.61,9.69,9.57,26.61,5.91,40.5-3.66,13.89-9.09,28.55-4.51,42.18,4.48,13.33,17.92,23,19.58,36.97,2.27,19.04-18.42,34.69-17.49,53.84,.48,10.08,7.01,19.28,6.69,29.37-.48,14.54-15,26.44-13.48,40.91,1.1,10.4,10.23,18.2,13.21,28.23Z"/>
        <path class="cls-3" d="M868.06,488.93c-1.09,13.35,7.12,25.76,8.25,39.12,1.2,14.19-5.64,27.71-8.08,41.75-2.98,17.17,.67,34.69,2.3,52.05,.73,7.75,1.05,15.54,.94,23.32-4.85,3.4-9.76,6.71-14.74,9.92-4.46,2.88-8.97,5.7-13.53,8.43-7.46,4.48-15.02,8.75-22.71,12.81-3.69,1.96-7.41,3.87-11.15,5.72-8.77,4.36-17.65,8.44-26.66,12.26-4-3.01-7.88-6.12-10.59-10.25-8.92-13.55-1.96-31.53,5.37-46,7.33-14.46,14.93-31.93,6.97-46.06-3.44-6.1-9.41-10.59-12.19-17.01-4.4-10.15,.42-21.84,6.2-31.26,5.78-9.43,12.87-18.9,13.26-29.96,.62-16.74-14.36-31.29-13.07-48,1.36-17.5,20.23-31.05,18.32-48.51-.77-7.09-4.98-13.37-6.4-20.36-3.97-19.54,14.35-39.09,8.8-58.25-2.85-9.81-11.51-17.13-14.37-26.94-4.73-16.19,7.55-32.29,9.08-49.08,.97-10.6-2.41-21.23-1.56-31.84,.62-7.72,3.47-15.24,3.2-22.98-.6-17.23-16.41-33.31-10.76-49.59,.39-1.14,.89-2.23,1.47-3.27,6.68,.65,13.34,1.51,19.91,2.71h0c3.01,.55,5.99,1.19,8.95,1.91,1.84,.44,3.66,.93,5.48,1.45,1.23,.36,2.46,.73,3.67,1.12,5.54,1.79,10.58,4.12,15.26,6.86,2.81,1.63,5.49,3.42,8.09,5.33,7.13,5.2,13.62,11.3,20.19,17.64,1.91,1.84,3.83,3.71,5.78,5.58,1.66,1.6,3.31,3.2,4.96,4.79,3.1,3,6.16,6.02,9.2,9.06-4.84,12.1-15.07,23.79-10.52,35.78,2.15,5.66,7.26,9.67,10.31,14.91,12.58,21.62-14.56,48.47-7.76,72.54,2.52,8.91,9.51,16.21,11.16,25.31,3.43,18.89-17.1,36.22-13.15,55.02,1.5,7.15,6.41,13.21,7.91,20.36,3.94,18.76-16.25,34.48-17.81,53.58Z"/>
        <path class="cls-4" d="M1007,494.07c1.66,7.61-.13,15.5-1.91,23.09,0,.03,0,.05-.02,.08-1.99,1.89-3.95,3.81-5.91,5.75-2.58,2.55-5.12,5.13-7.64,7.71-5.03,5.17-9.97,10.42-14.88,15.69-.26,.28-.52,.56-.78,.84-2.41,2.59-4.81,5.19-7.21,7.78-3.79,4.09-7.58,8.18-11.38,12.25-.34,.37-.66,.71-1.01,1.08,1.03-2.79,1.49-5.61,.93-8.47-1.39-7.02-8.6-11.37-11.5-17.92-6.64-15.05,11.84-30.36,10.96-46.78-.36-6.62-3.89-12.75-4.13-19.36-.43-11.42,8.94-22.19,6.22-33.29-2.41-9.91-13.8-16.27-14.63-26.44-.97-11.75,12.6-20.09,14.08-31.79,.62-4.97-1.03-9.91-1.83-14.85-1.97-12.2,1.3-24.57,4.54-36.5,1.42-5.25,3.39-11,6.49-15.42,6.16,9.32,12.58,18.47,19.57,27.22,.14,.18,.27,.35,.41,.52,2.02,2.52,4.12,5.03,6.33,7.54,.32,.37,.65,.73,.98,1.1-1.34,8.61-1.61,17.96,3.15,25.19,2.11,3.21,5.16,5.92,6.26,9.6,3.06,10.24-10.48,20.42-6.67,30.4,1.68,4.43,6.32,7.03,8.7,11.12,6.72,11.56-7.44,24.75-7.51,38.12-.05,9.08,6.45,16.87,8.39,25.74Z"/>
        <path class="cls-6" d="M1117.46,484.83c-7.4-3.47-15.04-6.75-23.05-8.32-6.25-1.22-12.58-1.51-18.86-.91-3.81-4.97-5.01-12.31-4-18.74,1.42-9.06,5.97-17.34,8.06-26.27,.58-2.49,.95-5.2-.1-7.53-1.99-4.38-7.89-5.4-10.94-9.12-3.34-4.07-2.35-10.21-.06-14.97,.9-1.89,1.99-3.71,3.04-5.53h0c4.01-.41,8.06-1.23,12.15-2.52,9.99-3.15,19.18-8.12,27.84-13.95-.31,2.91-1.18,5.91-2.07,8.61-4.35,13.38-7.02,27.32-7.88,41.38-.13,2.03-.19,4.18,.82,5.96,1.46,2.6,4.69,3.57,6.88,5.6,5.43,5.04,2.76,13.86,2.87,21.27,.09,5.38,1.89,10.57,3.27,15.77,.82,3.06,1.49,6.15,2.02,9.24Z"/>
        <path class="cls-12" d="M1366.36,604.42c-6.46,16.91-20.46,32.7-39.47,34.19-18.26,1.44-36.04-9.52-50.75-19.06-14.99-9.75-28.95-21.03-42.37-32.8-27.34-23.99-52.81-50.29-82.49-71.49-14.39-10.29-29.83-19.64-46.43-25.91-18.67-7.05-37.18-4.48-54.25,5.47-.32,.19-.65,.39-.97,.57-3.23,1.93-6.37,4.02-9.44,6.23-12.29,8.84-23.28,19.66-33.87,30.32-.08,.08-.15,.16-.23,.24-2.3,2.3-4.56,4.63-6.81,6.97-5.09,5.3-10.09,10.69-15.07,16.1-2.46,2.7-4.92,5.39-7.39,8.1-3.63,4-7.26,8-10.91,11.99-1.56,1.71-3.13,3.42-4.7,5.13-1.05,1.13-2.09,2.26-3.15,3.39-4.65,5.01-9.35,9.98-14.13,14.88-2.76,2.84-5.56,5.65-8.38,8.43-5.68,5.6-11.49,11.06-17.5,16.34-1.06,.93-2.12,1.84-3.19,2.76-1.48,1.27-2.97,2.53-4.47,3.79-5.64,4.71-11.39,9.3-17.24,13.76-3.33,2.54-6.69,5.03-10.09,7.48-5.66,4.09-11.41,8.05-17.24,11.89-.57,.37-1.13,.74-1.7,1.11-4.48,2.93-9.01,5.76-13.59,8.53-7.11,4.29-14.33,8.41-21.66,12.33-3.72,2-7.45,3.94-11.22,5.83-12.76,6.44-25.81,12.32-39.06,17.66-1.93,.78-3.86,1.55-5.79,2.29-5.29,2.07-10.63,4.05-15.99,5.94-38.44,13.55-78.98,22.21-119.37,27.36-17.14,2.19-34.35,3.54-51.62,3.48-3.85,0-7.69-.08-11.54-.24-.15,0-.3,0-.45-.02-1.78-3-3.86-5.76-6.17-8.33,4.4,.09,8.82,.1,13.25,.03,29-.48,58.14-4.53,86.34-10.11,32.75-6.48,65.1-15.27,96.33-27.07,1.59-.59,3.17-1.2,4.74-1.81,4.49-1.74,8.96-3.55,13.4-5.43,9.34-3.94,18.55-8.16,27.63-12.68,3.74-1.85,7.46-3.77,11.15-5.72,7.69-4.06,15.25-8.33,22.71-12.81,4.56-2.73,9.07-5.54,13.53-8.43,6.2-4,12.3-8.16,18.31-12.44,3.21-2.29,6.4-4.63,9.55-7.01,.39-.3,.78-.59,1.17-.88,5.72-4.34,11.27-8.85,16.69-13.49,2.59-2.22,5.14-4.46,7.67-6.73,5.94-5.35,11.74-10.85,17.42-16.46,2.99-2.93,5.94-5.91,8.86-8.9,4.26-4.34,8.46-8.72,12.64-13.15,2.75-2.91,5.48-5.83,8.21-8.77,3.8-4.07,7.58-8.16,11.38-12.25,2.4-2.59,4.81-5.18,7.21-7.78,.26-.28,.52-.56,.78-.84,4.91-5.27,9.86-10.52,14.88-15.69,2.52-2.58,5.06-5.16,7.63-7.71,6.79-6.73,13.78-13.26,21.04-19.48,4.98-4.25,10.2-8.4,15.69-12.14,3.08-2.11,6.25-4.08,9.51-5.89,7.06-3.91,14.55-6.98,22.49-8.68,8.78-1.88,17.73-1.99,26.53-.27,9.17,1.78,17.85,5.83,26.23,9.81,1.45,.69,2.89,1.4,4.32,2.12,2.68,1.34,5.31,2.75,7.92,4.21,11.27,6.29,21.97,13.57,32.23,21.4,28.46,21.69,53.62,47.25,81.1,70.1,13.51,11.23,27.62,21.79,42.85,30.59,13.89,8.03,33.58,18.7,48.92,8.14,14.45-9.95,19.73-27.81,17.81-44.59-1.05-9.21-3.94-18.32-6.57-27.18-2.9-9.78-6.43-19.37-10.36-28.78-7.87-18.88-17.22-37.28-27.1-55.18-4.68-8.47-9.23-17.04-14.11-25.39-.53-.89-1.06-1.78-1.61-2.68-1.68-2.78-3.42-5.55-4.94-8.43,3.18-5.66,5.95-11.59,8.59-17.48,2.08,3.32,4.42,6.45,6.26,9.93,.08,.15,.16,.3,.25,.46,2.25,4.19,4.7,8.27,6.93,12.47,19.3,36.15,40.31,72.68,52.15,112.13,2.8,9.32,4.77,19.19,5.58,28.89,.8,9.57-1.09,18.47-4.51,27.37Z"/>
        <path class="cls-12" d="M1389.58,258.54c-5.99,15.64-14.85,30.57-22.55,45.39-11.45,22.02-23.64,43.64-35.03,65.69-8.76,16.99-15.92,36.55-25.8,53.95-3.07,5.43-6.41,10.65-10.15,15.52-1.68-2.78-3.42-5.55-4.94-8.43,3.18-5.66,5.95-11.59,8.59-17.48,.31-.7,.63-1.41,.94-2.12,7.39-16.66,13.63-33.73,21.55-50.16,10.6-22.01,21.93-43.65,32.38-65.74,6.66-14.1,12.07-28.22,16.77-43.03,1.91-5.99,3.55-12.13,4.57-18.35,.37-2.34,.65-5.3,.7-8.1,.03-1.4,0-2.81-.09-4.2-.04-.75-.03-.88-.02-.88-.02-.07-.06-.27-.16-.78-.67-3.55-.74-3.39-1.91-5.71-1.1-2.17-.55-1.94-2.65-3.55,.51,.46-1.79-.91-1.6-.91-1.37-.54-2.79-.94-4.23-1.24-3.74-.75-7.56-.4-11.31,.25-20.94,3.64-40.73,16.44-59.33,26.17-42.63,22.3-78.11,55-114.61,85.88-15.87,13.42-31.79,26.79-47.81,40-.38,.32-.76,.63-1.14,.94-1.06,.88-2.14,1.75-3.22,2.63-13.55,10.98-28.06,21.38-44.83,26.67-5.3,1.67-10.54,2.55-15.67,2.77-3.82,.16-7.59-.05-11.3-.58-24.51-3.55-46.36-21.37-63.04-40.34-2.2-2.51-4.31-5.03-6.33-7.54-.14-.17-.27-.34-.41-.52-9.56-11.96-18.03-24.66-26.26-37.52-2.6-4.08-5.2-8.19-7.78-12.29-6.77-10.72-13.55-21.44-20.81-31.84-2.38-3.41-4.81-6.79-7.31-10.11-2.2-2.93-4.45-5.82-6.77-8.67-3.19-3.92-6.46-7.75-9.81-11.51-1.85-2.1-3.74-4.18-5.65-6.23-7.69-8.3-15.68-16.28-23.82-24.19-1.65-1.59-3.3-3.19-4.96-4.79-1.95-1.87-3.87-3.74-5.78-5.58-6.57-6.34-13.06-12.44-20.2-17.64-2.6-1.91-5.28-3.7-8.09-5.33-4.69-2.75-9.72-5.08-15.26-6.86-1.22-.39-2.44-.76-3.68-1.12-1.82-.53-3.65-1.01-5.48-1.45-2.96-.72-5.94-1.36-8.96-1.91h0c-8.07-1.49-16.29-2.43-24.52-3.14-8.94-.78-17.88-1.29-26.66-1.91-1.66-.12-3.32-.24-4.97-.35-9.16-.62-18.33-1.16-27.48-1.74-12.63-.8-25.25-1.66-37.84-2.88-1.7-.16-3.39-.33-5.09-.51-9.39-.98-18.72-2.11-28.05-3.15-14.44-1.62-28.87-3.06-43.47-3.54h0c-.66-.03-1.3-.05-1.96-.07-7.9-.21-15.81-.28-23.71-.25-12.99,.03-26,.32-38.98,.65-4.12,.1-8.25,.21-12.36,.32-6.08,.15-12.16,.23-18.25,.3-13.05,.16-26.13,.3-39.15,1.05-4.16,.24-8.32,.54-12.47,.92-4.14,.38-8.27,.83-12.37,1.37-15.28,1.98-30.32,4.99-45.19,9.09-3.04,.83-6.07,1.72-9.1,2.65-3.54,1.08-7.02,2.23-10.47,3.44-36.15,12.66-67.55,32.21-96.15,58.26-33.44,30.44-64.47,63.56-100.47,91.11-36.45,27.9-78.71,44.86-119.11,65.95-12.98,6.78-26.96,12.88-38.8,21.56-4.29,3.15-11.06,8.25-11.16,14.18-.11,6.86,7.56,11.22,12.7,14.09,11.56,6.44,25.14,11.97,27.68,26.54,2.27,13.05-7.54,20.75-18.38,25.31-9.41,3.95-37.36,10.06-30.21,25.2,3.55,7.53,12.48,12.65,19.71,15.99,10.41,4.8,21.75,7.31,32.75,10.29,46.4,12.56,83.51,44.57,122.03,71.77,12.37,8.73,24.87,17.26,37.42,25.7,1.75,1.18,3.51,2.35,5.27,3.52,6.04,4.04,12.08,8.06,18.14,12.08,17.36,11.54,33.59,24.67,50.58,36.72,17.31,12.29,35.51,23.72,55.93,30.04,15.72,4.87,31.82,8.3,48.02,11.14,3.1,.54,6.18,1.05,9.28,1.56,.18,.34,.35,.68,.52,1.01,1.61,3.01-1.02,5.78-3.59,5.76,1.96,1.88,3.7,3.95,5.28,6.18-1.85-.32-3.71-.64-5.56-.97-19.6-3.49-39.17-7.62-58.04-13.92-41.35-13.78-73.12-45.13-108.75-68.8-5.56-3.69-11.1-7.39-16.63-11.11-1.63-1.09-3.26-2.18-4.88-3.29-13.97-9.44-27.84-19.01-41.57-28.78-20.42-14.55-40.18-30.29-61.42-43.63-10.52-6.61-21.38-12.96-32.7-18.11-11.1-5.06-23.12-7.74-34.79-11.13-16.03-4.66-37.35-11.7-45.29-28.01-7.48-15.38,7.15-26.96,20.07-32.08,9.14-3.62,30.05-7.16,27.97-20.73-2.26-14.79-22.6-17.73-32.58-25.7-11.4-9.11-11.35-22.57-1.66-32.86,9.91-10.52,23.82-16.6,36.38-23.25,19.93-10.56,40.09-20.54,60.25-30.64,20.85-10.43,41.47-21.52,60.42-35.17,19.38-13.95,37.24-29.89,54.62-46.21,32.91-30.91,64.06-65.32,103.43-88.21,17.33-10.08,35.87-18.15,55.05-24.34,6.46-2.1,12.98-3.98,19.55-5.64,15.27-3.9,30.8-6.69,46.32-8.45,.68-.08,1.36-.16,2.04-.24,7.46-.81,14.94-1.5,22.41-2.11,12.94-1.06,25.89-1.9,38.84-2.74,3.72-.25,7.44-.48,11.16-.73,6.97-.47,13.92-.93,20.88-1.34,13.84-.83,27.67-1.47,41.55-1.62,4.52-.05,9.05-.04,13.59,.03,3.44,.05,6.89,.16,10.31,.3,15.65,.7,31.13,2.31,46.66,3.99,6.8,.73,13.61,1.48,20.46,2.16,3.15,.32,6.29,.61,9.45,.89h0c13.26,1.14,26.55,1.95,39.85,2.67,8.4,.46,16.8,.9,25.19,1.37,.74,.04,1.47,.08,2.21,.12,10.49,.59,21.23,1.04,31.94,1.92,7.78,.65,15.54,1.53,23.19,2.88,5.18,.93,10.3,2.06,15.33,3.49,.79,.22,1.58,.46,2.37,.69,1.78,.55,3.54,1.13,5.25,1.77,6.58,2.43,12.61,5.51,18.29,9.09,2.73,1.72,5.38,3.55,7.97,5.48,7.23,5.41,13.99,11.59,20.75,18.2,.24,.23,.47,.46,.71,.69,3.17,3.11,6.34,6.21,9.5,9.31,7.2,7.08,14.32,14.16,21.18,21.52,1.84,1.96,3.65,3.95,5.44,5.96,3.3,3.69,6.53,7.46,9.67,11.35,1.88,2.33,3.72,4.67,5.55,7.04,2.47,3.2,4.91,6.44,7.28,9.7,6.3,8.62,12.32,17.47,18.05,26.49,2.37,3.72,4.7,7.48,6.99,11.28h0c.13,.22,.26,.41,.39,.63,7.45,12.37,15.03,25.37,23.45,37.75,2.1,3.1,4.26,6.16,6.49,9.18,12.79,17.28,27.7,32.68,46.9,42.59,5.72,2.95,11.39,4.56,16.98,5.08,4.09,.38,8.14,.19,12.15-.5,26.69-4.49,51.18-30.19,70.8-46.4,19.37-16,38.32-32.51,57.52-48.71,18.96-16.01,38-32.69,58.85-46.23,19.17-12.46,39.98-22.57,60.31-32.98,16.72-8.56,37.89-17.25,56.95-12.08,30.56,8.29,21.02,46.43,12.86,67.75Z"/>
        <path class="cls-12" d="M225.3,509.23c-1.44,13.32-5.09,27.31-13.74,37.86-6.51,7.92-15.62,12.53-25.44,14.93-4.85,1.18-9.8,1.79-14.74,2.44-4.88,.64-9.91,1.95-14.81,1.54-1-.08-1.39-1.33-.51-1.9,3.77-2.48,8.33-3.02,12.7-3.94,4.32-.9,8.62-1.8,12.89-2.93,9.16-2.41,17.84-6.19,23.89-13.8,8.12-10.23,10.77-24.45,10.91-37.2,.15-13.04-3.84-26.74-.94-39.58,.46-2.03,3.34-2.26,4.34-.57,3.78,6.41,4.73,13.3,5.54,20.57,.84,7.47,.71,15.11-.09,22.58Z"/>
        <path class="cls-12" d="M307.36,463.74c-3.17,7.15-8.94,12.87-14.6,18.11-5.68,5.26-11.94,10.53-15.93,17.25-6.33,10.69-9.46,23.05-12.39,35.02-2.92,11.97-5.63,23.95-9.67,35.61-3.88,11.22-8.78,22.08-13.9,32.79-4.31,9-8.85,17.92-13.35,26.87-1.62,3.23-3.24,6.45-4.83,9.7-1.63-1.09-3.26-2.19-4.88-3.29,1.46-3.32,2.95-6.63,4.45-9.93,4.72-10.37,9.58-20.7,14.12-31.18,4.85-11.19,9.29-22.64,12.87-34.3,3.47-11.34,5.76-22.99,8.72-34.46,2.87-11.16,6.29-23.15,12.14-33.17,4.08-6.99,9.98-12.29,16.08-17.47,5.77-4.91,12.28-9.9,15.2-17.15,3.52-8.74,0-18.55-5.44-25.62-6.45-8.4-13.54-15.85-18.54-25.31-5.32-10.05-9.29-20.91-8.35-32.41,.2-2.38,3.48-2.96,4.21-.57,3.96,12.81,7.59,25.48,15.06,36.78,6.1,9.23,15.31,16.65,19.46,27.11,3.24,8.18,3.14,17.58-.43,25.64Z"/>
        <path class="cls-12" d="M348.55,539.32c.02,1.83,0,3.66-.06,5.49-.05,1.65-.12,3.3-.21,4.93-.08,1.4-.18,2.81-.32,4.21-.19,2.17-.43,4.34-.73,6.49-.5,3.66-1.16,7.3-1.94,10.91-.22,1.04-.45,2.07-.7,3.11-.63,2.67-1.33,5.32-2.09,7.96-.04,.11-.07,.22-.1,.33-1.55,5.21-3.95,9.89-7.03,14.37-2.65,3.85-5.19,8.49-9,11.28-2.16,1.57-5.36-.54-5.27-3.03,.18-4.96,2.37-10.04,3.26-14.95,.65-3.63,1.58-7.1,2.62-10.57,.5-1.67,1.02-3.34,1.55-5.03,.15-.5,.3-1,.46-1.51,.15-.5,.3-1,.46-1.51,.96-3.25,1.84-6.57,2.64-9.93,.48-2.03,.94-4.09,1.35-6.15,.64-3.17,1.19-6.37,1.63-9.58,.24-1.66,.44-3.33,.62-4.99,.41-3.88,.67-7.75,.75-11.62,.05-2.76,.01-5.5-.12-8.24-.2-4.09-.63-8.14-1.31-12.12-.63-3.68-1.47-7.3-2.55-10.83-.64-2.07-1.34-4.1-2.15-6.11-4.12-10.33-10.53-19.79-19.85-27.72-1.41-1.2,.41-3.35,1.91-2.48,10.27,5.91,18.21,14.4,23.96,24.74,.39,.71,.77,1.41,1.14,2.13,1.14,2.2,2.17,4.43,3.11,6.71,1.55,3.77,2.86,7.64,3.91,11.59,1.05,3.89,1.88,7.87,2.5,11.86,.46,2.98,.81,5.97,1.05,8.97,.32,3.77,.48,7.54,.49,11.31Z"/>
        <path class="cls-18" d="M541.98,473.66c-2.53,8-5.75,15.87-9.65,23.34-.32,.62-.66,1.24-.99,1.87-1.17,2.16-2.4,4.28-3.68,6.36-8.91,14.45-17.59,29.25-27.34,43.14-9.87,14.07-22.05,27.13-38.26,33.73-23.26,9.48-50.67,6.19-74.64,1.56-12.89-2.49-25.64-5.65-38.48-8.32-1.42-.3-2.87-.59-4.32-.89,.25-1.04,.48-2.07,.7-3.11,.78-3.61,1.44-7.25,1.94-10.91,.3-2.15,.54-4.32,.73-6.49,.14-1.4,.24-2.81,.32-4.21,.09-1.63,.16-3.28,.21-4.93,.05-1.82,.08-3.66,.06-5.49-.01-3.77-.17-7.54-.49-11.31-.25-3-.59-5.99-1.05-8.97-.62-3.99-1.45-7.97-2.5-11.86-1.05-3.95-2.36-7.82-3.91-11.59,6.53-2.13,13.11-4.14,19.7-6.12,2.47-.75,4.94-1.49,7.41-2.23,2.71-.82,5.42-1.63,8.13-2.46,23.94-7.3,48.1-13.75,71.66-22.28,23.14-8.38,46.11-17.42,69.5-25.11,9.02-2.97,22.57-5.78,27.22,5.25,4.06,9.68,.76,21.52-2.22,31.02Z"/>
        <path class="cls-12" d="M544.7,480.99c-3.99,11.41-9.33,22.06-15.72,32.29-19.17,30.7-35.84,68.26-74,78.56-23.13,6.24-47.97,3.52-71.19-.73-12.43-2.27-24.76-5.08-37.15-7.52-1.41-.28-2.82-.56-4.23-.85-5.02-1.01-10.04-2.02-15.1-2.85-.1-.02-.21-.04-.32-.05,.5-1.67,1.02-3.34,1.55-5.03,.15-.5,.3-1,.46-1.51,.15-.5,.3-1,.46-1.51,1.74,.23,3.48,.48,5.21,.78,3.36,.55,6.68,1.21,9.93,1.88,1.45,.3,2.9,.59,4.32,.89,12.85,2.68,25.59,5.83,38.48,8.32,23.97,4.63,51.38,7.92,74.64-1.56,16.21-6.61,28.39-19.67,38.26-33.73,9.75-13.89,18.43-28.7,27.34-43.14,6.06-9.82,10.86-20.57,14.33-31.57,2.99-9.5,6.28-21.34,2.22-31.02-4.64-11.03-18.2-8.22-27.22-5.25-23.39,7.69-46.36,16.73-69.5,25.11-23.55,8.53-47.71,14.98-71.66,22.28-11.75,3.59-23.56,7.01-35.24,10.81-2.71,.88-5.43,1.8-8.12,2.73-.64-2.07-1.34-4.1-2.15-6.11,2.37-1.14,4.76-2.25,7.16-3.33,14.92-6.7,30.35-12.2,46.14-16.99,28.25-8.56,56.11-17.85,83.96-27.6,12.69-4.45,25.37-9,38.34-12.55,8.05-2.2,16.5-4.77,24.96-4.12,10.94,.83,18.28,7.7,19.5,18.61,1.3,11.64-1.88,23.87-5.69,34.76Z"/>
        <path class="cls-12" d="M469.38,475.75c-29.13,11.14-58.24,22.51-87.75,32.63-11.12,3.81-22.77,7.81-34.62,10.66-3.55,.86-7.1,1.62-10.67,2.23-.2-4.09-.63-8.14-1.31-12.12,3.16-.63,6.33-1.29,9.48-1.97,12.24-2.64,24.45-5.52,36.73-8.21,14.77-3.23,29.23-6.91,43.72-11.24,14.7-4.38,29.36-8.91,44.06-13.29,.85-.26,1.16,1,.36,1.31Z"/>
        <path class="cls-12" d="M465.86,502.12c-28.94,12.54-58.56,22.31-88.84,31.02-9.36,2.7-18.88,4.66-28.47,6.18-4.27,.69-8.55,1.28-12.85,1.81,.42-3.88,.67-7.75,.75-11.62,3.88-.44,7.75-.95,11.61-1.5,9.09-1.27,18.16-2.72,27.23-4.06,30.48-4.52,60.69-13.72,89.7-23.89,1.21-.43,2.04,1.56,.88,2.06Z"/>
        <path class="cls-12" d="M455.08,535.77c-27.64,9.15-56.55,12.24-85.33,15.68-7.25,.87-14.52,1.66-21.79,2.49-4.85,.55-9.68,1.13-14.51,1.76,.64-3.17,1.19-6.37,1.63-9.58,4.47-.53,8.95-.96,13.41-1.32,5.86-.48,11.69-.85,17.44-1.18,29.66-1.72,59.62-2.96,88.72-9.37,1-.22,1.39,1.21,.43,1.52Z"/>
        <path class="cls-12" d="M437.94,572.73c-25.88,1.42-51.62-2.72-77.5-2.32-5.09,.08-10.13,.43-15.14,.94-3.55,.35-7.09,.77-10.63,1.22-1.89,.24-3.78,.48-5.67,.73,.15-.5,.31-1,.46-1.51,.96-3.25,1.85-6.56,2.64-9.92,5.03-.65,10.08-1.12,15.14-1.43,4.14-.26,8.28-.41,12.41-.44,12.95-.11,25.89,2.47,38.6,4.69,13.19,2.3,26.33,4.71,39.7,5.57,1.59,.1,1.6,2.4,0,2.48Z"/>
        <path class="cls-12" d="M598.16,816.68c-.43-12.02-1.86-24.02-3.9-35.87-1.71-9.98-3.4-20.56-7.12-30.02-.41-1.05-.85-2.07-1.32-3.07-1.4-3.03-3.05-5.88-4.91-8.56-9.58-13.87-24.63-23.41-39.79-30.7-19.21-9.24-39.89-15.26-58.82-25.09-6.46-3.35-12.94-7.87-19.59-12.27-5.43-3.59-10.98-7.1-16.71-9.82-8.86-4.2-18.16-6.53-28.21-4.38-1.11,.24-2.19,.54-3.26,.89-2.33,.77-4.54,1.82-6.57,3.11-6.33,3.98-11.04,10.24-12.91,17.76-2.68,10.81-.96,22.67,2.33,33.15,.8,2.57,1.73,5.1,2.79,7.58,.68,1.58,1.43,3.13,2.22,4.65,0,0-.02,0-.02,0-.85-1.19-1.16-.03-.47,1.3-.59,.54-.87,1.54-.19,2.21,1.65,1.64,3.1,3.45,4.39,5.39,5.4,8.16,7.96,18.52,10.92,27.58,3.99,12.18,8.31,23.56,15.58,34.23,8.87,13.03,19.41,24.82,29.78,36.66,6.51,7.43,12.87,15,19.5,22.31,23.35,25.74,70.36,70.33,101.27,29.27,13.88-18.44,15.8-44.04,15-66.29Zm-18.26,53.18c-3.93,7.85-9.91,15.49-18.29,18.83-7.64,3.04-15.94,1.73-23.41-1.14-18.38-7.02-33.59-22.26-46.89-36.24-6.05-6.37-11.85-12.97-17.66-19.56-9.22-10.47-18.78-20.65-27.45-31.58-8.24-10.38-15.29-21.23-19.93-33.67-3.99-10.67-3.86-26.86-17.27-46.48-2.97-6.1-5.62-14.06-6.62-22.04v-.02c-.56-4.52-.59-9.06,.16-13.26,.23-1.3,.54-2.57,.93-3.79,.96-3,2.41-5.75,4.47-8.08,1.64-1.86,3.66-3.46,6.13-4.72,.01,0,.01,0,.02,0,2.7-1.38,5.5-2.09,8.33-2.28h.01c7.92-.57,16.09,2.83,22.99,6.57,5.4,2.92,10.46,6.33,15.55,9.72h0c4.19,2.81,8.38,5.6,12.74,8.09,2.11,1.21,4.24,2.35,6.4,3.44,15.32,7.75,31.92,13.03,47.58,19.96,14.1,6.24,29.4,13.78,39.95,25.51h0c2.31,2.57,4.39,5.34,6.17,8.34,.04,.05,.08,.11,.11,.17,4.69,7.95,6.39,17.25,8.3,26.17,2.25,10.52,3.97,21.15,4.97,31.86,1.94,20.98,2.35,44.87-7.31,64.2Z"/>
        <path class="cls-18" d="M579.9,869.86c-3.93,7.85-9.91,15.49-18.29,18.83-7.64,3.04-15.94,1.73-23.41-1.14-18.38-7.02-33.59-22.26-46.89-36.24-6.05-6.37-11.85-12.97-17.66-19.56-9.22-10.47-18.78-20.65-27.45-31.58-8.24-10.38-15.29-21.23-19.93-33.67-3.99-10.67-3.86-26.86-17.27-46.48-2.97-6.1-5.62-14.06-6.62-22.04v-.02c-.56-4.52-.59-9.06,.16-13.26,.23-1.3,.54-2.57,.93-3.79,.96-3,2.41-5.75,4.47-8.08,1.64-1.86,3.66-3.46,6.13-4.72,.01,0,.01,0,.02,0,2.7-1.38,5.5-2.09,8.33-2.28h.01c2.49-.18,4.99,.03,7.48,.53,3.29,.65,6.54,1.78,9.63,3.14,2.03,.89,4,1.88,5.88,2.9,5.4,2.92,10.46,6.33,15.55,9.72h0c4.19,2.81,8.38,5.6,12.74,8.09,2.11,1.21,4.24,2.35,6.4,3.44,15.32,7.75,31.92,13.03,47.58,19.96,14.1,6.24,29.4,13.78,39.95,25.51h0c2.31,2.57,4.39,5.34,6.17,8.34,.04,.05,.08,.11,.11,.17,4.69,7.95,6.39,17.25,8.3,26.17,.18,.83,.35,1.65,.52,2.47,1.99,9.71,3.53,19.51,4.45,29.39,0,.05,.01,.11,.01,.16,1.93,20.94,2.31,44.76-7.33,64.04Z"/>
        <path class="cls-12" d="M525.44,845.95c-23.16-11.28-41.59-32.52-57.27-52.38-17.6-22.32-33.3-46.08-47.23-70.85-8.42-14.98-15.18-30.76-22.12-46.45-.7-1.59-3.01-.41-2.68,1.13,3.21,15.18,9.5,29.28,16.5,43.08,7.32,14.41,16.02,27.97,25.35,41.15,15.63,22.08,32.42,44.02,52.28,62.49,10.3,9.58,21.43,17.98,34.83,22.67,.48,.17,.81-.6,.35-.83Z"/>
        <path class="cls-12" d="M534.89,823.64c-40.18-35.37-76.38-74.5-106.47-118.86-4.02-5.92-7.94-11.91-11.77-17.96-3.58-5.66-6.74-13.7-12.52-17.37-1.65-1.05-4.25,.3-4.08,2.34,.5,6.15,5.11,11.5,8.34,16.55,3.6,5.63,7.27,11.21,11.03,16.73,7.45,10.94,15.25,21.65,23.38,32.09,16.61,21.35,34.8,41.32,54.77,59.58,11.41,10.44,23.46,19.6,36.36,28.13,.74,.49,1.63-.65,.96-1.24Z"/>
        <path class="cls-12" d="M544.18,799.12c-13.13-10.09-25.38-20.86-37.31-32.34-21.08-20.3-41.64-41.32-61.21-63.07-10.61-11.8-21.23-23.58-31.56-35.6-2.06-2.4-4.1-4.8-6.13-7.22,2.03-1.28,4.24-2.34,6.57-3.1,2.68,2.64,5.31,5.32,7.89,8.04h0c1.35,1.43,2.7,2.87,4.03,4.31,19.67,21.4,38.9,43.18,58.52,64.62,19.59,21.41,40.06,42.04,60.56,62.57,.88,.88-.33,2.58-1.37,1.78Z"/>
        <path class="cls-12" d="M554.78,770.9c-11.22-4.48-21.01-11.83-30.07-19.71-17.4-15.15-33.2-32.72-48.26-50.16-5.32-6.16-10.48-12.47-15.46-18.91h0c-2.83-3.67-5.6-7.37-8.32-11.12-2.28-3.15-4.53-6.39-6.67-9.73,5.73,2.72,11.28,6.23,16.71,9.82,5.53,7.75,11.38,15.24,17.42,22.56,8.56,10.39,17.5,20.46,26.46,30.55,2.97,3.34,5.94,6.76,8.96,10.18,1.25,1.4,2.51,2.81,3.78,4.2,10.69,11.76,22.27,22.94,36.58,29.63,1.5,.71,.4,3.3-1.13,2.69Z"/>
        <path class="cls-18" d="M1045.38,529.01c-.04,11.52-2.98,23.15-5.46,34.34-2.5,11.28-5.27,22.53-7.43,33.88-.36,1.86-.7,3.72-1.03,5.58-8.03,44.88-9.57,91.29-9.79,136.74-.08,15.53,1.26,31.7-.14,47.37-.47,5.26-1.25,10.46-2.49,15.58-1.97,8.1-5.8,16.93-12.54,22.2-5.17,4.04-11.57,4.94-17.93,4.61-19.19-1.01-37.36-11.46-53.51-20.95-20.24-11.9-41.27-22.3-61.88-33.51-22.15-12.04-43.57-25.16-63.64-40.44-10.67-8.13-20.71-17.07-30.95-25.75,13.26-5.34,26.3-11.22,39.06-17.66,3.77-1.89,7.5-3.83,11.22-5.83,1.01-.54,2.01-1.08,3.01-1.63,6.29-3.43,12.51-6.99,18.65-10.7,4.58-2.76,9.11-5.6,13.59-8.53,.57-.37,1.13-.73,1.7-1.11,5.83-3.84,11.58-7.8,17.24-11.89,3.4-2.45,6.76-4.94,10.09-7.48,5.86-4.46,11.61-9.05,17.24-13.76,1.5-1.25,2.99-2.52,4.47-3.79,1.07-.92,2.13-1.84,3.19-2.76,6-5.27,11.82-10.73,17.5-16.34,2.82-2.77,5.61-5.59,8.38-8.43,4.78-4.9,9.48-9.87,14.13-14.88,1.05-1.13,2.1-2.26,3.15-3.39,1.58-1.71,3.14-3.42,4.7-5.13,3.65-3.99,7.28-7.99,10.91-11.99,2.46-2.71,4.92-5.41,7.39-8.1,4.98-5.42,9.98-10.81,15.07-16.1,2.25-2.35,4.51-4.67,6.81-6.97,.08-.08,.15-.16,.23-.24,10.59-10.66,21.58-21.48,33.87-30.32,2.67,7.37,4.53,15.07,5.05,22.88,.1,1.5,.15,3,.14,4.51Z"/>
        <path class="cls-12" d="M1055.91,534.94c-2.57,27.14-11.87,53.31-15.76,80.28-7,48.59-8.85,97.91-8.27,146.95,.24,20.45,.45,43.57-10.58,61.67-8.94,14.67-24.27,19.1-40.59,16.69-21.6-3.18-41.72-14.19-60.18-25.3-20.81-12.52-42.41-23.64-63.16-36.23-19.86-12.05-38.51-26.39-56.34-41.28-9.98-8.33-19.04-17.63-28.25-26.78-3.04-3.02-6.1-6.02-9.22-8.97,1.59-.59,3.17-1.2,4.74-1.81,3.46,2.77,6.87,5.61,10.26,8.49,10.24,8.68,20.27,17.62,30.95,25.75,20.07,15.28,41.48,28.4,63.64,40.44,20.61,11.22,41.64,21.62,61.88,33.51,16.15,9.5,34.32,19.95,53.51,20.95,6.37,.33,12.76-.57,17.93-4.61,6.74-5.27,10.57-14.1,12.54-22.2,4.96-20.34,2.53-42.21,2.64-62.95,.23-47.33,1.89-95.72,10.82-142.32,2.17-11.35,4.93-22.59,7.43-33.88,2.48-11.19,5.42-22.81,5.46-34.34,.03-9.35-2-18.61-5.19-27.39-.52-1.45-1.07-2.88-1.65-4.29-.83-2.02-1.72-4.01-2.66-5.97,3.08-2.11,6.25-4.08,9.51-5.89,1.54,3.25,2.97,6.56,4.24,9.92,.23,.59,.45,1.18,.67,1.78,4.38,11.96,6.82,25.02,5.61,37.78Z"/>
        <path class="cls-18" d="M1097.22,74.39c-1.82,4.6-3.71,9.19-5.62,13.77-3.14,7.51-6.37,15-9.6,22.51-15.3,35.55-30.56,71.29-35.98,109.81-4.01,28.48-.15,56.25,4.24,84.42,1.96,12.64,4.15,25.14,6.65,37.68,2.29,11.46,4.44,23.38,3.22,35.1-5.6-.52-11.26-2.13-16.98-5.08-19.21-9.91-34.12-25.31-46.9-42.59-2.23-3.01-4.39-6.07-6.49-9.18-8.42-12.39-15.99-25.38-23.45-37.75-.13-.21-.26-.41-.39-.62h0c-2.29-3.8-4.62-7.56-6.99-11.28-5.74-9.02-11.75-17.87-18.05-26.49-2.38-3.26-4.81-6.5-7.28-9.7-1.83-2.36-3.68-4.71-5.55-7.04-3.14-3.89-6.36-7.66-9.67-11.35-1.79-2.01-3.6-4-5.44-5.96-6.86-7.37-13.97-14.45-21.18-21.52-3.15-3.1-6.33-6.2-9.5-9.31-.24-.23-.47-.46-.71-.69-6.76-6.61-13.52-12.79-20.75-18.2-2.59-1.93-5.24-3.76-7.97-5.48-5.68-3.58-11.71-6.66-18.29-9.09,3.48-3.32,7.08-6.49,10.74-9.57,7.92-6.65,16.4-12.47,24.95-18.27,2.56-1.74,5.13-3.48,7.7-5.21,7.44-5.03,14.92-9.99,22.52-14.74,1.72-1.08,3.45-2.14,5.18-3.19,11.51-6.99,22.6-14.64,34.2-21.49,11.56-6.83,23.31-13.28,35.37-19.17,23.66-11.54,48.24-20.52,73.6-27.5,13.6-3.75,32-10.77,45.48-4.8,7.59,3.35,10.22,11.83,10.38,19.6,.24,11.17-3.39,22.13-7.46,32.38Z"/>
        <path class="cls-12" d="M1106.56,82.35c-10.02,23.92-20.64,47.57-29.87,71.83-10.11,26.57-18.99,54.33-20.62,82.89-.87,15.21,.47,30.43,2.6,45.48,1.97,13.97,3.88,28.05,6.55,41.9,3.07,15.94,8.67,35.26,7.08,52.74-.52,5.78-1.82,11.35-4.26,16.53-3.82,.16-7.59-.05-11.3-.58,1.45-4.58,2.67-9.4,3.26-14.09,.06-.45,.11-.91,.15-1.36,1.22-11.73-.94-23.65-3.22-35.1-2.5-12.54-4.69-25.04-6.65-37.68-4.4-28.17-8.25-55.94-4.24-84.42,7.26-51.62,32.19-98.24,51.2-146.09,4.07-10.26,7.7-21.21,7.46-32.38-.17-7.77-2.8-16.25-10.38-19.6-13.48-5.97-31.89,1.04-45.48,4.8-25.36,6.98-49.94,15.96-73.6,27.5-12.06,5.88-23.82,12.34-35.37,19.17-11.6,6.85-22.69,14.5-34.2,21.49-12.06,7.31-23.73,15.22-35.4,23.14-8.54,5.81-17.02,11.63-24.95,18.27-3.66,3.08-7.26,6.25-10.74,9.57-4.1,3.88-8.03,7.95-11.7,12.24-.7,.81-1.38,1.63-2.07,2.47-1.82-.53-3.65-1.01-5.48-1.45,3.38-5.5,7.34-10.75,11.64-15.72,6.49-7.54,13.71-14.49,20.75-20.84,9.64-8.71,19.97-16.73,30.22-24.7,11.61-9.03,23.17-18.12,35.5-26.13,44.44-28.89,93.13-49.75,144.66-62.14,16.41-3.95,39.11-7.7,51.38,7.27,15.23,18.59,5.23,45.63-2.9,65.02Z"/>
        <path class="cls-18" d="M1376.62,225.68c-.05,2.8-.33,5.76-.7,8.1-1.01,6.22-2.66,12.36-4.57,18.35-4.28,13.48-9.13,26.39-15,39.22-.58,1.27-1.17,2.54-1.77,3.82-10.45,22.08-21.78,43.73-32.38,65.74-7.92,16.43-14.17,33.51-21.55,50.16-.32,.7-.63,1.41-.94,2.12-2.64,5.89-5.41,11.82-8.59,17.48,1.52,2.88,3.26,5.65,4.94,8.43,.54,.89,1.08,1.78,1.61,2.68,4.88,8.35,9.44,16.92,14.11,25.39,9.87,17.9,19.23,36.3,27.1,55.18,.52,1.24,1.03,2.49,1.53,3.74,3.32,8.21,6.3,16.56,8.82,25.04,2.63,8.85,5.53,17.97,6.57,27.18,1.92,16.78-3.36,34.64-17.81,44.59-15.34,10.56-35.03-.11-48.92-8.14-15.23-8.81-29.35-19.36-42.85-30.59-27.48-22.85-52.64-48.41-81.1-70.1-10.26-7.82-20.96-15.1-32.23-21.4,2.31-2.74,3.77-6.63,5.09-9.54,1.11-2.42,2.12-4.89,3.03-7.39,.44-1.19,.87-2.39,1.27-3.6,.66-1.98,1.26-3.98,1.81-6,.28-1.05,.55-2.11,.81-3.17,.41-1.69,.8-3.39,1.15-5.1,.66-3.23,1.22-6.5,1.67-9.77,.79-5.7,1.28-11.44,1.55-17.17,.02-.34,.03-.69,.04-1.03,.13-3.28,.17-6.57,.11-9.87-.02-1.09-.05-2.19-.1-3.29-.12-3.14-.33-6.29-.65-9.42-.58-5.8-1.54-11.56-2.91-17.21-.69-2.89-1.5-5.74-2.44-8.56-.33-.99-.67-1.98-1.03-2.96-.55-1.5-1.13-2.99-1.74-4.46-2.02-4.78-4.37-9.54-7.67-13.43,16.03-13.2,31.95-26.58,47.81-40,36.5-30.88,71.99-63.59,114.61-85.88,18.59-9.73,38.39-22.53,59.33-26.17,3.75-.65,7.57-1,11.31-.25,1.44,.3,2.86,.71,4.23,1.24-.19,0,2.11,1.37,1.6,.91,2.1,1.61,1.56,1.38,2.65,3.55,1.17,2.31,1.24,2.15,1.91,5.71,.1,.51,.14,.71,.16,.78,0,0-.03,.14,.02,.88,.08,1.4,.12,2.8,.09,4.2Z"/>
        <path class="cls-12" d="M1149.3,429.9c-.02,.34-.03,.69-.04,1.03-.26,5.73-.76,11.47-1.55,17.17-.46,3.27-1.01,6.54-1.67,9.77-.35,1.71-.73,3.41-1.15,5.1-.26,1.06-.53,2.12-.81,3.17-.88,3.24-1.91,6.45-3.08,9.59-.91,2.5-1.92,4.96-3.03,7.39-1.32,2.91-2.79,6.8-5.09,9.54-1.16,1.4-2.53,2.48-4.21,2.99-2.36,.72-4.21-1.2-4.43-3.37-.14-1.36,.19-2.62,.72-3.83,.78-1.78,2.02-3.44,2.93-5.12,1.71-3.17,3.23-6.46,4.51-9.82,.26-.66,.5-1.33,.74-2,1.45-4.01,2.64-8.09,3.63-12.22,.33-1.37,.64-2.75,.93-4.12,.1-.5,.21-.98,.3-1.47,.51-2.58,.96-5.2,1.35-7.83,.69-4.63,1.18-9.33,1.45-14.02,.22-3.53,.32-7.06,.28-10.58,0-.1,0-.19-.01-.3,0-2.18-.07-4.35-.19-6.51-.05-.89-.1-1.78-.18-2.67-.37-5.1-1.04-10.2-1.96-15.25-.55-3.14-1.21-6.25-1.95-9.34-.39-1.67-.82-3.33-1.26-4.98-1.56-5.79-3.71-12.36-7.02-17.93-1.8-3.03-3.95-5.76-6.54-7.9-1.52-1.26,.43-3.13,1.91-2.49,3.65,1.58,6.56,3.95,8.98,6.81,3.3,3.89,5.65,8.65,7.67,13.43,1.02,2.43,1.95,4.91,2.77,7.42,.94,2.82,1.74,5.67,2.44,8.56,1.37,5.65,2.32,11.41,2.91,17.21,.32,3.13,.53,6.29,.65,9.42,.04,1.1,.08,2.2,.1,3.29,.06,3.31,.02,6.6-.11,9.87Z"/>
        <path class="cls-12" d="M1315.22,258.63c-15.97,7.11-30.08,17.83-44.35,27.77-29.23,20.36-57.23,42.14-83.31,66.43-12.14,11.31-24.47,22.31-37.06,33.14-1.59,1.37-3.16,2.75-4.73,4.14-2.36,2.12-4.7,4.27-7.02,6.43-.55-3.14-1.21-6.25-1.95-9.34,2.16-1.91,4.35-3.78,6.52-5.64,1.99-1.69,3.95-3.36,5.88-5.03,26.67-23.14,52.57-47.02,80.85-68.24,13.89-10.42,28.19-20.26,42.66-29.87,12.99-8.62,26.84-16.73,41.55-22.06,1.32-.48,2.23,1.7,.95,2.27Z"/>
        <path class="cls-12" d="M1248.52,357.86c-23.96,8.78-44.54,24.97-65.69,38.83-10.83,7.11-22.07,13.73-33.41,20-.03,.02-.07,.03-.1,.05-2.51,1.39-5.03,2.76-7.54,4.13-.23,.14-.46,.26-.69,.38,0-.1,0-.2,0-.3,0-2.18-.08-4.35-.2-6.5-.05-.89-.1-1.78-.18-2.67,1.91-1.1,3.83-2.19,5.76-3.25,.74-.41,1.47-.82,2.21-1.22,10.65-5.84,21.4-11.45,31.73-17.85,21.63-13.39,42.39-27.82,67.39-34.22,1.72-.44,2.34,2.02,.72,2.61Z"/>
        <path class="cls-12" d="M1249.46,413.92c-24.16-.31-46.91,8.82-70.39,12.9-9.9,1.72-19.84,3-29.81,4.11-2.81,.31-5.63,.61-8.45,.9,.22-3.53,.31-7.06,.28-10.58,0-.1,0-.2,0-.3,.23-.03,.46-.06,.7-.09,2.54-.29,5.08-.57,7.64-.84,9.67-1.04,19.34-2.04,28.94-3.62,23.23-3.82,47.97-9.24,71.47-5.14,1.54,.27,1.13,2.68-.36,2.66Z"/>
        <path class="cls-12" d="M1277.85,550.32c-13.13-4.99-25.49-11.65-37.83-18.34-22.15-12.01-44.01-24.63-65.87-37.15-10.95-6.28-21.62-12.97-32.77-18.91-.12-.07-.25-.13-.37-.2-2.63-1.4-5.25-2.81-7.86-4.23,1.45-4,2.64-8.09,3.63-12.22,2.73,1.17,5.42,2.39,8.11,3.68,2.17,1.04,4.33,2.11,6.47,3.22,11.16,5.77,22.44,11.69,32.92,18.65,10.52,6.97,20.93,14.12,31.31,21.33,20.81,14.44,42.1,28.09,63.04,42.31,.89,.6,.35,2.29-.79,1.85Z"/>
        <path class="cls-12" d="M1266.03,488.12c-27.07-4.87-53.54-13.28-80.18-20.14-13.22-3.42-26.69-6.33-39.82-10.11-.24-.07-.48-.14-.72-.2-2.58-.75-5.11-1.6-7.61-2.51,.1-.49,.2-.98,.3-1.47,.51-2.58,.96-5.2,1.35-7.83,2.79,.75,5.57,1.5,8.36,2.24,.08,.02,.14,.04,.22,.06,13.76,3.69,27.86,5.77,41.5,9.99,13.42,4.15,26.78,8.49,40.16,12.78,12.71,4.08,25.65,8.5,37.48,14.72,1.45,.77,.37,2.73-1.05,2.47Z"/>
        <path class="cls-12" d="M1004.84,55.33c-16.07,5.31-30.53,15.17-44.07,25.11-11.96,8.78-23.23,18.43-34.73,27.8-12.96,10.54-26.53,20.31-39.7,30.59-8.95,6.98-17.45,14.28-25.53,22.1-3.49,3.38-6.92,6.87-10.27,10.48-.92,.99-1.83,1.98-2.74,2.98-2.59-1.91-5.28-3.7-8.09-5.33,3.1-3.29,6.22-6.55,9.35-9.79,1.25-1.29,2.51-2.57,3.78-3.82,22.26-22.02,48.72-39.62,73.68-58.37,23.69-17.8,48.06-37.51,77.77-43.7,1.28-.27,1.79,1.55,.54,1.96Z"/>
        <path class="cls-12" d="M1002.61,78.44c-14,13.92-28.41,27.43-42.8,40.94-12.78,11.99-25.65,23.93-37.82,36.53-10.39,10.76-20.01,22.25-30.21,33.2-1.39,1.49-2.78,2.96-4.19,4.42-2.9,3-5.88,5.9-8.83,8.84-1.65-1.59-3.3-3.19-4.96-4.79-1.95-1.87-3.87-3.74-5.78-5.58,4.41-4.4,9.06-8.58,13.56-12.9,.1-.1,.2-.2,.31-.3,12.25-11.79,24.5-23.5,37.35-34.64,26.71-23.14,55.05-44.29,82.1-67.02,.88-.73,2.12,.45,1.28,1.28Z"/>
        <path class="cls-12" d="M1020.76,92.68c-13.31,13.13-26.05,26.93-38.56,40.82-22.13,24.57-42.58,50.48-60.64,78.19-1.06,1.63-2.12,3.27-3.17,4.91-3.44,5.37-6.83,10.77-10.18,16.2-1.85-2.1-3.74-4.18-5.65-6.22,3.42-5.35,6.87-10.66,10.38-15.93,11.22-16.83,23.04-33.22,36.19-48.69,21.62-25.42,44.44-49.48,70.52-70.38,.77-.62,1.85,.38,1.11,1.11Z"/>
        <path class="cls-12" d="M1027.5,105.61c-9.85,16.51-20.11,32.83-31.07,48.63-18.48,26.61-36.47,53.52-51.4,82.31-1.4,2.7-2.77,5.42-4.13,8.15-3.02,6.09-5.93,12.23-8.79,18.39-2.38-3.41-4.81-6.79-7.31-10.11,2.83-6.03,5.76-12.03,8.82-17.98,8.87-17.35,18.7-34.25,29.79-50.07,19.56-27.92,40.6-54.46,62.69-80.41,.68-.79,1.93,.24,1.42,1.1Z"/>
        <path class="cls-12" d="M1035.61,129.23c-10.23,15.88-19.63,32.5-27.99,49.45-15.47,31.38-29.92,62.97-39.74,96.63-.7,2.37-1.34,4.76-1.94,7.15h0c-2.07,8.2-3.66,16.47-5.25,24.75-2.6-4.08-5.2-8.19-7.78-12.29,1.77-7.98,3.74-15.88,6.04-23.74,.82-2.82,1.69-5.64,2.61-8.45,5.5-16.88,11.99-33.43,19.4-49.56,13.95-30.33,29.87-60.78,52.69-85.44,.96-1.04,2.71,.32,1.96,1.51Z"/>
        <path class="cls-12" d="M1041.82,144.69c-8.9,15.99-13.97,33.48-18.83,51.02-8.98,32.37-15.88,65.71-21.39,98.83-1.96,11.81-3.81,23.62-5.35,35.48-.88,6.62-1.65,13.26-2.3,19.91-.09,.96-.19,1.91-.27,2.87-2.2-2.51-4.31-5.03-6.33-7.54-.14-.17-.27-.34-.41-.52,.09-1,.2-2.02,.3-3.02,.71-6.98,1.56-13.95,2.52-20.88,4.1-29.7,10.28-58.96,17.29-88.18,7.44-31.02,14.86-62.2,33.21-88.88,.65-.95,2.13-.12,1.56,.91Z"/>
        <path class="cls-12" d="M974.22,793.05c-17.77-4.93-34.2-12.56-50.2-21.65-27.08-15.37-52.74-33.66-76.94-53.24-10.36-8.38-20.17-17.56-29.43-27.18-1.42-1.48-2.82-2.96-4.22-4.46-1.39-1.48-2.75-2.97-4.08-4.47,3.74-1.85,7.46-3.77,11.15-5.72,1.79,2,3.61,3.97,5.48,5.89,.95,.98,1.91,1.96,2.89,2.92,19.74,19.91,41.5,38.21,63.77,55.21,25.44,19.42,52.71,37.49,82.36,49.85,1.69,.71,1.1,3.35-.77,2.83Z"/>
        <path class="cls-12" d="M983.04,766.75c-15.19-8.19-31-15.08-46.15-23.38-13.55-7.41-26.16-15.89-38.51-25.16-12.4-9.3-24.68-18.88-35.1-30.4-4.39-4.86-8.64-9.87-12.75-14.99-2.49-3.07-4.92-6.17-7.31-9.3,4.56-2.73,9.06-5.54,13.53-8.43,2.5,3.03,4.93,6.11,7.37,9.2,4.12,5.22,8.27,10.42,12.82,15.3,10.52,11.27,21.8,21.74,33.36,31.94,22.98,20.27,50.26,34.34,74.39,53.09,1.26,.99-.36,2.82-1.65,2.13Z"/>
        <path class="cls-12" d="M985.38,728.76c-11.69-9.12-24.38-16.83-37.01-24.55-21.21-12.96-40.77-27.3-58.03-45.25-2.44-2.54-4.86-5.09-7.28-7.66-2.69-2.87-5.37-5.75-8.01-8.65,3.21-2.3,6.4-4.63,9.56-7.01,.39-.3,.78-.59,1.16-.88,2.49,2.98,4.93,6.03,7.38,9.06,2.74,3.39,5.49,6.77,8.32,10.07,8.01,9.29,16.55,18,25.99,25.84,19.55,16.22,41.26,29.67,59.82,47.12,1.31,1.23-.59,2.96-1.91,1.92Z"/>
        <path class="cls-12" d="M996.02,695.2c-11.5-8.13-23.83-14.97-35.62-22.68-11.57-7.57-22.62-15.71-32.81-25.08-6.01-5.52-11.67-11.39-17.19-17.39-2.68-2.91-5.31-5.84-7.93-8.79,2.59-2.22,5.14-4.46,7.67-6.73,2.65,2.98,5.28,5.99,7.92,8.98,5.07,5.75,10.17,11.45,15.49,16.89,19.49,19.88,43.66,33.87,64.24,52.5,1.22,1.11-.42,3.27-1.78,2.3Z"/>
        <path class="cls-12" d="M995.9,657.62c-20.19-11.91-38.67-27.16-54.68-44.28-1.9-2.04-3.79-4.09-5.66-6.16-2.71-2.99-5.39-6.03-8-9.11,2.98-2.93,5.94-5.91,8.86-8.9,2.46,3.23,4.96,6.43,7.52,9.58,1.92,2.38,3.87,4.73,5.87,7.06,14.92,17.43,30.36,34.56,48.15,49.16,1.52,1.25-.45,3.61-2.06,2.66Z"/>
        <path class="cls-12" d="M1002.23,628.54c-7.77-8.67-15.93-16.99-24.27-25.11-6.66-6.49-12.99-13.33-19.9-19.56-.32-.3-.65-.59-.98-.88-2.55-2.25-5.28-4.57-8.04-6.97,2.75-2.91,5.48-5.83,8.21-8.77,2.95,2.62,5.85,5.3,8.65,8.09,.24,.23,.48,.47,.72,.71,14.74,14.87,26.73,33.06,37.9,50.7,.89,1.41-1.2,3.02-2.3,1.78Z"/>
        <path class="cls-12" d="M1008.66,597.35c-10.74-11.2-21.1-22.79-31.84-34-2.57-2.68-5.15-5.33-7.77-7.95-.14-.14-.27-.27-.41-.41,2.4-2.59,4.8-5.19,7.21-7.78,.26-.28,.52-.56,.78-.84,.07,.07,.14,.14,.2,.22,2.53,2.86,4.98,5.74,7.37,8.66,10.25,12.53,19.3,25.73,26.93,40.19,.82,1.56-1.21,3.24-2.48,1.91Z"/>
        <path class="cls-12" d="M1019.95,563.28c-6.45-8.43-13.5-16.32-20.66-24.13-2.58-2.82-5.18-5.64-7.76-8.46,2.52-2.58,5.06-5.16,7.64-7.71,2.4,3,4.71,6.07,6.94,9.2,6.51,9.17,12.24,18.92,16.97,29.28,.98,2.15-1.72,3.66-3.12,1.83Z"/>
        <path class="cls-12" d="M428.26,64.45c-10.88,24.48-18.52,50.39-22.73,76.84-.66,4.17-1.24,8.35-1.73,12.54-3.04,.83-6.07,1.72-9.1,2.64-3.54,1.08-7.02,2.23-10.47,3.44,.27-4.37,.88-8.7,1.74-12.98,3.72-18.33,12.36-35.85,21.56-52.36,5.95-10.67,12.27-21.29,20.71-30.13Z"/>
        <path class="cls-12" d="M524.59,28.42c-12.3,20.36-24.64,40.78-34.4,62.47-5.74,12.76-10.58,26.02-13.88,39.61-.96,3.96-1.79,7.95-2.47,11.96-4.16,.24-8.32,.54-12.47,.92-4.14,.38-8.26,.83-12.37,1.37,.71-4.02,1.68-7.99,2.86-11.9,5.29-17.62,14.84-34.15,25.04-49.63,13.38-20.31,28.4-39.96,47.69-54.79Z"/>
        <path class="cls-12" d="M610.86,0c-29.83,36.73-51.61,79.93-63.66,125.68-1.31,5.01-2.52,10.04-3.6,15.11-4.12,.1-8.25,.21-12.36,.31-6.08,.15-12.16,.23-18.25,.31,.36-4.59,1.1-9.15,2.17-13.66,3.82-16.16,11.78-31.67,20.75-45.82,19.91-31.44,45.42-59.32,74.96-81.94Z"/>
        <path class="cls-12" d="M683.16,4.31c-32.56,33.7-56.84,75.29-70.51,120.09-1.62,5.31-3.1,10.67-4.4,16.07h0c-.65-.03-1.3-.05-1.96-.07-7.9-.21-15.81-.28-23.71-.26,1.59-5.23,3.67-10.35,5.86-15.37,.1-.24,.21-.48,.31-.71,20.71-47.02,53.53-88.65,94.41-119.76Z"/>
        <path class="cls-12" d="M756.19,32.63c-31.39,25.38-54.9,60.3-66.97,98.81h0c-1.68,5.35-3.13,10.76-4.35,16.24-1.7-.16-3.39-.33-5.09-.51-9.39-.99-18.72-2.11-28.04-3.15,1.95-5.44,4.67-10.61,7.58-15.62,.31-.54,.62-1.06,.94-1.59,23.14-38.97,56.55-71.77,95.95-94.17Z"/>
        <path class="cls-12" d="M796.91,59.07c-19.8,21.76-34.43,48.15-42.63,76.4-1.62,5.54-2.98,11.16-4.09,16.82-9.16-.62-18.32-1.16-27.48-1.74,1.73-5.61,3.88-11.11,6.38-16.45,4.88-10.45,11.09-20.31,18.21-29.38,13.92-17.75,31.22-32.61,49.62-45.65Z"/>
        <path class="cls-12" d="M846.06,77.11c-14.84,19.02-26.5,40.51-34.45,63.28-2,5.69-3.75,11.46-5.26,17.3h0c-8.07-1.49-16.29-2.43-24.52-3.14,1.71-5.84,3.94-11.54,6.61-17.04,3.67-7.58,8.19-14.79,13.33-21.46,12.07-15.65,27.52-28.5,44.31-38.94Z"/>
        <path class="cls-14" d="M1133.15,471.5c-.24,.67-.48,1.34-.74,2-1.28,3.37-2.8,6.65-4.51,9.82-.91,1.68-2.15,3.34-2.93,5.12-1.43-.72-2.87-1.43-4.32-2.12-1.05-.5-2.11-1-3.18-1.49-7.4-3.47-15.04-6.75-23.05-8.32-6.25-1.22-12.58-1.51-18.86-.91-2.57,.25-5.13,.64-7.67,1.18-7.94,1.7-15.43,4.77-22.49,8.68-3.26,1.8-6.43,3.78-9.51,5.89-5.49,3.74-10.71,7.89-15.69,12.14-5.17,4.43-10.2,9.01-15.12,13.73-1.99,1.89-3.95,3.81-5.91,5.75-2.58,2.55-5.12,5.13-7.63,7.71-5.03,5.17-9.98,10.41-14.88,15.69-.26,.28-.52,.56-.78,.84-2.41,2.6-4.81,5.19-7.21,7.78-3.79,4.09-7.58,8.18-11.38,12.25-.34,.37-.66,.72-1.01,1.08h0c-2.39,2.57-4.79,5.13-7.19,7.69-4.17,4.42-8.38,8.81-12.64,13.15-2.92,2.99-5.87,5.97-8.86,8.9-5.69,5.61-11.48,11.11-17.42,16.46-2.52,2.27-5.08,4.52-7.67,6.73-5.42,4.64-10.97,9.15-16.69,13.49-.39,.3-.77,.59-1.17,.88-3.15,2.37-6.34,4.71-9.55,7.01-1.19,.85-2.38,1.69-3.57,2.52-4.85,3.4-9.76,6.71-14.74,9.92-4.47,2.88-8.97,5.7-13.53,8.43-7.46,4.48-15.03,8.75-22.71,12.81-3.69,1.96-7.41,3.87-11.15,5.72-8.77,4.36-17.65,8.44-26.66,12.26-.32,.14-.65,.28-.97,.41-4.44,1.87-8.91,3.68-13.4,5.43-1.57,.61-3.15,1.22-4.74,1.81-31.23,11.8-63.59,20.6-96.33,27.07-3.25,.65-6.51,1.27-9.79,1.87-25.13,4.6-50.89,7.82-76.55,8.25-4.22-6.11-9.51-11.39-15.4-15.99-7.48-5.85-15.92-10.63-24.39-14.7-19.21-9.24-39.89-15.26-58.82-25.09-6.46-3.35-12.94-7.87-19.59-12.27-5.43-3.59-10.98-7.1-16.71-9.82-4.15-1.96-8.39-3.52-12.76-4.4-4.97-1.01-10.1-1.13-15.44,.01-1.11,.24-2.19,.54-3.26,.89-2.33,.77-4.54,1.82-6.57,3.11-6.33,3.98-11.04,10.24-12.91,17.76-2.68,10.81-.96,22.67,2.33,33.15,.8,2.57,1.73,5.1,2.79,7.58-16.2-2.84-32.31-6.28-48.02-11.14-.59-.18-1.16-.37-1.74-.55-19.71-6.43-37.36-17.55-54.18-29.49-16.99-12.05-33.21-25.19-50.58-36.72-5.41-3.6-10.82-7.19-16.21-10.8-.65-.43-1.28-.85-1.93-1.29-1.75-1.17-3.51-2.35-5.27-3.52-12.56-8.44-25.05-16.97-37.42-25.7-8.07-5.7-16.08-11.61-24.12-17.5-30.36-22.26-61.22-44.33-97.91-54.27-11-2.98-22.35-5.49-32.75-10.29-7.23-3.33-16.16-8.45-19.71-15.99-7.15-15.14,20.8-21.26,30.21-25.2,1.19-.5,2.36-1.04,3.51-1.62,4.76,1.45,9.3,2.79,13.45,3.74,24.68,5.65,49.28,11.69,73.61,18.7,28.12,8.09,55.89,17.44,82.84,28.85,59.79,25.32,115.72,60.77,178.59,77.02,50.4,13.02,103.18,13.1,155.21,11.29,123.28-4.29,249.13-19.62,359.49-74.74,41.41-20.68,80.31-46.81,123.93-62.31,32.69-11.62,69.52-16.52,102.61-8.18-.21,.61-.42,1.22-.64,1.83Z"/>
        <path class="cls-21" d="M1337.99,622.88c-15.34,10.56-35.03-.11-48.92-8.14-15.23-8.81-29.35-19.36-42.85-30.59-27.48-22.85-52.64-48.41-81.1-70.1-10.26-7.82-20.96-15.1-32.23-21.4,2.31-2.74,3.77-6.63,5.09-9.54,1.11-2.42,2.12-4.89,3.03-7.39,.44-1.19,.87-2.39,1.27-3.6,8.03,2.64,15.78,6.14,23.14,10.57,42.12,25.38,73.51,80.58,122.3,74.49,20.88-2.6,37.16-16.12,52.69-31.12,3.32,8.21,6.3,16.56,8.82,25.04,2.63,8.85,5.53,17.97,6.57,27.18,1.92,16.78-3.36,34.64-17.81,44.59Z"/>
        <path class="cls-10" d="M385.37,206.17c-44.17,19.41-83.73,47.75-122.93,75.87-45.26,32.47-90.51,64.95-135.77,97.42-9.97,7.15-21.22,18.27-16.6,29.63,2.68,6.6,9.87,10.06,16.67,12.17,41.13,12.72,85.01-3.05,125.54-17.57,52.49-18.81,105.63-35.8,159.28-50.95,70.47-19.89,142.87-36.7,216.05-34.43,126.42,3.93,243.27,63.82,364.31,100.55,42.46,12.89,86.85,23.06,130.93,17.99,76.14-8.75,140.39-61.76,187.56-122.16,6.06-7.76,12.2-17.94,7.92-26.81-6.54-13.53-27.05-7.66-39.5,.76-39.35,26.63-73.94,60-114.4,84.93-40.45,24.92-89.77,41.1-135.56,28.41-49.02-13.59-83.14-56.29-119.53-91.83-52.72-51.49-117.3-91.37-187.65-113.62-65.6-20.75-134.49-20.9-202.63-19.61-45.91,.86-91.66,10.76-133.71,29.24Z"/>
        <path class="cls-21" d="M531.34,498.87c-1.17,2.16-2.4,4.28-3.68,6.36-8.91,14.45-17.59,29.25-27.34,43.14-9.87,14.07-22.05,27.13-38.26,33.73-23.26,9.48-50.67,6.19-74.64,1.56-12.89-2.49-25.64-5.65-38.48-8.32-1.42-.3-2.87-.59-4.32-.89,.25-1.04,.48-2.07,.7-3.11,.78-3.61,1.44-7.25,1.94-10.91,.3-2.15,.54-4.32,.73-6.49,.14-1.4,.24-2.81,.32-4.21,.09-1.63,.16-3.28,.21-4.93,.05-1.82,.08-3.66,.06-5.49-.01-3.77-.17-7.54-.49-11.31-.25-3-.59-5.99-1.05-8.97-.62-3.99-1.45-7.97-2.5-11.86-1.05-3.95-2.36-7.82-3.91-11.59,6.53-2.13,13.11-4.14,19.7-6.12,4.12,13.94,4.66,30.47,13.09,41.26,6.63,8.49,17.09,13.11,27.55,15.68,14.49,3.56,29.8,3.76,44.39,.59,29.55-6.43,54.27-25.88,78.85-43.51,2.24-1.6,4.66-3.21,7.17-4.61Z"/>
        <path class="cls-21" d="M579.9,869.86c-3.93,7.85-9.91,15.49-18.29,18.83-7.64,3.04-15.94,1.73-23.41-1.14-18.38-7.02-33.59-22.26-46.89-36.24-6.05-6.37-11.85-12.97-17.66-19.56-9.22-10.47-18.78-20.65-27.45-31.58-8.24-10.38-15.29-21.23-19.93-33.67-3.99-10.67-3.86-26.86-17.27-46.48-2.97-6.1-5.62-14.06-6.62-22.04v-.02c-.56-4.52-.59-9.06,.16-13.26,.23-1.3,.54-2.57,.93-3.79,.96-3,2.41-5.75,4.47-8.08,1.64-1.86,3.66-3.46,6.13-4.72,.01,0,.01,0,.02,0,2.7-1.38,5.5-2.09,8.33-2.28h.01c2.49-.18,4.99,.03,7.48,.53-.47,28.19-.06,52.93,11.98,79.83,7.24,16.17,17.06,31.2,28.85,44.42,8.47,9.5,18.02,18.27,29.36,24.04,16.39,8.34,36.06,9.82,53.63,4.39,10.26-3.17,19.71-8.54,29.85-12.05,1.2-.42,2.41-.8,3.64-1.15,1.93,20.94,2.31,44.76-7.33,64.04Z"/>
        <path class="cls-21" d="M1056.92,342.58c2.29,11.46,4.44,23.38,3.22,35.1-5.6-.52-11.26-2.13-16.98-5.08-19.21-9.91-34.12-25.31-46.9-42.59-2.23-3.01-4.39-6.07-6.49-9.18-8.42-12.39-15.99-25.38-23.45-37.75-.13-.21-.26-.41-.39-.62h0c-2.29-3.8-4.62-7.56-6.99-11.28-5.74-9.02-11.75-17.87-18.05-26.49-2.38-3.26-4.81-6.5-7.28-9.7-1.83-2.36-3.68-4.71-5.55-7.04-3.14-3.89-6.36-7.66-9.67-11.35-1.79-2.01-3.6-4-5.44-5.96-6.86-7.37-13.97-14.45-21.18-21.52-3.15-3.1-6.33-6.2-9.5-9.31-.24-.23-.47-.46-.71-.69-6.76-6.61-13.52-12.79-20.75-18.2-2.59-1.93-5.24-3.76-7.97-5.48-5.68-3.58-11.71-6.66-18.29-9.09,3.48-3.32,7.08-6.49,10.74-9.57,7.92-6.65,16.4-12.47,24.95-18.27,2.56-1.74,5.13-3.48,7.7-5.21,12.85,28.35,33.36,53.52,54.35,76.93,11.65,12.99,26.11,26.78,43.51,25.49,17.35-1.28,29.61-16.93,39.56-31.2,10.93-15.69,21.87-31.38,32.81-47.07,5.54-7.95,11.27-16.09,19.32-21.49,4.28-2.88,9.4-4.82,14.51-5.29-15.3,35.55-30.56,71.29-35.98,109.81-4.01,28.48-.15,56.25,4.24,84.42,1.96,12.64,4.15,25.14,6.65,37.68Z"/>
        <path class="cls-21" d="M806.15,129.83c-2.37,5.29-4.45,10.73-6.29,16.26-11.57-.88-23.16-1.51-34.74-2.41-14.7-1.14-29.29-3.09-43.89-5.13-29.27-4.09-58.57-6.48-88.12-7.27-29.75-.79-59.38,.29-89.11,.96-14.69,.33-29.4,.22-44.08,1.01-14.42,.77-28.74,2.86-43.1,4.35-13.21,1.37-26.46,2.72-39.62,4.47-6.25,.83-13.23,1.79-19.48,4.14,2.23-17.47,6.87-34.65,13.77-50.85,3.57,5.22,5.36,11.7,8.88,16.91,4.76,7.04,12.05,12.5,20.47,14.17,3.89,.77,8.02,.82,11.75-.53,3.79-1.37,6.93-4.09,9.65-7.06,14.98-16.39,18.98-41.24,35.82-55.71-8.11,20.2-.08,45.6,18.17,57.45,2.09,1.35,4.47,2.59,6.94,2.27,3.49-.44,5.81-3.72,7.66-6.71,12.98-21.02,24.61-42.87,34.82-65.37-2.34,12.66-4.07,25.85-.65,38.26,3.42,12.4,13.21,23.87,25.97,25.53,2.7,.35,5.54,.24,7.98-.98,2.96-1.49,4.91-4.39,6.71-7.17,11.78-18.12,23.57-36.25,35.35-54.37-5.51,12.2-6.83,26.24-3.67,39.25,3.55,14.66,16.28,29.41,31.11,26.67,7.78-1.44,13.92-7.3,19.16-13.22,9.94-11.21,18.5-23.65,25.43-36.93-3.57,11.05-6.03,22.46-7.36,33.99-.41,3.55-.69,7.24,.53,10.6,2.11,5.83,8.12,9.2,13.82,11.64,5.62,2.41,11.76,4.44,17.76,3.24,9-1.8,15-10.24,19.09-18.45,4.1-8.21,7.58-17.28,14.89-22.82-4.37,9.3-3.51,20.86,2.18,29.41,5.69,8.56,16.02,13.82,26.28,13.38,1.6-.07,3.26-.25,4.75,.34,.44,.17,.82,.39,1.16,.66Z"/>
        <path class="cls-17" d="M1376.62,225.68c-.05,2.8-.33,5.76-.7,8.1-1.01,6.22-2.66,12.36-4.57,18.35-4.28,13.48-9.13,26.39-15,39.22-2.69-7.48-3.8-16.39-7.79-23.3-6.44-11.16-20.47-16.21-33.32-15.26-12.85,.94-24.78,6.84-35.97,13.22-17.12,9.75-33.43,20.87-49.05,32.86-27.4,21.04-52.64,44.74-77.24,68.95-2.75,2.71-6.47,7.04-10.67,10.78-.55-1.5-1.13-2.99-1.74-4.46-2.02-4.78-4.37-9.54-7.67-13.43,16.03-13.2,31.95-26.58,47.81-40,36.5-30.88,71.99-63.59,114.61-85.88,18.59-9.73,38.39-22.53,59.33-26.17,3.75-.65,7.57-1,11.31-.25,1.44,.3,2.86,.71,4.23,1.24-.19,0,2.11,1.37,1.6,.91,2.1,1.61,1.56,1.38,2.65,3.55,1.17,2.31,1.24,2.15,1.91,5.71,.1,.51,.14,.71,.16,.78,0,0-.03,.14,.02,.88,.08,1.4,.12,2.8,.09,4.2Z"/>
        <path class="cls-17" d="M541.98,473.66c-2.53,8-5.75,15.87-9.65,23.34-.24-1.58-.34-3.17-.33-4.7,.06-7.34,1.59-15.08-1.5-21.74-3.42-7.37-11.85-11.34-19.96-11.82-8.1-.48-16.08,1.9-23.88,4.14-30.03,8.62-60.56,15.48-91.38,20.55-6.62,1.09-18.88,5.19-27.59,3.81,2.71-.82,5.42-1.63,8.13-2.46,23.94-7.3,48.1-13.75,71.66-22.28,23.14-8.38,46.11-17.42,69.5-25.11,9.02-2.97,22.57-5.78,27.22,5.25,4.06,9.68,.76,21.52-2.22,31.02Z"/>
        <path class="cls-17" d="M1097.22,74.39c-1.82,4.6-3.71,9.19-5.62,13.77-.14-9.87,1.42-20.54-3.04-29.14-4.01-7.72-12.45-12.4-21.03-13.84-8.58-1.44-17.38-.06-25.89,1.73-33.09,6.95-64.54,20.01-95.75,33.01-14.33,5.97-28.92,13.78-43.78,18.23-.55,.17-1.1,.31-1.63,.42,1.72-1.08,3.45-2.14,5.18-3.19,11.51-6.99,22.6-14.64,34.2-21.49,11.56-6.83,23.31-13.28,35.37-19.17,23.66-11.54,48.24-20.52,73.6-27.5,13.6-3.75,32-10.77,45.48-4.8,7.59,3.35,10.22,11.83,10.38,19.6,.24,11.17-3.39,22.13-7.46,32.38Z"/>
        <path class="cls-17" d="M582.76,776.28c-12.74-16.54-32.06-27.3-51.31-35.9-21.33-9.53-43.81-17.45-62.14-31.92-10.24-8.08-27.26-23.68-29.59-37.42-.09-.53-.15-1.05-.17-1.55,2.03,.89,4,1.88,5.88,2.9,5.4,2.92,10.46,6.33,15.55,9.72h0c4.19,2.81,8.38,5.6,12.74,8.09,2.11,1.21,4.24,2.35,6.4,3.44,15.32,7.75,31.92,13.03,47.58,19.96,14.1,6.24,29.4,13.78,39.95,25.51h0c2.31,2.57,4.39,5.34,6.17,8.34,.04,.05,.08,.11,.11,.17,4.69,7.95,6.39,17.25,8.3,26.17,.18,.83,.35,1.65,.52,2.47Z"/>
        <path class="cls-21" d="M907.76,679.54c-8.04,17.13-11.35,37.26-5.03,55.09,6.32,17.82,21.64,31.42,38.9,39.15,17.25,7.73,36.39,10.22,55.28,11.2,8.22,.43,16.53,.59,24.63,1.94-.47,5.26-1.25,10.46-2.49,15.58-1.97,8.1-5.8,16.93-12.54,22.2-5.17,4.04-11.57,4.94-17.93,4.61-19.19-1.01-37.36-11.46-53.51-20.95-20.24-11.9-41.27-22.3-61.88-33.51-22.15-12.04-43.57-25.16-63.64-40.44-10.67-8.13-20.71-17.07-30.95-25.75,13.26-5.34,26.3-11.22,39.06-17.66,3.77-1.89,7.5-3.83,11.22-5.83,1.01-.54,2.01-1.08,3.01-1.63,6.29-3.43,12.51-6.99,18.65-10.7,4.58-2.76,9.11-5.6,13.59-8.53,.57-.37,1.13-.73,1.7-1.11,5.83-3.84,11.58-7.8,17.24-11.89,3.4-2.45,6.76-4.94,10.09-7.48,5.86-4.46,11.61-9.05,17.24-13.76,1.5-1.25,2.99-2.52,4.47-3.79,1.07-.92,2.13-1.84,3.19-2.76,6-5.27,11.82-10.73,17.5-16.34,2.82-2.77,5.61-5.59,8.38-8.43,4.78-4.9,9.48-9.87,14.13-14.88,1.05-1.13,2.1-2.26,3.15-3.39,1.58-1.71,3.14-3.42,4.7-5.13,3.65-3.99,7.28-7.99,10.91-11.99,2.46-2.71,4.92-5.41,7.39-8.1,4.98-5.42,9.98-10.81,15.07-16.1,2.25-2.35,4.51-4.67,6.81-6.97,.08-.08,.15-.16,.23-.24,10.59-10.66,21.58-21.48,33.87-30.32,2.67,7.37,4.53,15.07,5.05,22.88-19.96,22.61-43.82,42.72-64.39,64.68-13.64,14.56-27.04,29.35-40.18,44.35-12.47,14.23-24.86,28.88-32.9,46Z"/>
        <path class="cls-9" d="M671.14,229.89c-72.1-16.14-147.82-21.21-219.71-4.14-70.61,16.76-134.4,53.93-197.01,90.61-33.37,19.55-66.74,39.1-100.12,58.65-12.94,7.58-26.23,15.47-35.25,27.44-9.03,11.97-12.81,29.2-5.13,42.07,8.25,13.82,25.96,18.04,41.78,21,34.63,6.48,69.27,12.96,103.9,19.45,103.19,19.31,207.14,38.7,312.12,38.14,170.29-.9,336.12-54.12,505.92-67.15,29.02-2.23,58.75-3.21,86.69,4.97,22.81,6.67,44.16,19.37,67.87,21.04,4.42,.31,9.19,.13,12.77-2.48,3.88-2.83,5.43-7.81,6.68-12.44,4.31-15.93,7.93-32.05,10.84-48.3,3.37-18.8,4.8-40.88-8.88-54.2-12.79-12.46-33.43-11.59-50.67-6.96-53.97,14.51-102.08,57.56-157.61,51.27-49.93-5.66-84.31-47.98-120.46-78.28-42.45-35.58-94.71-51.45-146.38-69.39-35.23-12.23-70.95-23.15-107.35-31.3Z"/>
        <g>
          <path class="cls-15" d="M193.88,392.67c-1.74-8.42-5.21-18.32-12.52-23.57-9.3-6.67-24.7-4.36-33.84,.77-1.37,.77-3.2,1.52-4.48,2.54,.05-.15,.13-.35,.31-.66-2.17,1.08-3.88,4.48-5.3,6.36-1.62,2.15-3.18,4.36-4.63,6.63-3.04,4.75-4.14,10.15-5.23,15.51-2.85,14.07-1.7,31.3,9.49,41.79,12.03,11.28,34.01,12.37,46.41,.78,12.87-12.03,13.09-34.19,9.79-50.17Z"/>
          <g>
            <path class="cls-12" d="M172.86,362.21c-8.43-2.37-17.39-.8-25.24,4.43-7.71,5.14-13.43,13.2-16.1,22.72-5.57,19.81,3.92,39.88,21.14,44.72,2.56,.72,5.14,1.06,7.7,1.06,7.37,0,14.6-2.84,20.57-7.78,5.98-4.94,10.7-12,13.07-20.44,5.56-19.82-3.92-39.88-21.15-44.71Zm15.5,43.12c-4.69,16.7-20,27.06-34.11,23.11-14.12-3.97-21.78-20.79-17.09-37.48,2.29-8.17,7.16-15.07,13.7-19.43,4.49-2.99,9.38-4.52,14.23-4.52,2.08,0,4.15,.28,6.17,.85,14.12,3.96,21.78,20.78,17.09,37.48Z"/>
            <path class="cls-20" d="M189.5,399.42c-.21,1.96-.59,3.94-1.14,5.92-4.69,16.7-19.99,27.06-34.1,23.1-14.12-3.97-21.78-20.79-17.09-37.48,.29-1.04,.62-2.05,1-3.03,.51-1.39,1.11-2.72,1.78-4.01,2.62-5.08,6.36-9.35,10.91-12.39,4.49-2.99,9.39-4.51,14.24-4.51,2.08,0,4.14,.28,6.16,.84,10.03,2.82,16.8,12.14,18.19,23.28,.34,2.67,.36,5.46,.05,8.28Z"/>
            <path d="M167.03,383.39c-3.69-1.04-7.61-.35-11.04,1.93-3.34,2.23-5.82,5.72-6.98,9.84-2.42,8.6,1.73,17.32,9.25,19.43,1.12,.31,2.25,.46,3.37,.46,6.42,0,12.58-4.92,14.64-12.24,2.42-8.6-1.73-17.32-9.25-19.43Z"/>
            <path class="cls-7" d="M180.65,396.22c-1.09,3.87-4.66,6.25-7.98,5.32-3.32-.93-5.13-4.83-4.05-8.69,1.09-3.87,4.66-6.25,7.98-5.32,3.32,.93,5.13,4.83,4.04,8.69Z"/>
          </g>
          <path class="cls-16" d="M189.5,399.42c-.21,1.96-.59,3.94-1.14,5.92-4.69,16.7-19.99,27.06-34.1,23.1-14.12-3.97-21.78-20.79-17.09-37.48,.29-1.04,.62-2.05,1-3.03-.68,3.92-1.07,7.82-.67,11.87,.68,6.75,3.32,13.41,8.03,18.31,4.7,4.89,11.54,7.85,18.3,7.24,7.78-.71,14.56-5.96,19.01-12.38,2.88-4.16,4.93-8.79,6.66-13.55Z"/>
          <path class="cls-11" d="M189.46,391.14c-1.61-3.79-3.44-7.48-5.83-10.81-3.61-5.03-8.72-9.25-14.78-10.51-5.76-1.2-11.85,.41-16.92,3.41-3.53,2.1-6.62,4.83-9.44,7.78-.71,.74-1.56,2.05-2.54,2.91,2.62-5.08,6.36-9.35,10.91-12.39,4.49-2.99,9.39-4.51,14.24-4.51,2.08,0,4.14,.28,6.16,.84,10.03,2.82,16.8,12.14,18.19,23.28Z"/>
        </g>
        <path class="cls-8" d="M284.56,249.42c14.62-12.48,29.26-24.99,45.07-35.92,49.41-34.15,109.93-51.93,169.95-49.94,3.76,.12,7.66,.36,11,2.11,3.34,1.75,5.96,5.42,5.3,9.13-.53,2.95-2.92,5.19-5.37,6.92-8.94,6.33-19.99,8.71-30.64,11.3-88.17,21.42-170.5,66.4-236.15,129.03-7.25,6.92-54.29,49.86-60.99,24.59-3.09-11.66,13.97-22.19,20.9-28.1,12.78-10.91,25.55-21.83,38.33-32.74,14.2-12.13,28.39-24.25,42.59-36.38Z"/>
        <path class="cls-8" d="M832.82,204.1c7.93,2.55,16.1,5.39,22.11,11.15,6.01,5.77,9.23,15.3,5.31,22.65-3.4,6.36-11.2,9.35-18.41,9.03-7.2-.31-13.99-3.32-20.52-6.37-19.71-9.2-39.12-19.3-59.87-25.83-13.55-4.26-27.54-6.96-41.5-9.65-39.29-7.57-78.77-15.16-118.75-16.67-6.27-.24-56.33-3.86-44.22-19.52,3.54-4.58,16.85-2.5,21.77-2.54,11.88-.1,23.74-.11,35.62,.24,47.42,1.4,94.72,7.08,141.13,16.93,26.1,5.54,51.93,12.41,77.34,20.57Z"/>
        <path class="cls-8" d="M998.6,373.94c3.06,2.28,6.29,4.47,8.5,7.57,2.21,3.1,3.2,7.43,1.33,10.75-2.47,4.4-8.52,5.11-13.51,4.4-6.54-.94-12.77-3.41-18.68-6.37-27.38-13.72-48.14-37.69-66.16-62.46-9.73-13.38-26.19-31.18-29.05-47.92-2.33-13.63,7.58-19.47,19.8-16.05,27.38,7.68,44.68,47.44,59.91,68.84,10.85,15.24,22.77,29.98,37.86,41.24Z"/>
      </g>
      <g class="cls-19">
        <path class="cls-13" d="M485.32,243.54l-.37,.63c-.85,1.92,.76,4.49,2.8,4.46,2.04-.03,3.59-2.64,2.69-4.54-.9-1.9-3.85-2.22-5.12-.56Z"/>
        <path class="cls-13" d="M482.32,288.06l-.37,.63c-.85,1.92,.76,4.49,2.8,4.46,2.04-.03,3.59-2.64,2.69-4.54-.9-1.9-3.85-2.22-5.12-.56Z"/>
        <path class="cls-13" d="M466.23,298.56l-.37,.63c-.85,1.92,.76,4.49,2.8,4.46,2.04-.03,3.59-2.64,2.69-4.54-.9-1.9-3.85-2.22-5.12-.56Z"/>
        <path class="cls-13" d="M391.3,283.98l-.37,.63c-.85,1.92,.76,4.49,2.8,4.46,2.04-.03,3.59-2.64,2.69-4.54-.9-1.9-3.85-2.22-5.12-.56Z"/>
        <path class="cls-13" d="M375.67,293.79l-.37,.63c-.85,1.92,.76,4.49,2.8,4.46,2.04-.03,3.59-2.64,2.69-4.54-.9-1.9-3.85-2.22-5.12-.56Z"/>
        <path class="cls-13" d="M269.91,287.06l-.37,.63c-.85,1.92,.76,4.49,2.8,4.46s3.59-2.64,2.69-4.54c-.9-1.9-3.85-2.22-5.12-.56Z"/>
        <path class="cls-13" d="M575.8,289.26l-.37,.63c-.85,1.92,.76,4.49,2.8,4.46,2.04-.03,3.59-2.64,2.69-4.54-.9-1.9-3.85-2.22-5.12-.56Z"/>
        <path class="cls-13" d="M664.47,282.54l-.37,.63c-.85,1.92,.76,4.49,2.8,4.46,2.04-.03,3.59-2.64,2.69-4.54-.9-1.9-3.85-2.22-5.12-.56Z"/>
        <path class="cls-13" d="M725.47,284.98l-.37,.63c-.85,1.92,.76,4.49,2.8,4.46,2.04-.03,3.59-2.64,2.69-4.54-.9-1.9-3.85-2.22-5.12-.56Z"/>
        <path class="cls-13" d="M757.11,289.26l-.37,.63c-.85,1.92,.76,4.49,2.8,4.46,2.04-.03,3.59-2.64,2.69-4.54-.9-1.9-3.85-2.22-5.12-.56Z"/>
        <path class="cls-13" d="M676.5,296.33l-.37,.63c-.85,1.92,.76,4.49,2.8,4.46,2.04-.03,3.59-2.64,2.69-4.54-.9-1.9-3.85-2.22-5.12-.56Z"/>
        <path class="cls-13" d="M800.42,290.7l-.37,.63c-.85,1.92,.76,4.49,2.8,4.46,2.04-.03,3.59-2.64,2.69-4.54-.9-1.9-3.85-2.22-5.12-.56Z"/>
        <path class="cls-13" d="M896.78,282.6l-.37,.63c-.85,1.92,.76,4.49,2.8,4.46,2.04-.03,3.59-2.64,2.69-4.54-.9-1.9-3.85-2.22-5.12-.56Z"/>
        <path class="cls-13" d="M893.84,309.97l-.37,.63c-.85,1.92,.76,4.49,2.8,4.46,2.04-.03,3.59-2.64,2.69-4.54s-3.85-2.22-5.12-.56Z"/>
        <path class="cls-13" d="M872.49,259.99l-.37,.63c-.85,1.92,.76,4.49,2.8,4.46,2.04-.03,3.59-2.64,2.69-4.54-.9-1.9-3.85-2.22-5.12-.56Z"/>
        <path class="cls-13" d="M864.69,226.88c-.9-1.9-3.85-2.22-5.12-.56l-.37,.63c-.85,1.92,.76,4.49,2.8,4.46,2.04-.03,3.59-2.64,2.69-4.54Z"/>
        <path class="cls-13" d="M823.37,297.12l-.37,.63c-.85,1.92,.76,4.49,2.8,4.46,2.04-.03,3.59-2.64,2.69-4.54-.9-1.9-3.85-2.22-5.12-.56Z"/>
        <path class="cls-13" d="M624.08,281.16l-.37,.63c-.85,1.92,.76,4.49,2.8,4.46s3.59-2.64,2.69-4.54c-.9-1.9-3.85-2.22-5.12-.56Z"/>
        <path class="cls-13" d="M467.62,221.69l-.37,.63c-.85,1.92,.76,4.49,2.8,4.46,2.04-.03,3.59-2.64,2.69-4.54-.9-1.9-3.85-2.22-5.12-.56Z"/>
        <path class="cls-13" d="M451.73,214.18c-.9-1.9-3.85-2.22-5.12-.56l-.37,.63c-.85,1.92,.76,4.49,2.8,4.46s3.59-2.64,2.69-4.54Z"/>
        <path class="cls-13" d="M391.3,185.53l-.37,.63c-.85,1.92,.76,4.49,2.8,4.46,2.04-.03,3.59-2.64,2.69-4.54-.9-1.9-3.85-2.22-5.12-.56Z"/>
        <path class="cls-13" d="M450.87,241.29l-.37,.63c-.85,1.92,.76,4.49,2.8,4.46,2.04-.03,3.59-2.64,2.69-4.54-.9-1.9-3.85-2.22-5.12-.56Z"/>
        <path class="cls-13" d="M386.78,214.18c-.9-1.9-3.85-2.22-5.12-.56l-.37,.63c-.85,1.92,.76,4.49,2.8,4.46,2.04-.03,3.59-2.64,2.69-4.54Z"/>
        <path class="cls-13" d="M377.79,187.53c-.9-1.9-3.85-2.22-5.12-.56l-.37,.63c-.85,1.92,.76,4.49,2.8,4.46,2.04-.03,3.59-2.64,2.69-4.54Z"/>
        <path class="cls-13" d="M498.52,260.48l-.37,.63c-.85,1.92,.76,4.49,2.8,4.46,2.04-.03,3.59-2.64,2.69-4.54-.9-1.9-3.85-2.22-5.12-.56Z"/>
        <path class="cls-13" d="M514.62,242.93l-.02,.6c.15,.95,1.36,1.52,2.15,1.01,.79-.5,.85-1.88,.1-2.45-.75-.57-2-.1-2.23,.83Z"/>
        <path class="cls-13" d="M547.94,239.92c.79-.5,.85-1.88,.1-2.45-.75-.57-2-.1-2.23,.83l-.02,.6c.15,.95,1.36,1.52,2.15,1.01Z"/>
        <path class="cls-13" d="M538.48,218.15l-.02,.6c.15,.95,1.36,1.52,2.15,1.01,.79-.5,.85-1.88,.1-2.45-.75-.57-2-.1-2.23,.83Z"/>
        <path class="cls-13" d="M572.44,255.64l-.02,.6c.15,.95,1.36,1.52,2.15,1.01,.79-.5,.85-1.88,.1-2.45s-2-.1-2.23,.83Z"/>
        <path class="cls-13" d="M615.85,257.08l-.02,.6c.15,.95,1.36,1.52,2.15,1.01,.79-.5,.85-1.88,.1-2.45s-2-.1-2.23,.83Z"/>
        <path class="cls-13" d="M650.94,252.45l-.02,.6c.15,.95,1.36,1.52,2.15,1.01,.79-.5,.85-1.88,.1-2.45-.75-.57-2-.1-2.23,.83Z"/>
        <path class="cls-13" d="M777.87,251.01l-.02,.6c.15,.95,1.36,1.52,2.15,1.01,.79-.5,.85-1.88,.1-2.45-.75-.57-2-.1-2.23,.83Z"/>
        <path class="cls-13" d="M838.53,270.45l-.02,.6c.15,.95,1.36,1.52,2.15,1.01,.79-.5,.85-1.88,.1-2.45-.75-.57-2-.1-2.23,.83Z"/>
        <path class="cls-13" d="M865.24,210.64l-.02,.6c.15,.95,1.36,1.52,2.15,1.01,.79-.5,.85-1.88,.1-2.45-.75-.57-2-.1-2.23,.83Z"/>
        <path class="cls-13" d="M777.87,268.11l-.02,.6c.15,.95,1.36,1.52,2.15,1.01,.79-.5,.85-1.88,.1-2.45-.75-.57-2-.1-2.23,.83Z"/>
        <path class="cls-13" d="M802.17,249.44c.79-.5,.85-1.88,.1-2.45-.75-.57-2-.1-2.23,.83l-.02,.6c.15,.95,1.36,1.52,2.15,1.01Z"/>
        <path class="cls-13" d="M839.92,208.89l-.02,.6c.15,.95,1.36,1.52,2.15,1.01,.79-.5,.85-1.88,.1-2.45-.75-.57-2-.1-2.23,.83Z"/>
        <path class="cls-13" d="M787.39,214.04l-.02,.6c.15,.95,1.36,1.52,2.15,1.01,.79-.5,.85-1.88,.1-2.45s-2-.1-2.23,.83Z"/>
        <path class="cls-13" d="M882.18,256.25l-.02,.6c.15,.95,1.36,1.52,2.15,1.01,.79-.5,.85-1.88,.1-2.45-.75-.57-2-.1-2.23,.83Z"/>
        <path class="cls-13" d="M429.72,231.34l-.02,.6c.15,.95,1.36,1.52,2.15,1.01,.79-.5,.85-1.88,.1-2.45-.75-.57-2-.1-2.23,.83Z"/>
        <path class="cls-13" d="M386.2,231.42c.79-.5,.85-1.88,.1-2.45-.75-.57-2-.1-2.23,.83l-.02,.6c.15,.95,1.36,1.52,2.15,1.01Z"/>
        <path class="cls-13" d="M364.78,198.22c.79-.5,.85-1.88,.1-2.45-.75-.57-2-.1-2.23,.83l-.02,.6c.15,.95,1.36,1.52,2.15,1.01Z"/>
        <path class="cls-13" d="M323.84,229.59l-.02,.6c.15,.95,1.36,1.52,2.15,1.01,.79-.5,.85-1.88,.1-2.45-.75-.57-2-.1-2.23,.83Z"/>
        <path class="cls-13" d="M310.15,247.82l-.02,.6c.15,.95,1.36,1.52,2.15,1.01,.79-.5,.85-1.88,.1-2.45-.75-.57-2-.1-2.23,.83Z"/>
        <path class="cls-13" d="M528.33,257.69l-.02,.6c.15,.95,1.36,1.52,2.15,1.01,.79-.5,.85-1.88,.1-2.45-.75-.57-2-.1-2.23,.83Z"/>
        <path class="cls-13" d="M364.78,244.55c.79-.5,.85-1.88,.1-2.45-.75-.57-2-.1-2.23,.83l-.02,.6c.15,.95,1.36,1.52,2.15,1.01Z"/>
        <path class="cls-13" d="M329.09,270.45l-.02,.6c.15,.95,1.36,1.52,2.15,1.01,.79-.5,.85-1.88,.1-2.45-.75-.57-2-.1-2.23,.83Z"/>
        <path class="cls-13" d="M296.92,231.21c.79-.5,.85-1.88,.1-2.45-.75-.57-2-.1-2.23,.83l-.02,.6c.15,.95,1.36,1.52,2.15,1.01Z"/>
        <path class="cls-13" d="M359.86,213.21l-.02,.6c.15,.95,1.36,1.52,2.15,1.01,.79-.5,.85-1.88,.1-2.45-.75-.57-2-.1-2.23,.83Z"/>
        <path class="cls-13" d="M348.31,196.61c.79-.5,.85-1.88,.1-2.45-.75-.57-2-.1-2.23,.83l-.02,.6c.15,.95,1.36,1.52,2.15,1.01Z"/>
        <path class="cls-13" d="M515.36,190.23c.79-.5,.85-1.88,.1-2.45-.75-.57-2-.1-2.23,.83l-.02,.6c.15,.95,1.36,1.52,2.15,1.01Z"/>
        <path class="cls-13" d="M529.07,168.61c.79-.5,.85-1.88,.1-2.45-.75-.57-2-.1-2.23,.83l-.02,.6c.15,.95,1.36,1.52,2.15,1.01Z"/>
        <path class="cls-13" d="M470.77,266.82c.79-.5,.85-1.88,.1-2.45-.75-.57-2-.1-2.23,.83l-.02,.6c.15,.95,1.36,1.52,2.15,1.01Z"/>
        <path class="cls-13" d="M499.54,286.62l-.02,.6c.15,.95,1.36,1.52,2.15,1.01,.79-.5,.85-1.88,.1-2.45-.75-.57-2-.1-2.23,.83Z"/>
        <path class="cls-13" d="M534.15,298.77l-.02,.6c.15,.95,1.36,1.52,2.15,1.01,.79-.5,.85-1.88,.1-2.45-.75-.57-2-.1-2.23,.83Z"/>
        <path class="cls-13" d="M552.76,295.1l-.02,.6c.15,.95,1.36,1.52,2.15,1.01,.79-.5,.85-1.88,.1-2.45-.75-.57-2-.1-2.23,.83Z"/>
        <path class="cls-13" d="M459.57,284.18l-.02,.6c.15,.95,1.36,1.52,2.15,1.01,.79-.5,.85-1.88,.1-2.45-.75-.57-2-.1-2.23,.83Z"/>
        <path class="cls-13" d="M422.49,300.21l-.02,.6c.15,.95,1.36,1.52,2.15,1.01,.79-.5,.85-1.88,.1-2.45-.75-.57-2-.1-2.23,.83Z"/>
        <path class="cls-13" d="M603.72,293.99l-.02,.6c.15,.95,1.36,1.52,2.15,1.01,.79-.5,.85-1.88,.1-2.45-.75-.57-2-.1-2.23,.83Z"/>
        <path class="cls-13" d="M578.42,302.6l-.02,.6c.15,.95,1.36,1.52,2.15,1.01,.79-.5,.85-1.88,.1-2.45-.75-.57-2-.1-2.23,.83Z"/>
        <path class="cls-13" d="M644.93,290.91l-.02,.6c.15,.95,1.36,1.52,2.15,1.01,.79-.5,.85-1.88,.1-2.45-.75-.57-2-.1-2.23,.83Z"/>
        <path class="cls-13" d="M579.82,281.36l-.02,.6c.15,.95,1.36,1.52,2.15,1.01,.79-.5,.85-1.88,.1-2.45-.75-.57-2-.1-2.23,.83Z"/>
        <path class="cls-13" d="M606.66,282.8l-.02,.6c.15,.95,1.36,1.52,2.15,1.01,.79-.5,.85-1.88,.1-2.45-.75-.57-2-.1-2.23,.83Z"/>
        <path class="cls-13" d="M647.01,275.69l-.02,.6c.15,.95,1.36,1.52,2.15,1.01,.79-.5,.85-1.88,.1-2.45-.75-.57-2-.1-2.23,.83Z"/>
        <path class="cls-13" d="M697.84,293.99l-.02,.6c.15,.95,1.36,1.52,2.15,1.01,.79-.5,.85-1.88,.1-2.45-.75-.57-2-.1-2.23,.83Z"/>
        <path class="cls-13" d="M769.45,302.6l-.02,.6c.15,.95,1.36,1.52,2.15,1.01,.79-.5,.85-1.88,.1-2.45-.75-.57-2-.1-2.23,.83Z"/>
        <path class="cls-13" d="M745.78,279.92l-.02,.6c.15,.95,1.36,1.52,2.15,1.01,.79-.5,.85-1.88,.1-2.45-.75-.57-2-.1-2.23,.83Z"/>
        <path class="cls-13" d="M824.39,289.71l-.02,.6c.15,.95,1.36,1.52,2.15,1.01,.79-.5,.85-1.88,.1-2.45-.75-.57-2-.1-2.23,.83Z"/>
        <path class="cls-13" d="M854.01,293.45l-.02,.6c.15,.95,1.36,1.52,2.15,1.01,.79-.5,.85-1.88,.1-2.45-.75-.57-2-.1-2.23,.83Z"/>
        <path class="cls-13" d="M862.2,311.62l-.02,.6c.15,.95,1.36,1.52,2.15,1.01,.79-.5,.85-1.88,.1-2.45-.75-.57-2-.1-2.23,.83Z"/>
        <path class="cls-13" d="M916.26,279.72l-.02,.6c.15,.95,1.36,1.52,2.15,1.01,.79-.5,.85-1.88,.1-2.45-.75-.57-2-.1-2.23,.83Z"/>
        <path class="cls-13" d="M916.26,261.33l-.02,.6c.15,.95,1.36,1.52,2.15,1.01,.79-.5,.85-1.88,.1-2.45-.75-.57-2-.1-2.23,.83Z"/>
        <path class="cls-13" d="M846.92,284.24l-.02,.6c.15,.95,1.36,1.52,2.15,1.01,.79-.5,.85-1.88,.1-2.45-.75-.57-2-.1-2.23,.83Z"/>
        <path class="cls-13" d="M855.4,270.45l-.02,.6c.15,.95,1.36,1.52,2.15,1.01,.79-.5,.85-1.88,.1-2.45s-2-.1-2.23,.83Z"/>
        <path class="cls-13" d="M872.12,284.18l-.02,.6c.15,.95,1.36,1.52,2.15,1.01,.79-.5,.85-1.88,.1-2.45-.75-.57-2-.1-2.23,.83Z"/>
        <path class="cls-13" d="M877.89,306.85l-.02,.6c.15,.95,1.36,1.52,2.15,1.01,.79-.5,.85-1.88,.1-2.45-.75-.57-2-.1-2.23,.83Z"/>
        <path class="cls-13" d="M923.5,299.38c-.75-.57-2-.1-2.23,.83l-.02,.6c.15,.95,1.36,1.52,2.15,1.01,.79-.5,.85-1.88,.1-2.45Z"/>
        <path class="cls-13" d="M716.54,302.6l-.02,.6c.15,.95,1.36,1.52,2.15,1.01,.79-.5,.85-1.88,.1-2.45-.75-.57-2-.1-2.23,.83Z"/>
        <path class="cls-13" d="M734.71,298.77l-.02,.6c.15,.95,1.36,1.52,2.15,1.01,.79-.5,.85-1.88,.1-2.45-.75-.57-2-.1-2.23,.83Z"/>
        <path class="cls-13" d="M783.22,289.26l-.02,.6c.15,.95,1.36,1.52,2.15,1.01,.79-.5,.85-1.88,.1-2.45-.75-.57-2-.1-2.23,.83Z"/>
        <path class="cls-13" d="M451.89,297.33l-.02,.6c.15,.95,1.36,1.52,2.15,1.01,.79-.5,.85-1.88,.1-2.45-.75-.57-2-.1-2.23,.83Z"/>
        <path class="cls-13" d="M503.92,296.54l-.02,.6c.15,.95,1.36,1.52,2.15,1.01,.79-.5,.85-1.88,.1-2.45-.75-.57-2-.1-2.23,.83Z"/>
        <path class="cls-13" d="M437.6,287.27l-.02,.6c.15,.95,1.36,1.52,2.15,1.01,.79-.5,.85-1.88,.1-2.45-.75-.57-2-.1-2.23,.83Z"/>
        <path class="cls-13" d="M391.45,278.75c.79-.5,.85-1.88,.1-2.45s-2-.1-2.23,.83l-.02,.6c.15,.95,1.36,1.52,2.15,1.01Z"/>
        <path class="cls-13" d="M294.14,285.86c.79-.5,.85-1.88,.1-2.45-.75-.57-2-.1-2.23,.83l-.02,.6c.15,.95,1.36,1.52,2.15,1.01Z"/>
        <path class="cls-13" d="M229.47,285.63l-.02,.6c.15,.95,1.36,1.52,2.15,1.01,.79-.5,.85-1.88,.1-2.45-.75-.57-2-.1-2.23,.83Z"/>
        <path class="cls-13" d="M255.3,289.71l-.02,.6c.15,.95,1.36,1.52,2.15,1.01,.79-.5,.85-1.88,.1-2.45-.75-.57-2-.1-2.23,.83Z"/>
        <path class="cls-13" d="M293.4,292.35l-.02,.6c.15,.95,1.36,1.52,2.15,1.01,.79-.5,.85-1.88,.1-2.45s-2-.1-2.23,.83Z"/>
        <path class="cls-13" d="M283.02,265.21l-.02,.6c.15,.95,1.36,1.52,2.15,1.01,.79-.5,.85-1.88,.1-2.45-.75-.57-2-.1-2.23,.83Z"/>
        <path class="cls-13" d="M347.57,293.45l-.02,.6c.15,.95,1.36,1.52,2.15,1.01,.79-.5,.85-1.88,.1-2.45-.75-.57-2-.1-2.23,.83Z"/>
        <path class="cls-13" d="M365.43,273.55l-.02,.6c.15,.95,1.36,1.52,2.15,1.01,.79-.5,.85-1.88,.1-2.45-.75-.57-2-.1-2.23,.83Z"/>
        <path class="cls-13" d="M285.8,295.1l-.02,.6c.15,.95,1.36,1.52,2.15,1.01,.79-.5,.85-1.88,.1-2.45s-2-.1-2.23,.83Z"/>
        <path class="cls-13" d="M364.04,289.26l-.02,.6c.15,.95,1.36,1.52,2.15,1.01,.79-.5,.85-1.88,.1-2.45-.75-.57-2-.1-2.23,.83Z"/>
        <path class="cls-13" d="M315.5,308.42l-.02,.6c.15,.95,1.36,1.52,2.15,1.01,.79-.5,.85-1.88,.1-2.45-.75-.57-2-.1-2.23,.83Z"/>
        <path class="cls-13" d="M521.29,286.62l-.02,.6c.15,.95,1.36,1.52,2.15,1.01,.79-.5,.85-1.88,.1-2.45-.75-.57-2-.1-2.23,.83Z"/>
        <path class="cls-13" d="M547.2,281.36l-.02,.6c.15,.95,1.36,1.52,2.15,1.01,.79-.5,.85-1.88,.1-2.45-.75-.57-2-.1-2.23,.83Z"/>
        <path class="cls-13" d="M385.46,250.65l-.02,.6c.15,.95,1.36,1.52,2.15,1.01,.79-.5,.85-1.88,.1-2.45s-2-.1-2.23,.83Z"/>
        <path class="cls-13" d="M522.03,218.33c.79-.5,.85-1.88,.1-2.45-.75-.57-2-.1-2.23,.83l-.02,.6c.15,.95,1.36,1.52,2.15,1.01Z"/>
        <path class="cls-13" d="M604.46,206.7c.79-.5,.85-1.88,.1-2.45-.75-.57-2-.1-2.23,.83l-.02,.6c.15,.95,1.36,1.52,2.15,1.01Z"/>
        <path class="cls-13" d="M624.24,213.7c.79-.5,.85-1.88,.1-2.45s-2-.1-2.23,.83l-.02,.6c.15,.95,1.36,1.52,2.15,1.01Z"/>
        <path class="cls-13" d="M646.59,171.5c.79-.5,.85-1.88,.1-2.45s-2-.1-2.23,.83l-.02,.6c.15,.95,1.36,1.52,2.15,1.01Z"/>
        <path class="cls-13" d="M599.18,165.56l-.02,.6c.15,.95,1.36,1.52,2.15,1.01,.79-.5,.85-1.88,.1-2.45-.75-.57-2-.1-2.23,.83Z"/>
        <path class="cls-13" d="M629.48,158.77l-.02,.6c.15,.95,1.36,1.52,2.15,1.01,.79-.5,.85-1.88,.1-2.45-.75-.57-2-.1-2.23,.83Z"/>
        <path class="cls-13" d="M645.55,206c-.75-.57-2-.1-2.23,.83l-.02,.6c.15,.95,1.36,1.52,2.15,1.01,.79-.5,.85-1.88,.1-2.45Z"/>
        <path class="cls-13" d="M653.72,216.92l-.02,.6c.15,.95,1.36,1.52,2.15,1.01,.79-.5,.85-1.88,.1-2.45-.75-.57-2-.1-2.23,.83Z"/>
        <path class="cls-13" d="M645.86,236.22l-.02,.6c.15,.95,1.36,1.52,2.15,1.01,.79-.5,.85-1.88,.1-2.45s-2-.1-2.23,.83Z"/>
        <path class="cls-13" d="M671.37,223.34l-.02,.6c.15,.95,1.36,1.52,2.15,1.01,.79-.5,.85-1.88,.1-2.45-.75-.57-2-.1-2.23,.83Z"/>
        <path class="cls-13" d="M664.62,188.79c.79-.5,.85-1.88,.1-2.45s-2-.1-2.23,.83l-.02,.6c.15,.95,1.36,1.52,2.15,1.01Z"/>
        <path class="cls-13" d="M680.52,161.72l-.02,.6c.15,.95,1.36,1.52,2.15,1.01,.79-.5,.85-1.88,.1-2.45-.75-.57-2-.1-2.23,.83Z"/>
        <path class="cls-13" d="M713.76,248.27l-.02,.6c.15,.95,1.36,1.52,2.15,1.01,.79-.5,.85-1.88,.1-2.45-.75-.57-2-.1-2.23,.83Z"/>
        <path class="cls-13" d="M721.33,215.48l-.02,.6c.15,.95,1.36,1.52,2.15,1.01,.79-.5,.85-1.88,.1-2.45-.75-.57-2-.1-2.23,.83Z"/>
        <path class="cls-13" d="M784.61,200.46l-.02,.6c.15,.95,1.36,1.52,2.15,1.01,.79-.5,.85-1.88,.1-2.45-.75-.57-2-.1-2.23,.83Z"/>
        <path class="cls-13" d="M828.34,191.8l-.02,.6c.15,.95,1.36,1.52,2.15,1.01,.79-.5,.85-1.88,.1-2.45-.75-.57-2-.1-2.23,.83Z"/>
        <path class="cls-13" d="M816.46,263.08l-.02,.6c.15,.95,1.36,1.52,2.15,1.01,.79-.5,.85-1.88,.1-2.45-.75-.57-2-.1-2.23,.83Z"/>
        <path class="cls-13" d="M847.66,257.87c.79-.5,.85-1.88,.1-2.45-.75-.57-2-.1-2.23,.83l-.02,.6c.15,.95,1.36,1.52,2.15,1.01Z"/>
        <path class="cls-13" d="M878.63,240.71c.79-.5,.85-1.88,.1-2.45-.75-.57-2-.1-2.23,.83l-.02,.6c.15,.95,1.36,1.52,2.15,1.01Z"/>
        <path class="cls-13" d="M863.59,252.45l-.02,.6c.15,.95,1.36,1.52,2.15,1.01,.79-.5,.85-1.88,.1-2.45-.75-.57-2-.1-2.23,.83Z"/>
        <path class="cls-13" d="M699.23,270.45l-.02,.6c.15,.95,1.36,1.52,2.15,1.01,.79-.5,.85-1.88,.1-2.45s-2-.1-2.23,.83Z"/>
        <path class="cls-13" d="M695.02,228.15l-.02,.6c.15,.95,1.36,1.52,2.15,1.01,.79-.5,.85-1.88,.1-2.45-.75-.57-2-.1-2.23,.83Z"/>
        <path class="cls-13" d="M757.26,170.06c.79-.5,.85-1.88,.1-2.45s-2-.1-2.23,.83l-.02,.6c.15,.95,1.36,1.52,2.15,1.01Z"/>
        <path class="cls-13" d="M741.73,196.43l-.02,.6c.15,.95,1.36,1.52,2.15,1.01,.79-.5,.85-1.88,.1-2.45-.75-.57-2-.1-2.23,.83Z"/>
        <path class="cls-13" d="M804.43,174.01l-.02,.6c.15,.95,1.36,1.52,2.15,1.01,.79-.5,.85-1.88,.1-2.45-.75-.57-2-.1-2.23,.83Z"/>
        <path class="cls-13" d="M695.76,198.05c.79-.5,.85-1.88,.1-2.45-.75-.57-2-.1-2.23,.83l-.02,.6c.15,.95,1.36,1.52,2.15,1.01Z"/>
        <path class="cls-13" d="M699.97,167.17c.79-.5,.85-1.88,.1-2.45s-2-.1-2.23,.83l-.02,.6c.15,.95,1.36,1.52,2.15,1.01Z"/>
        <path class="cls-13" d="M562.22,194.99l-.02,.6c.15,.95,1.36,1.52,2.15,1.01,.79-.5,.85-1.88,.1-2.45-.75-.57-2-.1-2.23,.83Z"/>
        <path class="cls-13" d="M591.87,208.89l-.02,.6c.15,.95,1.36,1.52,2.15,1.01,.79-.5,.85-1.88,.1-2.45-.75-.57-2-.1-2.23,.83Z"/>
        <path class="cls-13" d="M504.66,200.03c.79-.5,.85-1.88,.1-2.45-.75-.57-2-.1-2.23,.83l-.02,.6c.15,.95,1.36,1.52,2.15,1.01Z"/>
        <path class="cls-13" d="M430.46,175.63c.79-.5,.85-1.88,.1-2.45-.75-.57-2-.1-2.23,.83l-.02,.6c.15,.95,1.36,1.52,2.15,1.01Z"/>
        <path class="cls-13" d="M498.68,167.17c.79-.5,.85-1.88,.1-2.45-.75-.57-2-.1-2.23,.83l-.02,.6c.15,.95,1.36,1.52,2.15,1.01Z"/>
        <path class="cls-13" d="M535.14,225.5c-3.51,1.1-3.59,7.48,.82,5.97,3.66-1.25,3.21-7.23-.82-5.97Z"/>
        <path class="cls-13" d="M400.08,251.55c-3.51,1.1-3.59,7.48,.82,5.97,3.66-1.25,3.21-7.23-.82-5.97Z"/>
        <path class="cls-13" d="M295.79,247.06c-3.51,1.1-3.59,7.48,.82,5.97,3.66-1.25,3.21-7.23-.82-5.97Z"/>
        <path class="cls-13" d="M471.03,200.99c-3.51,1.1-3.59,7.48,.82,5.97,3.66-1.25,3.21-7.23-.82-5.97Z"/>
        <path class="cls-13" d="M455.88,178.49c-3.51,1.1-3.59,7.48,.82,5.97,3.66-1.25,3.21-7.23-.82-5.97Z"/>
        <path class="cls-13" d="M549.74,189.15c-3.51,1.1-3.59,7.48,.82,5.97,3.66-1.25,3.21-7.23-.82-5.97Z"/>
        <path class="cls-13" d="M567.55,161.46c-3.51,1.1-3.59,7.48,.82,5.97,3.66-1.25,3.21-7.23-.82-5.97Z"/>
        <path class="cls-13" d="M567.55,209.43c-3.51,1.1-3.59,7.48,.82,5.97,3.66-1.25,3.21-7.23-.82-5.97Z"/>
        <path class="cls-13" d="M739.79,248.36c-3.51,1.1-3.59,7.48,.82,5.97,3.66-1.25,3.21-7.23-.82-5.97Z"/>
        <path class="cls-13" d="M774.78,184.52c-3.51,1.1-3.59,7.48,.82,5.97,3.66-1.25,3.21-7.23-.82-5.97Z"/>
        <path class="cls-13" d="M762.06,263.62c-3.51,1.1-3.59,7.48,.82,5.97,3.66-1.25,3.21-7.23-.82-5.97Z"/>
        <path class="cls-13" d="M679.34,189.81c3.66-1.25,3.21-7.23-.82-5.97-3.51,1.1-3.59,7.48,.82,5.97Z"/>
        <path class="cls-13" d="M810.63,209.43c-3.51,1.1-3.59,7.48,.82,5.97,3.66-1.25,3.21-7.23-.82-5.97Z"/>
        <path class="cls-13" d="M793.64,261.87c-3.51,1.1-3.59,7.48,.82,5.97,3.66-1.25,3.21-7.23-.82-5.97Z"/>
        <path class="cls-13" d="M849.3,226.94c-3.51,1.1-3.59,7.48,.82,5.97,3.66-1.25,3.21-7.23-.82-5.97Z"/>
        <path class="cls-13" d="M826.2,240.19c3.66-1.25,3.21-7.23-.82-5.97-3.51,1.1-3.59,7.48,.82,5.97Z"/>
        <path class="cls-13" d="M762.11,222.13c-3.51,1.1-3.59,7.48,.82,5.97,3.66-1.25,3.21-7.23-.82-5.97Z"/>
        <path class="cls-13" d="M899.61,267.84c3.66-1.25,3.21-7.23-.82-5.97-3.51,1.1-3.59,7.48,.82,5.97Z"/>
        <path class="cls-13" d="M902.19,237.4c-3.51,1.1-3.59,7.48,.82,5.97,3.66-1.25,3.21-7.23-.82-5.97Z"/>
        <path class="cls-13" d="M736.52,237c3.66-1.25,3.21-7.23-.82-5.97-3.51,1.1-3.59,7.48,.82,5.97Z"/>
        <path class="cls-13" d="M730.47,180.64c-3.51,1.1-3.59,7.48,.82,5.97,3.66-1.25,3.21-7.23-.82-5.97Z"/>
        <path class="cls-13" d="M574.25,244.82c3.66-1.25,3.21-7.23-.82-5.97-3.51,1.1-3.59,7.48,.82,5.97Z"/>
        <path class="cls-13" d="M613.9,231.87c-3.51,1.1-3.59,7.48,.82,5.97,3.66-1.25,3.21-7.23-.82-5.97Z"/>
        <path class="cls-13" d="M669.42,234.21c-3.51,1.1-3.59,7.48,.82,5.97,3.66-1.25,3.21-7.23-.82-5.97Z"/>
        <path class="cls-13" d="M708.15,180.64c-3.51,1.1-3.59,7.48,.82,5.97,3.66-1.25,3.21-7.23-.82-5.97Z"/>
        <path class="cls-13" d="M687.81,251.55c-3.51,1.1-3.59,7.48,.82,5.97,3.66-1.25,3.21-7.23-.82-5.97Z"/>
        <path class="cls-13" d="M341.38,231.87c-3.51,1.1-3.59,7.48,.82,5.97,3.66-1.25,3.21-7.23-.82-5.97Z"/>
        <path class="cls-13" d="M260.62,257.62c-3.51,1.1-3.59,7.48,.82,5.97,3.66-1.25,3.21-7.23-.82-5.97Z"/>
        <path class="cls-13" d="M323.45,215.5c-3.51,1.1-3.59,7.48,.82,5.97,3.66-1.25,3.21-7.23-.82-5.97Z"/>
        <path class="cls-13" d="M344.24,207.37c-3.51,1.1-3.59,7.48,.82,5.97,3.66-1.25,3.21-7.23-.82-5.97Z"/>
      </g>
    </g>
  </g>
</svg>