<?xml version="1.0" encoding="UTF-8"?>
<svg id="_레이어_2" data-name="레이어 2" xmlns="http://www.w3.org/2000/svg" viewBox="0 0 449.64 271.7">
  <defs>
    <style>
      .cls-1 {
        fill: #db5240;
      }

      .cls-2 {
        fill: #20455b;
      }

      .cls-3 {
        fill: #bd4331;
      }

      .cls-4 {
        fill: #bc4737;
      }

      .cls-5 {
        fill: #ec6e5d;
      }

      .cls-6 {
        fill: #fefdfd;
      }

      .cls-7 {
        fill: #d14d3c;
      }

      .cls-8 {
        fill: #f07565;
      }

      .cls-9 {
        fill: #f58979;
      }

      .cls-10 {
        fill: #bd402f;
      }

      .cls-11 {
        fill: #ec6a5a;
      }

      .cls-12 {
        fill: #eb6756;
      }

      .cls-13 {
        fill: #be3c2a;
      }

      .cls-14 {
        fill: #f68373;
      }

      .cls-15 {
        fill: #dd5c4a;
      }
    </style>
  </defs>
  <g id="_레이어_1-2" data-name="레이어 1">
    <g>
      <path class="cls-6" d="M290.62,89.65c1.76,.06,3.35,.96,4.51,2.36l-8.89-.54c1.13-1.19,2.64-1.87,4.38-1.82Z"/>
      <path class="cls-6" d="M287.05,178.77l6.57,.27c-1.07,.95-2.23,1.53-3.26,1.48-1.14-.05-2.31-.73-3.31-1.75Z"/>
      <path class="cls-12" d="M242.6,81.74c4.54,1.99,6.19,6.18,7.87,10.34-.69,7.32,2.81,12.55,8.37,16.74,.24,1.63,1.13,2.6,2.8,2.79,.08,.76,.3,1.44,1.04,1.81,1.19,2.19,2.38,4.39,3.57,6.58,.26,1.68,.51,3.36,.77,5.03,2.34,15.15,.85,29.07-12.72,39.04,.09-3.45-2.49-5.61-4.19-8.08-2.51-3.64-3.81-9.38-10.43-7.39-.25,.07-.91-.37-.96-.64-1.01-5.69-7.01-7-9.74-11.15-.12-.67-.1-1.47-1.12-1.41-.11,0-.28,.18-.29,.29-.06,1.03,.74,1,1.41,1.12-.19,1.06-.71,2.2-.49,3.17,.52,2.3-.55,5.52,2.02,6.71,6.74,3.12,11.82,8.09,15.61,14.14,1.62,2.6,5.27,3.53,5.41,7.09-.23,3.46-2.39,6.73-.99,10.34-2.16,8.18-7.27,12.97-15.84,13.81-.63,.15-1.26,.3-1.89,.45-2.2,.5-4.42,.64-6.66,.37-5.81-1.5-8.61-5.78-10.25-11.13,6.8-.42,13.61-.68,20.35-1.85,3.04-.53,4.44-2.37,3.81-5.28-.68-3.13-3.16-3.73-5.83-2.89-2.01,.63-3.99,.51-6,.64-8.92,.57-17.82,1.47-26.75,1.68-12.15,.3-24.34,.6-36.47-.04-13.9-.74-27.82-1.67-41.65-3.49-8.12-1.07-16.27-2.06-24.44-2.59-6.08-.4-11.65-3.38-17.81-3.09-5.21-2.15-10.63-2.95-16.19-2.83,5.21,2.23,10.56,3.71,16.19,3.81,1.76,.6,3.47,1.46,5.28,1.77,22.83,3.94,45.55,8.42,68.69,10.59,17.74,1.66,35.46,3.25,53.28,3.58,.47,2,1.61,3.33,3.12,4.83,1.54,1.52,4.77,2.86,3.48,6.23-4.68,.04-9.38,.37-14.03-.52-1.11-1.79-2.39-1.58-3.76-.32-2.21-.09-4.42-.18-6.63-.28-2.62-1.93-5.39-2.2-8.33-.79-.64-.05-1.29-.09-1.93-.14-.08-.09-.17-.26-.23-.26-.21,.02-.42,.11-.62,.17-.7-.11-1.4-.21-2.1-.32-.31-.05-.62-.11-.93-.16-4.38-.44-8.77-.78-13.13-1.36-1.53-.2-2.96-.59-4.34,.37-1.32-1.58-3.16-1.65-5.03-1.95-13.28-2.06-26.54-4.22-39.66-7.16-10.4-2.34-20.81-4.65-31.22-6.97-3.01-2.47-7-2.01-10.34-3.49-7.89-2.88-15.81-5.68-23.65-8.67-9.58-3.65-19.09-7.46-28.63-11.21-5.41-4.34-12.11-6.11-18.17-9.17-3.24-4.72-3.01-6.92,1.19-11.32,.32-.34,.65-.67,.97-1.01,0,0-.1,.05-.1,.05,2.11,.29,3.9-.59,5.78-1.41,4.39-1.92,8.21-5.06,12.99-6.15,1.84,4.48,5.54,7.68,8.07,11.69,.46,.73,1.36,.44,2.11,.1,2.93-1.37,3.36-4.56,.47-6.52-2.99-2.02-4.65-4.76-5.93-7.91,9.44-4.46,19.38-7.65,29.18-11.17,32.13-11.52,65.39-18.35,99.05-23.47,1.27-.19,2.55-.09,2.81-1.76,1.25,.28,2.49,.57,3.74,.85,1.78,1.27,3.45,1.58,4.78-.62,.33-.02,.66-.04,.99-.06,.09,1.06-.34,3.39,.94,2.67,1.82-1.04,6.03,1.02,5.47-3.56,.94-.09,1.87-.18,2.81-.26,1.41,1.18,2.71,1.42,3.73-.47,1.53-.56,3.11-.59,4.71-.4,1.68,1.01,3.31,1.59,4.65-.51,2.48-.72,5-.59,7.52-.42,1.95,1.09,3.85,1.49,5.58-.42,4.98-.87,10-.65,15.01-.51,2.76,1.23,5.53,1.2,8.29,.02,1.91-.22,3.81-.25,5.65,.45,.67,1.5,1.61,1.59,2.77,.52,.71,.17,1.42,.35,2.14,.52,.18,.13,.38,.21,.6,.24,1.17-.02,2.14,.46,3.01,1.18,.47,.26,.93,.51,1.4,.77Zm-59.45,8.27c-.36-2.33,.67-5.5-3.66-5.19-5.68,.4-5.69,.29-4.81,6.15-17.46,1.14-34.83,3.19-52.09,6.05-12.51,2.08-24.93,4.71-37.39,7.05-1.37,.26-2.68,.35-2.75,2.47,12.93-2.12,25.6-3.87,38.3-5.49,18.63-2.38,37.35-3.02,56.04-4.34,14.29-1.01,28.61,.29,42.89,1.05,4.58,.24,9.33,.07,13.86,1.18,2.88,.71,5.67,.83,6.42-2.51,.77-3.4-1.5-5.01-4.78-5.48-6.91-.98-13.81-1.77-20.81-1.91-10.43-.2-20.81,.62-31.22,.97Zm-52.47,15.57c3.41,2.25,1.21,7.19,4.79,8.28,4.86,1.47,7.77,5.42,11.52,8.26,2.63,1.99,5.25,4.29,5.53,8.07,.1,1.33,.95,1.96,2.27,1.56,1.08-.32,1.87-.25,2.05,1.01,.32,2.25,1.43,2.67,3.16,1.33,1.57-1.22,2.26-2.86,.5-4.31-2.2-1.81-3.69-4.1-5.18-6.42-1.07-1.66-2.23-3.01-2.88-5.23-1.16-3.98-5.69-2.89-9.24-2.31,.19-1.99,1.31-3.94-.86-4.92-3.8-1.71-6.09-4.78-8.1-8.66-.01,2.33,.07,4.51-3.56,3.34Zm-18.38,41.44c-.04-1.9,1.46-3.86-.24-4.71-3.94-1.97-6.59-5.04-8.1-9.21-1.63,1.24-.33,2.2-.77,3.03-2.26,4.21-1.62,6.23,2.55,8.14,1.11,.51,2.44,.89,3.2,1.75,2.85,3.24,5.76,6.38,9.54,8.56,3.39,1.96,1.67,8.34,7.28,8.39,.09,0,.18,.55,.25,.84,.22,.95-.34,2.69,1.24,2.47,1.72-.23,2.77-1.94,3.76-3.3,1-1.37-.47-1.82-1.27-2.43-3.47-2.66-5.62-6.39-7.38-10.18-2.07-4.47-4.61-5.75-10.04-3.36Zm-52.09-36.07c5.47-1.63,11.57-.91,16.6-4.3-5.91-.17-11.28,1.97-16.6,4.3Zm165.41,28.01c.26,.11,.52,.22,.78,.34,.11-.26,.37-.57,.29-.76-.07-.18-.48-.24-.73-.35-.11,.26-.22,.52-.33,.78Z"/>
      <path class="cls-12" d="M359.62,60.92c.53-4.62-.83-9.82,4.07-13.08,.86,2.59-1.91,5.12-.16,8.28,3.24-6.82,3.14-13.59,3.08-20.35,2.13,.59,3.27,2.29,4.8,3.67,2.24,2.02,3.29,7.06,8.16,4.76,.06,1.71-.15,3.35-.5,5.05-4.44,22.03-17.64,37.38-36.5,48.62-4.38,2.61-9.35,4.36-12.94,8.31,10.67-3.21,21.28-6.45,30.29-13.36,.37,.24,.84,.76,1.1,.67,10.69-3.74,19.78-9.69,26.23-19.22,1.7-.22,2.77-1.43,3.67-2.66,7.25-9.95,13.16-20.61,15.51-32.8,1.09-5.63,3.74-11.31,1.14-17.24,0-1.08-.01-2.16-.02-3.25,.07-2.86,.4-5.55,4.04-6.01,1.34,1.92,1.89,4.07,1.83,6.4,.27,2.22,.54,4.43,.81,6.65,.89,20.46-4.51,39.15-16.97,55.36-11.68,15.18-27.7,24.68-45.22,31.79-6.22,2.52-12.47,4.96-18.7,7.43l.35,1.13c8.92-1.28,17.9-2.3,26.43-5.64,.38,.24,.8,.73,1.15,.69,8.72-1.14,17.38-2.63,25.84-5.09,1.73-.5,3.1-1.56,2.57-3.76,1.01,.14,2.02,.29,3.03,.43,0,.17,.05,.33,.13,.49,.19,1.54,1.18,1.67,2.34,1.21,2.4-.95,5.07-1.37,6.91-3.45h0c.79,.02,1.49-.14,1.87-.93h0c.79,.03,1.49-.13,1.87-.93h0c4.74-1.2,8.24-4.52,12.13-7.14,1.48-.99,3.05-2.2,2.82-4.41,.15-.28,.37-.48,.65-.63,.97,.11,1.8-.11,2.39-.95,.23-.23,.46-.46,.69-.69,1.6-1.36,3.61-2.41,3.76-4.89h.02c1.56-.63,2.28-2.01,3.15-3.32,7.67-11.51,9.65-24.36,9.02-37.84,.14-5.44-.7-10.73-2.68-15.8-.67-1.71-.22-4.19-2.87-4.74-1.16-2.52-1-6.03-4.88-6.5,0,0,.06,.03,.06,.02-.25-.35-.51-.7-.76-1.05-2.19-3.37-4.32-6.77-5.89-10.61,6.31,.19,13.98,8.76,17.08,18.78,2.23,8.74,4.88,17.38,5.58,26.44-.02,3.27-.41,6.48-.86,9.72-3.27,23.58-14.7,41.33-35.98,52.8-17.71,9.54-37.25,12.47-56.38,17-7.03,1.67-14.28,2.4-22.54,5.15,7.71,1.63,14.02,2.96,20.32,4.28,2.08,6.33,6.99,9.98,12.53,12.93,.98,.52,1.95,.86,2.43,1.93-.8,.09-1.6,.17-2.4,.26-1.02-.06-2.03-.11-3.05-.17-3.1-.88-6.17-1.86-9.29-2.61-3.3-.79-6.64-1.74-10-1.91-3-.16-6-2.11-9.85-.32,21.23,7.81,41.29,16.32,57.98,31.03,2.4,2.84,4.92,5.59,7.19,8.53,11.95,15.47,18.7,32.77,18.06,52.56-.13,4.17-.54,8.33-.83,12.49-3.71,2.64-3.82,2.56-4.79-3.49,.29-11.98-1.98-23.4-7.28-34.21-7.31-14.9-18.34-26.42-32.16-35.31-2.29-1.47-4.66-4.48-8.22-2.54-7.42-6.12-15.92-10.03-25.24-12.24-3.04-2.87-6.97-3.13-10.6-4.27l-.46,1.13c3.33,1.42,6.66,2.83,9.99,4.25,1.46,.85,2.92,1.69,4.38,2.55,9.65,5.69,18.69,12.12,25.76,21.01,9.75,12.26,14.6,26.33,15.75,41.82-1.67,14.76-9.61,25.37-22.85,31.27-13.37,5.95-27.02,5.69-38.75-4.15-9.39-7.87-13.21-18.46-10.42-30.64,2.62-11.43,9.38-19.52,21-22.88,1.73-.5,3.55-1.39,5.27,.13,.04,.72,.09,1.44,.13,2.17,0,0-.05-.1-.06-.1-1.85-.05-3.6,.17-4.82,1.81h0c-1.11-.08-2.08,.17-3.09,.76-8.71,5.07-13.75,16.92-11.8,27.91,1.68,9.45,9.98,17.59,20.08,18.86,4.58,.57,9.61,1.27,13.52-2.63h-.02c.8,.03,1.52-.11,1.89-.94h-.02c.79,.03,1.51-.11,1.89-.93h0c1.4,.07,2.74,.05,2.81-1.87h0c3.22,.06,4.86-1.78,5.62-4.68h0c1.27-.5,1.87-1.46,1.88-2.81v.02c5.16-7.37,5.15-23.88-.02-31.83,0,0,.02,.03,.02,.03-.31-1.94-.91-3.71-2.8-4.7-.01-.78-.17-1.49-.97-1.87-1.51-.11-3.48-1.19-2.93-2.2,1.45-2.68-.82-3.09-1.88-4.3-.26-.32-.53-.64-.79-.97-.29-.32-.59-.63-.88-.95-3.8-3.33-7.61-6.66-11.41-10,.48-2.01,1.67-4.22-1.13-5.47-2.13-.95-3.04,.49-3.7,2.19-1.15-.6-2.29-1.2-3.44-1.8,.6-3.65-2.62-5.27-4.2-7.74-2.65-4.16-2.75-4.1-7.14-1.46,.54,1.19,2.69,.53,2.69,2.17,0,2.34-2.73,.89-3.48,2.31-.63-.14-1.26-.29-1.89-.43-.4-1.1-.93-1.64-1.88-.45-1.54-.18-3.07-.36-4.61-.55-.81-1.46-1.78-1.58-2.89-.33-1.25-.02-2.5-.03-3.76-.05,.03-.47-.02-.95,.09-1.4,1.91-8.39-.72-15.14-6.94-17.81-9.13-3.92-17.8-1.74-22.72,5.48-1.57,2.3-.68,5.27-2.47,7.41-3.94-3.18-3.3-7.62-2.87-11.74,1.04-9.87,5.61-19.35,3.24-29.6,5.29-.16,4.41,6.26,8.25,7.81,.58,.23,.85,1.49,2.01,1,1.31-.56,2.56-1.23,3.17-2.59,.46-1.03-.54-1.14-1.1-1.63-3.33-2.86-5.97-6.61-7.41-10.45-1.46-3.9-3.49-4.65-6.89-4.42-.31-.34-.61-.68-.92-1.01-.05-1.82-.55-3.63-.63-5.38-.19-4.1-.69-8.5,3.13-11.6,1.41,9.29,9.11,15.8,18.18,15.12,7.4-.56,15.87-6.29,14.85-15.84,3.47,.13,4.05,3.79,6.29,5.49,1.24,.93,1.52,2.47,3.33,1.17,1.6-1.16,1.65-2.42,.28-3.88-2.25-2.41-3.16-5.52-4.31-8.5,15.02-2.29,28.15-8.32,38.77-19.43,1.78-1.86,3.06-3.71,3.3-6.41,.25-2.88,1.55-5.33,4.58-6.37,.29,.57-.17,1.75,.87,1.65,1.07-.1,1.08-1.2,1.15-2.08,.96-.84,1.78-1.74,1.41-3.33-1.54,.91-1.31,2.18-1.42,3.33-.43-.04-.87-.08-1.3-.12Zm-1.54,4.08c-.1,.07-.2,.14-.29,.22,.08,.09,.16,.18,.24,.27,.13-.12,.25-.24,.38-.36-.11-.04-.22-.08-.33-.12Zm-27.34,56.49c.13,.04,.27,.12,.4,.11,.05,0,.08-.21,.13-.32-.13-.04-.27-.12-.4-.11-.05,0-.09,.2-.13,.32Z"/>
      <path class="cls-1" d="M152.87,196.68c-8.82,11.06-19.2,20.38-31.45,27.45-13.92,8.03-24.5,6.95-36.88-3.4-6.1-5.1-11.26-11.16-16.67-16.97-17.38-18.67-34.95-37.15-54.41-53.71,1.62-.04,3.23-.08,4.85-.12,.53,.55,.96,1.31,1.61,1.63,11.23,5.65,22.35,11.55,33.79,16.75,8.28,3.76,16.42,8.08,25.55,9.68,.41,.75,1.1,.92,1.88,.91,.62,0,1.24,.02,1.85,.03,0,.6,.02,1.2,.03,1.8,1.03,1.92,9.54,11.2,11.52,12.74,.4,.31,.49,1.08,.6,1.66,.16,.87-.03,2.3,1.21,2.06,1.73-.34,2.75-1.97,3.78-3.31,.83-1.08-.15-1.42-.98-2.01-2.54-1.81-4.59-4.04-4.9-7.38,4.46-.24,8.42,1.75,12.56,2.88,15.15,4.15,30.36,7.98,46.07,9.3Z"/>
      <path class="cls-1" d="M85.8,48.91c7.7-7.4,16.98-9.52,26.74-6.02,16.25,5.83,28.64,17.05,39.09,30.54-1.34,2.6-3.87,1.43-5.87,1.78-21.11,3.71-41.68,9.39-61.98,16.21-6.44,2.16-12.55,5.44-19.45,6.2-1.45-2.13-1.55-5.01-3.54-6.78-3.37-2.98-3.99-7.09-4.95-11.09,7.34-8.51,14.87-16.83,23.14-24.45,2.34,2.33,5.18,4.38,7.67,6.2,2.36,1.72,.71,7.69,5.97,5.73,.06,.42,.24,.87,.15,1.26-.24,1.06-.84,2.33,.75,2.63,1.82,.34,2.71-1.28,3.66-2.43,1.15-1.4-.22-1.64-1.12-2.26-1.36-.95-2.03-2.59-2.99-3.85-3.05-4-4-9.56-8.93-12.14,0,0,.24-.15,.25-.15,1.21,.32,1.29-.53,1.4-1.35Z"/>
      <path class="cls-3" d="M350.64,139.72c-6.3-1.33-12.61-2.66-20.32-4.28,8.27-2.75,15.52-3.49,22.54-5.15,19.13-4.53,38.67-7.46,56.38-17,21.28-11.47,32.71-29.22,35.98-52.8,.45-3.25,.84-6.46,.86-9.72,2.57,.46,1.67,2.52,1.85,4.06,.86,7.46-1.66,14.63-1.9,21.99,0,0-.04,.17-.04,.17-.82,.52-.85,1.32-.75,2.16l.04,.35s-.21,.28-.21,.28c-2.87,.61-1.46,2.95-1.84,4.56,0,0-.04,.16-.04,.16-.72,.4-.88,1.06-.85,1.81,0,0-.03,.07-.03,.06-.76,.37-.93,1.04-.9,1.81,0,0-.03,.07-.03,.07-.77,.35-.94,1.02-.93,1.78,0,0-.04,.08-.04,.08-.72,.33-.91,.96-.94,1.68,0,0-.08,.17-.08,.17-.25,.35-.49,.69-.74,1.04,0,0,.04-.05,.04-.05-.84,.29-1.05,.96-1.05,1.76,0,0-.05,.07-.05,.07-.27,.35-.54,.69-.81,1.04,0,0,.05-.02,.05-.02-1.71,0-2.04,.99-1.74,2.43-.31,.45-.62,.91-.92,1.36,0,0-.28,.29-.28,.29,.04,.28-.08,.44-.36,.49-.2,.25-.4,.51-.59,.76,0,0-.14,.18-.14,.18-.25,.3-.5,.61-.75,.91,0,0-.05,.06-.05,.06-.29,.33-.58,.65-.87,.98-7.13,8.43-16.09,14.3-26.12,18.68-.34,.18-.68,.37-1.01,.55-.33,.11-.66,.23-.99,.34-.29,.17-.58,.34-.87,.52-.98,.39-1.96,.78-2.94,1.16-1.13-1.15-1.54-.41-1.82,.69-.38,.13-.75,.27-1.13,.4-.17,.05-.34,.12-.5,.21-11.95,4.97-24.69,6.85-37.34,9.38,12.02,2.63,24.07,4.68,35.55,8.86,20.87,7.6,38.35,19.56,48.34,40.12,10.25,21.1,9.47,42.33-.69,63.33-.43-.39-.86-.77-1.29-1.16,1.99-6.34,4.13-12.58,4.99-19.27,2.71-21.12-3.41-39.38-17.72-54.76-18.42-19.82-43.04-25.98-68.53-29.87-2.31-2.48-5.66-1.66-8.44-2.67Z"/>
      <path class="cls-12" d="M359.09,142.39c25.49,3.89,50.11,10.06,68.53,29.87,14.3,15.38,20.43,33.65,17.72,54.76-.86,6.69-2.99,12.93-4.98,19.27-1.79,3.48-4.87,6.31-5.22,10.51,0,0-.05-.06-.06-.06-1.88,.53-3,1.64-2.89,3.72,0,0-.04-.06-.04-.06-1.03,.25-1.66,.9-1.91,1.92,0,0,.03-.06,.03-.06-1.36,.4-2.09,1.51-2.92,2.52-.97,1.28-2.47,2.7-3.77,1.66-1.61-1.29,.35-2.71,1.06-3.92,2.09-3.58,4.32-7.08,6.49-10.61,.32,0,.64,.01,.96,.02,1.68,.89,1.99,.93,2.86-1.26,2.7-6.84,4.96-13.82,5.48-21.23,.5-10.63,.49-21.27-4.64-30.95-2.07-3.9-2.64-9.01-7.47-11.12v-.02c.38-3-1.97-4.24-3.75-5.84-.75-1.4-2.35-1.67-3.47-2.57-.4-.31-.8-.62-1.2-.93,0,0-.01,0-.01,0-.21-2.28-1.51-3.47-3.74-3.74h0c-.37-.81-1.06-.99-1.86-.94h0c.03-1.28-.62-1.87-1.86-1.87h-.01c-.36-.83-1.06-.99-1.86-.94h-.02c-.23-.56-.31-1.33-.72-1.62-8.1-5.68-17.37-8.64-26.73-11.39-.92-.27-1.85-.01-2.47,.87-1.25,0-2.51,0-3.76-.01-.26-2.53-2.26-1.7-3.72-1.93,.12-2.09-.13-4.91-2.22-4.97-4.13-.12-6.33-2.33-8.61-5.17-.53-.65-1.45-1.78-3.03-1.67-1.56,.11-1.58-.27-.16-2.24Z"/>
      <path class="cls-11" d="M331.54,63.97c-11.18-2.08-18.27-9.04-22-19.36-4.16-11.52-1.94-22.28,6.13-31.36,13.73-15.43,41.52-13.97,55.22,2.59,5.28,6.38,8.77,13.55,9.67,21.86-.13,1.58,.59,3.33-.95,4.62-2.57-5.45-8.42-8.81-9.62-15.16-.23-1.19-1.35-1.61-2.51-1.64-1.54-.04-3.07-.02-4.61-.03-.65-.63-1.31-1.26-1.96-1.89l.02,.03c-.02-.82-.2-1.55-1.06-1.91-.21,.02-.41,.03-.62,.04-.23-1.14-.77-1.93-2.08-1.89h.01c-.04-1.83-1.02-2.72-2.82-2.8h0c-.37-.82-1.09-.95-1.88-.94h.02c-4.62-6.4-19.68-6.4-26.2,0h0c-1.22,.02-1.89,.6-1.87,1.87h-.01c-.9-.11-1.58,.26-2.13,.94-.22,.23-.45,.45-.67,.68-6.87,6.45-9.03,20.35-4.36,28.44,.25,.43,1.02,.55,1.55,.81h0c-.1,1.42-.02,2.73,1.88,2.82l-.02-.03c0,.8,.15,1.51,.95,1.9,0,0-.02-.02-.02-.02,.32,.32,.63,.63,.95,.95,0,0-.01-.01-.01-.01,.31,.31,.63,.63,.94,.94,0,0,0,0,0,0,.31,.39,.63,.77,.94,1.16,.24,.23,.48,.47,.71,.7,1.9,1.91,3.79,3.83,6.78,3.77l-.04-.03c.33,.32,.67,.64,1,.97,1.19,.02,1.78,.65,1.82,1.82-.11,.23-.28,.29-.52,.17-.89,0-1.77,0-2.66,0Z"/>
      <path class="cls-13" d="M64.33,97.61c6.89-.76,13.01-4.04,19.45-6.2,20.3-6.82,40.87-12.51,61.98-16.21,2-.35,4.52,.82,5.87-1.78,.37-.02,.59,.16,.67,.52,.33,.33,.67,.66,1,.99,1.83,2.28,3.67,4.56,5.5,6.84-.26,1.67-1.54,1.57-2.81,1.76-33.66,5.12-66.92,11.95-99.05,23.47-9.8,3.51-19.73,6.71-29.18,11.17-.62,.03-1.23,.05-1.85,.08-.04-.41-.08-.83-.13-1.24,0-.28,.02-.56,.06-.84,12.17-6.61,25.04-11.74,37.53-17.66,.31-.3,.63-.6,.94-.9Z"/>
      <path class="cls-13" d="M82.98,178.94c-.62,0-1.24-.02-1.85-.03-.58-2.31,1.93-3.6,1.89-5.73,10.41,2.32,20.81,4.63,31.22,6.97,13.12,2.95,26.38,5.1,39.66,7.16,1.87,.29,3.71,.37,5.03,1.95-2.02,2.48-4.03,4.95-6.05,7.43-15.72-1.32-30.92-5.15-46.07-9.3-4.14-1.13-8.1-3.12-12.56-2.88-1.11-1.72-3.45-1.29-4.73-2.72,.92-1.75,1.73-3.85-.88-4.43-1.81-.4-4.97-3.01-5.64,1.58Z"/>
      <path class="cls-13" d="M274.03,128.39c2.37,10.25-2.2,19.73-3.24,29.6-.43,4.12-1.07,8.56,2.87,11.74,.37,1.76,.73,3.51,1.1,5.27-8.08,1.09-16.15,2.18-24.23,3.28-1.4-3.61,.76-6.88,.99-10.34,1.52-.85,1.99-2.46,2.78-3.84,13.57-9.98,15.05-23.89,12.72-39.04-.26-1.68-.51-3.36-.77-5.03,3.19-.51,3.81,3.55,6.61,3.73,.97,1.41,1.06,3.03,1.17,4.65Z"/>
      <path class="cls-3" d="M360.13,115.42c-8.53,3.35-17.5,4.36-26.43,5.64l-.35-1.13c6.24-2.48,12.49-4.91,18.7-7.43,17.52-7.12,33.55-16.61,45.22-31.79,12.46-16.2,17.86-34.9,16.97-55.35,1.49,1.37,.9,3.18,.98,4.82,.4,8.04-.21,16.03-.94,24.03-3.3,17.37-12.27,31.38-25.25,43.12-5.55,5.02-12.11,8.63-17.91,13.28,0,0,.09-.04,.09-.04-.42,0-.84,.01-1.26,.02-3.64,.87-5.93,4.49-9.83,4.84Z"/>
      <path class="cls-5" d="M332.99,210.83c-1.16,2.62-2.54,5.01-5.67,5.67-1.26,.27-1.35,1.35-1.82,2.36-2.18,4.69-4.49,9.13-4.73,14.64-.11,2.51-1.39,4.42,1.57,5.79,.13,.06,.31,.21,.32,.33,.48,6.37,6.65,7.48,10.14,11.07,1.08,1.11,1.92,1.29,3.22,.71,1.46-.65,3.09-.81,4.58-.38,2.37,.68,3.93-.82,5.82-1.37,5.66-1.63,7.98-6.39,11.86-9.63,2.3-1.92,2.98-3,2.93-6.39-.09-5.26,.73-10.44-1.15-15.62-.62-1.69,1.44-3.43,.85-5.4,0,0,.33-.33,.33-.33,.52,.11,1.04,.22,1.56,.33,0,0-.02-.03-.02-.03,.15,4.91,1.69,9.61,1.99,14.54,.37,5.95-1.14,11.55-1.99,17.29,0,0,.01-.02,.01-.02-1.91,.08-1.96,1.41-1.88,2.82,0,0,0-.01,0-.01-2.82,.42-4.11,2.69-5.62,4.69,0,0,0,0,0,0-1.35,.01-2.3,.62-2.81,1.88,0,0,0,0,0,0-.79,0-1.49,.17-1.89,.95,0,0,.02-.01,.02-.01-.78,0-1.49,.17-1.89,.95,0,0,.02-.01,.02-.01-4.98,.8-9.75,2.48-15.05,.86-14.5-4.43-21.52-20.49-14.93-32.99,2.82-5.36,7.55-8.49,11.28-12.76,0,0,0,0,0,0,.98,.03,1.97,.06,2.95,.09Z"/>
      <path class="cls-5" d="M334.72,63.81c-.04-1.17-.63-1.8-1.82-1.82-.33-.32-.67-.64-1-.97,0,0,.04,.03,.04,.03-1.82-2.05-3.75-3.9-6.78-3.77-.24-.23-.48-.47-.71-.7-.31-.39-.63-.77-.94-1.16,0,0,0,0,0,0-.31-.31-.63-.63-.94-.94,0,0,.01,.01,.01,.01-.32-.32-.63-.63-.95-.95,0,0,.02,.02,.02,.02,.02-.8-.18-1.5-.95-1.9,0,0,.02,.03,.02,.03-.05-1.33-.59-2.33-1.88-2.82,0,0,0,0,0,0-2.53-9.15-3.71-18.17,2.39-26.57,.47-.65,.3-1.77,.42-2.68,.22-.23,.45-.45,.67-.68,.88,.09,1.69,0,2.12-.93h.01c1.23-.03,1.88-.61,1.87-1.87,0,0,0,0,0,0,8.73-3.27,17.47-4.29,26.2,0,0,0-.02-.01-.01-.01,.39,.78,1.07,.99,1.88,.94,0,0,0,0,0,0,.07,1.81,1.03,2.72,2.82,2.81,0,0-.01-.01-.01-.01,.37,.99,1,1.68,2.08,1.89,.21,0,.41-.02,.62-.04,.1,.78,.23,1.53,1.06,1.91,0,0-.02-.03-.02-.03-.17,1.37,.33,2.56,.97,3.72-.99,1.17-3.41,1.25-2.79,3.65-1.64-4.72-4.68-7.89-9.77-8.78-.3-.05-.73-.09-.87-.3-3.47-4.9-8.86-1.27-13.04-2.94-1.06-.42-1.75,.12-2.33,.98-.52,.77-1.02,1.97-1.71,2.12-4.67,1.02-6.67,3.99-8.61,8.29-1.22,2.69-2.89,4.37-1.27,7.4,.49,.92-.04,2.42-.2,3.64-.08,.6-.62,1.65-.52,1.71,4.31,2.38,3.2,8.35,7.12,10.83,2.96,1.87,4.26,5.25,7.12,7.2,.74,.5,1.14,1.94-.3,2.7Z"/>
      <path class="cls-1" d="M63.39,98.52c-12.49,5.92-25.36,11.05-37.53,17.66-.04-2.14-1.12-4.29,.05-6.41,2.39-2.25,4.78-4.5,7.17-6.75,.38-.35,.75-.7,1.13-1.05,4.62-4.64,9.24-9.27,13.86-13.91,3.28,.52,6.22,1.58,7.82,4.85,1.54,3.14,3.05,6.35,7.5,5.62Z"/>
      <path class="cls-8" d="M421.44,91.89c-.28,.14-.5,.35-.65,.63-3.62,2.54-7.26,5.04-10.85,7.63-1.53,1.11-3.81,1.49-4.11,3.91,0,0,0,0,0,0-.82-.08-1.53,.05-1.87,.93,0,0,0,0,0,0-.81-.07-1.53,.06-1.87,.94,0,0,0,0,0,0-3.05-.45-5.56,1.39-8.38,1.94l-.11-1.13c1.54-4.1,4.64-6.18,8.88-6.33,2.23-.08,3.98-.32,4.54-2.85,.09-.43,.48-.79,.71-1.2,2.07-3.64,7.34-1.89,9.05-4.59,1.81-2.87,2.48-6.37,6.26-7.44,1.93-.54,2.85-1.51,2.82-3.6-.02-1.2,.17-3.12,.91-3.5,6.36-3.36,4.4-10.94,8.19-15.68,2.16-2.69,1.48-7.07,1.37-10.09-.16-4.45,.4-8.98-.27-13.56-1.06-7.3-4.09-13.81-6.01-20.73,3.88,.47,3.72,3.98,4.88,6.5,2.17,6.7,3.46,13.61,4.62,20.54-.56,9.93-1.35,19.77-5.59,29.04-1.85,4.05-4.99,7.5-5.65,12.1,0,0-.02,.01-.02,.01-2.95,.33-3.33,2.63-3.76,4.89-.23,.23-.46,.46-.69,.69-.96-.1-1.77,.19-2.39,.95Z"/>
      <path class="cls-5" d="M421.07,178.93c1.12,.9,2.72,1.17,3.47,2.58-.37,2.98,1.6,4.47,3.74,5.84,0,0,.01,.02,.01,.02,.09,.45,.05,.99,.28,1.35,8.01,12.41,11.33,26.07,10.89,40.73-.86,.62-.77,1.59-.99,2.48-1.7,6.8-3.03,13.73-6.4,20-.32,0-.64-.01-.96-.02,1.84-6.2,5.01-12.38,5.09-18.6,.06-4.61,.09-9.71,.02-14.32-.11-6.41-5.26-11.17-3.84-17.48,.28-1.23-.75-1.92-1.76-2.46-.81-.44-1.58-.98-2.35-1.5-3.32-2.27-.74-7.47-3.65-9.03-3.23-1.72-5.97-3.26-6.83-6.91-.47-1.99-1.45-2.92-3.5-2.91-.74,0-1.81-.16-2.18-.66-3.99-5.33-10.1-7.1-15.74-9.71-1.54-.71-2.42-2.38-2.85-4.11,.06-.41,.13-.83,.19-1.24,6.2,1.18,10.96,5.54,16.79,7.53,0,0,.02,.01,.02,.01,.36,.82,1.06,.98,1.86,.93,0,0,.01,.01,.01,.01-.01,1.26,.65,1.84,1.86,1.86,0,0,0,0,0,0,.38,.8,1.06,.99,1.86,.93,0,0,0,0,0,0,.25,2.24,1.54,3.44,3.74,3.74,0,0,.01,0,.01,0,.4,.31,.8,.62,1.2,.93Z"/>
      <path class="cls-9" d="M299.24,92.25c2.93-.66,4.63,.93,6.53,1.79,.3,1.79,.6,3.58,.9,5.37,.23,2.22-.04,4.22-.7,6.01-.66,1.82-1.72,3.41-3.04,4.75-.25,.26-.51,.5-.78,.74-.16,.15-.32,.29-.49,.42-.46,.38-.95,.73-1.45,1.06-.39,.25-.8,.49-1.21,.72-.41,.22-.83,.43-1.26,.62-.64,.28-1.29,.53-1.95,.74-.66,.21-1.33,.38-1.99,.51-.67,.13-1.33,.22-1.99,.27-9.07,.68-16.76-5.84-18.17-15.12,.24-1.55,.47-3.11,.7-4.66,2.28-1.49,3.92-4.07,7.63-4.25-2.59,6.38-2.81,12.31,3.6,16.31,3.3,2.06,7.01,1.84,10.13-.5,5.04-3.8,6.54-8.8,3.54-14.78Z"/>
      <path class="cls-9" d="M298.85,156.84c6.23,2.67,8.85,9.41,6.95,17.8-.11,.45-.07,.94-.09,1.4-1.93,.91-3.84,1.83-6.76,3.23,2.88-7.54,2.35-13.58-4.58-17.28-3.42-1.84-7-1.43-9.95,1.2-4.76,4.25-5.36,9.4-2.16,15.38-3.36-.43-5.13-2.65-7.5-3.58-.36-1.75-.73-3.51-1.1-5.26,1.79-2.14,.91-5.11,2.47-7.42,.41-.6,.85-1.17,1.31-1.7,.24-.27,.47-.52,.72-.77,1.7-1.74,3.68-3.03,5.88-3.86,.62-.23,1.26-.43,1.91-.59,3.91-.94,8.35-.5,12.9,1.45Z"/>
      <path class="cls-10" d="M359.94,92.81c-9.01,6.9-19.62,10.15-30.29,13.36,3.59-3.95,8.55-5.7,12.94-8.31,18.86-11.23,32.05-26.59,36.5-48.62,.34-1.7,.55-3.35,.5-5.05,.05-.29,.08-.59,.1-.88,1.95,4.46,.42,9.14,.86,13.7-.06,.45-.13,.9-.19,1.35-.85,.65-.77,1.55-.66,2.46-1.17,6.5-4.41,12.07-7.92,17.51-1.65,2.56-3.72,4.9-4.41,7.99-3.22,1.31-5.17,4.06-7.4,6.49Z"/>
      <path class="cls-10" d="M380.55,233.13c-1.15-15.48-6-29.55-15.75-41.82-7.07-8.89-16.1-15.31-25.76-21.01-1.46-.86-2.92-1.7-4.38-2.55,.36-.37,.71-.73,1.07-1.1,9.32,2.21,17.81,6.12,25.24,12.24,1.71,1.86,3.42,3.73,5.13,5.59,10.03,13.2,17.18,27.39,15.38,44.66-.14,1.36,.18,2.83-.92,3.98Z"/>
      <path class="cls-13" d="M274.34,95.47c-.23,1.55-.47,3.1-.7,4.66-3.83,3.1-3.33,7.49-3.13,11.59,.08,1.75,.58,3.56,.63,5.38-.46,.78-.89,1.87-1.96,1.53-1.05-.33-.41-1.13-.08-1.81,1.17-2.41-.74-2.92-2.31-3.28-1.31-.3-2.73-.1-4.11-.12-.74-.38-.97-1.05-1.04-1.81,3.74-1.83,.45-4.09-.37-4.76-1.8-1.48-1,1.95-2.43,1.97-5.56-4.2-9.06-9.43-8.37-16.74,7.96,1.13,15.92,2.26,23.88,3.39Z"/>
      <path class="cls-3" d="M388.99,180.86c-16.69-14.71-36.75-23.21-57.98-31.03,3.85-1.79,6.84,.16,9.85,.32,3.36,.18,6.7,1.12,10,1.91,3.13,.75,6.2,1.73,9.29,2.61,6,3.72,12.01,7.41,17.97,11.17,1.56,.98,2.96,2.21,4.43,3.32,.15,.2,.34,.35,.58,.44,0,0,.24,.17,.24,.17,.31,.24,.62,.47,.93,.71,0,0,.04,.03,.04,.03,.33,.29,.66,.58,.99,.86,0,0-.02-.02-.02-.02,.35,.3,.7,.61,1.04,.91,0,0-.07-.07-.07-.07,.28,1.21,1.05,1.84,2.28,1.91,.46,.4,.92,.8,1.38,1.2,.28,.26,.57,.53,.85,.79,0,0,.08,.08,.07,.08-.63,1.56-1.26,3.12-1.89,4.68Z"/>
      <path class="cls-4" d="M388.99,180.86c.63-1.56,1.26-3.12,1.89-4.68,13.61,11.8,21.02,27.02,24.2,44.44,2.08,11.4,2.25,22.83-1.43,34.04,0,0-.22-.22-.22-.22,.28-4.16,.69-8.32,.83-12.49,.64-19.79-6.11-37.09-18.06-52.56-2.27-2.94-4.79-5.69-7.19-8.53Z"/>
      <path class="cls-9" d="M366.09,184.49c-1.71-1.86-3.42-3.73-5.13-5.59,3.57-1.94,5.94,1.07,8.22,2.54,13.82,8.88,24.86,20.4,32.16,35.31,5.3,10.81,7.57,22.23,7.28,34.21-.27,.02-.53,.03-.8,.04-1.96-4.03-4.37-7.95-2.21-12.74,.52-1.15-.82-1.91-1.19-2.88-2.46-6.4-4.31-12.95-7.76-19.08-1.93-3.43-3.32-6.9-5.82-10.27-3.87-5.22-9.25-8.83-12.87-13.79-2.79-3.82-6.04-5.89-9.79-7.93-.77-.42-1.45-.45-2.11,.18Z"/>
      <path class="cls-9" d="M407.6,21.57c2.6,5.93-.05,11.61-1.14,17.24-2.35,12.19-8.27,22.85-15.51,32.8-.89,1.23-1.96,2.44-3.67,2.66-.36-.04-.71-.08-1.07-.12,.96-5.08,2.99-9.43,8-11.75,1.59-.74,1.41-2.2,1.5-3.59,.23-3.82,1.27-7.32,4.31-9.93,1.14-.98,1.74-2.14,1.48-3.68-.05-.3-.01-.62-.05-.93-.55-4.54,4.48-7.76,3.95-11.29-.67-4.48-1.06-8.06,2.21-11.42Z"/>
      <path class="cls-6" d="M281.97,91.22c-2.59,6.38-2.81,12.31,3.6,16.31,3.3,2.06,7.01,1.84,10.13-.5,5.04-3.8,6.54-8.8,3.54-14.78-9.3-11.81-17.27-1.03-17.27-1.03Zm13.16,.79c1.17,1.43,1.89,3.39,1.85,5.53-.07,4.19-3.14,7.68-6.67,7.59-3.59-.11-6.19-3.44-6.16-7.92,.02-2.38,.8-4.39,2.09-5.74,1.13-1.19,2.64-1.87,4.38-1.82,1.76,.06,3.35,.96,4.51,2.36Z"/>
      <path class="cls-2" d="M290.62,89.65c1.76,.06,3.35,.96,4.51,2.36,1.17,1.43,1.89,3.39,1.85,5.53-.07,4.19-3.14,7.68-6.67,7.59-3.59-.11-6.19-3.44-6.16-7.92,.02-2.38,.8-4.39,2.09-5.74,1.13-1.19,2.64-1.87,4.38-1.82Z"/>
      <path class="cls-6" d="M284.42,163.19c-4.76,4.25-5.36,9.4-2.16,15.38,0,0,7.1,11.3,16.69,.7,2.88-7.54,2.35-13.58-4.58-17.28-3.42-1.84-7-1.43-9.95,1.2Zm12.76,8.97c-.01,2.36-1.63,5.2-3.56,6.88-1.07,.95-2.23,1.53-3.26,1.48-1.14-.05-2.31-.73-3.31-1.75-1.62-1.63-2.82-4.16-2.84-6.54-.02-3.98,2.7-7.31,6.1-7.47,3.45-.16,6.87,3.53,6.87,7.4Z"/>
      <path class="cls-2" d="M290.31,164.76c3.45-.16,6.87,3.53,6.87,7.4-.01,2.36-1.63,5.2-3.56,6.88-1.07,.95-2.23,1.53-3.26,1.48-1.14-.05-2.31-.73-3.31-1.75-1.62-1.63-2.82-4.16-2.84-6.54-.02-3.98,2.7-7.31,6.1-7.47Z"/>
      <path class="cls-15" d="M84.16,50.41c4.92,2.58,5.88,8.15,8.93,12.14,.96,1.26,1.63,2.9,2.99,3.85,.89,.63,2.27,.86,1.12,2.26-.95,1.15-1.84,2.78-3.66,2.43-1.59-.3-.99-1.57-.75-2.63,.09-.39-.09-.84-.15-1.26-5.26,1.96-3.61-4-5.97-5.73-2.5-1.82-5.33-3.87-7.67-6.2,1.45-1.92,3.16-3.56,5.17-4.88Z"/>
      <path class="cls-14" d="M386.2,74.14c.36,.04,.71,.08,1.07,.12-6.45,9.53-15.54,15.48-26.23,19.22-.26,.09-.73-.43-1.1-.67,2.23-2.43,4.18-5.18,7.4-6.49,4.27-1.56,8.45-2.94,10.74-7.64,1.45-2.98,4.76-4.17,8.11-4.54Z"/>
      <path class="cls-5" d="M359.09,142.39c-1.42,1.97-1.39,2.35,.16,2.24,1.57-.11,2.5,1.02,3.03,1.67,2.28,2.83,4.48,5.04,8.61,5.17,2.1,.06,2.35,2.88,2.22,4.97-1.71-.6-3.49-1.93-4.88,.51-.89-.37-1.78-.73-2.68-1.1,.02-.42,.03-.84,.05-1.26-.48-1.06-1.45-1.41-2.43-1.93-5.54-2.96-10.44-6.6-12.53-12.93,2.78,1,6.13,.19,8.44,2.67Z"/>
      <path class="cls-4" d="M446.05,76.8c.23-7.36,2.75-14.53,1.9-21.99-.18-1.54,.73-3.6-1.85-4.06-.7-9.06-3.35-17.71-5.58-26.44,.79,.16,1.43,.49,1.79,1.29,7.4,16.62,9.39,33.63,3.74,51.2Z"/>
      <path class="cls-8" d="M407.83,250.99c.27-.01,.53-.03,.8-.04,.97,6.04,1.08,6.13,4.79,3.49,0,0,.23,.22,.22,.22-.84,6.31-4.2,11.2-8.76,15.37-1.1,1.01-2.55,2.42-4.06,1.2-1.48-1.2,.13-2.54,.69-3.68,2.6-5.33,5.69-10.46,6.32-16.55Z"/>
      <path class="cls-15" d="M63.39,98.52c-4.45,.73-5.96-2.47-7.5-5.62-1.59-3.26-4.53-4.32-7.82-4.85,1.39-1.51,2.78-3.02,4.17-4.54,.27-.29,.54-.58,.81-.88,.61-1.27,1.53-2.25,2.78-2.91,.95,4.01,1.58,8.12,4.95,11.09,2,1.77,2.1,4.66,3.54,6.78-.31,.3-.63,.6-.94,.9Z"/>
      <path class="cls-8" d="M411.62,12.31c-3.64,.46-3.96,3.15-4.04,6.01-1.85-5.06-3.53-10.18-6.31-14.85-.51-.86-1.47-1.94-.49-2.91,1.07-1.06,2.35-.41,3.37,.3,4.02,2.8,6.57,6.59,7.46,11.45Z"/>
      <path class="cls-9" d="M360.13,115.42c3.9-.36,6.18-3.97,9.83-4.84,.43,.4,.86,1.2,1.26-.02,0,0-.09,.04-.09,.04,4.33,.82,8.51,1.81,12.09-2.36,1.42-1.66,4.11-1.9,6.46-.97,.53,2.19-.84,3.25-2.57,3.76-8.46,2.46-17.12,3.95-25.84,5.09-.35,.05-.76-.45-1.15-.69Z"/>
      <path class="cls-8" d="M215.9,181.77c1.63,5.35,4.43,9.63,10.25,11.13-3.74,1.2-7.46,.27-11.19-.06,1.29-3.37-1.94-4.71-3.48-6.23-1.52-1.5-2.66-2.83-3.12-4.83,2.52,0,5.03,0,7.55,0Z"/>
      <path class="cls-5" d="M306.66,99.41c-.3-1.79-.59-3.58-.89-5.36,1.23-.06,2.47-.12,3.7-.19,.74,.98,1.36,.78,1.88-.2,.3-.13,.6-.13,.89,.02,1.15,2.98,2.06,6.1,4.31,8.5,1.37,1.46,1.32,2.72-.28,3.88-1.8,1.31-2.09-.23-3.33-1.17-2.25-1.7-2.82-5.35-6.29-5.49Z"/>
      <path class="cls-8" d="M320.73,177.84c.75-1.41,3.48,.04,3.48-2.31,0-1.64-2.15-.98-2.69-2.17,4.39-2.65,4.48-2.71,7.14,1.46,1.57,2.47,4.8,4.09,4.2,7.74-4.04-1.57-8.09-3.14-12.13-4.72Z"/>
      <path class="cls-12" d="M25.91,109.76c-1.18,2.13-.1,4.28-.05,6.41-.04,.28-.06,.56-.06,.84-1.24,.1-2.31,.78-3.43,1.11-3.79,1.11-6.58,4.59-10.84,4.43,4.46-4.65,9.1-9.08,14.39-12.79Z"/>
      <path class="cls-4" d="M11.52,122.56c4.26,.16,7.06-3.33,10.84-4.43,1.12-.33,2.19-1.01,3.43-1.11,.04,.41,.08,.82,.13,1.24-.96,.85-1.92,1.71-2.87,2.56-4.78,1.09-8.59,4.23-12.99,6.15-1.88,.82-3.66,1.7-5.78,1.41,1.06-1.93,3.04-2.68,4.79-3.73,1.12,.02,1.79-.48,1.9-1.64,.1-.25,.28-.4,.54-.45Z"/>
      <path class="cls-7" d="M410.51,170.51c-5.83-1.99-10.59-6.36-16.79-7.53-3.97-1.76-7.89-3.69-12.39-3.59-.24-.34-.49-.67-.73-1.01,.61-.88,1.54-1.14,2.47-.87,9.36,2.75,18.63,5.71,26.73,11.39,.41,.29,.49,1.06,.72,1.61Z"/>
      <path class="cls-7" d="M366.62,35.77c.05,6.76,.15,13.53-3.08,20.35-1.75-3.15,1.02-5.69,.16-8.28-.07-.26-.07-.52,0-.78,1.69-3.78,1.35-7.61,.23-11.45-.06-.26-.09-.53-.12-.79-.02-1.87-.04-3.74-.07-5.6,2.49,1.51,2.36,4.18,2.89,6.55Z"/>
      <path class="cls-7" d="M18.3,149.93c-1.62,.04-3.23,.08-4.85,.12-4.18-2.62-8.26-5.36-11.23-9.41,6.05,3.06,12.76,4.83,18.17,9.17-.7,.04-1.39,.08-2.09,.12Z"/>
      <path class="cls-5" d="M414.29,54.21c.73-7.99,1.34-15.99,.94-24.03-.08-1.64,.51-3.45-.98-4.82-.27-2.22-.54-4.43-.81-6.65,2.25,.93,1.76,3.11,2.02,4.81,1.55,10.29,1.8,20.55-1.17,30.68Z"/>
      <path class="cls-9" d="M381.33,159.38c4.51-.09,8.42,1.83,12.39,3.59-.06,.41-.13,.82-.19,1.24-4.76,.15-9.9,1.23-12.2-4.83Z"/>
      <path class="cls-12" d="M363.91,35.61c1.12,3.84,1.47,7.66-.23,11.45-3.71-4.16-3.75-6.58-.15-9.82,.13-.54,.25-1.08,.37-1.63Z"/>
      <path class="cls-15" d="M380.54,57.01c-.44-4.56,1.09-9.24-.86-13.7-.02-.33-.04-.66-.07-.99,1.54-1.29,.82-3.04,.95-4.62,1.89,6.44,1.84,12.87-.03,19.31Z"/>
      <path class="cls-12" d="M363.73,29.22c.02,1.87,.04,3.74,.06,5.6-.4,.02-.79,.03-1.19,.05-1.8-.73-3.3-1.73-3.52-3.89-.62-2.4,1.8-2.48,2.79-3.65,.31,.02,.62,.03,.93,.04l-.02-.02c.01,.79,.18,1.5,.96,1.9l-.02-.03Z"/>
      <path class="cls-15" d="M435.13,256.8c.35-4.19,3.44-7.03,5.22-10.51,.43,.39,.86,.77,1.28,1.16-1.62,3.5-3.2,7.03-6.51,9.35Z"/>
      <path class="cls-5" d="M354.22,199.55c1.06,1.21,3.33,1.62,1.88,4.3-.55,1.01,1.41,2.09,2.93,2.2,.01,.62,.02,1.25,.03,1.87-.74,.39-.92,1.05-.89,1.82-.12,.11-.24,.22-.36,.33-3.6-2.69-3.23-6.73-3.59-10.52Z"/>
      <path class="cls-8" d="M336.3,184.36c.66-1.7,1.57-3.15,3.7-2.19,2.81,1.25,1.61,3.47,1.13,5.47-1.79-.83-3.58-1.66-4.84-3.28Z"/>
      <path class="cls-8" d="M174.73,81.05c.56,4.58-3.65,2.53-5.47,3.56-1.28,.73-.84-1.61-.94-2.67,2.08-.68,4.18-1.29,6.41-.89Z"/>
      <path class="cls-8" d="M368.23,156.94c1.39-2.44,3.18-1.11,4.88-.51,1.46,.23,3.46-.6,3.72,1.93-3.06,.69-5.99,.59-8.6-1.42Z"/>
      <path class="cls-8" d="M227.04,78.07c-2.77,1.19-5.53,1.21-8.29-.02,2.77-.97,5.53-1.03,8.29,.02Z"/>
      <path class="cls-8" d="M182.21,190.94c2.93-1.41,5.71-1.14,8.33,.79-2.84,.46-5.57-.35-8.33-.79Z"/>
      <path class="cls-8" d="M203.73,78.56c-1.72,1.91-3.63,1.51-5.58,.42,1.79-1.04,3.66-1.03,5.58-.42Z"/>
      <path class="cls-8" d="M167.33,82c-1.34,2.2-3,1.89-4.78,.62,1.5-.92,3.12-.91,4.78-.62Z"/>
      <path class="cls-8" d="M190.63,79.4c-1.34,2.1-2.97,1.52-4.65,.51,1.47-.91,3.03-.93,4.65-.51Z"/>
      <path class="cls-8" d="M197.17,192c1.37-1.26,2.65-1.47,3.76,.32-1.3,.48-2.56,.45-3.76-.32Z"/>
      <path class="cls-8" d="M181.28,80.32c-1.03,1.89-2.32,1.66-3.73,.47,1.15-.88,2.42-.89,3.73-.47Z"/>
      <path class="cls-5" d="M360.91,212.62c-1.46-.33-2.45-1.23-3.11-2.55,.12-.11,.24-.21,.36-.32,.62,.01,1.23,.03,1.85,.04,.99,.55,.84,1.66,1.23,2.51l-.33,.33Z"/>
      <path class="cls-15" d="M432.19,260.46c-.12-2.08,1.01-3.19,2.89-3.72-.17,1.85-1.16,3.07-2.89,3.72Z"/>
      <path class="cls-4" d="M443.26,84.31c.38-1.61-1.03-3.95,1.84-4.56-.13,1.71-.81,3.21-1.84,4.56Z"/>
      <path class="cls-7" d="M332.99,210.83c-.98-.03-1.97-.06-2.95-.09,1.21-1.64,2.97-1.86,4.82-1.81-.13,1.11-.91,1.6-1.87,1.9Z"/>
      <path class="cls-8" d="M235.45,79.03c-1.16,1.07-2.1,.98-2.77-.52,1.04-.47,1.97-.31,2.77,.52Z"/>
      <path class="cls-9" d="M309.46,176.09c1.12-1.25,2.08-1.14,2.89,.33-1.04,.54-2.01,.45-2.89-.33Z"/>
      <path class="cls-15" d="M427.36,264.78c.83-1.01,1.56-2.12,2.92-2.52-.31,1.61-1.51,2.18-2.92,2.52Z"/>
      <path class="cls-4" d="M397.41,125.16c.28-1.09,.69-1.84,1.82-.69-.61,.23-1.21,.46-1.82,.69Z"/>
      <path class="cls-7" d="M360.93,61.05c-.07,.88-.09,1.98-1.15,2.08-1.04,.09-.58-1.08-.87-1.65,.23-.21,.47-.39,.72-.55,.43,.04,.87,.08,1.3,.12h0Z"/>
      <path class="cls-8" d="M316.97,176.96c.95-1.19,1.48-.65,1.88,.45-.74,.32-1.36,.15-1.88-.45Z"/>
      <path class="cls-9" d="M311.36,93.65c-.53,.99-1.14,1.18-1.88,.2,.55-.74,1.18-.84,1.88-.2Z"/>
      <path class="cls-4" d="M435.12,98.2c-.29-1.44,.03-2.43,1.74-2.43-.18,1.1-.77,1.9-1.74,2.43Z"/>
      <path class="cls-12" d="M10.98,123c-.11,1.16-.78,1.66-1.9,1.64,.36-.86,.96-1.45,1.9-1.64Z"/>
      <path class="cls-15" d="M430.25,262.32c.25-1.03,.87-1.67,1.91-1.92-.11,1.17-.72,1.83-1.91,1.92Z"/>
      <path class="cls-4" d="M388.58,174.11c-1.24-.07-2-.7-2.28-1.91,1.07,.27,1.77,.98,2.28,1.91Z"/>
      <path class="cls-15" d="M379.69,60.82c-.11-.91-.19-1.81,.66-2.46,.24,.94,.14,1.8-.66,2.46Z"/>
      <path class="cls-5" d="M362.6,34.87c.4-.02,.79-.03,1.19-.05,.02,.27,.06,.53,.12,.79-.12,.54-.25,1.08-.37,1.63-.31-.79-.62-1.58-.93-2.37Z"/>
      <path class="cls-8" d="M365.6,154.58c-.02,.42-.03,.84-.05,1.26-.92-.02-1.75-.24-2.35-1,.8-.09,1.6-.17,2.4-.26Z"/>
      <path class="cls-4" d="M445.26,79.12c-.1-.84-.07-1.63,.75-2.16,.11,.85-.06,1.59-.75,2.16Z"/>
      <path class="cls-15" d="M85.8,48.91c-.11,.82-.19,1.67-1.4,1.35,.46-.45,.93-.9,1.4-1.35Z"/>
      <path class="cls-8" d="M232.81,192.53c.63-.15,1.26-.3,1.89-.45-.52,.59-1.15,.74-1.89,.45Z"/>
      <path class="cls-8" d="M242.6,81.74c-.47-.26-.93-.51-1.4-.77,.68-.13,1.15,.13,1.4,.77Z"/>
      <path class="cls-5" d="M331.54,63.97c.89,0,1.77,0,2.66,0-.89,.8-1.77,.76-2.66,0Z"/>
      <path class="cls-5" d="M334.92,209.03c-.04-.72-.09-1.44-.13-2.17,.94,.67,1.19,1.38,.13,2.17Z"/>
      <path class="cls-4" d="M437.67,94.67c0-.79,.21-1.46,1.05-1.76,0,.79-.35,1.38-1.05,1.76Z"/>
      <path class="cls-4" d="M439.5,91.76c.03-.72,.22-1.35,.94-1.68-.31,.56-.63,1.12-.94,1.68Z"/>
      <path class="cls-4" d="M440.48,90c0-.76,.16-1.42,.93-1.78,.04,.78-.3,1.35-.93,1.78Z"/>
      <path class="cls-4" d="M441.45,88.15c-.04-.77,.13-1.44,.9-1.81,.05,.78-.25,1.38-.9,1.81Z"/>
      <path class="cls-4" d="M442.37,86.28c-.03-.75,.12-1.42,.85-1.81,.09,.78-.25,1.35-.85,1.81Z"/>
      <path class="cls-4" d="M390.8,176.1c-.28-.26-.57-.53-.85-.79,.28,.26,.57,.53,.85,.79Z"/>
      <path class="cls-8" d="M238.19,79.79c-.22-.03-.42-.11-.6-.24,0,0,.37-.11,.37-.11l.23,.35Z"/>
      <path class="cls-9" d="M393.6,106.75c.04,.38,.08,.75,.11,1.13-.29,.1-.59,.19-.88,.3-.08-.15-.12-.31-.13-.49,.3-.31,.59-.63,.89-.94Z"/>
      <path class="cls-8" d="M179.43,190.71c.21-.06,.41-.15,.62-.17,.07,0,.16,.17,.23,.26-.3,.16-.59,.13-.86-.08Z"/>
      <path class="cls-8" d="M429.33,16.14c.25,.35,.51,.7,.76,1.05-.25-.35-.51-.7-.76-1.05Z"/>
      <path class="cls-8" d="M176.39,190.23c.31,.05,.62,.11,.93,.16-.22,.03-.45,.09-.67,.09-.09,0-.17-.16-.26-.25Z"/>
      <path class="cls-1" d="M153.31,74.93c-.33-.33-.67-.66-1-.99,.33,.33,.67,.66,1,.99Z"/>
      <path class="cls-4" d="M431.15,103.22c.29-.33,.58-.65,.87-.98-.29,.33-.58,.65-.87,.98Z"/>
      <path class="cls-4" d="M402.17,123.31c.29-.17,.58-.34,.87-.52-.29,.17-.58,.34-.87,.52Z"/>
      <path class="cls-4" d="M432.07,102.18c.25-.3,.5-.61,.75-.91-.25,.3-.5,.61-.75,.91Z"/>
      <path class="cls-4" d="M432.97,101.09c.2-.25,.4-.51,.59-.76-.2,.25-.4,.51-.59,.76Z"/>
      <polygon class="cls-4" points="433.92 99.85 434.19 99.55 434.22 99.84 433.92 99.85"/>
      <path class="cls-4" d="M404.02,122.45c.34-.18,.68-.37,1.01-.55-.34,.18-.68,.37-1.01,.55Z"/>
      <path class="cls-12" d="M53.06,82.65c-.27,.29-.54,.58-.81,.88,.27-.29,.54-.58,.81-.88Z"/>
      <path class="cls-4" d="M436.81,95.79c.27-.35,.54-.69,.81-1.04-.27,.35-.54,.69-.81,1.04Z"/>
      <path class="cls-5" d="M352.55,197.64c.29,.32,.59,.63,.88,.95-.29-.32-.59-.63-.88-.95Z"/>
      <path class="cls-4" d="M438.68,92.96c.25-.35,.49-.69,.74-1.04-.25,.35-.49,.69-.74,1.04Z"/>
      <path class="cls-12" d="M34.22,101.96c-.38,.35-.75,.7-1.13,1.05,.38-.35,.75-.7,1.13-1.05Z"/>
      <path class="cls-4" d="M383.13,169.6c-.24-.09-.43-.23-.58-.44,.34-.06,.54,.08,.58,.44Z"/>
      <path class="cls-4" d="M384.31,170.48c-.31-.24-.62-.47-.93-.71,.31,.24,.62,.47,.93,.71Z"/>
      <path class="cls-4" d="M385.34,171.38c-.33-.29-.66-.58-.99-.86,.33,.29,.66,.58,.99,.86Z"/>
      <path class="cls-4" d="M386.36,172.27c-.35-.3-.7-.61-1.04-.91,.35,.3,.7,.61,1.04,.91Z"/>
      <path class="cls-4" d="M4.38,128.32c-.32,.34-.65,.67-.97,1.01,.32-.34,.65-.67,.97-1.01Z"/>
      <path class="cls-4" d="M395.77,125.76c.16-.09,.33-.16,.5-.21,0,0-.18,.33-.18,.33l-.32-.12Z"/>
      <path class="cls-14" d="M183.15,90.01c10.4-.35,20.78-1.17,31.22-.97,7,.14,13.9,.93,20.81,1.91,3.28,.47,5.55,2.08,4.78,5.48-.75,3.34-3.54,3.22-6.42,2.51-4.53-1.11-9.28-.94-13.86-1.18-14.27-.76-28.6-2.06-42.89-1.05-18.68,1.32-37.41,1.95-56.04,4.34-12.7,1.63-25.37,3.37-38.3,5.49,.07-2.12,1.38-2.21,2.75-2.47,12.47-2.34,24.88-4.97,37.39-7.05,17.25-2.87,34.62-4.91,52.09-6.05,2.84-.2,5.57-1.33,8.47-.96Z"/>
      <path class="cls-14" d="M215.9,181.77c-2.52,0-5.03,0-7.55,0-17.82-.33-35.53-1.92-53.28-3.58-23.14-2.17-45.86-6.65-68.69-10.59-1.81-.31-3.52-1.17-5.28-1.77,0-.33,0-.65,0-.98,6.16-.29,11.72,2.69,17.81,3.09,8.17,.54,16.32,1.53,24.44,2.59,13.83,1.81,27.75,2.75,41.65,3.49,12.12,.65,24.32,.34,36.47,.04,8.92-.22,17.83-1.12,26.75-1.68,2.01-.13,3.99,0,6-.64,2.67-.84,5.16-.24,5.83,2.89,.63,2.91-.77,4.75-3.81,5.28-6.73,1.18-13.55,1.44-20.35,1.85Z"/>
      <path class="cls-13" d="M18.3,149.93c.7-.04,1.39-.08,2.09-.12,9.54,3.74,19.06,7.56,28.64,11.21,7.85,2.99,15.77,5.79,23.65,8.67-.18,3.07-.38,6.03,4.18,5.87,1.15-.04,2.33,.9,2.38,2.44-9.13-1.6-17.27-5.92-25.55-9.68-11.44-5.2-22.56-11.1-33.79-16.75-.65-.32-1.08-1.08-1.61-1.63Z"/>
      <path class="cls-5" d="M130.68,105.58c3.64,1.16,3.55-1.01,3.56-3.34,2.01,3.89,4.3,6.95,8.1,8.66,2.17,.98,1.05,2.93,.86,4.92,3.56-.58,8.08-1.67,9.24,2.31,.65,2.22,1.81,3.57,2.88,5.23,1.49,2.32,2.98,4.61,5.18,6.42,1.77,1.45,1.07,3.09-.5,4.31-1.73,1.34-2.84,.93-3.16-1.33-.18-1.26-.98-1.33-2.05-1.01-1.32,.39-2.17-.24-2.27-1.56-.28-3.78-2.9-6.08-5.53-8.07-3.76-2.84-6.66-6.79-11.52-8.26-3.59-1.09-1.38-6.03-4.79-8.28Z"/>
      <path class="cls-5" d="M112.3,147.02c5.44-2.39,7.97-1.11,10.04,3.36,1.76,3.79,3.91,7.52,7.38,10.18,.8,.61,2.27,1.06,1.27,2.43-.99,1.36-2.05,3.06-3.76,3.3-1.58,.22-1.02-1.52-1.24-2.47-.07-.3-.17-.84-.25-.84-5.61-.05-3.89-6.43-7.28-8.39-3.78-2.18-6.69-5.32-9.54-8.56-.76-.86-2.09-1.24-3.2-1.75-4.17-1.91-4.81-3.93-2.55-8.14,.45-.83-.86-1.79,.77-3.03,1.51,4.16,4.16,7.24,8.1,9.21,1.7,.85,.2,2.81,.24,4.71Z"/>
      <path class="cls-5" d="M254.3,164.09c-.79,1.38-1.26,2.99-2.78,3.84-.15-3.56-3.79-4.49-5.41-7.09-3.78-6.05-8.87-11.02-15.61-14.14-2.57-1.19-1.5-4.41-2.02-6.71-.22-.97,.31-2.11,.49-3.17h0c2.73,4.15,8.73,5.46,9.74,11.15,.05,.28,.71,.72,.96,.64,6.63-2,7.93,3.75,10.43,7.39,1.7,2.47,4.28,4.63,4.19,8.08Z"/>
      <path class="cls-5" d="M23.05,120.81c.96-.85,1.92-1.71,2.87-2.56,.62-.03,1.23-.05,1.85-.08,1.29,3.15,2.95,5.89,5.93,7.91,2.89,1.96,2.46,5.15-.47,6.52-.75,.35-1.65,.64-2.11-.1-2.53-4.01-6.23-7.21-8.07-11.69Z"/>
      <path class="cls-3" d="M79.24,177.99c-.05-1.54-1.24-2.48-2.38-2.44-4.57,.16-4.36-2.81-4.18-5.87,3.34,1.48,7.33,1.02,10.34,3.49,.04,2.13-2.47,3.42-1.89,5.73-.78,0-1.47-.17-1.88-.91Z"/>
      <path class="cls-8" d="M183.15,90.01c-2.9-.37-5.63,.76-8.47,.96-.88-5.86-.87-5.75,4.81-6.15,4.33-.3,3.31,2.86,3.66,5.19Z"/>
      <path class="cls-3" d="M262.68,113.43c1.37,.02,2.8-.18,4.11,.12,1.57,.36,3.47,.87,2.31,3.28-.33,.68-.97,1.48,.08,1.81,1.07,.34,1.51-.75,1.96-1.53,.31,.34,.62,.67,.92,1.01,.27,1.87,.53,3.75,.8,5.62-2.81-.17-3.42-4.24-6.61-3.73-1.19-2.19-2.38-4.39-3.57-6.58Z"/>
      <path class="cls-8" d="M81.11,164.86c0,.33,0,.65,0,.98-5.63-.1-10.97-1.58-16.19-3.81,5.56-.12,10.98,.68,16.19,2.83Z"/>
      <path class="cls-8" d="M60.22,110.95c5.32-2.34,10.68-4.47,16.6-4.3-5.03,3.39-11.13,2.68-16.6,4.3Z"/>
      <path class="cls-3" d="M258.83,108.82c1.43-.02,.64-3.45,2.43-1.97,.82,.67,4.11,2.93,.37,4.76-1.67-.19-2.56-1.17-2.8-2.79Z"/>
      <path class="cls-5" d="M225.63,138.95c.11-.26,.22-.52,.33-.78,.26,.11,.66,.17,.73,.35,.07,.19-.18,.5-.29,.76-.26-.11-.52-.22-.78-.34Z"/>
      <path class="cls-5" d="M228.97,136.83c-.67-.12-1.47-.1-1.41-1.12,0-.11,.18-.28,.29-.29,1.03-.06,1,.73,1.12,1.41,0,0,0,0,0,0Z"/>
      <path class="cls-7" d="M330.05,210.74c-3.72,4.27-8.45,7.4-11.28,12.76-6.59,12.51,.44,28.56,14.93,32.99,5.3,1.62,10.07-.06,15.05-.86-3.9,3.9-8.93,3.21-13.52,2.63-10.11-1.26-18.4-9.41-20.08-18.86-1.95-10.98,3.09-22.83,11.8-27.91,1-.58,1.98-.84,3.09-.76Z"/>
      <path class="cls-5" d="M272.86,123.74c-.27-1.87-.53-3.75-.8-5.62,3.4-.23,5.42,.52,6.89,4.42,1.44,3.84,4.08,7.58,7.41,10.45,.56,.49,1.56,.6,1.1,1.63-.61,1.36-1.86,2.03-3.17,2.59-1.16,.49-1.43-.77-2.01-1-3.83-1.55-2.96-7.97-8.25-7.81-.11-1.62-.2-3.25-1.17-4.65Z"/>
      <path class="cls-5" d="M379.61,42.32c.02,.33,.04,.66,.07,.99-.02,.3-.05,.59-.1,.88-4.88,2.3-5.92-2.73-8.16-4.76-1.53-1.38-2.68-3.08-4.8-3.67-.53-2.38-.4-5.04-2.89-6.55,0,0,.02,.03,.02,.03,0-.79-.14-1.52-.96-1.9,0,0,.02,.02,.02,.02,.02-.62,.04-1.25,.06-1.87,1.54,0,3.08-.01,4.61,.03,1.15,.03,2.28,.45,2.51,1.64,1.2,6.35,7.05,9.71,9.62,15.16Z"/>
      <path class="cls-7" d="M428.29,85.35c.66-4.6,3.8-8.05,5.65-12.1,4.24-9.26,5.03-19.11,5.59-29.04,.31,0,.61,0,.92,0,.64,13.48-1.35,26.33-9.02,37.84-.87,1.3-1.59,2.69-3.15,3.3Z"/>
      <path class="cls-7" d="M362.78,244.43c.85-5.74,2.36-11.34,1.99-17.29-.31-4.93-1.85-9.63-1.99-14.54,5.17,7.95,5.17,24.46,0,31.83Z"/>
      <path class="cls-15" d="M440.46,44.21c-.31,0-.61-.01-.92,0-1.16-6.93-2.45-13.83-4.62-20.54,2.64,.55,2.2,3.03,2.87,4.74,1.98,5.07,2.81,10.36,2.68,15.8Z"/>
      <path class="cls-7" d="M405.83,104.06c.3-2.42,2.58-2.8,4.11-3.91,3.58-2.59,7.23-5.09,10.85-7.63,.23,2.21-1.35,3.41-2.82,4.4-3.89,2.62-7.4,5.94-12.13,7.13Z"/>
      <path class="cls-7" d="M335.73,166.66c-.36,.37-.71,.73-1.07,1.1-3.33-1.42-6.66-2.83-9.99-4.25l.46-1.13c3.63,1.15,7.56,1.41,10.6,4.27Z"/>
      <path class="cls-7" d="M392.84,108.18c.29-.1,.58-.2,.88-.3,2.81-.56,5.33-2.39,8.38-1.94-1.84,2.08-4.51,2.5-6.91,3.45-1.16,.46-2.15,.34-2.34-1.21Z"/>
      <path class="cls-7" d="M355.3,251.9c1.51-2,2.8-4.26,5.62-4.69-.76,2.89-2.41,4.73-5.62,4.69Z"/>
      <path class="cls-7" d="M424.52,90.25c.43-2.26,.81-4.56,3.76-4.89-.15,2.48-2.16,3.53-3.76,4.89Z"/>
      <path class="cls-7" d="M361.24,212.29c-.39-.85-.23-1.96-1.23-2.51-.01-.62-.02-1.23-.04-1.85h.01c1.89,.98,2.49,2.75,2.8,4.69-.52-.11-1.04-.22-1.56-.33Z"/>
      <path class="cls-7" d="M360.92,61.04c.11-1.15-.12-2.42,1.42-3.33,.36,1.6-.46,2.49-1.41,3.33,0,0,0,0,0,0Z"/>
      <path class="cls-7" d="M360.91,247.23c-.08-1.41-.03-2.74,1.88-2.82-.01,1.35-.62,2.31-1.88,2.82Z"/>
      <path class="cls-7" d="M352.49,253.77c.52-1.26,1.47-1.87,2.81-1.88-.07,1.92-1.41,1.94-2.81,1.88Z"/>
      <path class="cls-7" d="M348.74,255.65c.4-.78,1.11-.94,1.89-.95-.37,.83-1.09,.96-1.89,.95Z"/>
      <path class="cls-7" d="M350.61,254.71c.4-.77,1.1-.95,1.89-.95-.37,.83-1.09,.96-1.89,.95Z"/>
      <path class="cls-7" d="M421.44,91.89c.62-.76,1.43-1.05,2.39-.95-.59,.83-1.42,1.06-2.39,.95Z"/>
      <path class="cls-7" d="M358.08,65c.11,.04,.22,.08,.33,.12-.13,.12-.25,.24-.38,.36-.08-.09-.16-.18-.24-.27,.1-.07,.2-.14,.29-.22Z"/>
      <path class="cls-7" d="M359.06,207.93c0-.62-.02-1.25-.03-1.87,.8,.38,.95,1.09,.97,1.87,0,0-.01,.01-.01,.01-.31,0-.61,0-.92-.01Z"/>
      <path class="cls-3" d="M330.74,121.48c.04-.11,.08-.31,.13-.32,.13,0,.27,.07,.4,.11-.04,.11-.08,.31-.13,.32-.13,0-.27-.07-.4-.11Z"/>
      <path class="cls-7" d="M402.09,105.94c.34-.87,1.06-1,1.87-.94-.38,.8-1.08,.96-1.87,.94Z"/>
      <path class="cls-7" d="M403.96,105c.34-.88,1.05-1.01,1.87-.93-.37,.81-1.08,.96-1.87,.93Z"/>
      <path class="cls-15" d="M89.5,181.78c1.28,1.43,3.62,1,4.73,2.72,.31,3.33,2.36,5.57,4.9,7.38,.82,.59,1.81,.93,.98,2.01-1.03,1.34-2.05,2.97-3.78,3.31-1.24,.24-1.04-1.18-1.21-2.06-.11-.58-.2-1.35-.6-1.66-1.98-1.54-10.49-10.83-11.52-12.74,2.17,.35,4.33,.7,6.5,1.04Z"/>
      <path class="cls-3" d="M89.5,181.78c-2.17-.35-4.33-.7-6.5-1.04,0-.6-.02-1.2-.03-1.8,.67-4.59,3.83-1.98,5.64-1.58,2.61,.58,1.8,2.68,.88,4.43Z"/>
      <path class="cls-7" d="M439.47,229.45c.44-14.67-2.88-28.32-10.89-40.73-.23-.36-.19-.9-.28-1.35,4.83,2.11,5.4,7.22,7.47,11.12,5.14,9.68,5.15,20.32,4.65,30.95-.31,0-.63,0-.95,.01Z"/>
      <path class="cls-1" d="M439.47,229.45c.32,0,.63,0,.95-.01-.52,7.41-2.78,14.39-5.48,21.23-.86,2.18-1.18,2.15-2.86,1.26,3.37-6.27,4.7-13.19,6.4-20,.22-.88,.13-1.86,.99-2.48Z"/>
      <path class="cls-7" d="M428.29,187.35c-2.14-1.37-4.11-2.86-3.74-5.84,1.79,1.6,4.13,2.84,3.74,5.84Z"/>
      <path class="cls-7" d="M419.87,178c-2.2-.29-3.49-1.49-3.74-3.74,2.22,.27,3.53,1.45,3.74,3.74Z"/>
      <path class="cls-7" d="M414.25,173.32c-1.22-.03-1.88-.61-1.86-1.86,1.24,0,1.89,.59,1.86,1.86Z"/>
      <path class="cls-7" d="M412.38,171.45c-.8,.05-1.49-.1-1.86-.93,.8-.05,1.49,.1,1.86,.93Z"/>
      <path class="cls-7" d="M416.13,174.26c-.8,.05-1.49-.13-1.86-.93,.8-.05,1.49,.12,1.86,.93Z"/>
      <path class="cls-7" d="M421.07,178.93c-.4-.31-.8-.62-1.2-.93,.4,.31,.8,.62,1.2,.93Z"/>
      <path class="cls-7" d="M321.63,19.63c-.13,.9,.05,2.03-.42,2.68-6.09,8.41-4.92,17.42-2.39,26.57-.53-.26-1.31-.38-1.55-.81-4.67-8.09-2.5-21.99,4.36-28.44Z"/>
      <path class="cls-7" d="M352.51,16.14c-8.73-4.3-17.47-3.28-26.2,0,6.53-6.41,21.58-6.4,26.2,0Z"/>
      <path class="cls-7" d="M325.15,57.29c3.03-.13,4.96,1.72,6.78,3.77-2.99,.06-4.88-1.86-6.78-3.77Z"/>
      <path class="cls-7" d="M357.18,19.89c-1.78-.09-2.75-1-2.82-2.81,1.79,.08,2.78,.97,2.82,2.81Z"/>
      <path class="cls-7" d="M362.87,25.5c-.02,.62-.04,1.25-.06,1.87-.31,0-.62-.02-.93-.04-.64-1.16-1.14-2.35-.97-3.72,.65,.63,1.31,1.26,1.96,1.89Z"/>
      <path class="cls-7" d="M318.82,48.87c1.3,.49,1.83,1.5,1.88,2.82-1.91-.09-1.99-1.39-1.88-2.82Z"/>
      <path class="cls-7" d="M326.3,16.14c.02,1.26-.64,1.85-1.87,1.87-.02-1.27,.65-1.84,1.87-1.87Z"/>
      <path class="cls-7" d="M359.25,21.77c-1.08-.21-1.71-.9-2.08-1.89,1.3-.04,1.85,.75,2.08,1.89Z"/>
      <path class="cls-7" d="M354.37,17.08c-.81,.05-1.49-.17-1.88-.94,.79,0,1.51,.12,1.88,.94Z"/>
      <path class="cls-7" d="M320.68,51.67c.78,.4,.97,1.1,.95,1.9-.81-.39-.96-1.1-.95-1.9Z"/>
      <path class="cls-7" d="M360.93,23.64c-.82-.38-.95-1.14-1.06-1.91,.86,.36,1.04,1.09,1.06,1.91Z"/>
      <path class="cls-7" d="M324.42,18.01c-.43,.94-1.24,1.02-2.12,.93,.54-.68,1.23-1.05,2.12-.93Z"/>
      <path class="cls-7" d="M321.61,53.55c.32,.32,.63,.63,.95,.95-.32-.32-.63-.63-.95-.95Z"/>
      <path class="cls-7" d="M331.9,61.02c.33,.32,.67,.64,1,.97-.33-.32-.67-.64-1-.97Z"/>
      <path class="cls-7" d="M322.55,54.48c.31,.31,.63,.63,.94,.94-.31-.31-.63-.63-.94-.94Z"/>
      <path class="cls-7" d="M323.5,55.43c.31,.39,.63,.77,.94,1.16-.31-.38-.63-.77-.94-1.16Z"/>
      <path class="cls-7" d="M362.79,27.34c.82,.38,.95,1.11,.96,1.9-.78-.4-.94-1.11-.96-1.9Z"/>
      <path class="cls-12" d="M359.06,207.93c.31,0,.61,0,.92,.01,.01,.62,.02,1.23,.04,1.85-.62-.01-1.23-.03-1.85-.04-.04-.77,.15-1.43,.89-1.82Z"/>
    </g>
  </g>
</svg>